<?xml version="1.0" encoding="utf-8"?>
<!-- Generator: $$$/GeneralStr/196=Adobe Illustrator 27.6.0, SVG Export Plug-In . SVG Version: 6.00 Build 0)  -->
<svg version="1.1" id="Calque_1" xmlns="http://www.w3.org/2000/svg" xmlns:xlink="http://www.w3.org/1999/xlink" x="0px" y="0px"
	 width="124.01px" height="511.35px" viewBox="0 0 124.01 511.35" style="enable-background:new 0 0 124.01 511.35;"
	 xml:space="preserve">
<style type="text/css">
	.st0{fill:#2E1000;}
	.st1{fill:#78AD72;}
	.st2{fill:#056737;}
	.st3{fill:#1E9334;}
	.st4{fill:#05432E;}
	.st5{fill:#ED7AA9;}
	.st6{fill:#B72885;}
	.st7{fill:#E95563;}
	.st8{fill:#7D2921;}
	.st9{display:none;}
	.st10{display:inline;fill:none;}
	.st11{display:inline;fill:#4F2921;}
	.st12{font-family:'LilitaOne';}
	.st13{font-size:24px;}
	.st14{fill:#4F2921;}
</style>
<g>
	<g>
		<g>
			<path class="st0" d="M2.8,412.21c2.03-3.52,4.06-7.05,6.08-10.57c4.87-8.46,9.73-16.92,14.6-25.37
				c5.86-10.19,11.73-20.38,17.59-30.57c5.07-8.81,10.14-17.62,15.21-26.42c1.68-2.92,3.36-5.84,5.04-8.77
				c0.77-1.33,1.76-2.69,2.36-4.11c0.03-0.07,0.07-0.13,0.11-0.19c-0.86,0-1.73,0-2.59,0c2,3.53,3.99,7.05,5.99,10.58
				c4.77,8.43,9.55,16.86,14.32,25.29c5.77,10.19,11.54,20.39,17.31,30.58c5,8.84,10.01,17.68,15.01,26.53
				c2.41,4.26,4.67,8.67,7.26,12.83c0.04,0.06,0.07,0.12,0.1,0.18c0.95,1.68,3.54,0.17,2.59-1.51c-2-3.53-3.99-7.05-5.99-10.58
				c-4.77-8.43-9.55-16.86-14.32-25.29c-5.77-10.19-11.54-20.39-17.31-30.58c-5-8.84-10.01-17.68-15.01-26.53
				c-2.41-4.26-4.67-8.67-7.26-12.83c-0.04-0.06-0.07-0.12-0.1-0.18c-0.55-0.98-2.03-0.97-2.59,0c-2.03,3.52-4.06,7.05-6.08,10.57
				c-4.87,8.46-9.73,16.92-14.6,25.37c-5.86,10.19-11.73,20.38-17.59,30.57c-5.07,8.81-10.14,17.62-15.21,26.42
				c-2.46,4.28-5.09,8.51-7.41,12.87c-0.03,0.06-0.07,0.13-0.11,0.19C-0.75,412.37,1.84,413.88,2.8,412.21L2.8,412.21z"/>
		</g>
	</g>
	<g>
		<g>
			<path class="st1" d="M91.06,396.6c2.69,0.18,7.23-0.48,9.13-3.04c2.35-3.17,3.04-7.03-0.55-10.59c-1.9-1.88-3.76-0.62-5.59-2.22
				c-0.75-0.66-1.95-2.34-2.38-3.35c-0.49,0.7-1.7,3.83-3.74,3.64c-3.02-0.27-5.24,1.2-6.33,2.07c-1.97,1.56-2.85,4.98-1.91,7.5
				c0.49,1.32,1.39,2.34,2.39,3.07C82.06,393.68,85.67,396.24,91.06,396.6z"/>
			<g>
				<path class="st2" d="M91.06,398.1c2.68,0.16,5.62-0.3,7.98-1.63c2.51-1.41,4.16-4.28,4.52-7.09c0.4-3.13-1.24-6.76-4.02-8.36
					c-0.76-0.44-1.59-0.61-2.45-0.73c-0.59-0.08-1.22-0.13-1.74-0.44c-1.08-0.64-1.89-2.11-2.4-3.22c-0.5-1.09-2.03-0.85-2.59,0
					c-0.47,0.71-0.78,1.51-1.31,2.18c-0.79,0.99-1.51,0.61-2.69,0.73c-2.49,0.24-5.19,1.45-6.76,3.45c-1.78,2.27-2.35,5.61-1.26,8.3
					c0.76,1.87,2.19,3.3,3.93,4.26C84.98,397.05,87.99,397.86,91.06,398.1c1.93,0.15,1.92-2.85,0-3c-2.36-0.18-4.7-0.81-6.81-1.89
					c-1.27-0.65-2.39-1.43-3.03-2.78c-0.93-1.98-0.35-4.78,1.33-6.19c0.59-0.49,1.48-1.02,2.28-1.31c0.6-0.22,1.23-0.38,1.87-0.42
					c0.68-0.04,1.37,0.08,2.04-0.05c2.25-0.43,3.1-2.63,4.22-4.32c-0.86,0-1.73,0-2.59,0c1.05,2.31,2.88,4.56,5.49,4.97
					c0.56,0.09,1.14,0.11,1.68,0.28c0.76,0.24,1.31,0.84,1.79,1.45c0.77,0.98,1.3,2.16,1.31,3.42c0.02,2.14-1.23,4.55-3.12,5.6
					c-1.92,1.08-4.31,1.35-6.47,1.22C89.13,394.98,89.14,397.98,91.06,398.1z"/>
			</g>
		</g>
		<g>
			<path class="st1" d="M101,404.18c2.4,0.16,6.46-0.53,8.19-3.1c2.14-3.18,2.8-7.04-0.36-10.58c-1.67-1.87-3.35-0.59-4.96-2.18
				c-0.66-0.65-1.71-2.32-2.08-3.33c-0.45,0.71-1.57,3.84-3.39,3.67c-2.69-0.25-4.69,1.24-5.68,2.11c-1.78,1.57-2.61,5-1.81,7.51
				c0.42,1.32,1.21,2.32,2.1,3.05C93.01,401.33,96.19,403.86,101,404.18z"/>
			<g>
				<path class="st2" d="M101,405.68c2.42,0.14,5.09-0.36,7.17-1.65c2.4-1.49,3.88-4.35,4.24-7.1c0.39-2.99-0.87-6.55-3.45-8.28
					c-0.6-0.4-1.28-0.63-1.99-0.75c-0.57-0.1-1.23-0.09-1.74-0.4c-0.91-0.55-1.63-1.95-2-2.9c-0.46-1.16-2.03-1.54-2.74-0.36
					c-0.42,0.7-0.71,1.48-1.18,2.16c-0.19,0.27-0.42,0.61-0.71,0.74c-0.15,0.07,0.05-0.01-0.2,0.02c-0.4,0.04-0.83-0.03-1.24,0
					c-2.44,0.22-4.92,1.56-6.38,3.55c-2.9,3.94-1.96,9.79,2.18,12.41C95.37,404.63,98.17,405.46,101,405.68c1.93,0.15,1.92-2.85,0-3
					c-2.16-0.17-4.27-0.83-6.14-1.92c-0.24-0.14-0.47-0.28-0.69-0.43c-0.23-0.16-0.49-0.44-0.1-0.05c-0.81-0.79-1.48-1.51-1.79-2.64
					c-0.51-1.88-0.03-4.36,1.41-5.72c0.61-0.58,1.38-1.08,2.16-1.4c0.51-0.2,1.06-0.34,1.6-0.37c0.6-0.04,1.2,0.08,1.79-0.06
					c2.11-0.52,2.84-2.67,3.83-4.33c-0.91-0.12-1.83-0.24-2.74-0.36c0.87,2.2,2.35,4.74,4.85,5.25c0.54,0.11,1.09,0.11,1.62,0.28
					c0.61,0.19,1.01,0.64,1.38,1.14c0.75,1,1.27,2.2,1.31,3.46c0.07,2.05-0.9,4.6-2.63,5.79c-1.67,1.15-3.88,1.48-5.87,1.37
					C99.07,402.57,99.07,405.57,101,405.68z"/>
			</g>
		</g>
		<g>
			<path class="st1" d="M79.99,399.95c2.29,0.79,6.34,1.19,8.53-0.88c2.7-2.56,4.12-6.18,1.77-10.49c-1.24-2.28-3.11-1.46-4.36-3.45
				c-0.51-0.82-1.19-2.73-1.35-3.82c-0.58,0.57-2.28,3.35-4,2.71c-2.55-0.96-4.77-0.02-5.91,0.57c-2.03,1.07-3.52,4.22-3.25,6.9
				c0.14,1.4,0.7,2.6,1.41,3.55C72.85,395.04,75.42,398.37,79.99,399.95z"/>
			<g>
				<path class="st2" d="M79.59,401.4c2.48,0.83,5.45,1.04,7.91,0.04c2.6-1.06,4.63-3.86,5.24-6.56c0.66-2.93-0.15-6.97-2.72-8.81
					c-0.87-0.63-2.16-0.76-2.79-1.69c-0.66-0.98-1-2.32-1.19-3.47c-0.19-1.13-1.79-1.43-2.51-0.66c-0.57,0.61-1.02,1.32-1.65,1.89
					c-0.2,0.18-0.52,0.45-0.72,0.48c-0.13,0.02-0.49-0.15-0.69-0.21c-0.41-0.11-0.82-0.18-1.24-0.23c-2.46-0.29-5.37,0.61-7.01,2.52
					c-3.15,3.64-2.97,8.95,0.4,12.34C74.58,398.99,76.98,400.46,79.59,401.4c1.82,0.65,2.6-2.25,0.8-2.89
					c-1.96-0.7-3.77-1.83-5.28-3.25c-1.02-0.96-1.59-1.6-1.98-2.93c-0.6-2.04,0.09-4.67,1.75-6.06c0.65-0.55,1.54-0.86,2.36-1.04
					c0.54-0.12,1.12-0.16,1.68-0.09c0.64,0.08,1.22,0.37,1.86,0.45c2.28,0.27,3.53-1.78,4.88-3.21c-0.84-0.22-1.67-0.44-2.51-0.66
					c0.37,2.22,1.33,4.9,3.44,5.99c0.94,0.48,1.86,0.66,2.41,1.64c0.66,1.15,1.03,2.48,0.97,3.81c-0.08,2.05-1.5,4.56-3.4,5.44
					c-1.88,0.87-4.27,0.55-6.18-0.09C78.55,397.89,77.77,400.79,79.59,401.4z"/>
			</g>
		</g>
		<g>
			<path class="st1" d="M108.28,410.79c1.72,0.41,4.78,0.15,6.44-2.21c2.06-2.92,3.16-6.66,1.43-10.48
				c-0.92-2.02-2.34-0.93-3.26-2.66c-0.38-0.71-0.87-2.47-0.98-3.5c-0.44,0.65-1.75,3.62-3.04,3.27c-1.91-0.53-3.6,0.73-4.46,1.49
				c-1.54,1.36-2.69,4.67-2.51,7.22c0.1,1.34,0.51,2.42,1.04,3.23C102.93,407.15,104.85,409.98,108.28,410.79z"/>
			<g>
				<path class="st2" d="M107.88,412.24c2.11,0.46,4.48,0.16,6.29-1.07c2.2-1.49,3.61-4.39,4.11-6.94c0.27-1.42,0.29-2.83,0.03-4.25
					c-0.25-1.38-0.76-3.02-1.87-3.96c-0.4-0.34-0.85-0.55-1.35-0.74c-0.29-0.11-0.56-0.13-0.77-0.36c-0.3-0.33-0.43-0.98-0.54-1.38
					c-0.15-0.52-0.31-1.06-0.37-1.6c-0.18-1.43-1.93-2.1-2.8-0.76c-0.4,0.63-0.71,1.31-1.14,1.92c-0.1,0.15-0.54,0.54-0.55,0.64
					c-0.01,0.06,0.44,0.07,0.19-0.02c-0.34-0.12-0.78-0.14-1.14-0.14c-2.22-0.02-4.38,1.46-5.63,3.23
					c-2.37,3.37-2.86,8.65-0.09,11.91C103.72,410.42,105.71,411.68,107.88,412.24c1.87,0.48,2.67-2.41,0.8-2.89
					c-1.16-0.3-2.23-0.83-3.14-1.61c-0.32-0.28-0.63-0.57-0.92-0.89c-0.09-0.1-0.18-0.21-0.27-0.31c-0.28-0.31,0.02,0.06-0.05-0.05
					c-1.24-2.01-1.08-4.35-0.25-6.5c0.38-0.98,0.92-1.88,1.76-2.52c0.44-0.33,0.93-0.63,1.46-0.79c0.63-0.18,1.11,0.03,1.74,0.05
					c2.21,0.08,3.21-2.5,4.19-4.04c-0.93-0.25-1.86-0.5-2.8-0.76c0.24,1.89,0.68,4.49,2.41,5.61c0.52,0.34,1.32,0.39,1.74,0.8
					c0.41,0.39,0.58,1.26,0.71,1.79c0.15,0.61,0.23,1.22,0.23,1.84c0.01,2.12-0.88,4.63-2.37,6.17c-1.12,1.16-2.99,1.52-4.46,1.2
					C106.8,408.93,105.99,411.82,107.88,412.24z"/>
			</g>
		</g>
		<g>
			<path class="st1" d="M69.3,402.91c1.96,0.72,5.5,0.99,7.52-1.11c2.51-2.6,3.95-6.2,2.13-10.38c-0.96-2.21-2.65-1.35-3.63-3.28
				c-0.4-0.79-0.89-2.66-0.97-3.73c-0.54,0.58-2.18,3.37-3.66,2.78c-2.18-0.87-4.18,0.11-5.21,0.73c-1.84,1.11-3.31,4.26-3.22,6.89
				c0.05,1.38,0.47,2.54,1.04,3.46C63.3,398.27,65.38,401.47,69.3,402.91z"/>
			<g>
				<path class="st2" d="M68.9,404.35c2.3,0.81,5.05,0.84,7.26-0.25c2.38-1.17,4.15-4,4.79-6.51c0.37-1.46,0.39-2.96,0.11-4.44
					c-0.26-1.41-0.81-3.05-1.93-4.01c-0.7-0.6-1.86-0.79-2.39-1.53c-0.59-0.83-0.8-2.22-0.9-3.21c-0.11-1.18-1.63-2.13-2.56-1.06
					c-0.52,0.59-0.93,1.26-1.48,1.83c-0.18,0.19-0.52,0.52-0.69,0.58c0.16-0.05,0.06,0.01-0.19-0.07c-0.44-0.14-0.86-0.23-1.32-0.29
					c-2.35-0.28-4.98,0.8-6.48,2.64c-2.84,3.48-3.23,8.56-0.3,12.06C64.44,402.03,66.56,403.46,68.9,404.35
					c0.76,0.29,1.64-0.32,1.85-1.05c0.23-0.84-0.29-1.56-1.05-1.85c-1.22-0.46-2.37-1.17-3.34-2.04c-0.39-0.34-0.75-0.71-1.1-1.09
					c-0.1-0.11-0.2-0.23-0.3-0.35c-0.05-0.06-0.39-0.52-0.13-0.16c-1.32-1.81-1.31-4.1-0.45-6.12c0.43-1.01,1.07-2.02,2.03-2.58
					c0.52-0.3,1.06-0.54,1.65-0.68c0.82-0.19,1.45-0.01,2.24,0.2c1.25,0.32,2.31-0.13,3.26-0.97c0.42-0.37,0.78-0.8,1.12-1.24
					c0.31-0.39,0.59-0.79,0.74-0.95c-0.85-0.35-1.71-0.71-2.56-1.06c0.2,2.19,0.75,4.93,2.76,6.17c0.69,0.43,1.51,0.55,1.91,1.32
					c0.58,1.1,0.79,2.44,0.73,3.67c-0.1,2.01-1.31,4.39-2.97,5.57c-1.58,1.13-3.86,0.92-5.59,0.31
					C67.87,400.82,67.08,403.72,68.9,404.35z"/>
			</g>
		</g>
		<g>
			<path class="st1" d="M82.43,410.48c2.29,0.24,6.19-0.34,7.95-2.93c2.17-3.2,2.95-7.15,0.07-10.88c-1.53-1.97-3.18-0.71-4.66-2.39
				c-0.61-0.69-1.55-2.44-1.86-3.49c-0.46,0.71-1.65,3.89-3.38,3.66c-2.56-0.34-4.53,1.12-5.51,1.99c-1.76,1.56-2.68,5.06-2.02,7.66
				c0.35,1.37,1.06,2.43,1.89,3.2C74.91,407.29,77.85,410,82.43,410.48z"/>
			<g>
				<path class="st2" d="M82.43,411.98c2.37,0.22,5.03-0.25,7.04-1.55c2.42-1.56,3.88-4.54,4.25-7.34c0.38-2.94-0.71-6.8-3.33-8.49
					c-0.58-0.37-1.23-0.56-1.89-0.69c-0.49-0.1-1.03-0.14-1.43-0.47c-0.82-0.69-1.38-2.07-1.7-3.06c-0.4-1.22-2.05-1.49-2.74-0.36
					c-0.43,0.71-0.73,1.5-1.21,2.18c-0.72,1.04-0.93,0.6-2.15,0.71c-2.43,0.2-4.85,1.59-6.26,3.58c-2.8,3.95-2.13,9.76,1.81,12.62
					C77.05,410.74,79.7,411.66,82.43,411.98c0.81,0.09,1.5-0.76,1.5-1.5c0-0.89-0.69-1.4-1.5-1.5c-1.46-0.17-2.91-0.63-4.22-1.3
					c-0.49-0.25-0.97-0.53-1.43-0.84c-0.17-0.11-0.34-0.23-0.51-0.36c-0.27-0.19,0.18,0.17-0.12-0.1c-1.91-1.68-2.2-4.2-1.47-6.54
					c0.35-1.12,0.95-2.05,1.88-2.75c1.26-0.95,2.44-1.17,3.98-1.16c2.62,0.02,3.53-2.52,4.67-4.4c-0.91-0.12-1.83-0.24-2.74-0.36
					c0.7,2.15,1.97,4.72,4.28,5.42c0.46,0.14,0.95,0.18,1.42,0.3c0.68,0.17,1.01,0.53,1.4,1.11c0.72,1.05,1.19,2.27,1.24,3.56
					c0.07,2.12-0.88,4.83-2.64,6.13c-1.6,1.18-3.81,1.46-5.74,1.28C80.51,408.8,80.52,411.8,82.43,411.98z"/>
			</g>
		</g>
		<g>
			<path class="st1" d="M97.56,411.95c2.08,0.05,5.58-0.82,7.04-3.46c1.8-3.27,2.33-7.15-0.45-10.53c-1.47-1.79-2.9-0.44-4.32-1.95
				c-0.58-0.62-1.51-2.24-1.85-3.23c-0.38,0.72-1.3,3.9-2.88,3.81c-2.33-0.13-4.04,1.44-4.88,2.36c-1.52,1.64-2.18,5.1-1.46,7.57
				c0.38,1.29,1.08,2.26,1.85,2.95C90.61,409.46,93.4,411.84,97.56,411.95z"/>
			<g>
				<path class="st2" d="M97.56,413.45c2.36,0.03,4.78-0.71,6.63-2.2c2.06-1.66,3.11-4.57,3.36-7.13c0.27-2.77-0.77-6.23-3.11-7.93
					c-0.52-0.38-1.1-0.62-1.73-0.72c-0.45-0.08-1.03-0.03-1.45-0.23c-0.87-0.42-1.52-2.02-1.83-2.86c-0.4-1.11-2.12-1.61-2.74-0.36
					c-0.35,0.7-0.57,1.43-0.94,2.11c-0.17,0.33-0.35,0.69-0.64,0.93c0.01-0.01-0.24,0.08-0.04,0.03c-0.1,0.02-0.61-0.01-0.84,0.02
					c-2.3,0.24-4.44,1.72-5.73,3.62c-2.55,3.76-1.99,9.7,1.81,12.37C92.42,412.57,95,413.35,97.56,413.45c1.93,0.08,1.93-2.92,0-3
					c-1.4-0.06-2.81-0.37-4.08-0.98c-0.41-0.2-0.81-0.41-1.19-0.65c-0.16-0.1-0.94-0.71-0.53-0.34c-1.89-1.7-2.15-4.25-1.44-6.6
					c0.33-1.1,0.91-1.95,1.79-2.68c0.97-0.82,1.92-1.03,3.15-1.11c1.26-0.08,2.16-0.95,2.8-1.97c0.3-0.47,0.52-0.98,0.74-1.49
					c0.12-0.28,0.24-0.57,0.36-0.86c0.12-0.3-0.06,0.1,0.1-0.23c-0.91-0.12-1.83-0.24-2.74-0.36c0.73,2,1.99,4.52,4.24,5.04
					c1.18,0.28,1.81,0.06,2.58,1.17c0.68,0.98,1.14,2.11,1.22,3.31c0.14,2.04-0.57,4.7-2.13,6.11c-1.29,1.17-3.18,1.66-4.88,1.64
					C95.63,410.42,95.63,413.42,97.56,413.45z"/>
			</g>
		</g>
		<g>
			<path class="st1" d="M69.69,410.08c2.09,0.03,5.51-0.88,6.73-3.54c1.51-3.28,1.67-7.16-1.43-10.5c-1.64-1.77-2.95-0.4-4.51-1.89
				c-0.64-0.61-1.72-2.22-2.15-3.2c-0.31,0.73-0.95,3.9-2.53,3.83c-2.35-0.1-3.91,1.49-4.67,2.41c-1.37,1.66-1.72,5.12-0.76,7.56
				c0.5,1.28,1.29,2.24,2.13,2.92C62.5,407.68,65.52,410.02,69.69,410.08z"/>
			<g>
				<path class="st2" d="M69.69,411.58c2.36,0,4.85-0.77,6.61-2.38c1.94-1.77,2.76-4.92,2.66-7.47c-0.06-1.42-0.41-2.78-1.02-4.06
					c-0.66-1.37-1.78-2.99-3.18-3.68c-1-0.49-2.37-0.19-3.21-0.9c-0.84-0.71-1.47-1.92-1.92-2.89c-0.6-1.31-2.32-0.7-2.74,0.36
					c-0.26,0.64-0.39,1.32-0.68,1.95c-0.13,0.29-0.29,0.71-0.57,0.87c0.11-0.06,0.26-0.08,0.01-0.09c-0.37-0.02-0.76,0.04-1.13,0.1
					c-2.11,0.34-4.19,1.92-5.18,3.81c-2.1,4-0.98,9.63,2.88,12.12C64.44,410.73,67.07,411.5,69.69,411.58c1.93,0.05,1.93-2.95,0-3
					c-2.21-0.06-4.48-0.77-6.28-2.08c-0.05-0.04-0.1-0.07-0.15-0.11c0.26,0.2-0.39-0.4-0.46-0.48c-0.47-0.52-0.84-1.14-1.08-1.8
					c-0.45-1.25-0.52-2.68-0.25-3.98c0.23-1.1,0.66-1.93,1.48-2.7c0.39-0.36,0.83-0.69,1.33-0.9c0.63-0.27,1.23-0.2,1.89-0.29
					c2.41-0.32,2.87-3.04,3.61-4.9c-0.91,0.12-1.83,0.24-2.74,0.36c0.86,1.87,2.32,4.16,4.47,4.63c0.46,0.1,0.92,0.09,1.38,0.17
					c0.63,0.11,0.98,0.49,1.39,0.98c0.78,0.94,1.33,2.05,1.57,3.25c0.38,1.87-0.03,4.51-1.32,5.98c-1.16,1.33-3.14,1.85-4.84,1.85
					C67.76,408.58,67.76,411.58,69.69,411.58z"/>
			</g>
		</g>
		<g>
			<path class="st1" d="M105.8,417.95c1.96,0.72,5.5,0.99,7.52-1.11c2.51-2.6,3.95-6.2,2.13-10.38c-0.96-2.21-2.65-1.35-3.63-3.28
				c-0.4-0.79-0.89-2.66-0.97-3.73c-0.54,0.58-2.18,3.37-3.66,2.78c-2.18-0.87-4.18,0.11-5.21,0.73c-1.84,1.11-3.31,4.26-3.22,6.89
				c0.05,1.38,0.47,2.54,1.04,3.46C99.81,413.31,101.88,416.52,105.8,417.95z"/>
			<g>
				<path class="st2" d="M105.4,419.4c2.3,0.81,5.05,0.84,7.26-0.25c2.38-1.17,4.15-4,4.79-6.51c0.37-1.46,0.39-2.96,0.11-4.44
					c-0.26-1.41-0.81-3.05-1.93-4.01c-0.7-0.6-1.86-0.79-2.39-1.53c-0.59-0.83-0.8-2.22-0.9-3.21c-0.11-1.18-1.63-2.13-2.56-1.06
					c-0.52,0.59-0.93,1.26-1.48,1.83c-0.18,0.19-0.52,0.52-0.69,0.58c0.16-0.05,0.06,0.01-0.19-0.07c-0.44-0.14-0.86-0.23-1.32-0.29
					c-2.35-0.28-4.98,0.8-6.48,2.64c-2.84,3.48-3.23,8.56-0.3,12.06C100.95,417.07,103.06,418.51,105.4,419.4
					c0.76,0.29,1.64-0.32,1.85-1.05c0.23-0.84-0.29-1.56-1.05-1.85c-1.22-0.46-2.37-1.17-3.34-2.04c-0.39-0.34-0.75-0.71-1.1-1.09
					c-0.1-0.11-0.2-0.23-0.3-0.35c-0.05-0.06-0.39-0.52-0.13-0.16c-1.32-1.81-1.31-4.1-0.45-6.12c0.43-1.01,1.07-2.02,2.03-2.58
					c0.52-0.3,1.06-0.54,1.65-0.68c0.82-0.19,1.45-0.01,2.24,0.2c1.25,0.32,2.31-0.13,3.26-0.97c0.42-0.37,0.78-0.8,1.12-1.24
					c0.31-0.39,0.59-0.79,0.74-0.95c-0.85-0.35-1.71-0.71-2.56-1.06c0.2,2.19,0.75,4.93,2.76,6.17c0.69,0.43,1.51,0.55,1.91,1.32
					c0.58,1.1,0.79,2.44,0.73,3.67c-0.1,2.01-1.31,4.39-2.97,5.57c-1.58,1.13-3.86,0.92-5.59,0.31
					C104.38,415.86,103.59,418.76,105.4,419.4z"/>
			</g>
		</g>
		<g>
			<path class="st1" d="M96.31,420.55c1.96,0.72,5.5,0.99,7.52-1.11c2.51-2.6,3.95-6.2,2.13-10.38c-0.96-2.21-2.65-1.35-3.63-3.28
				c-0.4-0.79-0.89-2.66-0.97-3.73c-0.54,0.58-2.18,3.37-3.66,2.78c-2.18-0.87-4.18,0.11-5.21,0.73c-1.84,1.11-3.31,4.26-3.22,6.89
				c0.05,1.38,0.47,2.54,1.04,3.46C90.31,415.91,92.38,419.11,96.31,420.55z"/>
			<g>
				<path class="st2" d="M95.91,421.99c2.3,0.81,5.05,0.84,7.26-0.25c2.38-1.17,4.15-4,4.79-6.51c0.37-1.46,0.39-2.96,0.11-4.44
					c-0.26-1.41-0.81-3.05-1.93-4.01c-0.7-0.6-1.86-0.79-2.39-1.53c-0.59-0.83-0.8-2.22-0.9-3.21c-0.11-1.18-1.63-2.13-2.56-1.06
					c-0.52,0.59-0.93,1.26-1.48,1.83c-0.18,0.19-0.52,0.52-0.69,0.58c0.16-0.05,0.06,0.01-0.19-0.07c-0.44-0.14-0.86-0.23-1.32-0.29
					c-2.35-0.28-4.98,0.8-6.48,2.64c-2.84,3.48-3.23,8.56-0.3,12.06C91.45,419.67,93.57,421.1,95.91,421.99
					c0.76,0.29,1.64-0.32,1.85-1.05c0.23-0.84-0.29-1.56-1.05-1.85c-1.22-0.46-2.37-1.17-3.34-2.04c-0.39-0.34-0.75-0.71-1.1-1.09
					c-0.1-0.11-0.2-0.23-0.3-0.35c-0.05-0.06-0.39-0.52-0.13-0.16c-1.32-1.81-1.31-4.1-0.45-6.12c0.43-1.01,1.07-2.02,2.03-2.58
					c0.52-0.3,1.06-0.54,1.65-0.68c0.82-0.19,1.45-0.01,2.24,0.2c1.25,0.32,2.31-0.13,3.26-0.97c0.42-0.37,0.78-0.8,1.12-1.24
					c0.31-0.39,0.59-0.79,0.74-0.95c-0.85-0.35-1.71-0.71-2.56-1.06c0.2,2.19,0.75,4.93,2.76,6.17c0.69,0.43,1.51,0.55,1.91,1.32
					c0.58,1.1,0.79,2.44,0.73,3.67c-0.1,2.01-1.31,4.39-2.97,5.57c-1.58,1.13-3.86,0.92-5.59,0.31
					C94.88,418.46,94.09,421.36,95.91,421.99z"/>
			</g>
		</g>
		<g>
			<path class="st1" d="M77.58,416.47c2.09,0.11,5.54-0.67,6.86-3.28c1.63-3.22,1.94-7.09-1.03-10.54
				c-1.57-1.83-2.93-0.51-4.43-2.06c-0.62-0.64-1.64-2.28-2.03-3.28c-0.34,0.71-1.09,3.86-2.68,3.73c-2.34-0.19-3.96,1.34-4.76,2.23
				c-1.43,1.61-1.91,5.05-1.05,7.53c0.45,1.3,1.2,2.29,2.02,3C70.48,413.81,73.41,416.26,77.58,416.47z"/>
			<g>
				<path class="st2" d="M77.58,417.97c2.36,0.09,4.87-0.62,6.68-2.17c1.96-1.69,2.86-4.72,2.9-7.24c0.04-2.77-1.26-6.34-3.72-7.86
					c-0.54-0.33-1.13-0.52-1.76-0.62c-0.49-0.07-1.06-0.07-1.48-0.39c-0.78-0.59-1.44-1.9-1.81-2.78c-0.43-1.03-2.15-1.68-2.74-0.36
					c-0.3,0.69-0.5,1.41-0.83,2.09c-0.15,0.32-0.32,0.68-0.58,0.91c0.03-0.02-0.21,0.04-0.01,0.01c-0.12,0.02-0.63-0.03-0.88,0
					c-2.28,0.22-4.51,1.71-5.66,3.7c-2.27,3.94-1.25,9.58,2.5,12.2C72.36,416.97,74.96,417.8,77.58,417.97c1.93,0.13,1.92-2.88,0-3
					c-2.23-0.15-4.4-1-6.19-2.34c0.43,0.32,0.22,0.19,0.16,0.12c-0.24-0.25-0.51-0.46-0.73-0.73c-0.39-0.47-0.7-1.03-0.9-1.6
					c-0.45-1.25-0.49-2.68-0.22-3.97c0.24-1.13,0.69-2,1.55-2.78c0.37-0.34,0.81-0.65,1.28-0.85c0.66-0.28,1.23-0.22,1.91-0.26
					c1.24-0.07,2.14-0.91,2.74-1.93c0.3-0.52,0.53-1.09,0.75-1.65c0.09-0.22,0.16-0.45,0.25-0.67c0.03-0.08,0.26-0.65,0.07-0.22
					c-0.91-0.12-1.83-0.24-2.74-0.36c0.81,1.94,2.08,4.4,4.24,5.06c0.49,0.15,0.99,0.16,1.49,0.26c0.62,0.13,0.96,0.45,1.34,0.94
					c0.75,0.97,1.29,2.11,1.5,3.32c0.33,1.9-0.16,4.5-1.49,5.96c-1.21,1.34-3.27,1.78-5.01,1.72
					C75.65,414.9,75.65,417.9,77.58,417.97z"/>
			</g>
		</g>
		<g>
			<path class="st1" d="M87.17,420.47c2.08,0.17,5.56-0.5,6.96-3.06c1.73-3.17,2.16-7.03-0.7-10.57c-1.51-1.87-2.91-0.6-4.37-2.2
				c-0.6-0.65-1.56-2.33-1.92-3.34c-0.36,0.7-1.21,3.83-2.79,3.65c-2.34-0.26-4,1.22-4.83,2.08c-1.48,1.56-2.07,4.99-1.28,7.49
				c0.41,1.32,1.13,2.33,1.92,3.06C80.16,417.59,83.01,420.13,87.17,420.47z"/>
			<g>
				<path class="st2" d="M87.17,421.97c2.36,0.16,4.88-0.49,6.73-1.99c2.01-1.64,2.97-4.63,3.09-7.15c0.13-2.81-1.11-6.33-3.51-7.97
					c-0.52-0.35-1.13-0.55-1.74-0.66c-0.47-0.09-0.99-0.1-1.38-0.4c-0.81-0.59-1.43-2.01-1.77-2.91c-0.41-1.09-2.13-1.63-2.74-0.36
					c-0.33,0.68-0.54,1.4-0.89,2.06c-0.15,0.29-0.33,0.68-0.61,0.89c0.05-0.03,0.28-0.05,0.09-0.04c-0.38,0.03-0.76-0.04-1.15,0
					c-2.27,0.21-4.51,1.67-5.66,3.65c-2.31,3.94-1.39,9.51,2.32,12.21C82.05,420.85,84.57,421.73,87.17,421.97
					c0.81,0.08,1.5-0.74,1.5-1.5c0-0.88-0.69-1.42-1.5-1.5c-1.4-0.13-2.77-0.56-4.01-1.21c-0.46-0.24-0.91-0.51-1.34-0.8
					c-0.12-0.08-0.24-0.17-0.36-0.25c-0.28-0.2,0.2,0.19-0.1-0.07c-1.82-1.59-2.31-4.06-1.77-6.36c0.25-1.09,0.7-1.96,1.53-2.71
					c0.4-0.36,0.86-0.68,1.36-0.89c0.7-0.3,1.31-0.21,2.04-0.23c1.24-0.03,2.15-0.9,2.78-1.89c0.32-0.51,0.56-1.07,0.79-1.63
					c0.09-0.22,0.18-0.44,0.27-0.66c0.04-0.09,0.07-0.18,0.11-0.27c-0.07,0.17-0.08,0.19-0.02,0.06c-0.91-0.12-1.83-0.24-2.74-0.36
					c0.75,1.99,1.97,4.43,4.11,5.16c1.07,0.37,1.9,0.17,2.66,1.17c0.77,1.01,1.33,2.23,1.49,3.49c0.25,1.94-0.33,4.64-1.8,6.02
					c-1.3,1.21-3.27,1.56-4.98,1.44C85.24,418.84,85.25,421.84,87.17,421.97z"/>
			</g>
		</g>
	</g>
	<g>
		<g>
			<path class="st3" d="M69.23,415.14c5.99-43-13.04-65.2-29.12-65.2s-36.74,20.03-29.12,65.2H69.23z"/>
			<g>
				<path class="st4" d="M70.67,415.54c1.94-14.15,1.89-29.14-3.16-42.68c-3.23-8.65-8.71-17.19-17.05-21.66
					c-6.56-3.51-13.89-3.48-20.57-0.33c-7.9,3.71-13.62,11.06-17.01,18.93c-5.31,12.32-5.82,26.23-4.25,39.39
					c0.25,2.13,0.56,4.25,0.92,6.36c0.11,0.64,0.84,1.1,1.45,1.1c6.56,0,13.11,0,19.67,0c10.45,0,20.91,0,31.36,0
					c2.41,0,4.81,0,7.22,0c1.93,0,1.93-3,0-3c-6.56,0-13.11,0-19.67,0c-10.45,0-20.91,0-31.36,0c-2.41,0-4.81,0-7.22,0
					c0.48,0.37,0.96,0.73,1.45,1.1c-2.19-13.14-2.6-27.14,1.7-39.92c2.67-7.91,7.44-15.55,14.69-19.98
					c5.57-3.41,11.96-4.47,18.06-2.03c7.7,3.08,13.13,10.4,16.46,17.76c5.33,11.74,6.18,25.22,5.12,37.91
					c-0.18,2.09-0.41,4.18-0.69,6.26c-0.11,0.81,0.2,1.6,1.05,1.85C69.53,416.79,70.56,416.34,70.67,415.54z"/>
			</g>
		</g>
		<g>
			<g>
				<path class="st4" d="M37.44,349.07c-3.37,2.5-6.13,5.98-8.46,9.42c-5.87,8.64-9.05,18.86-10.07,29.19
					c-0.87,8.76-0.14,17.6,1.52,26.22c0.37,1.89,3.26,1.09,2.89-0.8c-2.55-13.2-2.66-27.09,1.71-39.92
					c2.4-7.05,6.17-13.74,11.24-19.01c0.68-0.71,1.39-1.39,2.13-2.04c0.2-0.18,0.41-0.34,0.62-0.52c0.34-0.29-0.23,0.17-0.06,0.04
					C40.49,350.53,39,347.92,37.44,349.07L37.44,349.07z"/>
			</g>
		</g>
		<g>
			<g>
				<path class="st4" d="M40.71,351.66c0.25,0.19-0.36-0.3-0.11-0.08c0.16,0.14,0.33,0.27,0.49,0.4c0.61,0.51,1.19,1.06,1.75,1.62
					c2.05,2.03,3.75,4.13,5.33,6.43c5.64,8.24,8.82,17.99,9.8,27.9c0.84,8.44,0.2,16.96-1.4,25.27c-0.36,1.89,2.53,2.69,2.89,0.8
					c2.65-13.73,2.81-28.2-1.79-41.55c-2.58-7.49-6.58-14.62-12.1-20.34c-1.05-1.08-2.15-2.14-3.36-3.03
					C40.67,347.93,39.17,350.53,40.71,351.66L40.71,351.66z"/>
			</g>
		</g>
		<g>
			<g>
				<path class="st4" d="M38.6,350.91c0.03,7.18,0.06,14.36,0.09,21.53c0.05,11.43,0.1,22.87,0.15,34.3
					c0.01,2.62,0.02,5.23,0.03,7.85c0.01,1.93,3.01,1.93,3,0c-0.03-7.18-0.06-14.36-0.09-21.53c-0.05-11.43-0.1-22.87-0.15-34.3
					c-0.01-2.62-0.02-5.23-0.03-7.85C41.6,348.98,38.6,348.98,38.6,350.91L38.6,350.91z"/>
			</g>
		</g>
		<g>
			<path class="st5" d="M38.2,349.28c3.78,0.74,7.85-1.55,11.18-3.46c1.45-0.83,2.87-1.86,3.67-3.34s0.83-3.47-0.31-4.69
				c-0.83-0.9-2.16-1.24-3.37-1.08c-1.22,0.16-2.33,0.78-3.29,1.54c-0.3,0.24-0.61,0.5-0.99,0.56c-0.77,0.13-1.4-0.61-1.74-1.31
				c-0.34-0.7-0.62-1.53-1.31-1.89c-1.06-0.56-2.29,0.31-3.07,1.22c-0.78,0.9-1.64,1.99-2.83,1.98c-1.04-0.01-1.83-0.87-2.7-1.45
				c-1.56-1.04-3.95-1.08-5.11,0.4c-0.76,0.97-0.81,2.33-0.58,3.54c0.66,3.46,3.55,6.38,7,7.09L38.2,349.28z"/>
			<g>
				<path class="st6" d="M37.8,350.73c3.06,0.51,5.91-0.33,8.67-1.64c2.55-1.21,5.47-2.62,7.23-4.89c1.63-2.1,2.1-5.4,0.11-7.46
					c-2.06-2.13-5.32-1.82-7.65-0.36c-0.28,0.17-0.55,0.45-0.84,0.59c-0.5,0.24-0.14,0.48-0.52,0.09c-0.36-0.37-0.49-1.08-0.77-1.52
					c-0.73-1.14-2.01-1.81-3.37-1.52c-1.4,0.3-2.32,1.3-3.23,2.31c-0.31,0.35-0.78,0.99-1.29,0.99c-0.55,0-1.23-0.74-1.65-1.04
					c-2.03-1.43-5.12-1.69-6.99,0.19c-2,2.01-1.48,5.28-0.38,7.6c1.22,2.57,3.54,4.59,6.23,5.51
					C34.78,350.05,36.32,350.35,37.8,350.73c1.87,0.48,2.67-2.41,0.8-2.89c-2.51-0.65-5.28-1.01-7.2-2.89
					c-1.34-1.31-2.5-3.36-2.24-5.29c0.13-0.97,0.77-1.51,1.74-1.53c1.07-0.02,1.81,0.58,2.63,1.18c1.85,1.34,3.81,1.28,5.51-0.3
					c0.54-0.51,1.29-1.88,2.09-2c0.57-0.08,1.13,1.71,1.52,2.17c0.61,0.72,1.47,1.23,2.44,1.16c1.25-0.1,2.05-1.14,3.12-1.67
					c1.97-0.98,4.53-0.15,3.81,2.43c-0.66,2.36-3.57,3.6-5.54,4.65c-2.36,1.26-5.13,2.56-7.87,2.1
					C36.71,347.52,35.9,350.41,37.8,350.73z"/>
			</g>
		</g>
		<g>
			<g>
				<path class="st4" d="M56.49,351.09c-1.18,0.48-2.35,0.96-3.53,1.44c-0.17,0.07-0.34,0.14-0.51,0.21
					c0.62,0.35,1.23,0.7,1.85,1.05c-0.19-1.3-0.37-2.59-0.56-3.89c-0.03-0.18-0.05-0.37-0.08-0.55c-0.05-0.35-0.4-0.73-0.69-0.9
					c-0.32-0.19-0.8-0.27-1.16-0.15c-0.36,0.12-0.71,0.34-0.9,0.69c-0.2,0.38-0.21,0.73-0.15,1.16c0.19,1.3,0.37,2.59,0.56,3.89
					c0.03,0.18,0.05,0.37,0.08,0.55c0.05,0.33,0.4,0.75,0.69,0.9c0.33,0.18,0.79,0.3,1.16,0.15c1.18-0.48,2.35-0.96,3.53-1.44
					c0.17-0.07,0.34-0.14,0.51-0.21c0.38-0.15,0.68-0.32,0.9-0.69c0.19-0.32,0.27-0.8,0.15-1.16c-0.12-0.36-0.34-0.71-0.69-0.9
					C57.32,351.07,56.86,350.94,56.49,351.09L56.49,351.09z"/>
			</g>
		</g>
		<g>
			<g>
				<path class="st4" d="M63.71,359.12c-1.27-0.07-2.54-0.14-3.81-0.21c-0.18-0.01-0.36-0.02-0.54-0.03
					c0.48,0.63,0.96,1.27,1.45,1.9c0.39-1.25,0.78-2.5,1.16-3.75c0.06-0.18,0.11-0.36,0.17-0.54c0.23-0.75-0.28-1.67-1.05-1.85
					c-0.81-0.19-1.6,0.25-1.85,1.05c-0.39,1.25-0.78,2.5-1.16,3.75c-0.06,0.18-0.11,0.36-0.17,0.54c-0.14,0.46-0.01,0.94,0.27,1.31
					c0.3,0.39,0.69,0.56,1.18,0.59c1.27,0.07,2.54,0.14,3.81,0.21c0.18,0.01,0.36,0.02,0.54,0.03c0.78,0.04,1.53-0.72,1.5-1.5
					C65.17,359.77,64.55,359.17,63.71,359.12L63.71,359.12z"/>
			</g>
		</g>
		<g>
			<g>
				<path class="st4" d="M69.02,368.27c-1.22-0.34-2.45-0.67-3.67-1.01c-0.17-0.05-0.35-0.1-0.52-0.14c0.3,0.73,0.6,1.47,0.9,2.2
					c0.64-1.14,1.29-2.28,1.93-3.42c0.09-0.16,0.18-0.33,0.28-0.49c0.39-0.68,0.19-1.67-0.54-2.05c-0.71-0.38-1.64-0.19-2.05,0.54
					c-0.64,1.14-1.29,2.28-1.93,3.42c-0.09,0.16-0.18,0.33-0.28,0.49c-0.47,0.84-0.05,1.94,0.9,2.2c1.22,0.34,2.45,0.67,3.67,1.01
					c0.17,0.05,0.35,0.1,0.52,0.14c0.76,0.21,1.67-0.26,1.85-1.05C70.25,369.32,69.83,368.49,69.02,368.27L69.02,368.27z"/>
			</g>
		</g>
		<g>
			<g>
				<path class="st4" d="M71.99,378.21c-1.35-0.53-2.7-1.06-4.05-1.6c0.3,0.73,0.6,1.47,0.9,2.2c0.76-1.07,1.52-2.13,2.28-3.2
					c0.11-0.15,0.22-0.3,0.33-0.46c0.21-0.3,0.25-0.81,0.15-1.16c-0.1-0.35-0.36-0.72-0.69-0.9c-0.77-0.41-1.56-0.15-2.05,0.54
					c-0.76,1.07-1.52,2.13-2.28,3.2c-0.11,0.15-0.22,0.3-0.33,0.46c-0.27,0.38-0.25,0.93-0.08,1.33c0.19,0.46,0.52,0.69,0.97,0.87
					c1.35,0.53,2.7,1.06,4.05,1.6c0.34,0.13,0.85,0.03,1.16-0.15c0.31-0.18,0.61-0.54,0.69-0.9c0.09-0.38,0.07-0.82-0.15-1.16
					C72.66,378.55,72.37,378.36,71.99,378.21L71.99,378.21z"/>
			</g>
		</g>
		<g>
			<g>
				<path class="st4" d="M74.33,389.82c-1.26-0.72-2.52-1.44-3.78-2.16c0.1,0.79,0.2,1.57,0.3,2.36c1.03-1.08,2.07-2.16,3.1-3.24
					c0.54-0.57,0.61-1.57,0-2.12c-0.59-0.54-1.54-0.61-2.12,0c-1.03,1.08-2.07,2.16-3.1,3.24c-0.66,0.69-0.55,1.87,0.3,2.36
					c1.26,0.72,2.52,1.44,3.78,2.16c0.68,0.39,1.67,0.18,2.05-0.54C75.24,391.16,75.06,390.23,74.33,389.82L74.33,389.82z"/>
			</g>
		</g>
		<g>
			<g>
				<path class="st4" d="M75.14,411.92c-1.1-0.95-2.2-1.89-3.3-2.84c-0.1,0.79-0.2,1.57-0.3,2.36c1.22-0.86,2.44-1.73,3.67-2.59
					c0.33-0.23,0.58-0.5,0.69-0.9c0.1-0.36,0.05-0.84-0.15-1.16c-0.41-0.64-1.37-1.02-2.05-0.54c-1.22,0.86-2.44,1.73-3.67,2.59
					c-0.4,0.28-0.65,0.61-0.72,1.1c-0.06,0.44,0.06,0.95,0.41,1.26c1.1,0.95,2.2,1.89,3.3,2.84c0.31,0.26,0.65,0.44,1.06,0.44
					c0.37,0,0.81-0.16,1.06-0.44C75.65,413.48,75.77,412.47,75.14,411.92L75.14,411.92z"/>
			</g>
		</g>
		<g>
			<g>
				<path class="st4" d="M75.57,400.89c-1.1-0.95-2.2-1.89-3.3-2.84c-0.1,0.79-0.2,1.57-0.3,2.36c1.22-0.86,2.44-1.73,3.67-2.59
					c0.33-0.23,0.58-0.5,0.69-0.9c0.1-0.36,0.05-0.84-0.15-1.16c-0.41-0.64-1.37-1.02-2.05-0.54c-1.22,0.86-2.44,1.73-3.67,2.59
					c-0.4,0.28-0.65,0.61-0.72,1.1c-0.06,0.44,0.06,0.95,0.41,1.26c1.1,0.95,2.2,1.89,3.3,2.84c0.31,0.26,0.65,0.44,1.06,0.44
					c0.37,0,0.81-0.16,1.06-0.44C76.08,402.45,76.2,401.44,75.57,400.89L75.57,400.89z"/>
			</g>
		</g>
		<g>
			<g>
				<path class="st4" d="M21.61,354.5c1.18,0.48,2.35,0.96,3.53,1.44c0.17,0.07,0.34,0.14,0.51,0.21c0.32,0.13,0.87,0.03,1.16-0.15
					c0.3-0.2,0.64-0.52,0.69-0.9c0.19-1.3,0.37-2.59,0.56-3.89c0.03-0.18,0.05-0.37,0.08-0.55c0.06-0.42,0.07-0.78-0.15-1.16
					c-0.18-0.31-0.54-0.61-0.9-0.69c-0.38-0.09-0.81-0.07-1.16,0.15c-0.3,0.2-0.64,0.52-0.69,0.9c-0.19,1.3-0.37,2.59-0.56,3.89
					c-0.03,0.18-0.05,0.37-0.08,0.55c0.62-0.35,1.23-0.7,1.85-1.05c-1.18-0.48-2.35-0.96-3.53-1.44c-0.17-0.07-0.34-0.14-0.51-0.21
					c-0.34-0.14-0.86-0.02-1.16,0.15c-0.31,0.18-0.61,0.54-0.69,0.9c-0.09,0.38-0.07,0.82,0.15,1.16
					C20.94,354.16,21.23,354.35,21.61,354.5L21.61,354.5z"/>
			</g>
		</g>
		<g>
			<g>
				<path class="st4" d="M14.81,361.14c1.26,0.16,2.52,0.32,3.78,0.48c0.18,0.02,0.36,0.05,0.54,0.07c0.34,0.04,0.84-0.2,1.06-0.44
					c0.25-0.27,0.48-0.67,0.44-1.06c-0.15-1.3-0.31-2.6-0.46-3.9c-0.02-0.18-0.04-0.37-0.07-0.55c-0.05-0.41-0.14-0.76-0.44-1.06
					c-0.26-0.26-0.69-0.46-1.06-0.44c-0.39,0.02-0.79,0.14-1.06,0.44c-0.25,0.27-0.48,0.67-0.44,1.06c0.15,1.3,0.31,2.6,0.46,3.9
					c0.02,0.18,0.04,0.37,0.07,0.55c0.5-0.5,1-1,1.5-1.5c-1.26-0.16-2.52-0.32-3.78-0.48c-0.18-0.02-0.36-0.05-0.54-0.07
					c-0.35-0.05-0.82,0.2-1.06,0.44c-0.26,0.26-0.46,0.69-0.44,1.06c0.02,0.39,0.14,0.79,0.44,1.06c0.1,0.08,0.2,0.16,0.3,0.23
					C14.28,361.07,14.54,361.14,14.81,361.14L14.81,361.14z"/>
			</g>
		</g>
		<g>
			<g>
				<path class="st4" d="M10.68,370.59c1.22-0.34,2.45-0.67,3.67-1.01c0.17-0.05,0.35-0.1,0.52-0.14c0.94-0.26,1.37-1.36,0.9-2.2
					c-0.64-1.14-1.29-2.28-1.93-3.42c-0.09-0.16-0.18-0.33-0.28-0.49c-0.39-0.68-1.38-0.97-2.05-0.54
					c-0.69,0.45-0.95,1.32-0.54,2.05c0.64,1.14,1.29,2.28,1.93,3.42c0.09,0.16,0.18,0.33,0.28,0.49c0.3-0.73,0.6-1.47,0.9-2.2
					c-1.22,0.34-2.45,0.67-3.67,1.01c-0.17,0.05-0.35,0.1-0.52,0.14c-0.76,0.21-1.3,1.07-1.05,1.85
					C9.08,370.31,9.87,370.81,10.68,370.59L10.68,370.59z"/>
			</g>
		</g>
		<g>
			<g>
				<path class="st4" d="M7.71,380.53c1.35-0.53,2.7-1.06,4.05-1.6c0.45-0.18,0.78-0.41,0.97-0.87c0.17-0.41,0.2-0.95-0.08-1.33
					c-0.76-1.07-1.52-2.13-2.28-3.2c-0.11-0.15-0.22-0.3-0.33-0.46c-0.23-0.33-0.5-0.58-0.9-0.69c-0.36-0.1-0.84-0.05-1.16,0.15
					c-0.63,0.41-1.03,1.37-0.54,2.05c0.76,1.07,1.52,2.13,2.28,3.2c0.11,0.15,0.22,0.3,0.33,0.46c0.3-0.73,0.6-1.47,0.9-2.2
					c-1.35,0.53-2.7,1.06-4.05,1.6c-0.38,0.15-0.69,0.33-0.9,0.69c-0.19,0.32-0.27,0.8-0.15,1.16
					C6.09,380.19,6.92,380.84,7.71,380.53L7.71,380.53z"/>
			</g>
		</g>
		<g>
			<g>
				<path class="st4" d="M6.09,391.83c1.26-0.72,2.52-1.44,3.78-2.16c0.85-0.49,0.96-1.67,0.3-2.36c-1.03-1.08-2.07-2.16-3.1-3.24
					c-0.54-0.57-1.58-0.59-2.12,0c-0.56,0.61-0.58,1.52,0,2.12c1.03,1.08,2.07,2.16,3.1,3.24c0.1-0.79,0.2-1.57,0.3-2.36
					c-1.26,0.72-2.52,1.44-3.78,2.16c-0.68,0.39-0.97,1.38-0.54,2.05C4.48,391.99,5.36,392.25,6.09,391.83L6.09,391.83z"/>
			</g>
		</g>
		<g>
			<g>
				<path class="st4" d="M6.97,413.47c1.1-0.95,2.2-1.89,3.3-2.84c0.35-0.31,0.47-0.82,0.41-1.26c-0.07-0.49-0.32-0.82-0.72-1.1
					c-1.22-0.86-2.44-1.73-3.67-2.59c-0.64-0.45-1.7-0.14-2.05,0.54c-0.41,0.77-0.15,1.57,0.54,2.05c1.22,0.86,2.44,1.73,3.67,2.59
					c-0.1-0.79-0.2-1.57-0.3-2.36c-1.1,0.95-2.2,1.89-3.3,2.84c-0.6,0.51-0.57,1.6,0,2.12C5.49,414.06,6.34,414.02,6.97,413.47
					L6.97,413.47z"/>
			</g>
		</g>
		<g>
			<g>
				<path class="st4" d="M6.54,402.44c1.1-0.95,2.2-1.89,3.3-2.84c0.35-0.31,0.47-0.82,0.41-1.26c-0.07-0.49-0.32-0.82-0.72-1.1
					c-1.22-0.86-2.44-1.73-3.67-2.59c-0.64-0.45-1.7-0.14-2.05,0.54c-0.41,0.77-0.15,1.57,0.54,2.05c1.22,0.86,2.44,1.73,3.67,2.59
					c-0.1-0.79-0.2-1.57-0.3-2.36c-1.1,0.95-2.2,1.89-3.3,2.84c-0.6,0.51-0.57,1.6,0,2.12C5.06,403.02,5.91,402.99,6.54,402.44
					L6.54,402.44z"/>
			</g>
		</g>
		<g>
			<g>
				<path class="st4" d="M54.7,358.55c-1.27-0.07-2.54-0.14-3.81-0.21c-0.18-0.01-0.36-0.02-0.54-0.03c0.48,0.63,0.96,1.27,1.45,1.9
					c0.39-1.25,0.78-2.5,1.16-3.75c0.06-0.18,0.11-0.36,0.17-0.54c0.23-0.75-0.28-1.67-1.05-1.85c-0.81-0.19-1.6,0.25-1.85,1.05
					c-0.39,1.25-0.78,2.5-1.16,3.75c-0.06,0.18-0.11,0.36-0.17,0.54c-0.14,0.46-0.01,0.94,0.27,1.31c0.3,0.39,0.69,0.56,1.18,0.59
					c1.27,0.07,2.54,0.14,3.81,0.21c0.18,0.01,0.36,0.02,0.54,0.03c0.78,0.04,1.53-0.72,1.5-1.5
					C56.16,359.2,55.54,358.6,54.7,358.55L54.7,358.55z"/>
			</g>
		</g>
		<g>
			<g>
				<path class="st4" d="M58.92,367.69c-1.22-0.34-2.45-0.67-3.67-1.01c-0.17-0.05-0.35-0.1-0.52-0.14c0.3,0.73,0.6,1.47,0.9,2.2
					c0.64-1.14,1.29-2.28,1.93-3.42c0.09-0.16,0.18-0.33,0.28-0.49c0.39-0.68,0.19-1.67-0.54-2.05c-0.71-0.38-1.64-0.19-2.05,0.54
					c-0.64,1.14-1.29,2.28-1.93,3.42c-0.09,0.16-0.18,0.33-0.28,0.49c-0.47,0.84-0.05,1.94,0.9,2.2c1.22,0.34,2.45,0.67,3.67,1.01
					c0.17,0.05,0.35,0.1,0.52,0.14c0.76,0.21,1.67-0.26,1.85-1.05C60.15,368.75,59.73,367.92,58.92,367.69L58.92,367.69z"/>
			</g>
		</g>
		<g>
			<g>
				<path class="st4" d="M62.99,377.64c-1.35-0.53-2.7-1.06-4.05-1.6c0.3,0.73,0.6,1.47,0.9,2.2c0.76-1.07,1.52-2.13,2.28-3.2
					c0.11-0.15,0.22-0.3,0.33-0.46c0.21-0.3,0.25-0.81,0.15-1.16c-0.1-0.35-0.36-0.72-0.69-0.9c-0.77-0.41-1.56-0.15-2.05,0.54
					c-0.76,1.07-1.52,2.13-2.28,3.2c-0.11,0.15-0.22,0.3-0.33,0.46c-0.27,0.38-0.25,0.93-0.08,1.33c0.19,0.46,0.52,0.69,0.97,0.87
					c1.35,0.53,2.7,1.06,4.05,1.6c0.34,0.13,0.85,0.03,1.16-0.15c0.31-0.18,0.61-0.54,0.69-0.9c0.09-0.38,0.07-0.82-0.15-1.16
					C63.66,377.98,63.37,377.79,62.99,377.64L62.99,377.64z"/>
			</g>
		</g>
		<g>
			<g>
				<path class="st4" d="M64.23,389.24c-1.26-0.72-2.52-1.44-3.78-2.16c0.1,0.79,0.2,1.57,0.3,2.36c1.03-1.08,2.07-2.16,3.1-3.24
					c0.54-0.57,0.61-1.57,0-2.12c-0.59-0.54-1.54-0.61-2.12,0c-1.03,1.08-2.07,2.16-3.1,3.24c-0.66,0.69-0.55,1.87,0.3,2.36
					c1.26,0.72,2.52,1.44,3.78,2.16c0.68,0.39,1.67,0.18,2.05-0.54C65.15,390.58,64.96,389.66,64.23,389.24L64.23,389.24z"/>
			</g>
		</g>
		<g>
			<g>
				<path class="st4" d="M65.04,411.35c-1.1-0.95-2.2-1.89-3.3-2.84c-0.1,0.79-0.2,1.57-0.3,2.36c1.22-0.86,2.44-1.73,3.67-2.59
					c0.33-0.23,0.58-0.5,0.69-0.9c0.1-0.36,0.05-0.84-0.15-1.16c-0.41-0.64-1.37-1.02-2.05-0.54c-1.22,0.86-2.44,1.73-3.67,2.59
					c-0.4,0.28-0.65,0.61-0.72,1.1c-0.06,0.44,0.06,0.95,0.41,1.26c1.1,0.95,2.2,1.89,3.3,2.84c0.31,0.26,0.65,0.44,1.06,0.44
					c0.37,0,0.81-0.16,1.06-0.44C65.56,412.91,65.68,411.9,65.04,411.35L65.04,411.35z"/>
			</g>
		</g>
		<g>
			<g>
				<path class="st4" d="M65.47,400.32c-1.1-0.95-2.2-1.89-3.3-2.84c-0.1,0.79-0.2,1.57-0.3,2.36c1.22-0.86,2.44-1.73,3.67-2.59
					c0.33-0.23,0.58-0.5,0.69-0.9c0.1-0.36,0.05-0.84-0.15-1.16c-0.41-0.64-1.37-1.02-2.05-0.54c-1.22,0.86-2.44,1.73-3.67,2.59
					c-0.4,0.28-0.65,0.61-0.72,1.1c-0.06,0.44,0.06,0.95,0.41,1.26c1.1,0.95,2.2,1.89,3.3,2.84c0.31,0.26,0.65,0.44,1.06,0.44
					c0.37,0,0.81-0.16,1.06-0.44C65.99,401.88,66.11,400.86,65.47,400.32L65.47,400.32z"/>
			</g>
		</g>
		<g>
			<g>
				<path class="st4" d="M26.93,359.46c1.27-0.07,2.54-0.14,3.81-0.21c0.18-0.01,0.36-0.02,0.54-0.03c0.48-0.03,0.88-0.21,1.18-0.59
					c0.28-0.37,0.41-0.85,0.27-1.31c-0.39-1.25-0.78-2.5-1.16-3.75c-0.06-0.18-0.11-0.36-0.17-0.54c-0.23-0.75-1.06-1.3-1.85-1.05
					c-0.75,0.24-1.3,1.04-1.05,1.85c0.39,1.25,0.78,2.5,1.16,3.75c0.06,0.18,0.11,0.36,0.17,0.54c0.48-0.63,0.96-1.27,1.45-1.9
					c-1.27,0.07-2.54,0.14-3.81,0.21c-0.18,0.01-0.36,0.02-0.54,0.03c-0.78,0.04-1.54,0.66-1.5,1.5
					C25.46,358.73,26.09,359.5,26.93,359.46L26.93,359.46z"/>
			</g>
		</g>
		<g>
			<g>
				<path class="st4" d="M22.02,369.47c1.22-0.34,2.45-0.67,3.67-1.01c0.17-0.05,0.35-0.1,0.52-0.14c0.94-0.26,1.37-1.36,0.9-2.2
					c-0.64-1.14-1.29-2.28-1.93-3.42c-0.09-0.16-0.18-0.33-0.28-0.49c-0.39-0.68-1.38-0.97-2.05-0.54
					c-0.69,0.45-0.95,1.32-0.54,2.05c0.64,1.14,1.29,2.28,1.93,3.42c0.09,0.16,0.18,0.33,0.28,0.49c0.3-0.73,0.6-1.47,0.9-2.2
					c-1.22,0.34-2.45,0.67-3.67,1.01c-0.17,0.05-0.35,0.1-0.52,0.14c-0.76,0.21-1.3,1.07-1.05,1.85
					C20.42,369.19,21.21,369.69,22.02,369.47L22.02,369.47z"/>
			</g>
		</g>
		<g>
			<g>
				<path class="st4" d="M18.35,380.62c1.35-0.53,2.7-1.06,4.05-1.6c0.45-0.18,0.78-0.41,0.97-0.87c0.17-0.41,0.2-0.95-0.08-1.33
					c-0.76-1.07-1.52-2.13-2.28-3.2c-0.11-0.15-0.22-0.3-0.33-0.46c-0.23-0.33-0.5-0.58-0.9-0.69c-0.36-0.1-0.84-0.05-1.16,0.15
					c-0.63,0.41-1.03,1.37-0.54,2.05c0.76,1.07,1.52,2.13,2.28,3.2c0.11,0.15,0.22,0.3,0.33,0.46c0.3-0.73,0.6-1.47,0.9-2.2
					c-1.35,0.53-2.7,1.06-4.05,1.6c-0.38,0.15-0.69,0.33-0.9,0.69c-0.19,0.32-0.27,0.8-0.15,1.16
					C16.74,380.27,17.57,380.92,18.35,380.62L18.35,380.62z"/>
			</g>
		</g>
		<g>
			<g>
				<path class="st4" d="M17.28,391.21c1.26-0.72,2.52-1.44,3.78-2.16c0.85-0.49,0.96-1.67,0.3-2.36c-1.03-1.08-2.07-2.16-3.1-3.24
					c-0.54-0.57-1.58-0.59-2.12,0c-0.56,0.61-0.58,1.52,0,2.12c1.03,1.08,2.07,2.16,3.1,3.24c0.1-0.79,0.2-1.57,0.3-2.36
					c-1.26,0.72-2.52,1.44-3.78,2.16c-0.68,0.39-0.97,1.38-0.54,2.05C15.67,391.36,16.55,391.63,17.28,391.21L17.28,391.21z"/>
			</g>
		</g>
		<g>
			<g>
				<path class="st4" d="M17.62,413.56c1.1-0.95,2.2-1.89,3.3-2.84c0.35-0.31,0.47-0.82,0.41-1.26c-0.07-0.49-0.32-0.82-0.72-1.1
					c-1.22-0.86-2.44-1.73-3.67-2.59c-0.64-0.45-1.7-0.14-2.05,0.54c-0.41,0.77-0.15,1.57,0.54,2.05c1.22,0.86,2.44,1.73,3.67,2.59
					c-0.1-0.79-0.2-1.57-0.3-2.36c-1.1,0.95-2.2,1.89-3.3,2.84c-0.6,0.51-0.57,1.6,0,2.12C16.14,414.14,16.99,414.11,17.62,413.56
					L17.62,413.56z"/>
			</g>
		</g>
		<g>
			<g>
				<path class="st4" d="M17.19,402.52c1.1-0.95,2.2-1.89,3.3-2.84c0.35-0.31,0.47-0.82,0.41-1.26c-0.07-0.49-0.32-0.82-0.72-1.1
					c-1.22-0.86-2.44-1.73-3.67-2.59c-0.64-0.45-1.7-0.14-2.05,0.54c-0.41,0.77-0.15,1.57,0.54,2.05c1.22,0.86,2.44,1.73,3.67,2.59
					c-0.1-0.79-0.2-1.57-0.3-2.36c-1.1,0.95-2.2,1.89-3.3,2.84c-0.6,0.51-0.57,1.6,0,2.12C15.71,403.11,16.55,403.07,17.19,402.52
					L17.19,402.52z"/>
			</g>
		</g>
		<g>
			<g>
				<path class="st4" d="M42.05,406.94c-0.91,1.13-1.81,2.27-2.72,3.4c0.79,0.1,1.57,0.2,2.36,0.3c-0.91-1.19-1.82-2.38-2.72-3.57
					c-0.25-0.32-0.49-0.58-0.9-0.69c-0.36-0.1-0.84-0.05-1.16,0.15c-0.32,0.21-0.6,0.51-0.69,0.9c-0.08,0.37-0.09,0.84,0.15,1.16
					c0.91,1.19,1.82,2.38,2.72,3.57c0.3,0.39,0.59,0.65,1.1,0.72c0.43,0.06,0.97-0.05,1.26-0.41c0.91-1.13,1.81-2.27,2.72-3.4
					c0.26-0.32,0.44-0.63,0.44-1.06c0-0.37-0.16-0.81-0.44-1.06C43.62,406.44,42.57,406.28,42.05,406.94L42.05,406.94z"/>
			</g>
		</g>
		<g>
			<g>
				<path class="st4" d="M42.05,396.62c-0.91,1.13-1.81,2.27-2.72,3.4c0.79,0.1,1.57,0.2,2.36,0.3c-0.91-1.19-1.82-2.38-2.72-3.57
					c-0.25-0.32-0.49-0.58-0.9-0.69c-0.36-0.1-0.84-0.05-1.16,0.15c-0.32,0.21-0.6,0.51-0.69,0.9c-0.08,0.37-0.09,0.84,0.15,1.16
					c0.91,1.19,1.82,2.38,2.72,3.57c0.3,0.39,0.59,0.65,1.1,0.72c0.43,0.06,0.97-0.05,1.26-0.41c0.91-1.13,1.81-2.27,2.72-3.4
					c0.26-0.32,0.44-0.63,0.44-1.06c0-0.37-0.16-0.81-0.44-1.06C43.62,396.12,42.57,395.97,42.05,396.62L42.05,396.62z"/>
			</g>
		</g>
		<g>
			<g>
				<path class="st4" d="M42.05,386.83c-0.91,1.13-1.81,2.27-2.72,3.4c0.79,0.1,1.57,0.2,2.36,0.3c-0.91-1.19-1.82-2.38-2.72-3.57
					c-0.25-0.32-0.49-0.58-0.9-0.69c-0.36-0.1-0.84-0.05-1.16,0.15c-0.32,0.21-0.6,0.51-0.69,0.9c-0.08,0.37-0.09,0.84,0.15,1.16
					c0.91,1.19,1.82,2.38,2.72,3.57c0.3,0.39,0.59,0.65,1.1,0.72c0.43,0.06,0.97-0.05,1.26-0.41c0.91-1.13,1.81-2.27,2.72-3.4
					c0.26-0.32,0.44-0.63,0.44-1.06c0-0.37-0.16-0.81-0.44-1.06C43.62,386.33,42.57,386.17,42.05,386.83L42.05,386.83z"/>
			</g>
		</g>
		<g>
			<g>
				<path class="st4" d="M42.05,377.03c-0.91,1.13-1.81,2.27-2.72,3.4c0.79,0.1,1.57,0.2,2.36,0.3c-0.91-1.19-1.82-2.38-2.72-3.57
					c-0.25-0.32-0.49-0.58-0.9-0.69c-0.36-0.1-0.84-0.05-1.16,0.15c-0.32,0.21-0.6,0.51-0.69,0.9c-0.08,0.37-0.09,0.84,0.15,1.16
					c0.91,1.19,1.82,2.38,2.72,3.57c0.3,0.39,0.59,0.65,1.1,0.72c0.43,0.06,0.97-0.05,1.26-0.41c0.91-1.13,1.81-2.27,2.72-3.4
					c0.26-0.32,0.44-0.63,0.44-1.06c0-0.37-0.16-0.81-0.44-1.06C43.62,376.53,42.57,376.37,42.05,377.03L42.05,377.03z"/>
			</g>
		</g>
		<g>
			<g>
				<path class="st4" d="M42.05,366.14c-0.91,1.13-1.81,2.27-2.72,3.4c0.79,0.1,1.57,0.2,2.36,0.3c-0.91-1.19-1.82-2.38-2.72-3.57
					c-0.25-0.32-0.49-0.58-0.9-0.69c-0.36-0.1-0.84-0.05-1.16,0.15c-0.32,0.21-0.6,0.51-0.69,0.9c-0.08,0.37-0.09,0.84,0.15,1.16
					c0.91,1.19,1.82,2.38,2.72,3.57c0.3,0.39,0.59,0.65,1.1,0.72c0.43,0.06,0.97-0.05,1.26-0.41c0.91-1.13,1.81-2.27,2.72-3.4
					c0.26-0.32,0.44-0.63,0.44-1.06c0-0.37-0.16-0.81-0.44-1.06C43.62,365.64,42.57,365.49,42.05,366.14L42.05,366.14z"/>
			</g>
		</g>
		<g>
			<g>
				<path class="st4" d="M42.05,356.34c-0.91,1.13-1.81,2.27-2.72,3.4c0.79,0.1,1.57,0.2,2.36,0.3c-0.91-1.19-1.82-2.38-2.72-3.57
					c-0.25-0.32-0.49-0.58-0.9-0.69c-0.36-0.1-0.84-0.05-1.16,0.15c-0.32,0.21-0.6,0.51-0.69,0.9c-0.08,0.37-0.09,0.84,0.15,1.16
					c0.91,1.19,1.82,2.38,2.72,3.57c0.3,0.39,0.59,0.65,1.1,0.72c0.43,0.06,0.97-0.05,1.26-0.41c0.91-1.13,1.81-2.27,2.72-3.4
					c0.26-0.32,0.44-0.63,0.44-1.06c0-0.37-0.16-0.81-0.44-1.06C43.62,355.85,42.57,355.69,42.05,356.34L42.05,356.34z"/>
			</g>
		</g>
	</g>
	<g>
		<g>
			<path class="st7" d="M5.32,420.73c-1.82-0.28-1.94,0.03-3.82-0.28c0,0,0-5,0-9c35,1,81,1,121,0v10c0,0,0,0-5,0"/>
			<g>
				<path class="st8" d="M5.72,419.28c-1.27-0.17-2.55-0.09-3.82-0.28c0.37,0.48,0.73,0.96,1.1,1.45c0-3,0-6,0-9
					c-0.5,0.5-1,1-1.5,1.5c14.98,0.43,29.96,0.63,44.95,0.71c16.31,0.09,32.62,0.02,48.94-0.2c9.04-0.12,18.08-0.29,27.12-0.52
					c-0.5-0.5-1-1-1.5-1.5c0,3.33,0,6.67,0,10c0.5-0.5,1-1,1.5-1.5c-1.67,0-3.33,0-5,0c-1.93,0-1.93,3,0,3c1.67,0,3.33,0,5,0
					c0.81,0,1.5-0.69,1.5-1.5c0-3.33,0-6.67,0-10c0-0.8-0.69-1.52-1.5-1.5c-16.17,0.4-32.34,0.63-48.52,0.71
					c-15.98,0.08-31.96,0.03-47.94-0.2c-8.18-0.12-16.36-0.28-24.54-0.52c-0.81-0.02-1.5,0.71-1.5,1.5c0,3,0,6,0,9
					c0,0.59,0.46,1.35,1.1,1.45c1.27,0.19,2.55,0.1,3.82,0.28c0.81,0.11,1.6-0.2,1.85-1.05C6.97,420.43,6.52,419.39,5.72,419.28
					L5.72,419.28z"/>
			</g>
		</g>
		<g>
			<path class="st7" d="M117.51,421.45c-1,4-2.81,15.2-3.81,21.86c-3,20-6,35-10,55c-0.45,2.25-2.7,4.19-5.04,5.63
				c-2.9,1.79-6.15,2.92-9.5,3.54c-17.82,3.3-35.98,3.16-53.77-0.43c-2.37-0.48-11.43-3.92-12.68-6.74c-4-9-6-25-11-51
				c-1.12-5.84-4.4-19.58-6.37-28.59C38.51,421.45,78.51,421.45,117.51,421.45z"/>
			<g>
				<path class="st8" d="M116.06,421.05c-1.61,6.51-2.49,13.25-3.51,19.87c-1.39,9.07-2.84,18.12-4.49,27.15
					c-1.69,9.24-3.53,18.46-5.37,27.67c-0.21,1.03-0.3,2.18-0.76,3.13c-0.45,0.92-1.22,1.67-1.98,2.33
					c-1.7,1.45-3.78,2.56-5.86,3.36c-4.58,1.76-9.67,2.31-14.51,2.87c-9.98,1.16-20.08,1.24-30.08,0.25
					c-7.43-0.73-14.93-1.63-21.62-5.15c-1.15-0.61-2.36-1.26-3.3-2.18c-0.61-0.6-0.86-1.4-1.17-2.22c-0.82-2.16-1.47-4.39-2.05-6.63
					c-1.6-6.22-2.72-12.57-3.87-18.89c-1.53-8.43-2.94-16.9-4.67-25.3c-1.49-7.25-3.23-14.45-4.87-21.67
					c-0.4-1.77-0.8-3.55-1.19-5.32c-0.48,0.63-0.96,1.27-1.45,1.9c28.79,0.62,57.59,0.69,86.39,0.72c8.6,0.01,17.19,0.01,25.79,0.01
					c1.93,0,1.93-3,0-3c-29.79,0-59.59,0.02-89.39-0.34c-7.6-0.09-15.2-0.22-22.8-0.38c-1.02-0.02-1.65,0.97-1.45,1.9
					c1.7,7.73,3.54,15.43,5.23,23.16c1.81,8.21,3.22,16.51,4.71,24.78c1.25,6.92,2.43,13.88,4.04,20.73
					c0.59,2.52,1.24,5.03,2.07,7.49c0.75,2.21,1.43,4.37,3.32,5.86c5.35,4.22,12.35,5.64,18.9,6.62
					c10.24,1.52,20.61,1.98,30.94,1.26c5.2-0.36,10.38-1,15.51-1.92c4.61-0.82,9.11-2.36,12.83-5.27c1.59-1.25,3.05-2.8,3.63-4.79
					c0.71-2.4,1.01-4.99,1.5-7.45c0.94-4.72,1.88-9.45,2.78-14.18c1.8-9.38,3.47-18.78,4.95-28.22c1.23-7.86,2.34-15.74,3.85-23.55
					c0.24-1.27,0.5-2.54,0.81-3.8C119.42,419.97,116.52,419.17,116.06,421.05z"/>
			</g>
		</g>
	</g>
	<g>
		<g>
			<path class="st0" d="M64.01,307.95c0-2.75,0-5.5,0-8.25c0-7.42,0-14.84,0-22.26c0-11,0-22,0-33c0-13.42,0-26.84,0-40.27
				c0-14.65,0-29.3,0-43.95c0-14.89,0-29.78,0-44.66c0-13.79,0-27.57,0-41.36c0-11.69,0-23.39,0-35.08c0-8.41,0-16.81,0-25.22
				c0-3.97,0.08-7.95,0-11.92c0-0.17,0-0.35,0-0.52c0-1.93-3-1.93-3,0c0,2.75,0,5.5,0,8.25c0,7.42,0,14.84,0,22.26c0,11,0,22,0,33
				c0,13.42,0,26.84,0,40.27c0,14.65,0,29.3,0,43.95c0,14.89,0,29.78,0,44.66c0,13.79,0,27.57,0,41.36c0,11.69,0,23.39,0,35.08
				c0,8.41,0,16.81,0,25.22c0,3.97-0.08,7.95,0,11.92c0,0.17,0,0.35,0,0.52C61.01,309.88,64.01,309.88,64.01,307.95L64.01,307.95z"
				/>
		</g>
	</g>
</g>
<g class="st9">
	<rect x="-1.42" y="444.65" class="st10" width="122.85" height="33.7"/>
	<text transform="matrix(1 0 0 1 20.3836 461.669)" class="st11 st12 st13">Contact</text>
</g>
<g>
	<g>
		<path class="st14" d="M37.55,461.49c-1.39,0-2.14-0.22-2.26-0.67l-0.79-3.1h-3.82l-0.7,2.98c-0.1,0.5-0.86,0.74-2.3,0.74
			c-0.77,0-1.34-0.04-1.7-0.13s-0.55-0.16-0.55-0.2l4.25-16.25c0-0.13,1.1-0.19,3.29-0.19c2.19,0,3.29,0.06,3.29,0.19l4.15,16.27
			c0,0.11-0.37,0.2-1.1,0.26C38.57,461.46,37.98,461.49,37.55,461.49z M31.29,454.68h2.52l-1.08-4.97h-0.14L31.29,454.68z"/>
		<path class="st14" d="M45.81,455.49c0,1.57,0.59,2.35,1.78,2.35c0.77,0,1.41-0.15,1.92-0.46c0.24,0,0.44,0.41,0.59,1.24
			c0.15,0.82,0.23,1.38,0.23,1.68s-0.04,0.49-0.12,0.59c-0.85,0.53-2.01,0.79-3.48,0.79c-1.47,0-2.72-0.55-3.76-1.64
			c-1.03-1.1-1.55-2.59-1.55-4.49c0-1.9,0.51-3.43,1.52-4.6c1.02-1.17,2.37-1.75,4.06-1.75c1.69,0,2.86,0.41,3.52,1.22
			c0.14,0.18,0.22,0.44,0.22,0.78c0,0.34-0.06,0.76-0.19,1.26c-0.29,1.02-0.66,1.62-1.13,1.78c-0.06,0.02-0.16,0.02-0.28,0.02
			s-0.27-0.1-0.44-0.29c-0.62-0.62-1.12-0.94-1.5-0.94s-0.7,0.19-0.97,0.58C45.94,454.01,45.81,454.63,45.81,455.49z"/>
		<path class="st14" d="M55.98,455.49c0,1.57,0.59,2.35,1.78,2.35c0.77,0,1.41-0.15,1.92-0.46c0.24,0,0.44,0.41,0.59,1.24
			c0.15,0.82,0.23,1.38,0.23,1.68s-0.04,0.49-0.12,0.59c-0.85,0.53-2.01,0.79-3.48,0.79c-1.47,0-2.72-0.55-3.76-1.64
			c-1.03-1.1-1.55-2.59-1.55-4.49c0-1.9,0.51-3.43,1.52-4.6c1.02-1.17,2.37-1.75,4.06-1.75c1.69,0,2.86,0.41,3.52,1.22
			c0.14,0.18,0.22,0.44,0.22,0.78c0,0.34-0.06,0.76-0.19,1.26c-0.29,1.02-0.66,1.62-1.13,1.78c-0.06,0.02-0.16,0.02-0.28,0.02
			s-0.27-0.1-0.44-0.29c-0.62-0.62-1.12-0.94-1.5-0.94s-0.7,0.19-0.97,0.58C56.12,454.01,55.98,454.63,55.98,455.49z"/>
		<path class="st14" d="M62.1,449.59c0-0.18,0.69-0.26,2.06-0.26c1.38,0,2.06,0.09,2.06,0.26v7.01c0,0.8,0.26,1.2,0.77,1.2
			c0.38,0,0.82-0.17,1.3-0.5v-7.7c0-0.16,0.68-0.24,2.04-0.24c1.36,0,2.04,0.08,2.04,0.24v7.87H73c0.54,0,0.82,0.52,0.82,1.56
			c0,0.53-0.11,1.06-0.34,1.61c-0.32,0.71-0.75,1.06-1.3,1.06c-1.07,0-1.86-0.44-2.38-1.32l-0.02,0.02c-0.98,0.86-2.02,1.3-3.14,1.3
			c-1.55,0-2.7-0.39-3.43-1.16s-1.1-2.06-1.1-3.85V449.59z"/>
		<path class="st14" d="M84.35,460.8c-1.01,0.59-2.3,0.89-3.89,0.89s-2.92-0.54-4.01-1.62s-1.63-2.58-1.63-4.49
			c0-1.91,0.52-3.45,1.57-4.62c1.05-1.17,2.37-1.75,3.97-1.75c1.6,0,2.84,0.41,3.71,1.22c0.87,0.82,1.31,1.81,1.31,2.98
			c0,2.59-1.49,3.89-4.46,3.89h-1.66c0,0.48,0.13,0.81,0.4,1c0.26,0.18,0.65,0.28,1.16,0.28c1.12,0,2.18-0.26,3.19-0.77
			c0.02-0.02,0.09,0.1,0.22,0.34c0.38,0.69,0.58,1.27,0.58,1.74C84.81,460.35,84.65,460.65,84.35,460.8z M81.35,453.86
			c0-0.67-0.33-1.01-0.98-1.01c-0.3,0-0.56,0.09-0.78,0.28c-0.22,0.18-0.32,0.45-0.32,0.8v0.74h1.3
			C81.09,454.68,81.35,454.41,81.35,453.86z"/>
		<path class="st14" d="M91.33,448.1c0,0.11-0.73,0.17-2.2,0.17c-1.46,0-2.2-0.05-2.2-0.14v-3.46c0-0.16,0.73-0.24,2.2-0.24
			c1.46,0,2.2,0.05,2.2,0.14V448.1z M91.33,461.3c0,0.13-0.73,0.19-2.2,0.19c-1.46,0-2.2-0.06-2.2-0.17v-11.78
			c0-0.11,0.73-0.17,2.2-0.17c1.46,0,2.2,0.05,2.2,0.14V461.3z"/>
		<path class="st14" d="M97.86,461.25c0,0.14-0.82,0.22-2.45,0.22c-1.28-0.02-1.92-0.08-1.92-0.19v-16.34
			c0-0.24,0.78-0.36,2.33-0.36c1.36,0.05,2.04,0.13,2.04,0.24V461.25z"/>
	</g>
</g>
</svg>
