<?xml version="1.0" encoding="utf-8"?>
<!-- Generator: $$$/GeneralStr/196=Adobe Illustrator 27.6.0, SVG Export Plug-In . SVG Version: 6.00 Build 0)  -->
<svg version="1.1" id="Calque_1" xmlns="http://www.w3.org/2000/svg" xmlns:xlink="http://www.w3.org/1999/xlink" x="0px" y="0px"
	 width="146.48px" height="511.35px" viewBox="0 0 146.48 511.35" style="enable-background:new 0 0 146.48 511.35;"
	 xml:space="preserve">
<style type="text/css">
	.st0{fill:#2E1000;}
	.st1{fill:#7BC71C;}
	.st2{fill:#0E6234;}
	.st3{fill:#E95563;}
	.st4{fill:#7D2921;}
	.st5{fill:#4F2921;}
</style>
<g>
	<g>
		<g>
			<path class="st0" d="M11.73,412.21c2.03-3.52,4.06-7.05,6.08-10.57c4.87-8.46,9.73-16.92,14.6-25.37
				c5.86-10.19,11.73-20.38,17.59-30.57c5.07-8.81,10.14-17.62,15.21-26.42c1.68-2.92,3.36-5.84,5.04-8.77
				c0.77-1.33,1.76-2.69,2.36-4.11c0.03-0.07,0.07-0.13,0.11-0.19c-0.86,0-1.73,0-2.59,0c2,3.53,3.99,7.05,5.99,10.58
				c4.77,8.43,9.55,16.86,14.32,25.29c5.77,10.19,11.54,20.39,17.31,30.58c5,8.84,10.01,17.68,15.01,26.53
				c2.41,4.26,4.67,8.67,7.26,12.83c0.04,0.06,0.07,0.12,0.1,0.18c0.95,1.68,3.54,0.17,2.59-1.51c-2-3.53-3.99-7.05-5.99-10.58
				c-4.77-8.43-9.55-16.86-14.32-25.29c-5.77-10.19-11.54-20.39-17.31-30.58c-5-8.84-10.01-17.68-15.01-26.53
				c-2.41-4.26-4.67-8.67-7.26-12.83c-0.04-0.06-0.07-0.12-0.1-0.18c-0.55-0.98-2.03-0.97-2.59,0c-2.03,3.52-4.06,7.05-6.08,10.57
				c-4.87,8.46-9.73,16.92-14.6,25.37c-5.86,10.19-11.73,20.38-17.59,30.57c-5.07,8.81-10.14,17.62-15.21,26.42
				c-2.46,4.28-5.09,8.51-7.41,12.87c-0.03,0.06-0.07,0.13-0.11,0.19C8.17,412.37,10.76,413.88,11.73,412.21L11.73,412.21z"/>
		</g>
	</g>
	<g>
		<path class="st1" d="M8.24,391.49c0,0,26.88-5.89,58.18,45.3c5.97-3.65,7.68-4.7,7.68-4.7S37.58,372.38,8.24,391.49z"/>
		<g>
			<path class="st2" d="M8.64,392.94c0.06-0.01,0.13-0.02,0.19-0.03c0.49-0.09-0.42,0.02,0.2-0.03c0.71-0.06,1.42-0.1,2.14-0.09
				c2.79,0.03,4.78,0.4,7.62,1.2c10.4,2.96,19.39,10.06,26.84,17.74c7.53,7.77,13.85,16.61,19.5,25.82
				c0.42,0.68,1.35,0.97,2.05,0.54c2.56-1.57,5.12-3.13,7.68-4.7c0.68-0.42,0.97-1.35,0.54-2.05c-4.22-6.9-9.23-13.43-14.49-19.55
				c-4.58-5.33-9.53-10.39-15.04-14.77c-5.27-4.19-11.14-7.92-17.69-9.73c-7.09-1.96-14.46-1.1-20.68,2.91
				c-1.62,1.04-0.11,3.64,1.51,2.59c5.11-3.29,11.04-4.3,16.96-2.96c6.26,1.41,11.94,4.82,16.98,8.69
				c9.82,7.54,18.02,17.29,25.17,27.34c1.63,2.29,3.23,4.61,4.7,7c0.18-0.68,0.36-1.37,0.54-2.05c-2.56,1.57-5.12,3.13-7.68,4.7
				c0.68,0.18,1.37,0.36,2.05,0.54c-8.84-14.42-19.57-28.66-33.83-38.13c-6.49-4.31-14.1-7.77-22-8.1
				c-1.33-0.06-2.74-0.05-4.04,0.24C5.96,390.46,6.76,393.35,8.64,392.94z"/>
		</g>
	</g>
	<g>
		<path class="st1" d="M18.15,361.86c0,0,28.23,2.49,51.99,73.85c6.64-2.21,8.54-2.84,8.54-2.84S50.96,349.61,18.15,361.86z"/>
		<g>
			<path class="st2" d="M18.15,363.36c0.33,0.03-0.49-0.1-0.17-0.02c0.19,0.05,0.39,0.07,0.59,0.11c0.74,0.16,1.46,0.38,2.17,0.64
				c0.25,0.09,0.49,0.18,0.74,0.28c0.12,0.05,0.24,0.1,0.36,0.15c0.28,0.11-0.34-0.15-0.06-0.03c0.09,0.04,0.18,0.08,0.27,0.12
				c0.64,0.29,1.27,0.59,1.89,0.91c1.54,0.81,3.02,1.73,4.43,2.74c3.99,2.82,7.88,6.66,11.21,10.57c5.2,6.11,9.53,12.93,13.36,19.96
				c6.47,11.88,11.49,24.51,15.76,37.32c0.25,0.74,1.04,1.32,1.85,1.05c2.85-0.95,5.69-1.9,8.54-2.84c0.74-0.25,1.32-1.04,1.05-1.85
				c-0.94-2.81-1.99-5.59-3.07-8.36c-2.59-6.68-5.43-13.27-8.55-19.72c-3.77-7.79-7.94-15.42-12.86-22.55
				c-4.56-6.6-9.8-13.02-16.42-17.65c-5.57-3.9-12.33-6.11-19.1-4.51c-0.81,0.19-1.6,0.44-2.37,0.72c-1.8,0.66-1.02,3.56,0.8,2.89
				c6.08-2.24,12.14-0.95,17.59,2.44c6.39,3.97,11.47,9.96,15.8,16.02c4.96,6.93,9.15,14.39,12.94,22.01
				c3.17,6.39,6.05,12.92,8.67,19.55c0.87,2.2,1.71,4.41,2.52,6.64c0.36,1,0.61,2.21,1.11,3.15c0.02,0.04,0.03,0.1,0.05,0.14
				c0.35-0.62,0.7-1.23,1.05-1.85c-2.85,0.95-5.69,1.9-8.54,2.84c0.62,0.35,1.23,0.7,1.85,1.05c-6.65-19.94-15.03-40.18-28.31-56.7
				c-5.61-6.98-12.53-13.78-21-17.14c-1.31-0.52-2.7-0.98-4.12-1.11C16.23,360.18,16.24,363.19,18.15,363.36z"/>
		</g>
	</g>
	<g>
		<path class="st1" d="M52.71,383.6c0,0,23-11,7,43c6,0,7.63-0.63,7.63-0.63S79.71,359.6,52.71,383.6z"/>
		<g>
			<path class="st2" d="M53.46,384.9c0.05-0.02,0.11-0.04,0.15-0.07c-0.45,0.31-0.19,0.07,0.11-0.03c0.49-0.17,0.99-0.32,1.5-0.43
				c0.15-0.03,0.31-0.06,0.46-0.09c0.08-0.02,0.16-0.03,0.24-0.04c0.36-0.06-0.39,0.03-0.02,0c0.38-0.03,0.75-0.06,1.14-0.06
				c0.19,0,0.37,0.01,0.56,0.02c0.1,0.01,0.19,0.02,0.28,0.03c0.38,0.03-0.31-0.06,0,0c0.41,0.08,0.8,0.17,1.19,0.29
				c0.1,0.03,0.19,0.07,0.29,0.11c0.18,0.07-0.32-0.16,0,0c0.22,0.11,0.43,0.21,0.64,0.34c0.19,0.12,0.37,0.24,0.55,0.37
				c-0.38-0.28,0.24,0.22,0.36,0.34c0.18,0.17,0.34,0.36,0.51,0.55c0.24,0.28-0.05-0.08,0.07,0.08c0.09,0.12,0.18,0.25,0.26,0.38
				c0.16,0.24,0.31,0.49,0.44,0.74c0.07,0.13,0.14,0.27,0.21,0.41c0.11,0.21,0.19,0.42,0.14,0.3c1.52,3.69,1.46,7.74,1.19,11.73
				c-0.61,8.94-2.96,17.77-5.48,26.32c-0.28,0.94,0.49,1.9,1.45,1.9c2.39-0.01,4.82-0.04,7.18-0.48c0.83-0.15,1.6-0.35,1.9-1.28
				c0.26-0.81,0.31-1.77,0.45-2.61c0.78-4.77,1.4-9.58,1.84-14.4c0.54-5.95,0.87-12,0.35-17.97c-0.38-4.27-1.04-9.91-4.55-12.89
				c-4.93-4.19-11.41,0.69-15.22,4.05c-1.45,1.28,0.68,3.4,2.12,2.12c1.85-1.64,4.23-3.48,6.31-4.26c0.43-0.16,0.87-0.3,1.32-0.4
				c0.08-0.02,0.73-0.13,0.34-0.08c0.23-0.03,0.47-0.05,0.7-0.05c0.19,0,0.37,0.01,0.56,0.02c0.41,0.02-0.14-0.05,0.18,0.03
				c0.17,0.04,0.34,0.08,0.5,0.13c0.08,0.02,0.16,0.05,0.24,0.08c0.33,0.11-0.3-0.15,0.02,0.01c0.31,0.15,0.6,0.32,0.87,0.52
				c-0.34-0.25,0.11,0.1,0.18,0.17c0.15,0.15,0.3,0.3,0.45,0.46c0.17,0.18,0.22,0.27,0.15,0.17c0.11,0.15,0.22,0.31,0.33,0.47
				c0.23,0.36,0.44,0.73,0.62,1.12c0.25,0.5,0.2,0.39,0.41,0.98c0.18,0.49,0.34,0.99,0.47,1.49c0.28,1,0.49,2.02,0.65,3.04
				c0.77,4.71,0.69,10.06,0.42,15.01c-0.25,4.77-0.8,10.01-1.41,14.44c-0.35,2.53-0.72,5.07-1.19,7.58c0.35-0.35,0.7-0.7,1.05-1.05
				c-2.16,0.81-4.97,0.57-7.23,0.57c0.48,0.63,0.96,1.27,1.45,1.9c2.45-8.31,4.63-16.8,5.45-25.45c0.42-4.43,0.58-9.28-0.91-13.54
				c-0.87-2.47-2.38-4.82-4.82-5.97c-1.84-0.87-3.85-1-5.84-0.68c-1.06,0.17-2.12,0.48-3.09,0.95
				C50.21,383.14,51.73,385.72,53.46,384.9z"/>
		</g>
	</g>
	<g>
		<path class="st1" d="M116.21,374.1c0,0-24.72,15.11-44.3,70.62c-10.01-1.01-12.27-3.75-12.27-3.75S84.98,364.22,116.21,374.1z"/>
		<g>
			<path class="st2" d="M115.45,372.81c-3.7,2.27-6.94,5.58-9.89,8.71c-8.75,9.3-15.75,20.22-21.65,31.5
				c-5.27,10.07-9.66,20.59-13.45,31.3c0.48-0.37,0.96-0.73,1.45-1.1c-3.09-0.32-6.36-0.81-9.22-2.09c-0.62-0.28-1.21-0.61-1.77-1
				c0.37,0.26-0.13-0.06-0.1-0.1c0,0-0.11-0.11-0.12-0.12c0.13,0.49,0.26,0.97,0.39,1.46c2.79-8.44,6.3-16.7,10.14-24.72
				c3.39-7.08,7.14-14.02,11.52-20.54c4.01-5.98,8.64-11.88,14.44-16.23c5.49-4.1,11.97-6.41,18.63-4.34
				c1.85,0.57,2.64-2.32,0.8-2.89c-7.27-2.26-14.63,0.04-20.61,4.4c-7.07,5.16-12.52,12.32-17.21,19.62
				c-4.86,7.57-8.96,15.61-12.63,23.81c-2.56,5.71-4.92,11.52-7.03,17.41c-0.31,0.86-0.76,1.78-0.93,2.68
				c-0.25,1.27,0.91,2.01,1.86,2.57c1.88,1.11,4.08,1.75,6.2,2.21c1.86,0.41,3.76,0.66,5.65,0.86c0.68,0.07,1.24-0.52,1.45-1.1
				c5.89-16.65,13.29-32.95,23.28-47.58c4.95-7.25,10.59-14.26,17.35-19.91c0.45-0.37,0.9-0.74,1.36-1.09
				c-0.43,0.33,0.19-0.14,0.31-0.23c0.15-0.11,0.31-0.23,0.46-0.34c0.28-0.2,0.56-0.4,0.85-0.58
				C118.61,374.39,117.1,371.79,115.45,372.81z"/>
		</g>
	</g>
	<g>
		<path class="st1" d="M2.78,380.3c0,0,26.88-5.89,58.18,45.3c5.97-3.65,7.68-4.7,7.68-4.7S32.12,361.19,2.78,380.3z"/>
		<g>
			<path class="st2" d="M3.18,381.74c0.06-0.01,0.13-0.02,0.19-0.03c0.49-0.09-0.42,0.02,0.2-0.03c0.71-0.06,1.42-0.1,2.14-0.09
				c2.79,0.03,4.78,0.4,7.62,1.2c10.4,2.96,19.39,10.06,26.84,17.74c7.53,7.77,13.85,16.61,19.5,25.82
				c0.42,0.68,1.35,0.97,2.05,0.54c2.56-1.57,5.12-3.13,7.68-4.7c0.68-0.42,0.97-1.35,0.54-2.05c-4.25-6.94-9.29-13.51-14.59-19.66
				c-4.55-5.28-9.46-10.3-14.93-14.65c-5.26-4.18-11.12-7.91-17.65-9.73c-7.11-1.98-14.5-1.13-20.75,2.89
				c-1.62,1.04-0.11,3.64,1.51,2.59c5.09-3.28,11.01-4.3,16.92-2.97c6.25,1.4,11.91,4.79,16.94,8.64
				c9.87,7.55,18.1,17.34,25.27,27.43c1.62,2.28,3.22,4.59,4.68,6.97c0.18-0.68,0.36-1.37,0.54-2.05c-2.56,1.57-5.12,3.13-7.68,4.7
				c0.68,0.18,1.37,0.36,2.05,0.54c-8.84-14.42-19.57-28.66-33.83-38.13c-6.49-4.31-14.1-7.77-22-8.1
				c-1.33-0.06-2.74-0.05-4.04,0.24C0.5,379.26,1.29,382.15,3.18,381.74z"/>
		</g>
	</g>
	<g>
		<path class="st1" d="M121.82,359.88c0,0-29.94-51.63-66.7,63.86l18.04,8.69C73.16,432.43,79.92,330.2,121.82,359.88z"/>
		<g>
			<path class="st2" d="M123.12,359.12c-0.97-1.67-2.23-3.21-3.53-4.62c-2.69-2.92-5.98-5.37-9.75-6.68
				c-4.97-1.72-10.27-0.9-14.85,1.53c-7.83,4.15-13.53,11.92-18.1,19.27c-8.94,14.37-15.1,30.49-20.51,46.46
				c-0.93,2.75-1.83,5.5-2.71,8.26c-0.19,0.59,0.11,1.42,0.69,1.69c6.01,2.9,12.03,5.8,18.04,8.69c1.06,0.51,2.18-0.11,2.26-1.3
				c0.22-3.26,0.57-6.51,0.96-9.75c0.87-7.3,2.09-14.89,3.69-22.3c1.82-8.45,4.1-16.93,7.58-24.86c2.85-6.49,6.72-13.43,12.63-17.15
				c2.58-1.63,5.32-2.45,8.32-2.4c3.5,0.07,7.08,1.42,10.26,3.27c1.02,0.59,2.01,1.24,2.97,1.92c1.58,1.11,3.08-1.49,1.51-2.59
				c-6.28-4.43-14.2-7.39-21.7-4.27c-6.91,2.87-11.52,9.51-14.81,15.96c-4.06,7.97-6.69,16.64-8.75,25.31
				c-1.91,8.02-3.3,16.16-4.36,24.33c-0.36,2.75-0.67,5.51-0.94,8.28c-0.13,1.31-0.43,2.76-0.35,4.07c0,0.06-0.01,0.12-0.01,0.18
				c0.75-0.43,1.5-0.86,2.26-1.3c-6.01-2.9-12.03-5.8-18.04-8.69c0.23,0.56,0.46,1.13,0.69,1.69c5.42-17,11.54-34.07,20.34-49.65
				c2.68-4.74,5.63-9.38,9.15-13.54c2.49-2.96,5.31-5.75,8.36-7.76c0.63-0.41,1.27-0.8,1.93-1.16c0.33-0.18,0.66-0.35,1-0.51
				c0.15-0.07,0.29-0.14,0.44-0.2c0.09-0.04,0.64-0.27,0.3-0.13c1.18-0.49,2.41-0.86,3.67-1.1c0.13-0.02,0.27-0.05,0.4-0.07
				c0.27-0.05,0.3-0.04,0.15-0.02c0.3-0.03,0.59-0.06,0.89-0.08c0.56-0.04,1.12-0.05,1.67-0.02c0.26,0.01,0.53,0.03,0.79,0.05
				c0.12,0.01,0.24,0.03,0.37,0.04c0.47,0.05-0.16-0.03,0.14,0.02c0.52,0.09,1.03,0.18,1.54,0.31c0.49,0.13,0.98,0.28,1.46,0.45
				c0.23,0.08,0.46,0.17,0.69,0.26c0.37,0.14-0.19-0.09,0.04,0.01c0.13,0.06,0.26,0.11,0.39,0.17c0.88,0.41,1.73,0.88,2.55,1.41
				c0.41,0.26,0.8,0.55,1.19,0.83c0.09,0.06,0.17,0.13,0.25,0.19c-0.38-0.29-0.08-0.07,0.01,0.01c0.18,0.15,0.36,0.29,0.54,0.44
				c0.67,0.56,1.31,1.15,1.92,1.78c0.54,0.54,1.05,1.11,1.55,1.69c0.22,0.26,0.43,0.52,0.64,0.78c0.25,0.3,0.14,0.18,0.07,0.09
				c0.09,0.12,0.18,0.24,0.27,0.35c0.43,0.58,0.79,1.2,1.21,1.78c0.02,0.03,0.03,0.05,0.05,0.08
				C121.5,362.3,124.09,360.79,123.12,359.12z"/>
		</g>
	</g>
	<g>
		<path class="st1" d="M114.21,361.11c0,0-31.39,5.97-33.9,56.12c-8.35-0.42-10.73-0.54-10.73-0.54S72.5,358.18,114.21,361.11z"/>
		<g>
			<path class="st2" d="M113.81,359.67c-4,0.77-7.94,2.96-11.24,5.24c-8.74,6.02-14.79,15.03-18.51,24.87
				c-3.31,8.76-4.77,18.14-5.25,27.46c0.5-0.5,1-1,1.5-1.5c-3.58-0.18-7.16-0.36-10.73-0.54c0.5,0.5,1,1,1.5,1.5
				c0.03-0.52,0.07-1.03,0.12-1.55c0.05-0.6,0.11-1.21,0.18-1.81c0.04-0.34,0.08-0.68,0.12-1.02c0.02-0.19,0.05-0.39,0.07-0.58
				c0.01-0.1,0.03-0.2,0.04-0.3c0.05-0.35-0.03,0.23,0.01-0.1c0.63-4.57,1.55-9.1,2.79-13.55c3.11-11.13,8.45-22.8,18.2-29.61
				c6.37-4.44,13.92-6.08,21.6-5.57c1.93,0.13,1.92-2.87,0-3c-7.27-0.49-14.62,0.87-20.95,4.58c-5.52,3.24-9.96,8.02-13.4,13.38
				c-6.03,9.4-9.26,20.55-10.93,31.51c-0.38,2.52-0.73,5.07-0.86,7.61c-0.04,0.84,0.72,1.46,1.5,1.5c3.58,0.18,7.16,0.36,10.73,0.54
				c0.84,0.04,1.46-0.72,1.5-1.5c0.73-14.02,3.86-28.54,12.34-40.03c2.54-3.44,5.74-6.67,9.08-9.1c1.36-0.99,2.78-1.9,4.25-2.7
				c0.62-0.34,1.25-0.66,1.89-0.97c0.27-0.13,0.55-0.25,0.82-0.38c0.13-0.06,0.26-0.11,0.39-0.17c0.09-0.04-0.17,0.07,0.2-0.08
				c1.23-0.49,2.51-0.98,3.81-1.23C116.5,362.2,115.7,359.3,113.81,359.67z"/>
		</g>
	</g>
	<g>
		<path class="st1" d="M137.5,390.81c0,0-26-9.01-63.11,38.14c-5.5-4.33-7.07-5.57-7.07-5.57S110.61,368.38,137.5,390.81z"/>
		<g>
			<path class="st2" d="M137.9,389.37c-3.63-1.25-8.05-0.84-11.73-0.25c-11.17,1.77-21.31,8-29.96,15
				c-8.57,6.94-16.06,15.14-22.87,23.78c0.71,0,1.41,0,2.12,0c-2.36-1.86-4.71-3.71-7.07-5.57c0,0.71,0,1.41,0,2.12
				c4.76-6.05,10.2-11.66,15.83-16.89c4.94-4.59,10.18-8.89,15.87-12.52c5.45-3.48,11.39-6.47,17.79-7.65
				c6.62-1.22,13.32,0.16,18.56,4.49c1.48,1.22,3.61-0.89,2.12-2.12c-5.06-4.18-11.3-6.23-17.87-5.74
				c-6.71,0.51-13.09,3.15-18.88,6.46c-11.26,6.45-21.05,15.55-29.75,25.1c-2,2.19-3.97,4.42-5.81,6.75c-0.45,0.58-0.69,1.57,0,2.12
				c2.36,1.86,4.71,3.71,7.07,5.57c0.58,0.45,1.57,0.69,2.12,0c10.22-12.95,22.2-25.58,37.1-33.14c4.1-2.08,8.44-3.71,12.95-4.61
				c2.66-0.53,5.43-0.79,8.38-0.57c0.27,0.02,0.53,0.05,0.8,0.07c0.13,0.01,0.25,0.03,0.38,0.05c0.12,0.01-0.37-0.06,0.02,0
				c0.37,0.06,0.74,0.12,1.1,0.2c0.31,0.07,0.62,0.14,0.91,0.24C138.93,392.89,139.72,389.99,137.9,389.37z"/>
		</g>
	</g>
	<g>
		<path class="st1" d="M25.74,382.85c0,0,26.03,9.8,59.01,59.32c8.52-2.87,9.72-5.92,9.72-5.92S50.38,367.43,25.74,382.85z"/>
		<g>
			<path class="st2" d="M25.34,384.3c0.06,0.02,0.12,0.05,0.18,0.07c0.26,0.1-0.44-0.2-0.11-0.05c0.11,0.05,0.22,0.1,0.33,0.15
				c0.71,0.33,1.42,0.67,2.11,1.04c2.72,1.44,5.33,3.1,7.84,4.87c10.23,7.17,19.21,16.13,27.37,25.55
				c7.39,8.53,14.12,17.61,20.38,27c0.35,0.53,1.05,0.91,1.69,0.69c2.93-1,5.87-2.21,8.33-4.12c0.85-0.66,1.8-1.46,2.27-2.46
				c0.59-1.23-0.49-2.34-1.14-3.31c-3.23-4.83-6.63-9.56-10.16-14.17c-5.39-7.06-11.08-13.91-17.28-20.27
				c-6.04-6.19-12.67-12.21-20.33-16.33c-6.01-3.23-13.22-5.34-19.79-2.49c-0.72,0.31-1.41,0.67-2.08,1.08
				c-1.64,1.01-0.13,3.61,1.51,2.59c4.77-2.94,10.26-2.34,15.42-0.23c6.49,2.65,12.2,7.22,17.35,11.9
				c10.76,9.78,19.98,21.29,28.39,33.11c1.89,2.66,3.77,5.34,5.53,8.08c-0.05-0.39-0.1-0.77-0.15-1.16c0.3-0.74-0.04-0.02-0.18,0.18
				c0.26-0.36-0.2,0.21-0.3,0.31c-0.25,0.26-0.52,0.5-0.8,0.73c-2.14,1.72-4.83,2.77-7.39,3.65c0.56,0.23,1.13,0.46,1.69,0.69
				c-10.06-15.08-21.33-29.56-34.6-41.97c-6.51-6.09-13.58-11.9-21.44-16.19c-1.25-0.68-2.53-1.35-3.87-1.86
				C24.33,380.72,23.55,383.62,25.34,384.3z"/>
		</g>
	</g>
	<g>
		<path class="st1" d="M1.48,398.62c0,0,24.21,0.23,50.21,23.74c3.14-3.89,3.61-6.08,3.61-6.08
			C50.38,410.87,33.11,392.4,1.48,398.62z"/>
		<g>
			<path class="st2" d="M1.48,400.12c0.86,0.01,1.72,0.1,2.58,0.2c0.95,0.11,1.59,0.2,2.73,0.4c1.33,0.23,2.64,0.5,3.95,0.81
				c8.23,1.95,16.07,5.33,23.34,9.63c5.93,3.51,11.44,7.66,16.56,12.27c0.55,0.49,1.6,0.66,2.12,0c1.52-1.91,3.13-4,3.88-6.36
				c0.42-1.32-0.52-2.13-1.36-3.02c-2.04-2.17-4.22-4.21-6.56-6.06c-7.43-5.89-16.21-9.93-25.61-11.4
				c-7.34-1.15-14.75-0.81-22.02,0.6c-1.89,0.37-1.09,3.26,0.8,2.89c9.94-1.92,20.24-1.62,29.83,1.77
				c6.49,2.29,12.48,5.96,17.6,10.56c1.74,1.56,3.37,3.23,4.94,4.95c-0.13-0.49-0.26-0.97-0.39-1.46c-0.43,1.86-1.99,3.86-3.23,5.42
				c0.71,0,1.41,0,2.12,0c-13.29-11.96-29.94-21.59-47.92-23.89c-1.11-0.14-2.24-0.28-3.36-0.29C-0.45,397.1-0.45,400.1,1.48,400.12
				z"/>
		</g>
	</g>
	<g>
		<path class="st1" d="M29.71,399.6c0,0,54.75-33,45.43,37c-6.99,0-10.16-1-10.16-1C65.1,436.21,83.94,383.88,29.71,399.6z"/>
		<g>
			<path class="st2" d="M30.46,400.9c1.67-1.01,3.44-1.87,5.21-2.69c1.87-0.86,3.22-1.42,5.36-2.18c2.21-0.78,4.46-1.44,6.76-1.92
				c4.46-0.94,9.33-1.22,13.75,0.23c2.05,0.67,4.17,1.89,5.78,3.4c2.01,1.88,3.46,4.15,4.55,6.74c3.53,8.42,3.19,18.3,2.33,27.19
				c-0.16,1.65-0.35,3.29-0.57,4.93c0.5-0.5,1-1,1.5-1.5c-3.18-0.01-6.68,0.01-9.76-0.95c-1.07-0.33-2.2,0.77-1.85,1.85
				c0.44,1.34,2.13,1.42,2.8,0.27c0.18-0.32,0.3-0.72,0.43-1.06c0.4-1.1,0.72-2.23,1.02-3.36c1.04-3.9,1.72-7.93,1.91-11.97
				c0.22-4.69-0.29-9.52-2.25-13.83c-2.12-4.67-6.11-8.01-10.95-9.6c-8.71-2.86-18.67-0.75-27.19,1.71
				c-1.85,0.53-1.06,3.43,0.8,2.89c7.35-2.12,15.57-3.95,23.21-2.35c4.55,0.96,8.37,3.28,10.64,7.12c2.07,3.49,2.74,7.59,2.79,11.69
				c0.04,4.11-0.43,7.5-1.32,11.44c-0.34,1.49-0.73,2.97-1.19,4.43c-0.14,0.43-0.29,0.85-0.43,1.27c-0.09,0.27-0.32,0.47-0.01,0.04
				c-0.02,0.03-0.02,0.08-0.05,0.11c0.14-0.17,0.68-0.74,1.25-0.68c0.35,0.15,0.71,0.29,1.06,0.44c0.13,0.22,0.26,0.44,0.38,0.66
				c-0.62,0.62-1.23,1.23-1.85,1.85c3.32,1.03,7.12,1.04,10.56,1.05c0.89,0,1.39-0.7,1.5-1.5c1.32-10.03,2.1-20.99-1.08-30.78
				c-1.84-5.65-5.33-10.87-10.85-13.44c-4.81-2.24-10.17-2.38-15.34-1.6c-4.69,0.71-9.23,2.24-13.58,4.11
				c-2.25,0.97-4.71,1.96-6.75,3.35c-0.03,0.02-0.06,0.04-0.1,0.06C27.3,399.3,28.8,401.9,30.46,400.9z"/>
		</g>
	</g>
	<g>
		<path class="st1" d="M133.26,399.18c0,0-16.62-6.99-40.48,30.16l10.36,3.69C103.14,433.04,113.55,403.84,133.26,399.18z"/>
		<g>
			<path class="st2" d="M133.66,397.74c-2.35-0.98-5.44-0.64-7.84-0.15c-7.55,1.53-14.13,6.69-19.45,12
				c-5.7,5.69-10.52,12.24-14.88,19c-0.56,0.87,0.03,1.89,0.9,2.2c3.45,1.23,6.91,2.46,10.36,3.69c0.8,0.29,1.59-0.33,1.85-1.05
				c1.16-3.24,2.69-6.37,4.46-9.64c3.47-6.39,7.74-12.53,13.33-17.24c3.29-2.77,7.09-4.91,11.28-5.93c1.88-0.45,1.08-3.35-0.8-2.89
				c-7.9,1.92-14.35,7.45-19.29,13.69c-4.15,5.25-7.53,11.09-10.23,17.2c-0.58,1.32-1.16,2.65-1.64,4.01
				c0.62-0.35,1.23-0.7,1.85-1.05c-3.45-1.23-6.91-2.46-10.36-3.69c0.3,0.73,0.6,1.47,0.9,2.2c6.23-9.67,13.63-19.65,23.55-25.83
				c2.58-1.61,5.18-2.87,8.12-3.59c0.54-0.13,1.09-0.24,1.64-0.34c0.14-0.02,0.28-0.04,0.43-0.06c-0.27,0.04-0.07,0.01,0.07-0.01
				c0.24-0.03,0.48-0.05,0.73-0.07c0.78-0.05,1.55-0.05,2.33,0.01c0.19,0.01,0.74,0.09,0.22,0.02c0.15,0.02,0.29,0.04,0.44,0.07
				c0.23,0.04,0.46,0.09,0.69,0.15c0.2,0.05,0.4,0.11,0.58,0.18C134.64,401.37,135.42,398.47,133.66,397.74z"/>
		</g>
	</g>
	<g>
		<path class="st1" d="M127.3,394.87c0,0-16.62-6.99-40.48,30.16l10.36,3.69C97.18,428.72,107.59,399.52,127.3,394.87z"/>
		<g>
			<path class="st2" d="M127.7,393.42c-2.35-0.98-5.44-0.64-7.84-0.15c-7.55,1.53-14.13,6.69-19.45,12
				c-5.7,5.69-10.52,12.24-14.88,19c-0.56,0.87,0.03,1.89,0.9,2.2c3.45,1.23,6.91,2.46,10.36,3.69c0.8,0.29,1.59-0.33,1.85-1.05
				c1.16-3.24,2.69-6.37,4.46-9.64c3.47-6.39,7.74-12.53,13.33-17.24c3.29-2.77,7.09-4.91,11.28-5.93c1.88-0.45,1.08-3.35-0.8-2.89
				c-7.9,1.92-14.35,7.45-19.29,13.69c-4.15,5.25-7.53,11.09-10.23,17.2c-0.58,1.32-1.16,2.65-1.64,4.01
				c0.62-0.35,1.23-0.7,1.85-1.05c-3.45-1.23-6.91-2.46-10.36-3.69c0.3,0.73,0.6,1.47,0.9,2.2c6.23-9.67,13.63-19.65,23.55-25.83
				c2.58-1.61,5.18-2.87,8.12-3.59c0.54-0.13,1.09-0.24,1.64-0.34c0.14-0.02,0.28-0.04,0.43-0.06c-0.27,0.04-0.07,0.01,0.07-0.01
				c0.24-0.03,0.48-0.05,0.73-0.07c0.78-0.05,1.55-0.05,2.33,0.01c0.19,0.01,0.74,0.09,0.22,0.02c0.15,0.02,0.29,0.04,0.44,0.07
				c0.23,0.04,0.46,0.09,0.69,0.15c0.2,0.05,0.4,0.11,0.58,0.18C128.68,397.06,129.45,394.15,127.7,393.42z"/>
		</g>
	</g>
	<g>
		<path class="st1" d="M125.73,381.7c0,0-20.47-4.45-40.06,45.39l12.63,1.98C98.3,429.07,104.14,391.84,125.73,381.7z"/>
		<g>
			<path class="st2" d="M126.13,380.25c-3.03-0.65-6.44,0.4-9.19,1.59c-8.43,3.64-14.77,11.32-19.7,18.8
				c-5.35,8.12-9.46,17.02-13.02,26.05c-0.27,0.7,0.31,1.73,1.05,1.85c4.21,0.66,8.42,1.32,12.63,1.98
				c0.73,0.11,1.71-0.18,1.85-1.05c0.69-4.38,1.86-8.72,3.18-12.95c2.63-8.42,6.25-16.87,11.79-23.81
				c3.22-4.03,7.09-7.49,11.77-9.71c1.74-0.83,0.22-3.42-1.51-2.59c-8.71,4.14-14.8,12.29-19.07,20.7
				c-3.65,7.19-6.27,14.92-8.08,22.77c-0.37,1.59-0.72,3.19-0.97,4.8c0.62-0.35,1.23-0.7,1.85-1.05c-4.21-0.66-8.42-1.32-12.63-1.98
				c0.35,0.62,0.7,1.23,1.05,1.85c3.13-7.93,6.73-15.72,11.22-22.99c2.97-4.8,6.33-9.39,10.39-13.32c2.57-2.49,5.4-4.68,8.64-6.25
				c0.77-0.38,0.93-0.44,1.59-0.69c0.54-0.21,1.09-0.39,1.65-0.55c0.48-0.14,0.97-0.26,1.46-0.35c0.21-0.04,0.42-0.08,0.64-0.11
				c0.49-0.09-0.27,0.01,0.3-0.04c0.67-0.06,1.33-0.09,2-0.06c0.22,0.01,0.86,0.1,0.14,0c0.06,0.01,0.12,0.02,0.19,0.03
				C127.21,383.55,128.02,380.66,126.13,380.25z"/>
		</g>
	</g>
	<g>
		<g>
			<path class="st2" d="M109.45,411.56c1.42-0.11,2.84-0.08,4.25,0.08c0.36,0.04,0.82-0.2,1.06-0.44c0.26-0.26,0.46-0.69,0.44-1.06
				c-0.02-0.39-0.14-0.79-0.44-1.06c-0.31-0.29-0.64-0.39-1.06-0.44c-1.41-0.16-2.84-0.19-4.25-0.08c-0.4,0.03-0.77,0.15-1.06,0.44
				c-0.26,0.26-0.46,0.69-0.44,1.06C107.98,410.82,108.61,411.62,109.45,411.56L109.45,411.56z"/>
		</g>
	</g>
	<g>
		<g>
			<path class="st2" d="M24.34,411.78c1.56,0.15,3.11-0.11,4.65-0.34c0.69-0.1,1.13-0.17,1.92-0.22c0.37-0.02,0.74-0.03,1.11-0.01
				c0.16,0.01,0.32,0.02,0.47,0.03c0.19,0.02,0.21,0.02,0.07,0.01c0.11,0.02,0.21,0.04,0.31,0.06c0.77,0.15,1.66-0.22,1.85-1.05
				c0.17-0.75-0.22-1.68-1.05-1.85c-1.69-0.34-3.32-0.18-5.01,0.06c-1.48,0.21-2.72,0.46-4.33,0.31c-0.78-0.07-1.53,0.74-1.5,1.5
				C22.88,411.16,23.5,411.7,24.34,411.78L24.34,411.78z"/>
		</g>
	</g>
	<g>
		<g>
			<path class="st2" d="M34.87,411.23c4.11,0.08,8.21,0.08,12.32-0.02c1.93-0.05,1.93-3.05,0-3c-4.11,0.1-8.21,0.1-12.32,0.02
				C32.94,408.19,32.94,411.19,34.87,411.23L34.87,411.23z"/>
		</g>
	</g>
	<g>
		<g>
			<path class="st3" d="M14.25,420.73c-1.82-0.28-1.94,0.03-3.82-0.28c0,0,0-5,0-9c35,1,81,1,121,0v10c0,0,0,0-5,0"/>
			<g>
				<path class="st4" d="M14.65,419.28c-1.27-0.17-2.55-0.09-3.82-0.28c0.37,0.48,0.73,0.96,1.1,1.45c0-3,0-6,0-9
					c-0.5,0.5-1,1-1.5,1.5c14.98,0.43,29.96,0.63,44.95,0.71c16.31,0.09,32.62,0.02,48.94-0.2c9.04-0.12,18.08-0.29,27.12-0.52
					c-0.5-0.5-1-1-1.5-1.5c0,3.33,0,6.67,0,10c0.5-0.5,1-1,1.5-1.5c-1.67,0-3.33,0-5,0c-1.93,0-1.93,3,0,3c1.67,0,3.33,0,5,0
					c0.81,0,1.5-0.69,1.5-1.5c0-3.33,0-6.67,0-10c0-0.8-0.69-1.52-1.5-1.5c-16.17,0.4-32.34,0.63-48.52,0.71
					c-15.98,0.08-31.96,0.03-47.94-0.2c-8.18-0.12-16.36-0.28-24.54-0.52c-0.81-0.02-1.5,0.71-1.5,1.5c0,3,0,6,0,9
					c0,0.59,0.46,1.35,1.1,1.45c1.27,0.19,2.55,0.1,3.82,0.28c0.81,0.11,1.6-0.2,1.85-1.05C15.89,420.43,15.45,419.39,14.65,419.28
					L14.65,419.28z"/>
			</g>
		</g>
		<g>
			<path class="st3" d="M126.43,421.45c-1,4-2.81,15.2-3.81,21.86c-3,20-6,35-10,55c-0.45,2.25-2.7,4.19-5.04,5.63
				c-2.9,1.79-6.15,2.92-9.5,3.54c-17.82,3.3-35.98,3.16-53.77-0.43c-2.37-0.48-11.43-3.92-12.68-6.74c-4-9-6-25-11-51
				c-1.12-5.84-4.4-19.58-6.37-28.59C47.43,421.45,87.43,421.45,126.43,421.45z"/>
			<g>
				<path class="st4" d="M124.98,421.05c-1.61,6.51-2.49,13.25-3.51,19.87c-1.39,9.07-2.84,18.12-4.49,27.15
					c-1.69,9.24-3.53,18.46-5.37,27.67c-0.21,1.03-0.3,2.18-0.76,3.13c-0.45,0.92-1.22,1.67-1.98,2.33
					c-1.7,1.45-3.78,2.56-5.86,3.36c-4.58,1.76-9.67,2.31-14.51,2.87c-9.98,1.16-20.08,1.24-30.08,0.25
					c-7.43-0.73-14.93-1.63-21.62-5.15c-1.15-0.61-2.36-1.26-3.3-2.18c-0.61-0.6-0.86-1.4-1.17-2.22c-0.82-2.16-1.47-4.39-2.05-6.63
					c-1.6-6.22-2.72-12.57-3.87-18.89c-1.53-8.43-2.94-16.9-4.67-25.3c-1.49-7.25-3.23-14.45-4.87-21.67
					c-0.4-1.77-0.8-3.55-1.19-5.32c-0.48,0.63-0.96,1.27-1.45,1.9c28.79,0.62,57.59,0.69,86.39,0.72c8.6,0.01,17.19,0.01,25.79,0.01
					c1.93,0,1.93-3,0-3c-29.79,0-59.59,0.02-89.39-0.34c-7.6-0.09-15.2-0.22-22.8-0.38c-1.02-0.02-1.65,0.97-1.45,1.9
					c1.7,7.73,3.54,15.43,5.23,23.16c1.81,8.21,3.22,16.51,4.71,24.78c1.25,6.92,2.43,13.88,4.04,20.73
					c0.59,2.52,1.24,5.03,2.07,7.49c0.75,2.21,1.43,4.37,3.32,5.86c5.35,4.22,12.35,5.64,18.9,6.62
					c10.24,1.52,20.61,1.98,30.94,1.26c5.2-0.36,10.38-1,15.51-1.92c4.61-0.82,9.11-2.36,12.83-5.27c1.59-1.25,3.05-2.8,3.63-4.79
					c0.71-2.4,1.01-4.99,1.5-7.45c0.94-4.72,1.88-9.45,2.78-14.18c1.8-9.38,3.47-18.78,4.95-28.22c1.23-7.86,2.34-15.74,3.85-23.55
					c0.24-1.27,0.5-2.54,0.81-3.8C128.34,419.97,125.45,419.17,124.98,421.05z"/>
			</g>
		</g>
	</g>
	<g>
		<g>
			<path class="st0" d="M72.93,307.95c0-2.75,0-5.5,0-8.25c0-7.42,0-14.84,0-22.26c0-11,0-22,0-33c0-13.42,0-26.84,0-40.27
				c0-14.65,0-29.3,0-43.95c0-14.89,0-29.78,0-44.66c0-13.79,0-27.57,0-41.36c0-11.69,0-23.39,0-35.08c0-8.41,0-16.81,0-25.22
				c0-3.97,0.08-7.95,0-11.92c0-0.17,0-0.35,0-0.52c0-1.93-3-1.93-3,0c0,2.75,0,5.5,0,8.25c0,7.42,0,14.84,0,22.26c0,11,0,22,0,33
				c0,13.42,0,26.84,0,40.27c0,14.65,0,29.3,0,43.95c0,14.89,0,29.78,0,44.66c0,13.79,0,27.57,0,41.36c0,11.69,0,23.39,0,35.08
				c0,8.41,0,16.81,0,25.22c0,3.97-0.08,7.95,0,11.92c0,0.17,0,0.35,0,0.52C69.93,309.88,72.93,309.88,72.93,307.95L72.93,307.95z"
				/>
		</g>
	</g>
	<g>
		<path class="st1" d="M12.71,437.6c0,0-7.48-30.71,15.67-28.95c1.92,0.15,3.08,0.01,5,0c17.12-0.1,14,0,14,0
			S-6.29,382.6,12.71,437.6z"/>
		<g>
			<path class="st2" d="M14.15,437.2c-0.42-1.75-0.65-3.43-0.82-4.94c-0.38-3.55-0.47-7.26,0.19-10.75
				c0.67-3.58,2.15-7.26,5.28-9.37c1.76-1.18,3.83-1.81,5.94-2c1.52-0.13,3.01,0,4.53,0.05c2.14,0.08,4.3-0.05,6.45-0.07
				c3.22-0.02,6.44-0.04,9.66-0.03c0.56,0,1.13,0,1.69,0.01c0.74,0.01,0.38,0.14-0.23-0.19c-0.25-0.43-0.5-0.86-0.74-1.3
				c0,0,0,0,0,0c0.25-0.43,0.5-0.86,0.74-1.3c0.05-0.03,0.96-0.19,0.64-0.19c-0.42,0,0.57,0.11,0.65,0.21
				c-0.08-0.1-0.34-0.16-0.45-0.21c-1.09-0.52-2.22-0.98-3.34-1.43c-3.82-1.54-7.76-2.83-11.78-3.69
				c-4.69-1.01-9.74-1.57-14.45-0.38c-4.74,1.19-8.35,4.42-9.92,9.06c-1.16,3.42-1.22,7.2-0.86,10.77
				c0.56,5.66,2.1,11.17,3.94,16.53C11.88,439.82,14.78,439.04,14.15,437.2c-1.62-4.7-3.04-9.55-3.69-14.49
				c-0.42-3.18-0.55-6.56,0.16-9.62c0.52-2.25,1.42-4.15,2.91-5.66c1.35-1.37,2.96-2.21,4.85-2.75c4.09-1.17,8.81-0.7,13.01,0.17
				c4.03,0.83,7.97,2.1,11.78,3.62c0.37,0.15,0.75,0.3,1.12,0.46c0.08,0.03,0.16,0.07,0.23,0.1c0.25,0.11-0.36-0.15,0.01,0.01
				c0.14,0.06,0.27,0.12,0.41,0.18c0.44,0.19,0.87,0.39,1.31,0.59c0.69,0.31,1.37,0.56,2.09,0.15c0.45-0.26,0.75-0.77,0.74-1.3
				c0,0,0,0,0,0c-0.01-0.51-0.28-1.05-0.74-1.3c-0.63-0.33-1.5-0.23-2.18-0.23c-2.41-0.01-4.82,0-7.23,0.01
				c-2.29,0.01-4.59-0.01-6.88,0.06c-1.91,0.05-3.79-0.11-5.7-0.1c-2.61,0.02-5.2,0.49-7.56,1.63c-8.05,3.86-9.21,14.14-8.59,22.03
				c0.19,2.43,0.49,4.9,1.07,7.27C11.71,439.88,14.61,439.08,14.15,437.2z"/>
		</g>
	</g>
	<g>
		<path class="st1" d="M134.71,461.6c11,0,22-71-17.58-53.86c-2.75,0.91-7.75,0.91-7.75,0.91S153.71,404.6,134.71,461.6z"/>
		<g>
			<path class="st2" d="M134.71,463.1c4.13-0.05,6.4-5.28,7.69-8.47c2.3-5.7,3.4-11.94,3.87-18.04c0.5-6.5,0.24-13.33-1.78-19.57
				c-1.76-5.45-5.11-10.49-10.68-12.52c-3.01-1.1-6.29-1.09-9.42-0.57c-1.88,0.32-3.73,0.85-5.52,1.51c-1.1,0.41-2.15,0.92-3.3,1.17
				c-1.34,0.29-2.72,0.41-4.09,0.48c-0.7,0.04-1.4,0.07-2.1,0.07c0,1,0,2,0,3c1.38-0.12,2.78-0.08,4.16,0.01
				c0.67,0.04,1.33,0.11,2,0.18c0.14,0.02,0.63,0.08,0.24,0.03c0.18,0.03,0.36,0.05,0.54,0.08c0.41,0.06,0.83,0.13,1.24,0.21
				c1.74,0.33,3.45,0.78,5.11,1.39c3.48,1.27,6.92,3.43,9.52,6.43c3.21,3.7,4.99,8.77,5.53,13.78c1.05,9.78-1.39,19.72-4.45,28.94
				c-0.61,1.84,2.29,2.62,2.89,0.8c2.9-8.74,5.18-18.07,4.74-27.35c-0.27-5.79-1.7-11.71-5.15-16.46
				c-4.91-6.77-12.8-10.1-20.93-10.91c-1.79-0.18-3.64-0.28-5.44-0.12c-1.89,0.17-1.96,3,0,3c2.01,0,4.04-0.16,6.03-0.48
				c2.2-0.36,4.18-1.39,6.3-2.03c2.85-0.86,6.17-1.38,8.92-0.89c5.03,0.9,8.4,4.54,10.27,9.14c2.29,5.62,2.74,11.76,2.53,17.77
				c-0.21,5.97-1.12,11.92-3,17.63c-0.79,2.4-1.57,4.44-3.05,6.62c-0.07,0.11-0.53,0.72-0.27,0.39c-0.15,0.18-0.29,0.37-0.45,0.54
				c-0.15,0.16-0.3,0.32-0.46,0.47c-0.1,0.09-0.63,0.51-0.23,0.21c-0.15,0.11-0.31,0.21-0.47,0.31c-0.14,0.09-0.68,0.27-0.18,0.11
				c-0.16,0.05-0.31,0.11-0.47,0.14c-0.31,0.06,0.38,0-0.14,0C132.78,460.13,132.77,463.13,134.71,463.1z"/>
		</g>
	</g>
</g>
<g>
	<g>
		<path class="st5" d="M42.46,445.14c0.89,0.33,1.33,0.77,1.33,1.33c0,0.56-0.21,1.25-0.64,2.08c-0.42,0.82-0.78,1.24-1.07,1.24
			c-0.08,0-0.17-0.04-0.28-0.13c-0.1-0.09-0.34-0.18-0.72-0.29s-0.7-0.16-0.97-0.16c-0.93,0-1.68,0.33-2.24,0.98
			s-0.85,1.66-0.85,3.01c0,1.35,0.29,2.36,0.88,3.01c0.58,0.66,1.32,0.98,2.22,0.98c0.37,0,0.78-0.05,1.24-0.16
			c0.46-0.1,0.78-0.25,0.97-0.44c0.03-0.03,0.1-0.05,0.19-0.05s0.28,0.18,0.54,0.54c0.26,0.36,0.51,0.83,0.73,1.42
			c0.22,0.58,0.34,1.04,0.34,1.36c0,0.62-0.48,1.12-1.44,1.49c-0.96,0.37-2.1,0.55-3.41,0.55c-2.11,0-3.85-0.74-5.21-2.23
			s-2.04-3.59-2.04-6.3s0.7-4.84,2.1-6.4c1.4-1.55,3.15-2.33,5.24-2.33C40.54,444.65,41.57,444.82,42.46,445.14z"/>
		<path class="st5" d="M46.9,460.25c-1-1.1-1.5-2.63-1.5-4.58s0.5-3.48,1.5-4.58c1-1.1,2.35-1.66,4.04-1.66
			c1.7,0,3.04,0.55,4.03,1.66c0.99,1.1,1.49,2.63,1.49,4.58s-0.5,3.48-1.49,4.58c-0.99,1.1-2.34,1.66-4.03,1.66
			C49.24,461.91,47.9,461.36,46.9,460.25z M50.95,453.44c-0.9,0-1.36,0.74-1.36,2.21c0,1.47,0.45,2.21,1.36,2.21
			c0.9,0,1.36-0.74,1.36-2.21C52.31,454.17,51.86,453.44,50.95,453.44z"/>
		<path class="st5" d="M63.18,461.53c0,0.11-0.58,0.17-1.73,0.17c-1.6-0.05-2.4-0.14-2.4-0.26v-7.78h-0.62
			c-0.42,0-0.69-0.35-0.82-1.06c-0.03-0.21-0.05-0.42-0.05-0.62c0-0.5,0.1-0.99,0.29-1.49c0.29-0.7,0.74-1.06,1.34-1.06
			s1.15,0.14,1.63,0.43s0.8,0.58,0.96,0.86c1.01-0.86,2.21-1.3,3.6-1.3c1.39,0,2.4,0.38,3.02,1.13c0.62,0.75,0.94,1.98,0.94,3.7v7.2
			c0,0.19-0.68,0.29-2.05,0.29c-1.37,0-2.05-0.1-2.05-0.29v-6.94c0-0.8-0.28-1.2-0.84-1.2c-0.16,0-0.38,0.07-0.67,0.2
			c-0.29,0.14-0.47,0.24-0.55,0.3V461.53z"/>
		<path class="st5" d="M76.91,461.53c0,0.19-0.67,0.29-2.02,0.29c-1.6-0.06-2.4-0.17-2.4-0.31v-8.5h-1.22
			c-0.32,0-0.48-0.55-0.48-1.66c0-0.29,0.03-0.64,0.08-1.06s0.17-0.62,0.35-0.62h1.27v-2.11c0-0.32,0.68-0.48,2.03-0.48
			s2.03,0.13,2.03,0.38V449l0.02,0.67h2.04c0.27,0,0.41,0.56,0.41,1.68c0,1.12-0.14,1.68-0.41,1.68h-1.7V461.53z"/>
		<path class="st5" d="M81.73,452.96c-0.45-0.8-0.67-1.45-0.67-1.96s0.14-0.83,0.41-0.97c0.91-0.4,2.16-0.6,3.76-0.6
			c1.59,0,2.72,0.37,3.37,1.12c0.66,0.74,0.98,1.84,0.98,3.3v3.79h0.82c0.27,0,0.48,0.16,0.64,0.48c0.15,0.32,0.23,0.76,0.23,1.32
			c0,0.56-0.14,1.11-0.42,1.66c-0.28,0.54-0.66,0.82-1.14,0.82c-0.86,0-1.56-0.23-2.09-0.7c-0.24-0.19-0.42-0.42-0.55-0.7
			c-0.74,0.93-1.88,1.39-3.43,1.39c-1.17,0-2.15-0.42-2.95-1.25c-0.8-0.83-1.2-1.82-1.2-2.95c0-2.61,1.56-3.91,4.68-3.91h1.32v-0.24
			c0-0.42-0.07-0.68-0.2-0.8s-0.45-0.18-0.95-0.18C83.71,452.57,82.85,452.7,81.73,452.96z M83.65,457.37c0,0.35,0.1,0.62,0.29,0.8
			c0.19,0.18,0.44,0.28,0.73,0.28c0.3,0,0.56-0.12,0.8-0.36v-1.85H84.8C84.03,456.25,83.65,456.62,83.65,457.37z"/>
		<path class="st5" d="M96.56,455.72c0,1.57,0.59,2.35,1.78,2.35c0.77,0,1.41-0.15,1.92-0.46c0.24,0,0.44,0.41,0.59,1.24
			c0.15,0.82,0.23,1.38,0.23,1.68s-0.04,0.49-0.12,0.59c-0.85,0.53-2.01,0.79-3.48,0.79c-1.47,0-2.72-0.55-3.76-1.64
			c-1.03-1.1-1.55-2.59-1.55-4.49c0-1.9,0.51-3.43,1.52-4.6c1.02-1.17,2.37-1.75,4.06-1.75c1.69,0,2.86,0.41,3.52,1.22
			c0.14,0.18,0.22,0.44,0.22,0.78c0,0.34-0.06,0.76-0.19,1.26c-0.29,1.02-0.66,1.62-1.13,1.78c-0.06,0.02-0.16,0.02-0.28,0.02
			c-0.12,0-0.27-0.1-0.44-0.29c-0.62-0.62-1.12-0.94-1.5-0.94s-0.7,0.19-0.97,0.58S96.56,454.85,96.56,455.72z"/>
		<path class="st5" d="M108.32,461.53c0,0.19-0.67,0.29-2.02,0.29c-1.6-0.06-2.4-0.17-2.4-0.31v-8.5h-1.22
			c-0.32,0-0.48-0.55-0.48-1.66c0-0.29,0.03-0.64,0.08-1.06s0.17-0.62,0.35-0.62h1.27v-2.11c0-0.32,0.68-0.48,2.03-0.48
			s2.03,0.13,2.03,0.38V449l0.02,0.67h2.04c0.27,0,0.41,0.56,0.41,1.68c0,1.12-0.14,1.68-0.41,1.68h-1.7V461.53z"/>
	</g>
</g>
</svg>
