<?xml version="1.0" encoding="utf-8"?>
<!-- Generator: $$$/GeneralStr/196=Adobe Illustrator 27.6.0, SVG Export Plug-In . SVG Version: 6.00 Build 0)  -->
<svg version="1.1" id="Calque_1" xmlns="http://www.w3.org/2000/svg" xmlns:xlink="http://www.w3.org/1999/xlink" x="0px" y="0px"
	 width="201.5px" height="167px" viewBox="0 0 201.5 167" style="enable-background:new 0 0 201.5 167;" xml:space="preserve">
<style type="text/css">
	.st0{fill:none;}
	.st1{fill:#F1F1F1;}
	.st2{fill:#405C9B;}
	.st3{fill:#27198F;}
	.st4{fill:#FEFEFF;}
	.st5{fill:#002395;}
	.st6{fill:#FEFEFE;}
	.st7{fill:#ED2838;}
	.st8{fill:#FFFEFE;}
	.st9{fill:#EC2A3A;}
	.st10{fill:#EC2738;}
	.st11{fill:#002394;}
	.st12{fill:#FEFFFF;}
	.st13{fill:#FEFDFD;}
	.st14{fill:#002293;}
	.st15{fill:#002294;}
	.st16{fill:#FFFEFF;}
	.st17{fill:#FFFFFF;}
	.st18{fill:#002295;}
	.st19{fill:#FBCAD7;}
	.st20{fill:#EC2839;}
	.st21{fill:#ED2839;}
	.st22{fill:#7786BE;}
</style>
<g>
	<rect x="99.73" y="83.5" class="st0" width="2.04" height="0"/>
	<rect x="8.75" y="8.5" class="st1" width="184" height="150"/>
	<g>
		<g>
			<path class="st2" d="M0.5,0.5v166H201V0.5H0.5z M184.5,150.5h-168V17h168V150.5z"/>
		</g>
		<g>
			<path class="st3" d="M-1,0.5c0,5.53,0,11.06,0,16.6c0,13.2,0,26.39,0,39.59c0,15.99,0,31.99,0,47.98c0,13.82,0,27.64,0,41.46
				c0,6.68-0.21,13.41,0,20.09c0,0.09,0,0.19,0,0.28c0,0.81,0.69,1.5,1.5,1.5c1.79,0,3.57,0,5.36,0c4.86,0,9.72,0,14.58,0
				c7.19,0,14.37,0,21.56,0c8.77,0,17.54,0,26.31,0c9.61,0,19.22,0,28.82,0c9.7,0,19.4,0,29.1,0c9.08,0,18.16,0,27.25,0
				c7.61,0,15.22,0,22.83,0c5.52,0,11.04,0,16.56,0c2.6,0,5.2,0.07,7.8,0c0.11,0,0.22,0,0.33,0c0.81,0,1.5-0.69,1.5-1.5
				c0-5.53,0-11.06,0-16.6c0-13.2,0-26.39,0-39.59c0-15.99,0-31.99,0-47.98c0-13.82,0-27.64,0-41.46c0-6.68,0.21-13.41,0-20.09
				c0-0.09,0-0.19,0-0.28c0-0.81-0.69-1.5-1.5-1.5c-1.79,0-3.57,0-5.36,0c-4.86,0-9.72,0-14.58,0c-7.19,0-14.37,0-21.56,0
				c-8.77,0-17.54,0-26.31,0c-9.61,0-19.22,0-28.82,0c-9.7,0-19.4,0-29.1,0c-9.08,0-18.16,0-27.25,0C40.41-1,32.8-1,25.19-1
				C19.67-1,14.15-1,8.63-1c-2.6,0-5.2-0.07-7.8,0C0.72-1,0.61-1,0.5-1c-1.93,0-1.93,3,0,3c1.79,0,3.57,0,5.36,0
				c4.86,0,9.72,0,14.58,0C27.62,2,34.81,2,42,2c8.77,0,17.54,0,26.31,0c9.61,0,19.22,0,28.82,0c9.7,0,19.4,0,29.1,0
				c9.08,0,18.16,0,27.25,0c7.61,0,15.22,0,22.83,0c5.52,0,11.04,0,16.56,0c2.56,0,5.24,0.23,7.8,0c0.11-0.01,0.22,0,0.33,0
				c-0.5-0.5-1-1-1.5-1.5c0,5.53,0,11.06,0,16.6c0,13.2,0,26.39,0,39.59c0,15.99,0,31.99,0,47.98c0,13.82,0,27.64,0,41.46
				c0,4.54,0,9.08,0,13.62c0,2.11-0.23,4.37,0,6.47c0.01,0.09,0,0.19,0,0.28c0.5-0.5,1-1,1.5-1.5c-1.79,0-3.57,0-5.36,0
				c-4.86,0-9.72,0-14.58,0c-7.19,0-14.37,0-21.56,0c-8.77,0-17.54,0-26.31,0c-9.61,0-19.22,0-28.82,0c-9.7,0-19.4,0-29.1,0
				c-9.08,0-18.16,0-27.25,0c-7.61,0-15.22,0-22.83,0c-5.52,0-11.04,0-16.56,0c-2.56,0-5.24-0.23-7.8,0c-0.11,0.01-0.22,0-0.33,0
				c0.5,0.5,1,1,1.5,1.5c0-5.53,0-11.06,0-16.6c0-13.2,0-26.39,0-39.59c0-15.99,0-31.99,0-47.98C2,48.52,2,34.7,2,20.88
				C2,14.19,2.21,7.47,2,0.78C2,0.69,2,0.59,2,0.5C2-1.43-1-1.43-1,0.5z"/>
			<path class="st3" d="M184.5,149c-5.57,0-11.14,0-16.71,0c-13.38,0-26.75,0-40.13,0c-16.18,0-32.37,0-48.55,0
				c-13.99,0-27.97,0-41.96,0c-4.59,0-9.18,0-13.77,0c-2.16,0-4.45-0.23-6.6,0c-0.09,0.01-0.19,0-0.28,0c0.5,0.5,1,1,1.5,1.5
				c0-4.43,0-8.86,0-13.3c0-10.64,0-21.28,0-31.93c0-12.83,0-25.66,0-38.48c0-11.12,0-22.25,0-33.37c0-3.66,0-7.31,0-10.97
				c0-1.69,0.21-3.55,0-5.23c-0.01-0.07,0-0.15,0-0.22c-0.5,0.5-1,1-1.5,1.5c5.57,0,11.14,0,16.71,0c13.38,0,26.75,0,40.13,0
				c16.18,0,32.37,0,48.55,0c13.99,0,27.97,0,41.96,0c4.59,0,9.18,0,13.77,0c2.16,0,4.45,0.23,6.6,0c0.09-0.01,0.19,0,0.28,0
				c-0.5-0.5-1-1-1.5-1.5c0,4.43,0,8.86,0,13.3c0,10.64,0,21.28,0,31.93c0,12.83,0,25.66,0,38.48c0,11.12,0,22.25,0,33.37
				c0,5.38-0.2,10.81,0,16.2c0,0.07,0,0.15,0,0.22c0,1.93,3,1.93,3,0c0-4.43,0-8.86,0-13.3c0-10.64,0-21.28,0-31.93
				c0-12.83,0-25.66,0-38.48c0-11.12,0-22.25,0-33.37c0-5.38,0.2-10.81,0-16.2c0-0.07,0-0.15,0-0.22c0-0.81-0.69-1.5-1.5-1.5
				c-5.57,0-11.14,0-16.71,0c-13.38,0-26.75,0-40.13,0c-16.18,0-32.37,0-48.55,0c-13.99,0-27.97,0-41.96,0
				c-6.78,0-13.59-0.22-20.37,0c-0.09,0-0.19,0-0.28,0c-0.81,0-1.5,0.69-1.5,1.5c0,4.43,0,8.86,0,13.3c0,10.64,0,21.28,0,31.93
				c0,12.83,0,25.66,0,38.48c0,11.12,0,22.25,0,33.37c0,5.38-0.2,10.81,0,16.2c0,0.07,0,0.15,0,0.22c0,0.81,0.69,1.5,1.5,1.5
				c5.57,0,11.14,0,16.71,0c13.38,0,26.75,0,40.13,0c16.18,0,32.37,0,48.55,0c13.99,0,27.97,0,41.96,0c6.78,0,13.59,0.22,20.37,0
				c0.09,0,0.19,0,0.28,0C186.43,152,186.43,149,184.5,149z"/>
		</g>
	</g>
	<g>
		<g>
			<g>
				<path class="st4" d="M122.3,128.75c-14.67,0-29.34,0-44.01,0c0-0.22,0-0.44,0-0.66c1-0.08,1.46-0.54,1.44-1.49
					c-0.01-0.56-0.12-1.12-0.12-1.69C79.6,96.89,79.6,68.87,79.6,40.85c0-0.17-0.03-0.36,0.01-0.52c0.05-0.17,0.17-0.32,0.25-0.48
					c0.13,0.04,0.26,0.12,0.38,0.1c0.14-0.03,0.27-0.21,0.4-0.22c0.93-0.06,1.87-0.14,2.81-0.14c12.73,0.03,25.46,0.08,38.19,0.13
					c-0.04,0.21-0.11,0.43-0.1,0.64c0.02,1.03,0.1,2.06,0.1,3.1c0.01,20.18,0,40.36,0,60.54c0,1.99,0,3.98,0,5.97
					c0,5.64,0,11.27,0,16.91c0,0.37-0.09,0.8,0.53,0.71c0,0.25,0.02,0.47,0.36,0.28c0.15-0.08,0.29-0.18,0.43-0.28
					c0.01,0.21,0.02,0.43,0.03,0.64C122.76,128.39,122.53,128.57,122.3,128.75z M80.39,127.3c0.5-0.04,1.05-0.12,1.6-0.12
					c6.74-0.01,13.49-0.01,20.23-0.01c5.87,0,11.73,0,17.6,0c0.68,0,1.07-0.35,0.82-0.87c-0.3-0.64-0.18-1.25-0.18-1.89
					c0-7.23,0-14.47,0-21.7c0-0.52,0.11-1.04,0.11-1.56c-0.02-1.28-0.11-2.57-0.11-3.85c-0.01-18.25,0-36.49-0.02-54.74
					c0-0.34-0.27-0.68-0.35-1.04c-0.05-0.25-0.03-0.54,0.03-0.8c0.03-0.14,0.2-0.24,0.45-0.51c-1.08,0-1.97,0-2.87,0
					c-6.48,0-12.96,0-19.44-0.01c-0.45,0-0.91-0.12-1.36-0.12c-1.33,0.02-2.66,0.11-3.98,0.12c-3.33,0.02-6.66,0-9.98,0.01
					c-0.36,0-0.72,0.14-1.08,0.19c-0.2,0.03-0.43,0.06-0.61-0.01c-0.65-0.25-1.02-0.01-0.98,0.69c0.02,0.45,0.12,0.91,0.12,1.36
					c0.01,19.05,0.01,38.11,0,57.16c0,0.39-0.1,0.78-0.1,1.16c0.02,1.01,0.09,2.02,0.1,3.03c0.01,6.64,0,13.29,0,19.93
					C80.39,124.92,80.39,126.07,80.39,127.3z"/>
				<path class="st5" d="M33.35,128.23c0-0.09,0-0.17,0-0.26c0.08-0.08,0.25-0.18,0.24-0.23c-0.03-0.11-0.15-0.2-0.24-0.3
					c0-0.09,0-0.17,0-0.26c0.09-0.13,0.18-0.26,0.26-0.39c0.09-0.23,0.25-0.47,0.25-0.7c0.01-6.03,0.01-12.06,0.01-18.09
					c0-22.52,0-45.04-0.01-67.56c0-0.41-0.16-0.83-0.25-1.24c0.04-0.13,0.09-0.26,0.13-0.39c0.18,0.04,0.35,0.09,0.53,0.13
					c0.04,0.39,0.09,0.79,0.13,1.18c0,20.49,0,40.97,0,61.46c0,7.47,0,14.95,0,22.42c0,0.76-0.27,1.48-0.04,2.28
					c0.25,0.88,0.15,0.91,1.09,0.92c13.34,0,26.68,0,40.02,0c0.22,0,0.44,0.02,0.65-0.02c0.37-0.07,0.55-0.26,0.31-0.64
					c-0.08-0.37-0.22-0.74-0.24-1.11c-0.02-0.47,0.1-0.95,0.1-1.42c-0.04-7.68-0.08-15.36-0.13-23.03c0-19.76,0-39.51,0-59.27
					c-0.04-0.22-0.09-0.44-0.13-0.66c0.15-0.34,0.28-0.68-0.26-0.79c0-0.22,0-0.44,0-0.66c0.54,0.02,1.09,0.01,1.45,0.52
					c0,26.44-0.01,52.87,0.01,79.31c0,2.85-0.23,5.71,0.25,8.55c-13.97,0-27.94,0-41.91,0c-0.39,0.08-0.79,0.16-1.18,0.24
					c-0.04,0.01-0.09,0.03-0.13,0.04C33.97,128.24,33.66,128.23,33.35,128.23z"/>
				<path class="st6" d="M122.96,127.57c-0.14,0.09-0.28,0.19-0.43,0.28c-0.33,0.19-0.36-0.03-0.36-0.28
					c0.29-1.42,0.14-2.85,0.14-4.27c-0.02-7.01-0.01-14.02-0.01-21.04c0-0.31,0-0.61,0-0.92c0-19.8,0-39.6,0-59.4
					c0-0.09,0-0.17,0-0.26c0-0.31,0-0.61,0-0.92c0-0.09,0-0.17,0-0.26c-0.07-0.39-0.15-0.77-0.25-1.34c-0.2,0.28-0.3,0.42-0.4,0.56
					c-12.73-0.04-25.46-0.09-38.19-0.13c-0.94,0-1.87,0.07-2.81,0.14c-0.14,0.01-0.26,0.19-0.4,0.22c-0.11,0.02-0.25-0.06-0.38-0.1
					c-0.02-0.15,0.01-0.34-0.07-0.43c-0.3-0.36-0.24-0.56,0.22-0.67c0.05-0.01,0.08-0.14,0.12-0.21c14.28,0,28.55,0,42.83,0
					c0,0.41-0.01,0.82,0,1.23c0.03,0.81,0.07,1.62,0.11,2.44c-0.02,0.01-0.05,0.03-0.04,0.04c0.01,0.03,0.02,0.07,0.04,0.1
					c0,0.2,0.01,0.39,0.01,0.59c-0.04,19.61-0.08,39.22-0.11,58.83c0,1.11,0.1,2.21,0.1,3.32c0.01,6.16,0.01,12.32,0,18.48
					c0,1.11-0.01,2.23-0.02,3.34c-0.34,0.17-0.34,0.35-0.01,0.54C123.02,127.48,122.99,127.53,122.96,127.57z"/>
				<path class="st7" d="M124.4,38.53c14.45,0,28.9,0,43.36,0c0.05,0.09,0.1,0.17,0.15,0.26c-0.01,0.09-0.03,0.17-0.04,0.26
					c-0.08,0.28-0.23,0.57-0.23,0.85c-0.01,28.48-0.01,56.96,0,85.44c0,0.54,0.16,1.08,0.25,1.62c-0.01,0.07-0.01,0.14-0.02,0.2
					c-0.56,0.18-0.28,0.59-0.25,0.92c-0.17,0.03-0.34,0.07-0.52,0.1c-0.09-0.17-0.18-0.34-0.26-0.5c0-0.04,0-0.09,0-0.13
					c0.09-0.28,0.24-0.56,0.25-0.84c0.03-0.95,0.01-1.91,0.01-2.86c0-7.86,0-15.72,0-23.57c0-19.82,0-39.63,0-59.45
					c0-0.26,0.04-0.54-0.05-0.78c-0.08-0.2-0.31-0.33-0.47-0.49c0-0.09,0-0.17,0-0.26c-0.1-0.12-0.2-0.33-0.3-0.33
					c-1.11-0.04-2.21-0.05-3.32-0.06c-1.69-0.01-3.39,0-5.08,0c-10.17,0-20.34,0-30.52,0.01c-1,0-2.01,0.08-3.05,0.13
					C124.35,38.82,124.37,38.68,124.4,38.53z"/>
				<path class="st8" d="M80.13,38.53c-0.04,0.07-0.06,0.2-0.12,0.21c-0.46,0.11-0.52,0.31-0.22,0.67c0.08,0.1,0.05,0.29,0.07,0.43
					c-0.09,0.16-0.21,0.31-0.25,0.48c-0.04,0.16-0.01,0.35-0.01,0.52c0,28.02,0,56.04,0.01,84.06c0,0.56,0.11,1.12,0.12,1.69
					c0.02,0.95-0.44,1.41-1.44,1.49c-0.04,0-0.07,0-0.11,0c-0.02-0.04-0.03-0.09-0.05-0.13c0.05-0.57,0.1-1.14,0.14-1.7
					c0.13,0.22,0.27,0.44,0.39,0.67c0.09,0.19,0.15,0.39,0.23,0.59c0.06-0.01,0.13-0.03,0.19-0.04c0-0.25,0-0.5,0-0.75
					c0-28.25,0-56.51,0-84.76c0-0.26-0.02-0.52-0.06-0.78c-0.06-0.41-0.28-0.63-0.72-0.56c-0.04-0.05-0.09-0.1-0.13-0.14
					c-0.01-0.43-0.01-0.87-0.02-1.3c0.05-0.22,0.09-0.44,0.14-0.66C78.9,38.53,79.51,38.53,80.13,38.53z"/>
				<path class="st9" d="M123.05,126.9c0.01-1.11,0.02-2.23,0.02-3.34c0-6.16,0.01-12.32,0-18.48c0-1.11-0.1-2.21-0.1-3.32
					c0.03-19.61,0.07-39.22,0.11-58.83c0-0.2-0.01-0.39-0.01-0.59c0-0.05,0.01-0.09,0.01-0.14c-0.04-0.81-0.08-1.62-0.11-2.44
					c-0.01-0.41,0-0.82,0-1.23c0.13,0,0.26,0,0.39,0c-0.04,0.09-0.08,0.17-0.13,0.26c0.45,0.76,0.32,1.59,0.27,2.41
					c-0.01,0.11,0.08,0.23,0.12,0.35c0.04,0.57,0.09,1.14,0.13,1.7c-0.04,0.37-0.13,0.73-0.13,1.1c-0.01,7.03-0.02,14.07,0,21.1
					c0.03,11.62,0.08,23.23,0.13,34.85c-0.04,0.39-0.09,0.79-0.13,1.18c0,0.79,0,1.57,0,2.36c0.04,6.86,0.09,13.73,0.13,20.59
					c-0.04,0.35-0.09,0.7-0.13,1.05c0,0.09,0,0.17,0,0.26c-0.04,0.7-0.09,1.4-0.13,2.1c0,0.12,0,0.25,0,0.37
					c-0.16,0-0.33,0-0.49,0.01c-0.01-0.21-0.02-0.43-0.03-0.64c0.03-0.04,0.06-0.09,0.09-0.13
					C123.05,127.26,123.05,127.08,123.05,126.9z"/>
				<path class="st10" d="M167.88,126.98c-0.09-0.54-0.25-1.08-0.25-1.62c-0.01-28.48-0.01-56.96,0-85.44
					c0-0.28,0.15-0.57,0.23-0.85c0.01,0.23,0,0.47,0.03,0.7c0.04,0.3,0.12,0.6,0.18,0.91c0,0,0,0,0,0
					c-0.05,0.05-0.09,0.11-0.14,0.16c0.05,0.14,0.1,0.28,0.15,0.42c0.11-0.03,0.22-0.05,0.33-0.08c0,0.13,0,0.26,0,0.39
					c-0.08,0.02-0.15,0.04-0.23,0.05c-0.48,0.03-0.24,0.37-0.26,0.59c0.14-0.01,0.28-0.02,0.42-0.03c0.04-0.02,0.07-0.05,0.07-0.09
					c0,0.66,0,1.31,0,1.97c-0.06,0.02-0.12,0.04-0.18,0.07c0.06,0.02,0.12,0.04,0.18,0.07c0,0.13,0,0.26,0,0.39
					c-0.06,0.02-0.12,0.04-0.18,0.07c0.06,0.02,0.12,0.04,0.18,0.07c0,0.13,0,0.26,0,0.39c-0.06,0.02-0.12,0.04-0.18,0.07
					c0.06,0.02,0.12,0.04,0.18,0.07c0,0.13,0,0.26,0,0.39c-0.06,0.02-0.12,0.04-0.18,0.07c0.06,0.02,0.12,0.04,0.18,0.07
					c0,0.17,0,0.35,0,0.52c-0.06,0.02-0.12,0.04-0.18,0.07c0.06,0.02,0.12,0.04,0.18,0.07c0,0.09,0,0.17,0,0.26
					c-0.07,0.07-0.14,0.14-0.2,0.21c0.07,0.02,0.14,0.04,0.2,0.05c0,0.09,0,0.17,0,0.26c-0.15-0.02-0.3-0.03-0.45-0.05
					c0,0.12,0,0.24,0,0.37c0.15-0.02,0.3-0.03,0.45-0.05c0,0.09,0,0.17,0,0.26c-0.07,0.06-0.14,0.13-0.21,0.19v0.02
					c-0.02,0.04-0.03,0.07-0.05,0.11c-0.01,0.02-0.03,0.04-0.02,0.06c0.01,0.03,0.03,0.07,0.04,0.1c-0.04,0.06-0.08,0.11-0.11,0.17
					c0,0.16,0,0.33,0,0.49c0,0,0,0.02,0,0.02c0.03,0.1,0.07,0.2,0.1,0.29l-0.01,0.06c0,0-0.01,0.01,0,0.01c0,0-0.02,0-0.02,0
					c-0.07,0.1-0.15,0.19-0.22,0.29c0.04,0.21,0.09,0.42,0.13,0.62c0,0,0.01,0.02,0.01,0.02l-0.01,0.01
					c-0.02,0.19-0.04,0.38-0.06,0.57c-0.03,1.14-0.08,2.27-0.07,3.41c0,0.13,0.32,0.26,0.5,0.39c0,0.04,0,0.09,0,0.13
					c-0.17,0.05-0.44,0.07-0.47,0.17c-0.06,0.17,0.04,0.4,0.07,0.6c0.14-0.04,0.27-0.08,0.41-0.12c0,1.05,0,2.1,0,3.15
					c-0.46-0.19-0.44,0.18-0.46,0.43c-0.03,0.4-0.02,0.8-0.03,1.21c0,0.14-0.01,0.28-0.01,0.42c0,2.48,0.01,4.97,0.01,7.45
					c0,0.68-0.01,1.35-0.01,2.03c0.01,0.7,0.02,1.41,0.03,2.11c-0.03,0.04-0.02,0.08,0.02,0.1c0.03,0.11,0.06,0.23,0.09,0.34l0,0.02
					c0,0.17,0,0.34,0,0.51c0,0,0,0.02,0,0.02c0,0.16,0.01,0.32,0.01,0.48c0,0,0,0.02,0,0.02c-0.05,0.09-0.13,0.18-0.13,0.27
					c-0.01,1-0.02,1.99-0.02,2.99c0,0.23,0,0.46,0,0.69c0,0.09,0,0.18,0,0.26c0,0.65,0,1.29,0,1.94c0,0.23,0,0.46,0,0.69
					c0.03,0.71,0.06,1.42,0.09,2.13c0,0.13,0,0.26-0.01,0.39c-0.03,0.64-0.06,1.28-0.09,1.92c0,0.13,0,0.25,0,0.38
					c0,0.53,0.01,1.06,0.01,1.59c0,0.13,0,0.26,0,0.4c0,0.22,0.01,0.43,0.01,0.65c-0.01,2.32-0.02,4.64-0.03,6.96
					c0.05,0.16,0.11,0.32,0.16,0.48c0.11-0.05,0.23-0.1,0.34-0.15c0,1.05,0,2.1,0,3.15c-0.15,0.02-0.42,0.03-0.42,0.07
					c-0.03,0.35-0.03,0.7-0.01,1.05c0,0.02,0.24,0.03,0.37,0.04c0.02,0,0.04-0.07,0.06-0.11c0,0.13,0,0.26,0,0.39
					c-0.31-0.28-0.42-0.03-0.45,0.2c-0.05,0.36-0.04,0.72-0.05,1.08c0,0.32-0.04,0.66,0.02,0.97c0.05,0.26,0.22,0.51,0.48,0.11
					c0,0.26,0,0.52,0,0.79c-0.06,0.02-0.12,0.04-0.18,0.07c0.06,0.02,0.12,0.04,0.18,0.07c0,0.13,0,0.26,0,0.39
					c-0.06,0.02-0.12,0.04-0.18,0.07c0.06,0.02,0.12,0.04,0.18,0.07c0,0.79,0,1.57,0,2.36c-0.08-0.04-0.15-0.08-0.23-0.12
					c-0.09,0.09-0.19,0.18-0.28,0.27c0.1,0.07,0.2,0.14,0.3,0.21c0.07-0.07,0.13-0.14,0.2-0.22c0,0.13,0,0.26,0,0.39
					c-0.07,0.02-0.13,0.03-0.2,0.05c-0.11,0.18-0.29,0.36-0.31,0.55c-0.04,0.43,0,0.86,0.01,1.29c-0.06,0.42,0.01,0.77,0.5,0.87
					c0,0.17,0,0.35,0,0.52c-0.06,0.02-0.12,0.04-0.18,0.07c0.06,0.02,0.12,0.04,0.18,0.07c0,0.09,0,0.17,0,0.26
					c-0.06,0.02-0.12,0.04-0.18,0.07c0.06,0.02,0.12,0.04,0.18,0.07c0,0.17,0,0.35,0,0.52c-0.06,0.02-0.12,0.04-0.18,0.07
					c0.06,0.02,0.12,0.04,0.18,0.07c0,0.09,0,0.17,0,0.26c-0.08-0.04-0.15-0.08-0.23-0.12c-0.09,0.09-0.19,0.18-0.28,0.27
					c0.1,0.07,0.2,0.14,0.3,0.21c0.07-0.07,0.13-0.14,0.2-0.22c0,0.13,0,0.26,0,0.39c-0.66-0.27-0.47,0.29-0.47,0.53
					c-0.02,3.6-0.01,7.21-0.02,10.81c0.03,0.2,0.05,0.4,0.08,0.6c0,0.1,0.01,0.19,0.01,0.29c0,0.27,0,0.55-0.01,0.82
					c-0.02,0.39-0.07,0.79-0.04,1.18c0.02,0.24,0.17,0.45,0.45,0.19c0,0.17,0,0.35,0,0.52c-0.16,0.1-0.31,0.19-0.46,0.29
					C167.92,126.94,167.9,126.95,167.88,126.98z"/>
				<path class="st11" d="M33.62,39.19c0.09,0.41,0.25,0.83,0.25,1.24c0.01,22.52,0.01,45.04,0.01,67.56c0,6.03,0,12.06-0.01,18.09
					c0,0.23-0.16,0.47-0.25,0.7c-0.09,0-0.18,0-0.26,0c0-0.35,0-0.7,0-1.05c0.08-0.06,0.16-0.11,0.24-0.17
					c-0.08-0.08-0.16-0.15-0.24-0.23c0-1.44,0-2.88,0-4.33c0.08-0.06,0.16-0.11,0.24-0.17c-0.08-0.08-0.16-0.15-0.24-0.23
					c0-0.09,0-0.17,0-0.26c0-0.09,0-0.17,0-0.26c0-0.09,0-0.17,0-0.26s0-0.17,0-0.26c0-2.4,0-4.81,0-7.21c0-0.04,0-0.09,0-0.13
					s0-0.09,0-0.13s0-0.09,0-0.13c0-1.09,0-2.19,0-3.28c0-0.09,0-0.17,0-0.26c0-0.04,0-0.09,0-0.13c0-0.13,0-0.26,0-0.39
					c0-0.04,0-0.09,0-0.13c0-0.13,0-0.26,0-0.39c0-0.26,0-0.52,0-0.79c0.08-0.06,0.16-0.11,0.24-0.17
					c-0.08-0.08-0.16-0.15-0.24-0.23c0-1.27,0-2.54,0-3.8c0.09-0.1,0.24-0.2,0.25-0.31c0.03-0.54,0.03-1.08,0-1.62
					c-0.01-0.11-0.16-0.2-0.25-0.31c0-0.52,0-1.05,0-1.57c0-0.04,0-0.09,0-0.13c0-2.32,0-4.63,0-6.95c0.04-0.04,0.09-0.09,0.13-0.13
					c-0.04-0.09-0.09-0.17-0.13-0.26c0-0.04,0-0.09,0-0.13c0.04-0.04,0.09-0.09,0.13-0.13c-0.04-0.09-0.09-0.17-0.13-0.26
					c0-0.04,0-0.09,0-0.13c0.04-0.04,0.09-0.09,0.13-0.13c-0.04-0.09-0.09-0.17-0.13-0.26c0-0.04,0-0.09,0-0.13
					c0.04-0.04,0.09-0.09,0.13-0.13c-0.04-0.09-0.09-0.17-0.13-0.26c0-0.04,0-0.09,0-0.13c0.04-0.04,0.09-0.09,0.13-0.13
					c-0.04-0.09-0.09-0.17-0.13-0.26c0-0.04,0-0.09,0-0.13c0.04-0.04,0.09-0.09,0.13-0.13c-0.04-0.09-0.09-0.17-0.13-0.26
					c0-0.79,0-1.57,0-2.36c0.07-0.03,0.14-0.07,0.2-0.1c-0.07-0.05-0.14-0.11-0.2-0.16c0-0.96,0-1.92,0-2.88
					c0.45-0.35,0.35-0.7,0-1.05c0-0.04,0-0.09,0-0.13c0-0.04,0-0.09,0-0.13c0-0.83,0-1.66,0-2.49c0.37-0.34,0.37-0.58,0-0.92
					c0-0.48,0-0.96,0-1.44c0.09-0.2,0.25-0.41,0.25-0.61c0.02-1.81,0.02-3.62,0-5.44c0-0.17-0.16-0.34-0.25-0.51
					c0-0.13,0-0.26,0-0.39c0.38-0.36,0.38-1.35,0-1.7c0-0.7,0-1.4,0-2.1c0.04-0.04,0.09-0.09,0.13-0.13
					c-0.04-0.09-0.09-0.17-0.13-0.26c0-0.04,0-0.09,0-0.13c0.09-0.16,0.25-0.32,0.25-0.48c0.02-0.94,0.02-1.88,0-2.81
					c0-0.13-0.16-0.25-0.25-0.38c0-0.13,0-0.26,0-0.39c0.09-0.1,0.25-0.2,0.25-0.31c0.02-0.84,0.02-1.69,0-2.53
					c0-0.1-0.16-0.2-0.25-0.31c0-0.09,0-0.17,0-0.26s0-0.17,0-0.26s0-0.17,0-0.26s0-0.17,0-0.26c0-0.09,0-0.17,0-0.26s0-0.17,0-0.26
					s0-0.17,0-0.26c0.04-0.04,0.09-0.09,0.13-0.13c-0.04-0.13-0.09-0.26-0.13-0.39c0-0.17,0-0.35,0-0.52c0-0.09,0-0.17,0-0.26
					c0-0.09,0-0.17,0-0.26c0-0.04,0-0.09,0-0.13c0-0.17,0-0.35,0-0.52c0-0.04,0-0.09,0-0.13c0-0.09,0-0.17,0-0.26s0-0.17,0-0.26
					c0-0.09,0-0.17,0-0.26s0-0.17,0-0.26s0-0.17,0-0.26c0-0.04,0-0.09,0-0.13c0-3.1,0-6.21,0-9.31c0-0.04,0-0.09,0-0.13
					c0-0.66,0-1.31,0-1.97c0.08-0.06,0.16-0.11,0.24-0.17c-0.08-0.08-0.16-0.15-0.24-0.23c0-0.31,0-0.61,0-0.92
					c0.08-0.08,0.25-0.18,0.24-0.23c-0.03-0.11-0.15-0.2-0.24-0.3c0-0.09,0-0.17,0-0.26C33.44,39.19,33.53,39.19,33.62,39.19z"/>
				<path class="st12" d="M166.84,128.75c-14.36,0-28.73,0-43.09,0c0.04-0.17,0.09-0.34,0.13-0.5c0.17-0.01,0.35-0.02,0.52-0.02
					c13.97,0,27.94,0,41.92,0c0.17,0,0.35,0.01,0.52,0.02C166.84,128.42,166.84,128.58,166.84,128.75z"/>
				<path class="st7" d="M123.22,38.79c0.04-0.09,0.08-0.17,0.13-0.26c0.35,0,0.7,0,1.05,0c-0.03,0.15-0.05,0.29-0.1,0.53
					c1.04-0.05,2.05-0.13,3.05-0.13c10.17-0.01,20.34-0.01,30.52-0.01c1.69,0,3.39-0.01,5.08,0c1.11,0,2.21,0.02,3.32,0.06
					c0.11,0,0.2,0.22,0.3,0.33c-13.23,0-26.47,0-39.7,0.01c-0.65,0-1.3,0.08-1.95,0.13c-0.42-0.19-0.68-0.04-0.79,0.39
					c-0.09,0-0.18,0-0.26,0C123.88,39.36,123.79,38.93,123.22,38.79z"/>
				<path class="st6" d="M78.18,128.09c0.04,0,0.07,0,0.11,0c0,0.22,0,0.44,0,0.66c-0.35,0-0.7,0-1.05,0
					c-0.26-0.09-0.51-0.25-0.77-0.25c-13.15-0.01-26.3-0.01-39.45-0.01c-0.17,0-0.36-0.02-0.52,0.02c-0.1,0.03-0.17,0.16-0.25,0.24
					c-0.66,0-1.31,0-1.97,0c0-0.17,0-0.33,0-0.5c0.04-0.01,0.09-0.03,0.13-0.04c0.31,0,0.62,0,0.92,0c0.15,0.01,0.31,0.02,0.46,0.02
					c13.75,0,27.5,0,41.25,0c0.15,0,0.31-0.01,0.46-0.02C77.72,128.17,77.95,128.13,78.18,128.09z"/>
				<path class="st11" d="M34.27,38.92c-0.18-0.04-0.35-0.09-0.53-0.13c0-0.09,0-0.17,0-0.26c14.8,0,29.6,0,44.41,0
					c-0.05,0.17-0.1,0.35-0.15,0.52c-0.65-0.04-1.3-0.09-1.95-0.13c-0.39,0-0.79,0-1.18,0c-0.09,0-0.18,0-0.26,0
					c-0.23-0.04-0.45-0.13-0.68-0.13c-12.9-0.01-25.81-0.01-38.71,0c-0.23,0-0.45,0.08-0.68,0.13
					C34.45,38.92,34.36,38.92,34.27,38.92z"/>
				<path class="st4" d="M36.24,128.75c0.08-0.08,0.15-0.22,0.25-0.24c0.16-0.04,0.35-0.02,0.52-0.02c13.15,0,26.3,0,39.45,0.01
					c0.26,0,0.51,0.16,0.77,0.25C63.57,128.75,49.91,128.75,36.24,128.75z"/>
				<path class="st13" d="M167.91,94.85c0.01-2.32,0.02-4.64,0.03-6.96c0-0.22-0.01-0.43-0.01-0.64c0.12,0.02,0.24,0.04,0.36,0.06
					c0.04,0,0.09,0,0.13,0c0,2.49,0,4.98,0,7.47C168.25,94.81,168.08,94.83,167.91,94.85z"/>
				<path class="st13" d="M167.93,67.97c0-2.48-0.01-4.97-0.01-7.45c0.17,0.01,0.33,0.03,0.5,0.04c0,2.45,0,4.9,0,7.34
					C168.25,67.93,168.09,67.95,167.93,67.97z"/>
				<path class="st13" d="M167.93,123.04c0-3.6,0-7.21,0.02-10.81c0-0.25-0.19-0.81,0.47-0.53c0,3.76,0,7.52,0,11.28
					C168.25,123,168.09,123.02,167.93,123.04z"/>
				<path class="st14" d="M33.35,70.27c0.09,0.17,0.25,0.34,0.25,0.51c0.02,1.81,0.02,3.62,0,5.44c0,0.21-0.16,0.41-0.25,0.61
					C33.35,74.64,33.35,72.45,33.35,70.27z"/>
				<path class="st13" d="M168.41,54.53c-0.17-0.13-0.5-0.26-0.5-0.39c-0.01-1.14,0.04-2.27,0.07-3.4c0.14-0.04,0.28-0.09,0.42-0.14
					c0,0.61,0,1.22,0,1.84c-0.04,0.17-0.09,0.35-0.13,0.52c0.04,0.04,0.09,0.09,0.13,0.13C168.41,53.57,168.41,54.05,168.41,54.53z"
					/>
				<path class="st6" d="M166.84,128.75c0-0.17,0-0.33,0-0.5c0.09-0.01,0.18-0.03,0.26-0.04c0.17-0.03,0.34-0.07,0.52-0.1l0,0
					c0.02,0.03,0.04,0.06,0.06,0.09c0.03-0.03,0.07-0.06,0.1-0.09c0.05-0.25,0.09-0.49,0.14-0.74c0.17-0.06,0.34-0.12,0.5-0.19
					c0,0.52,0,1.05,0,1.57C167.89,128.75,167.36,128.75,166.84,128.75z"/>
				<path class="st6" d="M167.91,76.86c0.01-1,0.01-1.99,0.02-2.99c0-0.09,0.09-0.18,0.13-0.27c0.07,0.02,0.14,0.05,0.22,0.07
					c0.04,0.09,0.09,0.17,0.13,0.26c0,0.96,0,1.92,0,2.88C168.25,76.84,168.08,76.85,167.91,76.86z"/>
				<path class="st14" d="M33.35,61.87c0.09,0.13,0.25,0.25,0.25,0.38c0.02,0.94,0.02,1.88,0,2.81c0,0.16-0.16,0.32-0.25,0.48
					C33.35,64.32,33.35,63.1,33.35,61.87z"/>
				<path class="st14" d="M33.35,58.33c0.09,0.1,0.25,0.2,0.25,0.31c0.02,0.84,0.02,1.69,0,2.53c0,0.1-0.16,0.2-0.25,0.31
					C33.35,60.43,33.35,59.38,33.35,58.33z"/>
				<path class="st12" d="M168.01,82.58c-0.03-0.71-0.06-1.42-0.09-2.14c0.17,0.02,0.33,0.03,0.5,0.05c0,0.66,0,1.31,0,1.97
					C168.28,82.5,168.14,82.54,168.01,82.58z"/>
				<path class="st6" d="M168.07,40.66c-0.06-0.3-0.14-0.6-0.18-0.91c-0.03-0.23-0.02-0.46-0.03-0.7c0.01-0.09,0.03-0.17,0.04-0.26
					c0.17,0.04,0.34,0.09,0.5,0.13c0,0.09,0,0.17,0,0.26c-0.08,0.08-0.25,0.18-0.24,0.23c0.03,0.11,0.15,0.2,0.24,0.3
					c0,0.31,0,0.61,0,0.92C168.3,40.64,168.19,40.65,168.07,40.66z"/>
				<path class="st6" d="M167.95,72.11c-0.01-0.7-0.02-1.41-0.03-2.11c0.17-0.08,0.33-0.17,0.5-0.25c0,0.61,0,1.22,0,1.84
					C168.26,71.75,168.1,71.93,167.95,72.11z"/>
				<path class="st12" d="M168.41,69.74c-0.17,0.08-0.33,0.17-0.5,0.25c0-0.68,0.01-1.35,0.01-2.03c0.16-0.02,0.32-0.04,0.49-0.06
					C168.41,68.52,168.41,69.13,168.41,69.74z"/>
				<path class="st12" d="M167.91,79.76c0-0.65,0-1.29,0-1.94c0.17,0.02,0.33,0.03,0.5,0.05c0,0.61,0,1.22,0,1.84
					C168.25,79.72,168.08,79.74,167.91,79.76z"/>
				<path class="st6" d="M123.88,128.25c-0.04,0.17-0.09,0.34-0.13,0.5c-0.48,0-0.96,0-1.45,0c0.23-0.18,0.46-0.36,0.69-0.54
					c0.16,0,0.33,0,0.49-0.01C123.61,128.22,123.75,128.23,123.88,128.25z"/>
				<path class="st12" d="M167.91,84.89c0.03-0.64,0.06-1.28,0.09-1.92c0.14,0.05,0.28,0.09,0.41,0.14c0,0.57,0,1.14,0,1.7
					C168.25,84.84,168.08,84.87,167.91,84.89z"/>
				<path class="st14" d="M33.35,100.16c0.09,0.1,0.24,0.2,0.25,0.31c0.03,0.54,0.03,1.08,0,1.62c-0.01,0.11-0.16,0.2-0.25,0.31
					C33.35,101.65,33.35,100.91,33.35,100.16z"/>
				<path class="st6" d="M167.91,108.34c-0.01-0.43-0.05-0.86-0.01-1.29c0.02-0.19,0.2-0.36,0.31-0.54c0.07,0.03,0.13,0.05,0.2,0.08
					c0,0.13,0,0.26,0,0.39c0,0.04,0,0.09,0,0.13c0,0.17,0,0.35,0,0.52c0,0.04,0,0.09,0,0.13c0,0.09,0,0.17,0,0.26
					c0,0.04,0,0.09,0,0.13s0,0.09,0,0.13C168.25,108.31,168.08,108.32,167.91,108.34z"/>
				<path class="st13" d="M167.93,86.85c0-0.53-0.01-1.06-0.01-1.59c0.17,0.03,0.33,0.05,0.5,0.08c0,0.57,0,1.14,0,1.7
					C168.25,86.99,168.09,86.92,167.93,86.85z"/>
				<path class="st4" d="M34.27,128.25c0,0.17,0,0.33,0,0.5c-0.31,0-0.61,0-0.92,0c0-0.17,0-0.35,0-0.52
					C33.66,128.23,33.97,128.24,34.27,128.25z"/>
				<path class="st6" d="M168.41,102.13c-0.26,0.4-0.43,0.15-0.48-0.11c-0.06-0.31-0.02-0.65-0.02-0.97
					c0.17,0.01,0.33,0.02,0.5,0.03C168.41,101.43,168.41,101.78,168.41,102.13z"/>
				<path class="st13" d="M168.41,101.08c-0.17-0.01-0.33-0.02-0.5-0.03c0.01-0.36,0-0.73,0.05-1.08c0.03-0.23,0.15-0.48,0.45-0.2
					C168.41,100.21,168.41,100.64,168.41,101.08z"/>
				<path class="st14" d="M33.35,68.17c0.38,0.36,0.38,1.35,0,1.7C33.35,69.3,33.35,68.74,33.35,68.17z"/>
				<path class="st13" d="M167.93,60.1c0.01-0.4-0.01-0.81,0.03-1.21c0.02-0.25,0-0.62,0.46-0.43c0,0.52,0,1.05,0,1.57
					C168.25,60.06,168.09,60.08,167.93,60.1z"/>
				<path class="st13" d="M168.41,99.38c-0.02,0.04-0.04,0.11-0.06,0.11c-0.13,0-0.37-0.02-0.37-0.04c-0.02-0.35-0.02-0.7,0.01-1.05
					c0-0.04,0.27-0.05,0.42-0.07C168.41,98.68,168.41,99.03,168.41,99.38z"/>
				<path class="st13" d="M168.41,126.13c-0.29,0.27-0.43,0.05-0.45-0.19c-0.03-0.39,0.02-0.79,0.05-1.18
					c0.14-0.07,0.27-0.14,0.41-0.21C168.41,125.08,168.41,125.6,168.41,126.13z"/>
				<path class="st6" d="M167.91,79.76c0.17-0.02,0.33-0.03,0.5-0.05c0,0.26,0,0.52,0,0.79c-0.17-0.02-0.33-0.03-0.5-0.05
					C167.91,80.21,167.91,79.99,167.91,79.76z"/>
				<path class="st13" d="M167.91,108.34c0.17-0.02,0.33-0.03,0.5-0.05c0,0.31,0,0.61,0,0.92
					C167.93,109.11,167.85,108.76,167.91,108.34z"/>
				<path class="st14" d="M33.35,81.94c0.35,0.35,0.45,0.7,0,1.05C33.35,82.64,33.35,82.29,33.35,81.94z"/>
				<path class="st6" d="M168.05,50.13c-0.04-0.21-0.09-0.42-0.13-0.62c0.08-0.03,0.16-0.06,0.24-0.09c0.04,0,0.09,0,0.13,0
					c0.04,0.04,0.09,0.09,0.13,0.13c0,0.26,0,0.52,0,0.79c-0.04,0-0.09,0-0.13,0C168.2,50.27,168.12,50.2,168.05,50.13z"/>
				<path class="st12" d="M168.41,124.55c-0.13,0.07-0.27,0.14-0.41,0.21c0-0.28,0-0.55,0.01-0.82c0.13-0.01,0.27-0.03,0.4-0.04
					C168.41,124.12,168.41,124.34,168.41,124.55z"/>
				<path class="st6" d="M168.41,85.35c-0.17-0.03-0.33-0.05-0.5-0.08c0-0.13,0-0.25,0-0.38c0.17-0.02,0.33-0.05,0.5-0.07
					C168.41,85,168.41,85.17,168.41,85.35z"/>
				<path class="st14" d="M33.35,78.26c0.37,0.34,0.37,0.58,0,0.92C33.35,78.88,33.35,78.57,33.35,78.26z"/>
				<path class="st12" d="M167.91,76.86c0.17-0.01,0.33-0.03,0.5-0.04c0,0.22,0,0.44,0,0.66c-0.17,0.03-0.33,0.05-0.5,0.08
					C167.91,77.33,167.91,77.09,167.91,76.86z"/>
				<path class="st15" d="M33.75,38.53c0,0.09,0,0.17,0,0.26c-0.04,0.13-0.09,0.26-0.13,0.39c-0.09,0-0.18,0-0.26,0
					C33.44,38.94,33.09,38.43,33.75,38.53z"/>
				<path class="st6" d="M168.41,55.32c-0.14,0.04-0.27,0.08-0.41,0.12c-0.03-0.2-0.12-0.42-0.07-0.6c0.03-0.1,0.31-0.12,0.47-0.17
					C168.41,54.88,168.41,55.1,168.41,55.32z"/>
				<path class="st12" d="M167.93,60.1c0.16-0.02,0.33-0.04,0.49-0.06c0,0.17,0,0.35,0,0.52c-0.17-0.01-0.33-0.03-0.5-0.04
					C167.92,60.38,167.92,60.24,167.93,60.1z"/>
				<path class="st12" d="M167.93,123.04c0.16-0.02,0.33-0.04,0.49-0.06c0,0.17,0,0.35,0,0.52c-0.14,0.05-0.27,0.09-0.41,0.14
					C167.98,123.45,167.95,123.25,167.93,123.04z"/>
				<path class="st13" d="M168.41,38.92c-0.17-0.04-0.34-0.09-0.5-0.13c-0.05-0.09-0.1-0.17-0.15-0.26
					C168,38.62,168.51,38.27,168.41,38.92z"/>
				<path class="st12" d="M168.34,42.16c-0.14,0.01-0.28,0.02-0.42,0.03c0.02-0.23-0.22-0.57,0.26-0.59
					c0.08,0.03,0.15,0.05,0.23,0.07c0,0.09,0,0.17,0,0.26C168.39,42.02,168.37,42.09,168.34,42.16z"/>
				<path class="st6" d="M167.91,77.56c0.17-0.03,0.33-0.05,0.5-0.08c0,0.13,0,0.26,0,0.39c-0.17-0.02-0.33-0.03-0.5-0.05
					C167.91,77.73,167.91,77.64,167.91,77.56z"/>
				<path class="st12" d="M167.91,94.85c0.17-0.02,0.33-0.05,0.5-0.07c0,0.13,0,0.26,0,0.39c-0.11,0.05-0.23,0.1-0.34,0.15
					C168.02,95.17,167.97,95.01,167.91,94.85z"/>
				<path class="st6" d="M168.41,83.12c-0.14-0.05-0.27-0.09-0.41-0.14c0-0.14,0-0.27,0-0.4c0.13-0.04,0.27-0.08,0.41-0.12
					C168.41,82.68,168.41,82.9,168.41,83.12z"/>
				<path class="st13" d="M78.01,39.06c0.05-0.17,0.1-0.35,0.15-0.52c0.04,0,0.09,0,0.13,0c-0.05,0.22-0.09,0.44-0.14,0.66
					C78.1,39.14,78.06,39.1,78.01,39.06z"/>
				<path class="st12" d="M167.93,86.85c0.16,0.07,0.32,0.13,0.49,0.2c0,0.04,0,0.09,0,0.13c-0.04,0.04-0.09,0.09-0.13,0.13
					c-0.12-0.02-0.24-0.04-0.36-0.06C167.93,87.12,167.93,86.99,167.93,86.85z"/>
				<path class="st6" d="M168.41,127.18c-0.17,0.06-0.34,0.12-0.5,0.19c0-0.03,0.02-0.06,0.04-0.09c0-0.11,0-0.22-0.01-0.34
					c0.16-0.1,0.31-0.19,0.47-0.29C168.41,126.83,168.41,127,168.41,127.18z"/>
				<path class="st15" d="M33.35,39.45c0.08,0.1,0.2,0.19,0.24,0.3c0.01,0.05-0.15,0.15-0.24,0.23
					C33.35,39.8,33.35,39.62,33.35,39.45z"/>
				<path class="st15" d="M33.35,127.44c0.08,0.1,0.2,0.19,0.24,0.3c0.01,0.05-0.15,0.15-0.24,0.23
					C33.35,127.79,33.35,127.61,33.35,127.44z"/>
				<path class="st13" d="M168.41,39.71c-0.08-0.1-0.2-0.19-0.24-0.3c-0.01-0.05,0.15-0.15,0.24-0.23
					C168.41,39.36,168.41,39.54,168.41,39.71z"/>
				<path class="st13" d="M168.07,40.66c0.11-0.01,0.23-0.02,0.34-0.03c0,0.17,0,0.35,0,0.52c-0.11,0.03-0.22,0.05-0.33,0.08
					c0.02-0.11,0.04-0.23,0.06-0.34C168.12,40.81,168.1,40.74,168.07,40.66C168.07,40.66,168.07,40.66,168.07,40.66z"/>
				<path class="st13" d="M167.95,72.11c0.16-0.18,0.31-0.35,0.47-0.53c0,0.26,0,0.52,0,0.79c-0.15-0.05-0.3-0.1-0.45-0.15
					C167.93,72.18,167.92,72.15,167.95,72.11z"/>
				<path class="st6" d="M168.01,123.65c0.14-0.05,0.27-0.09,0.41-0.14c0,0.13,0,0.26,0,0.39c-0.13,0.01-0.27,0.03-0.4,0.04
					C168.01,123.84,168.01,123.74,168.01,123.65z"/>
				<path class="st6" d="M168.41,47.45c-0.15,0.02-0.3,0.03-0.45,0.05c0-0.12,0-0.24,0-0.37c0.15,0.02,0.3,0.03,0.45,0.05
					C168.41,47.27,168.41,47.36,168.41,47.45z"/>
				<path class="st14" d="M33.35,40.89c0.08,0.08,0.16,0.15,0.24,0.23c-0.08,0.06-0.16,0.11-0.24,0.17
					C33.35,41.15,33.35,41.02,33.35,40.89z"/>
				<path class="st6" d="M168.06,73.08c0-0.17,0-0.34,0-0.51c0.08,0.02,0.15,0.04,0.23,0.06c0.04,0.09,0.09,0.17,0.13,0.26
					c0,0.09,0,0.17,0,0.26c-0.04,0-0.09,0-0.13,0C168.21,73.13,168.13,73.1,168.06,73.08z"/>
				<path class="st14" d="M33.35,120.62c0.08,0.08,0.16,0.15,0.24,0.23c-0.08,0.06-0.16,0.11-0.24,0.17
					C33.35,120.88,33.35,120.75,33.35,120.62z"/>
				<path class="st6" d="M167.97,72.21c0.15,0.05,0.3,0.1,0.45,0.15c0,0.09,0,0.17,0,0.26c-0.04,0-0.09,0-0.13,0
					c-0.07-0.02-0.15-0.05-0.22-0.07C168.03,72.44,168,72.32,167.97,72.21z"/>
				<path class="st14" d="M33.35,106.2c0.08,0.08,0.16,0.15,0.24,0.23c-0.08,0.06-0.16,0.11-0.24,0.17
					C33.35,106.46,33.35,106.33,33.35,106.2z"/>
				<path class="st14" d="M33.35,125.34c0.08,0.08,0.16,0.15,0.24,0.23c-0.08,0.06-0.16,0.11-0.24,0.17
					C33.35,125.6,33.35,125.47,33.35,125.34z"/>
				<path class="st6" d="M168.41,50.6c-0.14,0.05-0.28,0.09-0.42,0.14c0.02-0.19,0.04-0.38,0.06-0.57c0.12,0.1,0.24,0.2,0.37,0.3
					C168.41,50.51,168.41,50.55,168.41,50.6z"/>
				<path class="st6" d="M168.07,73.58c0-0.16-0.01-0.32-0.01-0.49c0.08,0.02,0.15,0.04,0.23,0.05c0.04,0.09,0.09,0.17,0.13,0.26
					c0,0.09,0,0.17,0,0.26c-0.04,0-0.09,0-0.13,0C168.21,73.64,168.14,73.61,168.07,73.58z"/>
				<path class="st15" d="M33.35,126.78c0.09,0,0.18,0,0.26,0c-0.09,0.13-0.18,0.26-0.26,0.39
					C33.35,127.05,33.35,126.91,33.35,126.78z"/>
				<path class="st6" d="M168.06,48.84c0-0.16,0-0.33,0-0.49c0.04-0.06,0.08-0.11,0.11-0.17c-0.02-0.03-0.04-0.07-0.04-0.1
					c0-0.02,0.01-0.04,0.02-0.05c0.09,0.07,0.17,0.14,0.26,0.21c0,0.09,0,0.17,0,0.26c-0.04,0.09-0.09,0.17-0.13,0.26
					C168.21,48.79,168.14,48.81,168.06,48.84z"/>
				<path class="st6" d="M168.28,52.96c0.04-0.17,0.09-0.35,0.13-0.52c0,0.09,0,0.17,0,0.26C168.37,52.78,168.33,52.87,168.28,52.96
					z"/>
				<path class="st15" d="M33.35,85.87c0.07,0.05,0.14,0.11,0.2,0.16c-0.07,0.03-0.14,0.07-0.2,0.1
					C33.35,86.04,33.35,85.96,33.35,85.87z"/>
				<path class="st14" d="M33.35,107.38c0,0.13,0,0.26,0,0.39C33.35,107.64,33.35,107.51,33.35,107.38z"/>
				<path class="st6" d="M168.16,49.15c-0.03-0.1-0.07-0.2-0.1-0.3c0.07-0.03,0.15-0.06,0.22-0.1c0.04,0,0.09,0,0.13,0
					c0,0.09,0,0.17,0,0.26C168.33,49.06,168.25,49.11,168.16,49.15z"/>
				<path class="st14" d="M33.35,107.9c0,0.13,0,0.26,0,0.39C33.35,108.16,33.35,108.03,33.35,107.9z"/>
				<path class="st14" d="M33.35,55.97c0.04,0.13,0.09,0.26,0.13,0.39c-0.04,0-0.09,0-0.13,0C33.35,56.23,33.35,56.1,33.35,55.97z"
					/>
				<path class="st13" d="M168.41,48.76c-0.04,0-0.09,0-0.13,0c0.04-0.09,0.09-0.17,0.13-0.26
					C168.41,48.58,168.41,48.67,168.41,48.76z"/>
				<path class="st14" d="M33.35,108.42c0,0.09,0,0.17,0,0.26C33.35,108.6,33.35,108.51,33.35,108.42z"/>
				<path class="st14" d="M33.35,90.59c0.04,0.09,0.09,0.17,0.13,0.26c-0.04,0-0.09,0-0.13,0C33.35,90.77,33.35,90.68,33.35,90.59z"
					/>
				<path class="st13" d="M168.28,72.63c0.04,0,0.09,0,0.13,0c0,0.09,0,0.17,0,0.26C168.37,72.8,168.33,72.71,168.28,72.63z"/>
				<path class="st14" d="M33.35,91.12c0.04,0.09,0.09,0.17,0.13,0.26c-0.04,0-0.09,0-0.13,0C33.35,91.29,33.35,91.2,33.35,91.12z"
					/>
				<path class="st13" d="M168.16,49.15c0.08-0.04,0.17-0.09,0.25-0.13c0,0.09,0,0.17,0,0.26c-0.09-0.03-0.17-0.05-0.26-0.08
					C168.16,49.21,168.16,49.15,168.16,49.15z"/>
				<path class="st14" d="M33.35,90.07c0.04,0.09,0.09,0.17,0.13,0.26c-0.04,0-0.09,0-0.13,0C33.35,90.24,33.35,90.15,33.35,90.07z"
					/>
				<path class="st6" d="M168.16,49.21c0.09,0.03,0.17,0.05,0.26,0.08c0,0.09,0,0.17,0,0.26c-0.04-0.04-0.09-0.09-0.13-0.13
					c-0.04-0.07-0.09-0.13-0.13-0.2C168.15,49.22,168.16,49.21,168.16,49.21z"/>
				<path class="st14" d="M33.35,89.54c0.04,0.09,0.09,0.17,0.13,0.26c-0.04,0-0.09,0-0.13,0C33.35,89.72,33.35,89.63,33.35,89.54z"
					/>
				<path class="st14" d="M33.35,89.02c0.04,0.09,0.09,0.17,0.13,0.26c-0.04,0-0.09,0-0.13,0C33.35,89.19,33.35,89.1,33.35,89.02z"
					/>
				<path class="st13" d="M168.41,50.46c-0.12-0.1-0.24-0.2-0.37-0.3c0,0,0.01-0.01,0.01-0.01c0.08,0.06,0.15,0.12,0.22,0.18
					c0.04,0,0.09,0,0.13,0C168.41,50.38,168.41,50.42,168.41,50.46z"/>
				<path class="st14" d="M33.35,88.49c0.04,0.09,0.09,0.17,0.13,0.26c-0.04,0-0.09,0-0.13,0C33.35,88.67,33.35,88.58,33.35,88.49z"
					/>
				<path class="st13" d="M168.41,48.24c-0.09-0.07-0.17-0.14-0.26-0.21c0.01-0.04,0.03-0.08,0.05-0.11
					c0.07,0.02,0.14,0.04,0.21,0.06C168.41,48.06,168.41,48.15,168.41,48.24z"/>
				<path class="st13" d="M168.28,52.96c0.04-0.09,0.09-0.17,0.13-0.26c0,0.09,0,0.17,0,0.26
					C168.37,52.96,168.33,52.96,168.28,52.96z"/>
				<path class="st15" d="M33.35,53.09c0,0.09,0,0.17,0,0.26C33.35,53.26,33.35,53.17,33.35,53.09z"/>
				<path class="st15" d="M33.35,53.61c0,0.09,0,0.17,0,0.26C33.35,53.79,33.35,53.7,33.35,53.61z"/>
				<path class="st15" d="M33.35,55.19c0,0.09,0,0.17,0,0.26C33.35,55.36,33.35,55.27,33.35,55.19z"/>
				<path class="st15" d="M33.35,56.76c0,0.09,0,0.17,0,0.26C33.35,56.93,33.35,56.85,33.35,56.76z"/>
				<path class="st15" d="M33.35,57.28c0,0.09,0,0.17,0,0.26C33.35,57.46,33.35,57.37,33.35,57.28z"/>
				<path class="st15" d="M33.35,57.81c0,0.09,0,0.17,0,0.26C33.35,57.98,33.35,57.9,33.35,57.81z"/>
				<path class="st15" d="M33.35,65.68c0.04,0.09,0.09,0.17,0.13,0.26c-0.04,0-0.09,0-0.13,0C33.35,65.85,33.35,65.76,33.35,65.68z"
					/>
				<path class="st15" d="M33.35,120.1c0,0.09,0,0.17,0,0.26C33.35,120.27,33.35,120.18,33.35,120.1z"/>
				<path class="st15" d="M33.35,119.57c0,0.09,0,0.17,0,0.26C33.35,119.75,33.35,119.66,33.35,119.57z"/>
				<path class="st13" d="M168.28,73.67c0.04,0,0.09,0,0.13,0c0,0.09,0,0.17,0,0.26C168.37,73.85,168.33,73.76,168.28,73.67z"/>
				<path class="st13" d="M168.41,73.41c-0.04-0.09-0.09-0.17-0.13-0.26c0.04,0,0.09,0,0.13,0
					C168.41,73.24,168.41,73.33,168.41,73.41z"/>
				<path class="st15" d="M33.35,90.33c0.04,0,0.09,0,0.13,0c-0.04,0.04-0.09,0.09-0.13,0.13C33.35,90.42,33.35,90.37,33.35,90.33z"
					/>
				<path class="st13" d="M168.41,108.16c0-0.04,0-0.09,0-0.13C168.41,108.07,168.41,108.12,168.41,108.16z"/>
				<path class="st13" d="M168.41,44.69c-0.06-0.02-0.12-0.04-0.18-0.07c0.06-0.02,0.12-0.04,0.18-0.07
					C168.41,44.61,168.41,44.65,168.41,44.69z"/>
				<path class="st13" d="M168.41,107.11c0-0.04,0-0.09,0-0.13C168.41,107.03,168.41,107.07,168.41,107.11z"/>
				<path class="st6" d="M168.41,109.87c-0.06-0.02-0.12-0.04-0.18-0.07c0.06-0.02,0.12-0.04,0.18-0.07
					C168.41,109.78,168.41,109.82,168.41,109.87z"/>
				<path class="st13" d="M168.41,110.26c-0.06-0.02-0.12-0.04-0.18-0.07c0.06-0.02,0.12-0.04,0.18-0.07
					C168.41,110.17,168.41,110.22,168.41,110.26z"/>
				<path class="st6" d="M168.41,110.92c-0.06-0.02-0.12-0.04-0.18-0.07c0.06-0.02,0.12-0.04,0.18-0.07
					C168.41,110.83,168.41,110.87,168.41,110.92z"/>
				<path class="st13" d="M168.41,45.22c-0.06-0.02-0.12-0.04-0.18-0.07c0.06-0.02,0.12-0.04,0.18-0.07
					C168.41,45.13,168.41,45.18,168.41,45.22z"/>
				<path class="st13" d="M168.19,111.05c0.08,0.04,0.15,0.08,0.23,0.12c0,0.04,0,0.09,0,0.13c-0.07,0.07-0.13,0.14-0.2,0.21
					C168.21,111.37,168.2,111.21,168.19,111.05z"/>
				<path class="st13" d="M168.41,45.74c-0.06-0.02-0.12-0.04-0.18-0.07c0.06-0.02,0.12-0.04,0.18-0.07
					C168.41,45.66,168.41,45.7,168.41,45.74z"/>
				<path class="st15" d="M33.35,111.97c0,0.04,0,0.09,0,0.13C33.35,112.05,33.35,112.01,33.35,111.97z"/>
				<path class="st15" d="M33.35,112.23c0,0.04,0,0.09,0,0.13C33.35,112.31,33.35,112.27,33.35,112.23z"/>
				<path class="st13" d="M168.41,106.59c-0.07-0.03-0.13-0.05-0.2-0.08c0.07-0.02,0.13-0.03,0.2-0.05
					C168.41,106.5,168.41,106.55,168.41,106.59z"/>
				<path class="st13" d="M168.41,44.17c-0.06-0.02-0.12-0.04-0.18-0.07c0.06-0.02,0.12-0.04,0.18-0.07
					C168.41,44.08,168.41,44.13,168.41,44.17z"/>
				<path class="st6" d="M168.41,46.4c-0.06-0.02-0.12-0.04-0.18-0.07c0.06-0.02,0.12-0.04,0.18-0.07
					C168.41,46.31,168.41,46.36,168.41,46.4z"/>
				<path class="st13" d="M168.21,46.87c0.07-0.07,0.14-0.14,0.2-0.21c0,0.04,0,0.09,0,0.13C168.35,46.82,168.28,46.84,168.21,46.87
					z"/>
				<path class="st6" d="M168.21,46.87c0.07-0.03,0.14-0.05,0.2-0.08c0,0.04,0,0.09,0,0.13C168.35,46.91,168.28,46.89,168.21,46.87z
					"/>
				<path class="st14" d="M33.35,65.94c0.04,0,0.09,0,0.13,0c-0.04,0.04-0.09,0.09-0.13,0.13C33.35,66.03,33.35,65.98,33.35,65.94z"
					/>
				<path class="st13" d="M168.41,106.06c-0.07,0.07-0.13,0.14-0.2,0.21c-0.01-0.16-0.02-0.31-0.03-0.47
					c0.08,0.04,0.15,0.08,0.23,0.12C168.41,105.98,168.41,106.02,168.41,106.06z"/>
				<path class="st13" d="M168.2,47.9c0.07-0.06,0.14-0.13,0.21-0.19c0,0.04,0,0.09,0,0.13C168.34,47.86,168.27,47.88,168.2,47.9z"
					/>
				<path class="st6" d="M168.2,47.9c0.07-0.02,0.14-0.04,0.21-0.06c0,0.04,0,0.09,0,0.13c-0.07-0.02-0.14-0.04-0.21-0.06
					C168.2,47.92,168.2,47.9,168.2,47.9z"/>
				<path class="st15" d="M33.35,43.25c0,0.04,0,0.09,0,0.13C33.35,43.34,33.35,43.3,33.35,43.25z"/>
				<path class="st6" d="M168.41,103.57c-0.06-0.02-0.12-0.04-0.18-0.07c0.06-0.02,0.12-0.04,0.18-0.07
					C168.41,103.49,168.41,103.53,168.41,103.57z"/>
				<path class="st6" d="M168.41,103.05c-0.06-0.02-0.12-0.04-0.18-0.07c0.06-0.02,0.12-0.04,0.18-0.07
					C168.41,102.96,168.41,103,168.41,103.05z"/>
				<path class="st15" d="M33.35,56.37c0.04,0,0.09,0,0.13,0c-0.04,0.04-0.09,0.09-0.13,0.13C33.35,56.45,33.35,56.41,33.35,56.37z"
					/>
				<path class="st6" d="M168.41,41.68c-0.08-0.02-0.15-0.05-0.23-0.07c0.08-0.02,0.15-0.04,0.23-0.06
					C168.41,41.59,168.41,41.64,168.41,41.68z"/>
				<path class="st15" d="M33.35,54.79c0,0.04,0,0.09,0,0.13C33.35,54.88,33.35,54.84,33.35,54.79z"/>
				<path class="st15" d="M33.35,54.14c0,0.04,0,0.09,0,0.13C33.35,54.22,33.35,54.18,33.35,54.14z"/>
				<path class="st14" d="M33.35,81.67c0,0.04,0,0.09,0,0.13C33.35,81.76,33.35,81.72,33.35,81.67z"/>
				<path class="st6" d="M168.28,87.31c0.04-0.04,0.09-0.09,0.13-0.13c0,0.04,0,0.09,0,0.13C168.37,87.31,168.33,87.31,168.28,87.31
					z"/>
				<path class="st6" d="M168.28,52.96c0.04,0,0.09,0,0.13,0c0,0.04,0,0.09,0,0.13C168.37,53.04,168.33,53,168.28,52.96z"/>
				<path class="st15" d="M33.35,52.69c0,0.04,0,0.09,0,0.13C33.35,52.78,33.35,52.74,33.35,52.69z"/>
				<path class="st13" d="M168.34,42.16c0.02-0.07,0.05-0.15,0.07-0.22c0,0.04,0,0.09,0,0.13
					C168.41,42.12,168.39,42.15,168.34,42.16z"/>
				<path class="st15" d="M33.35,88.75c0.04,0,0.09,0,0.13,0c-0.04,0.04-0.09,0.09-0.13,0.13C33.35,88.84,33.35,88.8,33.35,88.75z"
					/>
				<path class="st15" d="M33.35,89.28c0.04,0,0.09,0,0.13,0c-0.04,0.04-0.09,0.09-0.13,0.13C33.35,89.37,33.35,89.32,33.35,89.28z"
					/>
				<path class="st14" d="M33.35,98.46c0,0.04,0,0.09,0,0.13C33.35,98.55,33.35,98.5,33.35,98.46z"/>
				<path class="st15" d="M33.35,89.8c0.04,0,0.09,0,0.13,0c-0.04,0.04-0.09,0.09-0.13,0.13C33.35,89.89,33.35,89.85,33.35,89.8z"/>
				<path class="st15" d="M33.35,91.38c0.04,0,0.09,0,0.13,0c-0.04,0.04-0.09,0.09-0.13,0.13C33.35,91.46,33.35,91.42,33.35,91.38z"
					/>
				<path class="st15" d="M33.35,90.85c0.04,0,0.09,0,0.13,0c-0.04,0.04-0.09,0.09-0.13,0.13C33.35,90.94,33.35,90.9,33.35,90.85z"
					/>
				<path class="st6" d="M168.41,107.77c0-0.04,0-0.09,0-0.13C168.41,107.68,168.41,107.73,168.41,107.77z"/>
				<path class="st16" d="M80.39,127.3c0-1.24,0-2.39,0-3.54c0-6.64,0-13.29,0-19.93c0-1.01-0.08-2.02-0.1-3.03
					c-0.01-0.39,0.1-0.78,0.1-1.16c0.01-19.05,0.01-38.11,0-57.16c0-0.45-0.1-0.91-0.12-1.36c-0.04-0.7,0.33-0.94,0.98-0.69
					c0.18,0.07,0.41,0.03,0.61,0.01c0.36-0.05,0.72-0.19,1.08-0.19c3.33-0.01,6.66,0,9.98-0.01c1.33-0.01,2.66-0.1,3.98-0.12
					c0.45-0.01,0.91,0.12,1.36,0.12c6.48,0.01,12.96,0.01,19.44,0.01c0.89,0,1.79,0,2.87,0c-0.25,0.27-0.42,0.37-0.45,0.51
					c-0.06,0.26-0.08,0.54-0.03,0.8c0.08,0.36,0.35,0.69,0.35,1.04c0.02,18.25,0.01,36.49,0.02,54.74c0,1.28,0.09,2.57,0.11,3.85
					c0.01,0.52-0.11,1.04-0.11,1.56c-0.01,7.23-0.01,14.47,0,21.7c0,0.63-0.12,1.25,0.18,1.89c0.25,0.52-0.14,0.87-0.82,0.87
					c-5.87,0-11.73,0-17.6,0c-6.74,0-13.49,0-20.23,0.01C81.44,127.18,80.88,127.26,80.39,127.3z M96.49,100.38
					c-0.06,0-0.13,0.01-0.19,0.01c0.02,0.21,0.04,0.41,0.06,0.62c0.05,0,0.09-0.01,0.14-0.01
					C96.49,100.79,96.49,100.58,96.49,100.38z"/>
				<path class="st17" d="M122.3,102.26c0,7.01-0.01,14.02,0.01,21.04c0,1.43,0.15,2.86-0.14,4.27c-0.62,0.09-0.53-0.35-0.53-0.71
					c0-5.64,0-11.27,0-16.91c0-1.99,0-3.98,0-5.97c0-20.18,0-40.36,0-60.54c0-1.03-0.08-2.06-0.1-3.1c0-0.21,0.07-0.43,0.1-0.64
					c0.1-0.14,0.2-0.28,0.4-0.56c0.11,0.57,0.18,0.96,0.25,1.34c-0.07,0.03-0.14,0.07-0.2,0.1c0.07,0.05,0.14,0.11,0.2,0.16
					c0,0.31,0,0.61,0,0.92c0,0.09,0,0.17,0,0.26c0,19.8,0,39.6,0,59.4C122.3,101.65,122.3,101.96,122.3,102.26z"/>
				<path class="st18" d="M76.18,100.95c0.04,7.68,0.09,15.36,0.13,23.03c0,0.47-0.12,0.95-0.1,1.42c0.01,0.37,0.15,0.74,0.24,1.11
					c-0.22-0.09-0.44-0.17-0.66-0.26c-0.44-0.04-0.88-0.09-1.31-0.13c-0.09,0-0.18,0-0.26,0c-0.26-0.09-0.51-0.25-0.77-0.25
					c-12.15-0.01-24.29-0.01-36.44-0.01c-0.15,0-0.33-0.05-0.45,0.01c-0.17,0.08-0.29,0.25-0.44,0.38c-0.22,0-0.44,0-0.66,0
					c-0.27,0-0.53,0.02-0.53-0.38c0-0.34-0.07-0.69-0.07-1.03c0.02-6.48,0.06-12.96,0.07-19.44c0.01-21.14,0-42.28,0.01-63.43
					c0-0.32,0.08-0.64,0.13-0.96c0.6-0.01,0.8,0.25,0.8,0.88c-0.02,19.3-0.01,38.59-0.02,57.89c0,0.4-0.08,0.8-0.12,1.23
					c0.15,0.04,0.38,0.09,0.6,0.17c0.22,0.08,0.43,0.18,0.71,0.3c-0.4,0.12-0.7,0.2-1,0.29c0.01,0.05,0.02,0.1,0.04,0.15
					c12.69,0,25.38,0,38.07,0c0.01-0.06,0.02-0.12,0.03-0.18c-0.2-0.05-0.4-0.12-0.6-0.15c-0.28-0.04-0.57-0.02-0.84-0.07
					c-0.45-0.09-0.9-0.31-1.35-0.31c-10.29-0.02-20.58,0-30.87-0.03c-1.26,0-2.53-0.29-3.79-0.44c-0.02,0-0.03-0.07-0.07-0.16
					c0.46-0.29,0.45-0.61-0.02-0.93c-0.06-0.04-0.03-0.23-0.03-0.35c0-5.63,0.01-11.26,0-16.89c-0.01-6.56-0.05-13.11-0.05-19.67
					c0-6.41,0.02-12.82,0.04-19.23c0-0.28,0.09-0.6,0.26-0.81c0.3-0.39,0.35-0.72,0.01-1.09c-0.09-0.1-0.14-0.23-0.33-0.52
					c13.03-0.07,25.88-0.14,38.74-0.2c0.26,0.04,0.53,0.09,0.79,0.13c0.04,0.22,0.09,0.44,0.13,0.66c-0.81-0.21-0.91-0.13-0.92,0.71
					c0,0.15,0,0.31,0,0.46c0,14.46,0,28.91,0,43.37c0,4.52,0,9.04,0,13.56C75.27,100.51,75.5,100.8,76.18,100.95z M76.05,102.34
					c-0.78-0.02-0.79,0.46-0.79,0.97c0,6.99,0,13.98,0,20.97c0,0.17-0.04,0.38,0.03,0.51c0.08,0.14,0.29,0.25,0.45,0.27
					c0.09,0.01,0.23-0.19,0.29-0.32c0.05-0.11,0.01-0.26,0.01-0.39c0-7.12,0-14.24,0-21.36C76.05,102.77,76.05,102.56,76.05,102.34z
					 M36.35,102.38c-0.11,0-0.21,0.01-0.32,0.01c-0.06,0.31-0.17,0.62-0.17,0.93c-0.01,6.99-0.01,13.98-0.01,20.97
					c0,0.17-0.02,0.36,0.03,0.52c0.03,0.1,0.17,0.23,0.27,0.24c0.1,0.01,0.26-0.08,0.3-0.18c0.08-0.17,0.12-0.37,0.12-0.56
					c0.01-6.95,0.02-13.9,0.02-20.86C36.59,103.09,36.43,102.73,36.35,102.38z"/>
				<path class="st18" d="M75.27,40.89c-12.86,0.07-25.71,0.14-38.74,0.2c0.18,0.3,0.24,0.43,0.33,0.52
					c0.34,0.37,0.29,0.7-0.01,1.09c-0.16,0.21-0.26,0.54-0.26,0.81c-0.02,6.41-0.04,12.82-0.04,19.23c0,6.56,0.04,13.11,0.05,19.67
					c0.01,5.63,0,11.26,0,16.89c0,0.12-0.03,0.31,0.03,0.35c0.46,0.32,0.47,0.63,0.02,0.93c0.04,0.09,0.05,0.16,0.07,0.16
					c1.26,0.16,2.53,0.44,3.79,0.44c10.29,0.04,20.58,0.02,30.87,0.03c0.45,0,0.89,0.22,1.35,0.31c0.27,0.05,0.56,0.03,0.84,0.07
					c0.2,0.03,0.4,0.1,0.6,0.15c-0.01,0.06-0.02,0.12-0.03,0.18c-12.69,0-25.38,0-38.07,0c-0.01-0.05-0.02-0.1-0.04-0.15
					c0.3-0.09,0.6-0.17,1-0.29c-0.28-0.12-0.49-0.22-0.71-0.3c-0.22-0.08-0.45-0.13-0.6-0.17c0.04-0.43,0.12-0.83,0.12-1.23
					c0.01-19.3,0-38.59,0.02-57.89c0-0.63-0.2-0.89-0.8-0.88c0.28-0.15,0.57-0.29,0.98-0.51c-0.62-0.16-1.13-0.28-1.64-0.41
					c-0.04-0.39-0.09-0.79-0.13-1.18c0.09,0,0.18,0,0.26,0c0,0.04,0,0.09,0,0.13c0.08,0.16,0.12,0.44,0.24,0.47
					c0.62,0.18,1.26,0.42,1.89,0.43c12.06,0.02,24.11,0.01,36.17,0.02c1.01,0,2.01,0,2.96-0.4c0,0.22,0,0.44,0,0.66
					C75.39,40.27,75.21,40.49,75.27,40.89z M36.19,40.43c0,0.07,0,0.14,0.01,0.21c0.26,0,0.53,0,0.79,0c0-0.08,0-0.16-0.01-0.25
					C36.72,40.41,36.46,40.42,36.19,40.43z"/>
				<path class="st18" d="M76.18,100.95c-0.69-0.15-0.92-0.44-0.92-1.18c0-4.52,0-9.04,0-13.56c0-14.46,0-28.91,0-43.37
					c0-0.15,0-0.31,0-0.46c0.01-0.84,0.11-0.92,0.92-0.71C76.18,61.44,76.18,81.19,76.18,100.95z"/>
				<path class="st18" d="M78.18,128.09c-0.23,0.04-0.45,0.07-0.68,0.11c0-0.08,0-0.16,0-0.24c-0.49-2.84-0.25-5.7-0.25-8.55
					c-0.02-26.44-0.01-52.87-0.01-79.31c0.77-0.09,0.66,0.46,0.66,0.92c-0.04,0.37-0.13,0.73-0.13,1.1
					c-0.01,13.54-0.01,27.09-0.01,40.63c0,13.81,0,27.61,0,41.42c0,1.02-0.02,2.03,0.02,3.05c0.01,0.25,0.23,0.5,0.35,0.75
					C78.15,128.01,78.16,128.05,78.18,128.09z"/>
				<path class="st18" d="M34.41,40.11c0.51,0.13,1.01,0.25,1.64,0.41c-0.41,0.21-0.7,0.36-0.98,0.51
					c-0.04,0.32-0.13,0.64-0.13,0.96c-0.01,21.14,0,42.28-0.01,63.43c0,6.48-0.05,12.96-0.07,19.44c0,0.34,0.07,0.69,0.07,1.03
					c0,0.41,0.26,0.39,0.53,0.38c-0.24,0.31-0.24,0.61,0,0.92c-0.94,0-0.83-0.03-1.09-0.92c-0.23-0.8,0.04-1.52,0.04-2.28
					c0-7.47,0-14.95,0-22.42C34.41,81.08,34.41,60.59,34.41,40.11z"/>
				<path class="st18" d="M77.89,41.02c0-0.46,0.12-1.01-0.66-0.92c-0.36-0.51-0.91-0.5-1.45-0.52c-0.95,0.4-1.95,0.4-2.96,0.4
					c-12.06-0.01-24.11,0-36.17-0.02c-0.63,0-1.27-0.24-1.89-0.43c-0.12-0.03-0.16-0.31-0.24-0.47c13.09,0,26.17,0,39.26-0.01
					c0.27,0,0.54-0.08,0.81-0.13c0.09,0,0.18,0,0.26,0c0.39,0,0.79,0,1.18,0c0.65,0.04,1.3,0.09,1.95,0.13
					c0.05,0.04,0.09,0.09,0.14,0.13c0.01,0.43,0.01,0.87,0.02,1.3c0.01,0.06,0.03,0.12,0.04,0.18c-0.01,0.07-0.02,0.15-0.03,0.22
					C78.08,40.93,77.99,40.98,77.89,41.02z"/>
				<path class="st18" d="M35.46,127.18c-0.24-0.31-0.24-0.61,0-0.92c0.22,0,0.44,0,0.66,0c12.43,0,24.86,0,37.29-0.01
					c0.27,0,0.54-0.08,0.81-0.13c0.09,0,0.18,0,0.26,0c0.4,0.43,0.98,0.48,1.31,0.13c0.22,0.09,0.44,0.17,0.66,0.26
					c0.24,0.38,0.06,0.57-0.31,0.64c-0.21,0.04-0.44,0.02-0.65,0.02C62.14,127.18,48.8,127.18,35.46,127.18z"/>
				<path class="st15" d="M77.5,127.96c0,0.08,0,0.16,0,0.24c-0.15,0.01-0.31,0.02-0.46,0.02c-13.75,0-27.5,0-41.25,0
					c-0.15,0-0.31-0.01-0.46-0.02c0.09-0.08,0.17-0.16,0.26-0.24C49.56,127.96,63.53,127.96,77.5,127.96z"/>
				<path class="st18" d="M75.27,40.89c-0.05-0.4,0.12-0.62,0.53-0.66c0.55,0.11,0.41,0.45,0.26,0.79
					C75.79,40.98,75.53,40.94,75.27,40.89z"/>
				<path class="st18" d="M35.59,127.96c-0.09,0.08-0.17,0.16-0.26,0.24c-0.31,0-0.62,0-0.92,0
					C34.8,128.12,35.19,128.04,35.59,127.96z"/>
				<path class="st4" d="M122.3,102.26c0-0.31,0-0.61,0-0.92C122.3,101.65,122.3,101.96,122.3,102.26z"/>
				<path class="st19" d="M123.05,126.9c0,0.18,0,0.36-0.01,0.54C122.71,127.26,122.71,127.08,123.05,126.9z"/>
				<path class="st4" d="M122.3,41.94c0-0.09,0-0.17,0-0.26C122.3,41.77,122.3,41.85,122.3,41.94z"/>
				<path class="st4" d="M122.3,40.76c-0.07-0.05-0.14-0.11-0.2-0.16c0.07-0.03,0.14-0.07,0.2-0.1
					C122.3,40.59,122.3,40.67,122.3,40.76z"/>
				<path class="st19" d="M123.07,42.2c0,0.05-0.01,0.09-0.01,0.14c-0.01-0.03-0.03-0.07-0.04-0.1
					C123.02,42.23,123.05,42.21,123.07,42.2z"/>
				<path class="st20" d="M166.58,39.58c0.16,0.16,0.4,0.3,0.47,0.49c0.09,0.23,0.05,0.51,0.05,0.78c0,19.82,0,39.63,0,59.45
					c0,7.86,0,15.72,0,23.57c0,0.95,0.02,1.91-0.01,2.86c-0.01,0.28-0.16,0.56-0.25,0.84c-0.31-0.26-0.61-0.52-0.92-0.79
					c-0.04-0.57-0.09-1.14-0.13-1.7c0.66-0.03,0.38-0.54,0.38-0.84c0.01-27.37,0.01-54.73,0-82.1c0-0.59-0.16-1.17-0.25-1.77
					c-0.31,0-0.48,0-0.66,0c-0.23-0.04-0.45-0.12-0.68-0.13c-2.13-0.01-4.27-0.01-6.4-0.01c-10.44,0-20.88,0-31.32-0.01
					c-0.55,0-1.11-0.08-1.66-0.13c0.29-0.09,0.58-0.25,0.88-0.25C139.57,39.67,153.08,40.18,166.58,39.58z"/>
				<path class="st7" d="M123.88,128.25c-0.13-0.01-0.26-0.03-0.39-0.04c0-0.12,0-0.25,0-0.37c0.13-0.13,0.26-0.26,0.39-0.39
					c0.3,0.09,0.59,0.25,0.89,0.25c13.85,0.01,27.7,0.01,41.55,0.01c0.18,0,0.35,0,0.53,0c0.09,0.17,0.18,0.34,0.26,0.5
					c-0.09,0.01-0.18,0.03-0.26,0.04c-0.17-0.01-0.35-0.02-0.52-0.02c-13.97,0-27.94,0-41.92,0
					C124.23,128.23,124.05,128.24,123.88,128.25z"/>
				<path class="st21" d="M166.84,127.7c-0.18,0-0.35,0-0.53,0c-0.08-0.09-0.15-0.23-0.25-0.25c-0.45-0.07-0.91-0.14-1.36-0.14
					c-12.63-0.01-25.26-0.01-37.9,0c-0.32,0-0.65,0.1-0.97,0.1c-0.53,0-1.18,0.29-1.44-0.5c0.04-0.04,0.09-0.09,0.13-0.13
					c0.21,0.04,0.48,0.19,0.63,0.11c0.89-0.47,1.81-0.1,2.7-0.1c10.93-0.01,21.87-0.01,32.8-0.01c1.53,0,3.06,0,4.6,0
					c0.22,0,0.44,0,0.66,0c0.31,0.26,0.61,0.52,0.92,0.79C166.84,127.61,166.84,127.66,166.84,127.7z"/>
				<path class="st21" d="M166.58,39.58c-13.5,0.6-27.01,0.09-40.51,0.27c-0.29,0-0.59,0.16-0.88,0.25c-0.04,0-0.09,0-0.13,0
					c-0.04-0.09-0.09-0.17-0.13-0.26c0-0.13,0-0.26,0-0.39c0.65-0.04,1.3-0.13,1.95-0.13c13.23-0.01,26.47-0.01,39.7-0.01
					C166.58,39.41,166.58,39.49,166.58,39.58z"/>
				<path class="st10" d="M167.96,127.27c-0.02,0.02-0.04,0.05-0.04,0.09c-0.05,0.25-0.09,0.49-0.14,0.74c-0.05,0-0.11,0-0.16,0l0,0
					c-0.03-0.34-0.31-0.75,0.25-0.92C167.9,127.21,167.93,127.24,167.96,127.27z"/>
				<path class="st6" d="M167.96,127.27c-0.03-0.03-0.06-0.06-0.09-0.09c0.01-0.07,0.01-0.14,0.02-0.2
					c0.02-0.03,0.04-0.04,0.07-0.04C167.95,127.05,167.95,127.16,167.96,127.27z"/>
				<path class="st4" d="M78.18,40.89c0.01-0.07,0.02-0.15,0.03-0.22c0.03,0,0.06-0.01,0.09-0.03c0.44-0.07,0.66,0.15,0.72,0.56
					c0.04,0.26,0.06,0.52,0.06,0.78c0,28.25,0,56.51,0,84.76c0,0.25,0,0.5,0,0.75c-0.06,0.01-0.13,0.03-0.19,0.04
					c-0.07-0.2-0.13-0.4-0.23-0.59c-0.11-0.23-0.26-0.45-0.39-0.67c-0.01-0.22-0.04-0.43-0.04-0.65c0-21.75,0-43.51,0-65.26
					c0-6.2,0-12.41,0-18.61C78.23,41.45,78.2,41.17,78.18,40.89z"/>
				<path class="st18" d="M78.18,40.89c0.02,0.28,0.05,0.56,0.05,0.84c0,6.2,0,12.41,0,18.61c0,21.75,0,43.51,0,65.26
					c0,0.22,0.03,0.43,0.04,0.65c-0.05,0.57-0.1,1.14-0.14,1.7c-0.12-0.25-0.34-0.49-0.35-0.75c-0.04-1.01-0.02-2.03-0.02-3.05
					c0-13.81,0-27.61,0-41.42c0-13.54,0-27.09,0.01-40.63c0-0.37,0.08-0.73,0.13-1.1C77.99,40.98,78.08,40.93,78.18,40.89z"/>
				<path class="st22" d="M78.3,40.63c-0.03,0.02-0.06,0.04-0.09,0.03c-0.01-0.06-0.03-0.12-0.04-0.18
					C78.21,40.54,78.26,40.58,78.3,40.63z"/>
				<path class="st21" d="M125.06,40.11c0.04,0,0.09,0,0.13,0c0.55,0.04,1.11,0.13,1.66,0.13c10.44,0.01,20.88,0.01,31.32,0.01
					c2.13,0,4.27,0,6.4,0.01c0.23,0,0.45,0.08,0.68,0.13c0.13,0.39,0.26,0.79,0.39,1.18c-0.4-0.01-0.82,0.08-1.13-0.33
					c-0.08-0.11-0.32-0.15-0.49-0.15c-1.87,0-3.74,0.02-5.62,0.02c-4.39,0-8.78-0.01-13.17-0.01c-5.15,0-10.3,0.01-15.46,0.01
					c-1.24,0-2.47-0.05-3.71-0.04c-0.17,0-0.34,0.16-0.51,0.25c-0.62,0.01-0.38,0.49-0.38,0.77c-0.01,20.18-0.01,40.36-0.01,60.54
					c0,1.47,0,2.94,0,4.41c0,4.81,0.01,9.62-0.01,14.42c0,1.28-0.09,2.57-0.11,3.85c0,0.24,0.16,0.48,0.25,0.71
					c-0.32,0.2-0.95,0.1-0.79,0.79c-0.04,0.04-0.09,0.09-0.13,0.13c-0.13,0-0.26,0-0.39,0c0-0.48,0-0.96,0-1.44
					c-0.09-0.35-0.18-0.7-0.26-1.05c-0.04-6.86-0.09-13.73-0.13-20.59c0.11-0.29,0.29-0.56,0.33-0.86c0.07-0.49,0.05-1,0.07-1.5
					c-0.12-0.39,0.26-0.88-0.26-1.18c-0.04-11.62-0.1-23.23-0.13-34.85c-0.02-7.03-0.01-14.07,0-21.1c0-0.37,0.08-0.73,0.13-1.1
					c0.39,0.03,0.4-0.22,0.4-0.51c-0.01-0.88,0-1.76,0-2.64c0-0.09,0-0.17,0-0.26c0.11-0.43,0.36-0.58,0.79-0.39
					c0,0.13,0,0.26,0,0.39c-0.16,0.02-0.33,0.05-0.49,0.07c0.01,0.08,0.02,0.17,0.03,0.25C124.67,40.15,124.86,40.13,125.06,40.11z"
					/>
				<path class="st7" d="M124.14,40.11c0,0.88,0,1.76,0,2.64c0,0.28,0,0.54-0.4,0.51c-0.04-0.57-0.09-1.14-0.13-1.7
					c0.04-0.48,0.09-0.96,0.13-1.44C123.88,40.11,124.01,40.11,124.14,40.11z"/>
				<path class="st7" d="M124.01,101.47c-0.02,0.5,0,1.01-0.07,1.5c-0.04,0.3-0.21,0.57-0.33,0.86c0-0.79,0-1.57,0-2.36
					C123.74,101.47,123.88,101.47,124.01,101.47z"/>
				<path class="st21" d="M123.74,40.11c-0.04,0.48-0.09,0.96-0.13,1.44c-0.04-0.12-0.13-0.23-0.12-0.35
					c0.05-0.82,0.18-1.64-0.27-2.41c0.56,0.14,0.65,0.57,0.65,1.05C123.83,39.93,123.79,40.02,123.74,40.11z"/>
				<path class="st7" d="M124.01,125.47c0,0.48,0,0.96,0,1.44c-0.04,0.09-0.09,0.17-0.13,0.26c-0.09-0.48-0.18-0.96-0.26-1.44
					c0-0.09,0-0.17,0-0.26C123.74,125.47,123.88,125.47,124.01,125.47z"/>
				<path class="st21" d="M123.61,125.73c0.09,0.48,0.18,0.96,0.26,1.44c0,0.09,0,0.17,0,0.26c-0.13,0.13-0.26,0.26-0.39,0.39
					C123.53,127.13,123.57,126.43,123.61,125.73z"/>
				<path class="st7" d="M124.01,101.47c-0.13,0-0.26,0-0.39,0c0.04-0.39,0.09-0.79,0.13-1.18
					C124.27,100.59,123.89,101.09,124.01,101.47z"/>
				<path class="st7" d="M124.01,125.47c-0.13,0-0.26,0-0.39,0c0.04-0.35,0.09-0.7,0.13-1.05
					C123.83,124.77,123.92,125.12,124.01,125.47z"/>
				<path class="st6" d="M168.19,105.81c0.01,0.16,0.02,0.31,0.03,0.47c-0.1-0.07-0.2-0.14-0.31-0.2
					C168,105.99,168.1,105.9,168.19,105.81z"/>
				<path class="st6" d="M168.19,111.05c0.01,0.16,0.02,0.31,0.03,0.47c-0.1-0.07-0.2-0.14-0.31-0.2
					C168,111.23,168.1,111.14,168.19,111.05z"/>
				<path class="st6" d="M168.15,49.42c-0.08,0.03-0.16,0.06-0.24,0.09c0.07-0.1,0.15-0.19,0.22-0.29
					C168.14,49.29,168.15,49.35,168.15,49.42z"/>
				<path class="st6" d="M168.28,50.33c-0.07-0.06-0.15-0.12-0.22-0.18c0,0-0.01-0.02-0.01-0.02
					C168.12,50.2,168.2,50.27,168.28,50.33z"/>
				<path class="st6" d="M168.15,40.89c-0.02,0.11-0.04,0.23-0.06,0.34c-0.05-0.14-0.1-0.28-0.15-0.41
					C168.01,40.85,168.08,40.87,168.15,40.89z"/>
				<path class="st13" d="M168.28,73.15c-0.08-0.02-0.15-0.04-0.23-0.05c0,0,0-0.02,0-0.02C168.13,73.1,168.21,73.13,168.28,73.15z"
					/>
				<path class="st13" d="M168.07,73.58c0.07,0.03,0.14,0.06,0.22,0.09c-0.07-0.02-0.14-0.05-0.22-0.07
					C168.07,73.6,168.07,73.58,168.07,73.58z"/>
				<path class="st6" d="M168.15,40.89c-0.07-0.02-0.15-0.05-0.22-0.07c0.05-0.05,0.09-0.11,0.14-0.16
					C168.1,40.74,168.12,40.81,168.15,40.89z"/>
				<path class="st13" d="M168.06,72.55c0.07,0.02,0.15,0.05,0.22,0.07c-0.08-0.02-0.15-0.04-0.23-0.06
					C168.06,72.57,168.06,72.55,168.06,72.55z"/>
				<path class="st13" d="M168.15,49.42c-0.01-0.06-0.01-0.13-0.02-0.19c0,0,0.02,0,0.02,0c0.04,0.06,0.09,0.13,0.13,0.2
					C168.24,49.42,168.2,49.42,168.15,49.42z"/>
				<path class="st13" d="M168.28,48.76c-0.07,0.03-0.15,0.06-0.22,0.1c0,0,0-0.02,0-0.02C168.14,48.81,168.21,48.79,168.28,48.76z"
					/>
				<path class="st13" d="M168.18,48.18c-0.04,0.06-0.07,0.11-0.11,0.17C168.1,48.29,168.14,48.24,168.18,48.18z"/>
				<path class="st7" d="M123.74,40.11c0.04-0.09,0.09-0.17,0.13-0.26c0.09,0,0.18,0,0.26,0c0,0.09,0,0.17,0,0.26
					C124.01,40.11,123.88,40.11,123.74,40.11z"/>
				<path class="st18" d="M74.61,38.92c-0.27,0.04-0.54,0.13-0.81,0.13c-13.09,0.01-26.17,0.01-39.26,0.01c0-0.04,0-0.09,0-0.13
					c0.23-0.04,0.45-0.13,0.68-0.13c12.9-0.01,25.81-0.01,38.71,0C74.15,38.8,74.38,38.88,74.61,38.92z"/>
				<path class="st18" d="M76.05,38.92c-0.39,0-0.79,0-1.18,0C75.27,38.92,75.66,38.92,76.05,38.92z"/>
				<path class="st7" d="M167.62,128.1c0.05,0,0.11,0,0.16,0c-0.03,0.03-0.07,0.06-0.1,0.09
					C167.65,128.16,167.63,128.13,167.62,128.1z"/>
				<path class="st4" d="M96.49,100.38c0,0.21,0,0.41,0,0.62c-0.05,0-0.09,0.01-0.14,0.01c-0.02-0.21-0.04-0.41-0.06-0.62
					C96.36,100.38,96.42,100.38,96.49,100.38z"/>
				<path class="st18" d="M76.05,102.34c0,0.22,0,0.44,0,0.65c0,7.12,0,14.24,0,21.36c0,0.13,0.04,0.28-0.01,0.39
					c-0.06,0.13-0.2,0.33-0.29,0.32c-0.16-0.02-0.36-0.13-0.45-0.27c-0.08-0.13-0.03-0.34-0.03-0.51c0-6.99,0-13.98,0-20.97
					C75.26,102.79,75.28,102.32,76.05,102.34z"/>
				<path class="st18" d="M36.35,102.38c0.08,0.36,0.24,0.72,0.24,1.07c0.01,6.95,0,13.9-0.02,20.86c0,0.19-0.04,0.39-0.12,0.56
					c-0.04,0.09-0.21,0.19-0.3,0.18c-0.1-0.01-0.23-0.13-0.27-0.24c-0.05-0.16-0.03-0.34-0.03-0.52c0-6.99,0-13.98,0.01-20.97
					c0-0.31,0.11-0.62,0.17-0.93C36.14,102.38,36.24,102.38,36.35,102.38z"/>
				<path class="st18" d="M74.21,126.13c-0.27,0.04-0.54,0.13-0.81,0.13c-12.43,0.01-24.86,0.01-37.29,0.01
					c0.14-0.13,0.27-0.3,0.44-0.38c0.12-0.06,0.3-0.01,0.45-0.01c12.15,0,24.29,0,36.44,0.01C73.7,125.88,73.96,126.04,74.21,126.13
					z"/>
				<path class="st18" d="M75.79,126.26c-0.33,0.35-0.92,0.29-1.31-0.13C74.91,126.17,75.35,126.21,75.79,126.26z"/>
				<path class="st18" d="M36.19,40.43c0.26-0.01,0.53-0.03,0.79-0.04c0,0.08,0,0.16,0.01,0.25c-0.26,0-0.53,0-0.79,0
					C36.2,40.57,36.2,40.5,36.19,40.43z"/>
				<path class="st21" d="M165.92,126.78c-0.22,0-0.44,0-0.66,0c0.14-0.69-0.22-1.18-0.9-1.18c-1.36,0-2.71-0.02-4.07,0.01
					c-0.31,0.01-0.62,0.2-0.94,0.27c-0.19,0.04-0.41,0.05-0.6,0c-0.25-0.06-0.48-0.27-0.71-0.27c-10.09-0.01-20.18-0.01-30.27-0.01
					c-0.17,0-0.41-0.04-0.51,0.05c-0.45,0.44-1.01,0.33-1.54,0.34c0.16-0.17,0.29-0.46,0.47-0.5c0.48-0.09,0.99-0.1,1.48-0.1
					c2.35-0.01,4.69-0.01,7.04-0.02c6.23,0,12.46,0.01,18.69,0c1.81,0,3.62-0.03,5.43-0.04c0.4,0.01,0.41-0.15,0.29-0.49
					c-0.14-0.39-0.28-0.82-0.28-1.23c-0.02-7.01-0.02-14.03,0-21.04c0-0.46,0.15-0.91,0.22-1.32c-0.08-0.35-0.22-0.69-0.22-1.02
					c-0.01-19.01-0.01-38.02,0-57.03c0-0.4,0.09-0.81,0.14-1.19c0.91-0.13,1.25,0.06,1.25,0.66c-0.01,3.35-0.02,6.7-0.03,10.05
					c-0.01,4.95-0.01,9.91,0,14.86c0.01,5.5,0.04,11,0.03,16.5c0,5.33-0.02,10.67-0.06,16c0,0.49,0.47,0.7,0.47,1.05
					c0,0.39-0.37,0.78-0.38,1.18c-0.05,1.62-0.02,3.25-0.02,4.87c0,5.02,0.03,10.03-0.03,15.05c-0.01,0.98,0.42,2.09-0.52,2.93
					c-0.01,0.01,0.02,0.08,0.04,0.14c0.14,0.01,0.29,0.03,0.44,0.03c1.66,0.04,3.32,0.1,4.97,0.11c0.17,0,0.35-0.24,0.52-0.37
					c0.04,0,0.09,0,0.13,0C165.83,125.65,165.87,126.21,165.92,126.78z"/>
				<path class="st7" d="M165.79,125.08c-0.04,0-0.09,0-0.13,0c0-0.09,0-0.17,0-0.26c0-7.65,0-15.3,0-22.95
					c0.04-0.22,0.09-0.44,0.13-0.66c-0.04-0.36-0.13-0.73-0.13-1.09c-0.01-19.3-0.01-38.61-0.01-57.91c0-0.22,0-0.44,0-0.66
					c-0.13-0.39-0.26-0.79-0.39-1.18c0.17,0,0.35,0,0.66,0c0.09,0.6,0.25,1.18,0.25,1.77c0.01,27.37,0.01,54.73,0,82.1
					C166.17,124.54,166.45,125.05,165.79,125.08z"/>
				<path class="st21" d="M123.88,127.44c0-0.09,0-0.17,0-0.26c0.04-0.09,0.09-0.17,0.13-0.26c0.13,0,0.26,0,0.39,0
					c0.26,0.79,0.91,0.49,1.44,0.5c0.32,0,0.65-0.1,0.97-0.1c12.63-0.01,25.26-0.01,37.9,0c0.45,0,0.91,0.07,1.36,0.14
					c0.09,0.01,0.16,0.16,0.25,0.25c-13.85,0-27.7,0-41.55-0.01C124.47,127.69,124.17,127.53,123.88,127.44z"/>
				<path class="st20" d="M125.72,126c0.54-0.01,1.09,0.1,1.54-0.34c0.1-0.09,0.34-0.05,0.51-0.05c10.09,0,20.18,0,30.27,0.01
					c0.24,0,0.47,0.21,0.71,0.27c0.19,0.05,0.41,0.04,0.6,0c0.32-0.07,0.62-0.27,0.94-0.27c1.36-0.03,2.71-0.02,4.07-0.01
					c0.68,0,1.04,0.49,0.9,1.18c-1.53,0-3.06,0-4.6,0c-10.93,0-21.87-0.01-32.8,0.01c-0.9,0-1.81-0.37-2.7,0.1
					c-0.15,0.08-0.42-0.07-0.63-0.11c-0.16-0.69,0.47-0.58,0.79-0.79C125.45,126,125.58,126,125.72,126z"/>
				<path class="st20" d="M125.06,40.11c-0.2,0.02-0.39,0.04-0.59,0.06c-0.01-0.08-0.02-0.17-0.03-0.25
					c0.16-0.02,0.33-0.05,0.49-0.07C124.97,39.93,125.01,40.02,125.06,40.11z"/>
				<path class="st21" d="M165.66,41.55c0,0.22,0,0.44,0,0.66c-0.56,0.16-0.53,0.6-0.53,1.05c0,18.72,0,37.43,0,56.15
					c0,0.43,0.05,0.85-0.37,1.18c-0.15,0.12-0.11,0.47-0.14,0.63c0.49,0,0.83,0,1.16,0c-0.04,0.22-0.09,0.44-0.13,0.66
					c-0.55,0.12-0.52,0.57-0.52,0.98c0,3.27,0,6.55,0,9.82c0,3.75,0,7.51,0,11.26c0,0.41-0.01,0.81,0.53,0.89c0,0.09,0,0.17,0,0.26
					c-0.17,0.13-0.35,0.37-0.52,0.37c-1.66-0.01-3.32-0.07-4.97-0.11c-0.15,0-0.3-0.02-0.44-0.03c-0.02-0.07-0.05-0.13-0.04-0.14
					c0.94-0.84,0.51-1.95,0.52-2.93c0.05-5.02,0.03-10.03,0.03-15.05c0-1.62-0.03-3.25,0.02-4.87c0.01-0.4,0.38-0.78,0.38-1.18
					c0-0.35-0.47-0.55-0.47-1.05c0.05-5.33,0.06-10.67,0.06-16c0-5.5-0.03-11-0.03-16.5c-0.01-4.95,0-9.91,0-14.86
					c0-3.35,0.02-6.7,0.03-10.05c0-0.6-0.34-0.79-1.25-0.66c-0.05,0.38-0.14,0.78-0.14,1.19c-0.01,19.01-0.01,38.02,0,57.03
					c0,0.33,0.14,0.67,0.22,1.02c-0.07,0.41-0.21,0.87-0.22,1.32c-0.01,7.01-0.01,14.03,0,21.04c0,0.41,0.14,0.84,0.28,1.23
					c0.12,0.34,0.11,0.5-0.29,0.49c0.01-0.57-0.43-0.39-0.71-0.39c-10.67-0.01-21.34-0.01-32.01-0.03c-0.13,0-0.31-0.22-0.37-0.37
					c-0.07-0.17-0.02-0.39-0.02-0.58c0-27.24,0-54.48-0.01-81.72c0-0.32-0.08-0.64-0.13-0.96c0.17-0.09,0.34-0.25,0.51-0.25
					c1.24,0,2.47,0.04,3.71,0.04c5.15,0,10.3-0.01,15.46-0.01c4.39,0,8.78,0.01,13.17,0.01c1.87,0,3.74-0.02,5.62-0.02
					c0.17,0,0.41,0.04,0.49,0.15C164.83,41.63,165.25,41.54,165.66,41.55z"/>
				<path class="st21" d="M125.58,41.29c0.04,0.32,0.13,0.64,0.13,0.96c0.01,27.24,0.01,54.48,0.01,81.72c0,0.2-0.05,0.41,0.02,0.58
					c0.06,0.15,0.24,0.37,0.37,0.37c10.67,0.02,21.34,0.02,32.01,0.03c0.28,0,0.72-0.19,0.71,0.39c-1.81,0.01-3.62,0.04-5.43,0.04
					c-6.23,0-12.46,0-18.69,0c-2.35,0-4.69,0-7.04,0.02c-0.5,0-1,0.01-1.48,0.1c-0.18,0.04-0.31,0.33-0.47,0.5
					c-0.13,0-0.26,0-0.39,0c-0.09-0.24-0.25-0.48-0.25-0.71c0.02-1.28,0.11-2.57,0.11-3.85c0.01-4.81,0.01-9.62,0.01-14.42
					c0-1.47,0-2.94,0-4.41c0-20.18,0-40.36,0.01-60.54C125.2,41.77,124.96,41.29,125.58,41.29z"/>
				<path class="st21" d="M165.79,101.21c-0.33,0-0.67,0-1.16,0c0.03-0.16-0.01-0.51,0.14-0.63c0.41-0.34,0.37-0.75,0.37-1.18
					c0-18.72,0-37.43,0-56.15c0-0.44-0.03-0.89,0.53-1.05c0,19.3,0,38.61,0.01,57.91C165.66,100.48,165.74,100.85,165.79,101.21z"/>
				<path class="st21" d="M165.66,124.82c-0.54-0.08-0.53-0.48-0.53-0.89c0-3.75,0-7.51,0-11.26c0-3.27,0-6.55,0-9.82
					c0-0.41-0.03-0.86,0.52-0.98C165.66,109.52,165.66,117.17,165.66,124.82z"/>
			</g>
		</g>
		<g>
			<g>
				<path d="M168.16,126.99c-4.49,0-8.98,0-13.46,0c-10.77,0-21.55,0-32.32,0c-12.99,0-25.97,0-38.96,0c-11.23,0-22.46,0-33.68,0
					c-3.71,0-7.41,0-11.12,0c-1.73,0-3.6-0.2-5.32,0c-0.07,0.01-0.16,0-0.23,0c0.5,0.5,1,1,1.5,1.5c0-3,0-6,0-9
					c0-7.16,0-14.33,0-21.49c0-8.71,0-17.41,0-26.12c0-7.49,0-14.99,0-22.48c0-2.48,0-4.97,0-7.45c0-1.13,0.18-2.42,0-3.54
					c-0.01-0.05,0-0.1,0-0.15c-0.5,0.5-1,1-1.5,1.5c4.49,0,8.98,0,13.46,0c10.77,0,21.55,0,32.32,0c12.99,0,25.97,0,38.96,0
					c11.23,0,22.46,0,33.68,0c3.71,0,7.41,0,11.12,0c1.73,0,3.6,0.2,5.32,0c0.07-0.01,0.16,0,0.23,0c-0.5-0.5-1-1-1.5-1.5
					c0,3,0,6,0,9c0,7.16,0,14.33,0,21.49c0,8.71,0,17.41,0,26.12c0,7.49,0,14.99,0,22.48c0,3.65-0.17,7.34,0,10.99
					c0,0.05,0,0.1,0,0.15c0,1.93,3,1.93,3,0c0-3,0-6,0-9c0-7.16,0-14.33,0-21.49c0-8.71,0-17.41,0-26.12c0-7.49,0-14.99,0-22.48
					c0-3.65,0.17-7.34,0-10.99c0-0.05,0-0.1,0-0.15c0-0.81-0.69-1.5-1.5-1.5c-4.49,0-8.98,0-13.46,0c-10.77,0-21.55,0-32.32,0
					c-12.99,0-25.97,0-38.96,0c-11.23,0-22.46,0-33.68,0c-5.47,0-10.97-0.2-16.44,0c-0.08,0-0.15,0-0.23,0c-0.81,0-1.5,0.69-1.5,1.5
					c0,3,0,6,0,9c0,7.16,0,14.33,0,21.49c0,8.71,0,17.41,0,26.12c0,7.49,0,14.99,0,22.48c0,3.65-0.17,7.34,0,10.99
					c0,0.05,0,0.1,0,0.15c0,0.81,0.69,1.5,1.5,1.5c4.49,0,8.98,0,13.46,0c10.77,0,21.55,0,32.32,0c12.99,0,25.97,0,38.96,0
					c11.23,0,22.46,0,33.68,0c5.47,0,10.97,0.2,16.44,0c0.08,0,0.15,0,0.23,0C170.09,129.99,170.1,126.99,168.16,126.99z"/>
			</g>
		</g>
	</g>
</g>
</svg>
