<?xml version="1.0" encoding="utf-8"?>
<!-- Generator: $$$/GeneralStr/196=Adobe Illustrator 27.6.0, SVG Export Plug-In . SVG Version: 6.00 Build 0)  -->
<svg version="1.1" id="Calque_1" xmlns="http://www.w3.org/2000/svg" xmlns:xlink="http://www.w3.org/1999/xlink" x="0px" y="0px"
	 width="192.15px" height="201.5px" viewBox="0 0 192.15 201.5" style="enable-background:new 0 0 192.15 201.5;"
	 xml:space="preserve">
<style type="text/css">
	.st0{fill:#FDC6D9;}
	.st1{fill:#783D2A;}
	.st2{fill:#442112;}
	.st3{fill:#FF688E;}
	.st4{fill:#DD1853;}
</style>
<g>
	<g>
		<rect x="9.15" y="7.42" class="st0" width="174" height="187"/>
		<g>
			<g>
				<path class="st1" d="M191.65,0.5H0.5V201h191.15V0.5z M18.92,184.5v-168h153.73v168H18.92z"/>
			</g>
			<g>
				<path class="st2" d="M191.65-1c-1.7,0-3.41,0-5.11,0c-4.64,0-9.27,0-13.91,0c-6.86,0-13.72,0-20.58,0c-8.37,0-16.74,0-25.1,0
					c-9.17,0-18.33,0-27.5,0c-9.25,0-18.5,0-27.75,0c-8.63,0-17.25,0-25.88,0C38.56-1,31.3-1,24.04-1c-5.25,0-10.5,0-15.75,0
					C5.81-1,3.31-1.07,0.82-1C0.72-1,0.61-1,0.5-1C-0.31-1-1-0.31-1,0.5c0,1.79,0,3.58,0,5.36c0,4.87,0,9.73,0,14.6
					c0,7.2,0,14.39,0,21.59c0,8.78,0,17.56,0,26.34c0,9.58,0,19.15,0,28.73c0,9.71,0,19.42,0,29.12c0,9.05,0,18.1,0,27.16
					c0,7.65,0,15.3,0,22.95c0,5.5,0,11,0,16.5c0,2.6-0.07,5.21,0,7.81c0,0.11,0,0.22,0,0.33c0,0.81,0.69,1.5,1.5,1.5
					c1.7,0,3.41,0,5.11,0c4.64,0,9.27,0,13.91,0c6.86,0,13.72,0,20.58,0c8.37,0,16.74,0,25.1,0c9.17,0,18.33,0,27.5,0
					c9.25,0,18.5,0,27.75,0c8.63,0,17.25,0,25.88,0c7.26,0,14.52,0,21.78,0c5.25,0,10.5,0,15.75,0c2.49,0,4.98,0.07,7.47,0
					c0.11,0,0.22,0,0.32,0c0.81,0,1.5-0.69,1.5-1.5c0-1.79,0-3.58,0-5.36c0-4.87,0-9.73,0-14.6c0-7.2,0-14.39,0-21.59
					c0-8.78,0-17.56,0-26.34c0-9.58,0-19.15,0-28.73c0-9.71,0-19.42,0-29.12c0-9.05,0-18.1,0-27.16c0-7.65,0-15.3,0-22.95
					c0-5.5,0-11,0-16.5c0-2.6,0.07-5.21,0-7.81c0-0.11,0-0.22,0-0.33c0-1.93-3-1.93-3,0c0,1.79,0,3.58,0,5.36c0,4.87,0,9.73,0,14.6
					c0,7.2,0,14.39,0,21.59c0,8.78,0,17.56,0,26.34c0,9.58,0,19.15,0,28.73c0,9.71,0,19.42,0,29.12c0,9.05,0,18.1,0,27.16
					c0,7.65,0,15.3,0,22.95c0,5.5,0,11,0,16.5c0,2.57-0.23,5.25,0,7.81c0.01,0.11,0,0.22,0,0.33c0.5-0.5,1-1,1.5-1.5
					c-1.7,0-3.41,0-5.11,0c-4.64,0-9.27,0-13.91,0c-6.86,0-13.72,0-20.58,0c-8.37,0-16.74,0-25.1,0c-9.17,0-18.33,0-27.5,0
					c-9.25,0-18.5,0-27.75,0c-8.63,0-17.25,0-25.88,0c-7.26,0-14.52,0-21.78,0c-5.25,0-10.5,0-15.75,0c-2.45,0-5.03-0.23-7.47,0
					c-0.11,0.01-0.22,0-0.32,0c0.5,0.5,1,1,1.5,1.5c0-1.79,0-3.58,0-5.36c0-4.87,0-9.73,0-14.6c0-7.2,0-14.39,0-21.59
					c0-8.78,0-17.56,0-26.34c0-9.58,0-19.15,0-28.73c0-9.71,0-19.42,0-29.12c0-9.05,0-18.1,0-27.16c0-7.65,0-15.3,0-22.95
					c0-5.5,0-11,0-16.5c0-2.57,0.23-5.25,0-7.81C1.99,0.72,2,0.61,2,0.5C1.5,1,1,1.5,0.5,2c1.7,0,3.41,0,5.11,0
					c4.64,0,9.27,0,13.91,0c6.86,0,13.72,0,20.58,0c8.37,0,16.74,0,25.1,0c9.17,0,18.33,0,27.5,0c9.25,0,18.5,0,27.75,0
					c8.63,0,17.25,0,25.88,0c7.26,0,14.52,0,21.78,0c5.25,0,10.5,0,15.75,0c2.49,0,4.98,0.07,7.47,0c0.11,0,0.22,0,0.32,0
					C193.58,2,193.58-1,191.65-1z"/>
				<path class="st2" d="M20.42,184.5c0-5.58,0-11.16,0-16.74c0-13.4,0-26.8,0-40.19c0-16.2,0-32.4,0-48.6c0-13.93,0-27.85,0-41.78
					c0-4.63,0-9.27,0-13.9c0-2.12,0.22-4.39,0-6.51c-0.01-0.09,0-0.19,0-0.28c-0.5,0.5-1,1-1.5,1.5c5.11,0,10.22,0,15.34,0
					c12.27,0,24.54,0,36.81,0c14.79,0,29.58,0,44.38,0c12.78,0,25.55,0,38.33,0c4.21,0,8.42,0,12.62,0c1.95,0,4.04,0.21,5.98,0
					c0.08-0.01,0.17,0,0.26,0c-0.5-0.5-1-1-1.5-1.5c0,5.58,0,11.16,0,16.74c0,13.4,0,26.8,0,40.19c0,16.2,0,32.4,0,48.6
					c0,13.93,0,27.85,0,41.78c0,4.63,0,9.27,0,13.9c0,2.12-0.22,4.39,0,6.51c0.01,0.09,0,0.19,0,0.28c0.5-0.5,1-1,1.5-1.5
					c-5.11,0-10.22,0-15.34,0c-12.27,0-24.54,0-36.81,0c-14.79,0-29.58,0-44.38,0c-12.78,0-25.55,0-38.33,0
					c-6.19,0-12.42-0.2-18.61,0c-0.09,0-0.17,0-0.26,0c-1.93,0-1.93,3,0,3c5.11,0,10.22,0,15.34,0c12.27,0,24.54,0,36.81,0
					c14.79,0,29.58,0,44.38,0c12.78,0,25.55,0,38.33,0c6.19,0,12.42,0.2,18.61,0c0.09,0,0.17,0,0.26,0c0.81,0,1.5-0.69,1.5-1.5
					c0-5.58,0-11.16,0-16.74c0-13.4,0-26.8,0-40.19c0-16.2,0-32.4,0-48.6c0-13.93,0-27.85,0-41.78c0-6.79,0.22-13.62,0-20.4
					c0-0.09,0-0.19,0-0.28c0-0.81-0.69-1.5-1.5-1.5c-5.11,0-10.22,0-15.34,0c-12.27,0-24.54,0-36.81,0c-14.79,0-29.58,0-44.38,0
					c-12.78,0-25.55,0-38.33,0c-6.19,0-12.42-0.2-18.61,0c-0.09,0-0.17,0-0.26,0c-0.81,0-1.5,0.69-1.5,1.5c0,5.58,0,11.16,0,16.74
					c0,13.4,0,26.8,0,40.19c0,16.2,0,32.4,0,48.6c0,13.93,0,27.85,0,41.78c0,6.79-0.22,13.62,0,20.4c0,0.09,0,0.19,0,0.28
					C17.42,186.43,20.42,186.43,20.42,184.5z"/>
			</g>
		</g>
	</g>
	<g>
		<g>
			<g>
				<circle class="st3" cx="95.33" cy="101.82" r="33"/>
				<g>
					<path class="st4" d="M126.83,101.82c-0.07,13.06-8.33,25.13-20.68,29.6c-12.46,4.51-26.59,0.65-35.08-9.49
						c-8.49-10.15-9.54-25.08-2.72-36.38c6.77-11.22,20.23-17.21,33.1-14.63c12.83,2.57,22.89,13.05,24.99,25.95
						C126.72,98.51,126.82,100.17,126.83,101.82c0.01,1.93,3.01,1.93,3,0c-0.08-14.4-9.19-27.47-22.73-32.43
						c-13.51-4.95-29.25-0.66-38.36,10.46c-9.17,11.18-10.48,27.34-2.98,39.76c7.5,12.42,22.29,18.86,36.49,16.01
						c13.86-2.78,25.01-14.4,27.14-28.39c0.27-1.8,0.42-3.6,0.43-5.41C129.84,99.89,126.84,99.89,126.83,101.82z"/>
				</g>
			</g>
			<g>
				<line class="st3" x1="47.33" y1="51.82" x2="60.33" y2="65.82"/>
				<g>
					<path class="st4" d="M46.27,52.89c3.8,4.09,7.6,8.18,11.4,12.27c0.53,0.58,1.07,1.15,1.6,1.73c1.32,1.42,3.43-0.71,2.12-2.12
						c-3.8-4.09-7.6-8.18-11.4-12.27c-0.53-0.58-1.07-1.15-1.6-1.73C47.07,49.35,44.96,51.47,46.27,52.89L46.27,52.89z"/>
				</g>
			</g>
			<g>
				<line class="st3" x1="133.07" y1="138.75" x2="146.07" y2="152.75"/>
				<g>
					<path class="st4" d="M132.01,139.81c3.8,4.09,7.6,8.18,11.4,12.27c0.53,0.58,1.07,1.15,1.6,1.73c1.32,1.42,3.43-0.71,2.12-2.12
						c-3.8-4.09-7.6-8.18-11.4-12.27c-0.53-0.58-1.07-1.15-1.6-1.73C132.82,136.27,130.7,138.4,132.01,139.81L132.01,139.81z"/>
				</g>
			</g>
			<g>
				<line class="st3" x1="146.73" y1="54.42" x2="132.42" y2="67.08"/>
				<g>
					<path class="st4" d="M145.67,53.36c-4.19,3.7-8.37,7.4-12.56,11.1c-0.59,0.52-1.17,1.04-1.76,1.55c-0.61,0.54-0.55,1.57,0,2.12
						c0.6,0.6,1.51,0.54,2.12,0c4.19-3.7,8.37-7.4,12.56-11.1c0.59-0.52,1.17-1.04,1.76-1.55c0.61-0.54,0.55-1.57,0-2.12
						C147.19,52.76,146.28,52.82,145.67,53.36L145.67,53.36z"/>
				</g>
			</g>
			<g>
				<line class="st3" x1="61.23" y1="136.05" x2="49.92" y2="151.45"/>
				<g>
					<path class="st4" d="M59.93,135.29c-3.31,4.5-6.61,9-9.92,13.5c-0.46,0.63-0.93,1.26-1.39,1.9c-0.48,0.65-0.11,1.67,0.54,2.05
						c0.76,0.45,1.57,0.12,2.05-0.54c3.31-4.5,6.61-9,9.92-13.5c0.46-0.63,0.93-1.26,1.39-1.9c0.48-0.65,0.11-1.67-0.54-2.05
						C61.23,134.31,60.42,134.64,59.93,135.29L59.93,135.29z"/>
				</g>
			</g>
			<g>
				<line class="st3" x1="97.76" y1="36.2" x2="97.39" y2="55.3"/>
				<g>
					<path class="st4" d="M96.26,36.2c-0.11,5.57-0.21,11.13-0.32,16.7c-0.02,0.8-0.03,1.6-0.05,2.4c-0.04,1.93,2.96,1.93,3,0
						c0.11-5.57,0.21-11.13,0.32-16.7c0.02-0.8,0.03-1.6,0.05-2.4C99.3,34.27,96.3,34.27,96.26,36.2L96.26,36.2z"/>
				</g>
			</g>
			<g>
				<line class="st3" x1="96.76" y1="146.2" x2="96.39" y2="165.3"/>
				<g>
					<path class="st4" d="M95.26,146.2c-0.11,5.57-0.21,11.13-0.32,16.7c-0.02,0.8-0.03,1.6-0.05,2.4c-0.04,1.93,2.96,1.93,3,0
						c0.11-5.57,0.21-11.13,0.32-16.7c0.02-0.8,0.03-1.6,0.05-2.4C98.3,144.27,95.3,144.27,95.26,146.2L95.26,146.2z"/>
				</g>
			</g>
			<g>
				<line class="st3" x1="159.13" y1="99.93" x2="140.02" y2="99.57"/>
				<g>
					<path class="st4" d="M159.13,98.43c-5.57-0.11-11.13-0.21-16.7-0.32c-0.8-0.02-1.6-0.03-2.4-0.05c-1.93-0.04-1.93,2.96,0,3
						c5.57,0.11,11.13,0.21,16.7,0.32c0.8,0.02,1.6,0.03,2.4,0.05C161.06,101.47,161.06,98.47,159.13,98.43L159.13,98.43z"/>
				</g>
			</g>
			<g>
				<line class="st3" x1="48.13" y1="101.93" x2="29.02" y2="101.57"/>
				<g>
					<path class="st4" d="M48.13,100.43c-5.57-0.11-11.13-0.21-16.7-0.32c-0.8-0.02-1.6-0.03-2.4-0.05c-1.93-0.04-1.93,2.96,0,3
						c5.57,0.11,11.13,0.21,16.7,0.32c0.8,0.02,1.6,0.03,2.4,0.05C50.06,103.47,50.06,100.47,48.13,100.43L48.13,100.43z"/>
				</g>
			</g>
		</g>
	</g>
</g>
</svg>
