<?xml version="1.0" encoding="utf-8"?>
<!-- Generator: $$$/GeneralStr/196=Adobe Illustrator 27.6.0, SVG Export Plug-In . SVG Version: 6.00 Build 0)  -->
<svg version="1.1" id="Calque_1" xmlns="http://www.w3.org/2000/svg" xmlns:xlink="http://www.w3.org/1999/xlink" x="0px" y="0px"
	 width="192.15px" height="201.5px" viewBox="0 0 192.15 201.5" style="enable-background:new 0 0 192.15 201.5;"
	 xml:space="preserve">
<style type="text/css">
	.st0{fill:#FF688E;stroke:#DD1853;stroke-miterlimit:10;}
	.st1{fill:#783D2A;}
	.st2{fill:#442112;}
	.st3{fill:#FDC6D9;}
	.st4{fill:#DD1853;}
</style>
<g>
	<rect x="9.07" y="7.25" class="st0" width="174" height="187"/>
	<g>
		<g>
			<path class="st1" d="M191.65,0.5H0.5V201h191.15V0.5z M18.92,184.5v-168h153.73v168H18.92z"/>
		</g>
		<g>
			<path class="st2" d="M191.65-1c-1.7,0-3.41,0-5.11,0c-4.64,0-9.27,0-13.91,0c-6.86,0-13.72,0-20.58,0c-8.37,0-16.74,0-25.1,0
				c-9.17,0-18.33,0-27.5,0c-9.25,0-18.5,0-27.75,0c-8.63,0-17.25,0-25.88,0C38.56-1,31.3-1,24.04-1c-5.25,0-10.5,0-15.75,0
				C5.81-1,3.31-1.07,0.82-1C0.72-1,0.61-1,0.5-1C-0.31-1-1-0.31-1,0.5c0,1.79,0,3.58,0,5.36c0,4.87,0,9.73,0,14.6
				c0,7.2,0,14.39,0,21.59c0,8.78,0,17.56,0,26.34c0,9.58,0,19.15,0,28.73c0,9.71,0,19.42,0,29.12c0,9.05,0,18.1,0,27.16
				c0,7.65,0,15.3,0,22.95c0,5.5,0,11,0,16.5c0,2.6-0.07,5.21,0,7.81c0,0.11,0,0.22,0,0.33c0,0.81,0.69,1.5,1.5,1.5
				c1.7,0,3.41,0,5.11,0c4.64,0,9.27,0,13.91,0c6.86,0,13.72,0,20.58,0c8.37,0,16.74,0,25.1,0c9.17,0,18.33,0,27.5,0
				c9.25,0,18.5,0,27.75,0c8.63,0,17.25,0,25.88,0c7.26,0,14.52,0,21.78,0c5.25,0,10.5,0,15.75,0c2.49,0,4.98,0.07,7.47,0
				c0.11,0,0.22,0,0.32,0c0.81,0,1.5-0.69,1.5-1.5c0-1.79,0-3.58,0-5.36c0-4.87,0-9.73,0-14.6c0-7.2,0-14.39,0-21.59
				c0-8.78,0-17.56,0-26.34c0-9.58,0-19.15,0-28.73c0-9.71,0-19.42,0-29.12c0-9.05,0-18.1,0-27.16c0-7.65,0-15.3,0-22.95
				c0-5.5,0-11,0-16.5c0-2.6,0.07-5.21,0-7.81c0-0.11,0-0.22,0-0.33c0-1.93-3-1.93-3,0c0,1.79,0,3.58,0,5.36c0,4.87,0,9.73,0,14.6
				c0,7.2,0,14.39,0,21.59c0,8.78,0,17.56,0,26.34c0,9.58,0,19.15,0,28.73c0,9.71,0,19.42,0,29.12c0,9.05,0,18.1,0,27.16
				c0,7.65,0,15.3,0,22.95c0,5.5,0,11,0,16.5c0,2.57-0.23,5.25,0,7.81c0.01,0.11,0,0.22,0,0.33c0.5-0.5,1-1,1.5-1.5
				c-1.7,0-3.41,0-5.11,0c-4.64,0-9.27,0-13.91,0c-6.86,0-13.72,0-20.58,0c-8.37,0-16.74,0-25.1,0c-9.17,0-18.33,0-27.5,0
				c-9.25,0-18.5,0-27.75,0c-8.63,0-17.25,0-25.88,0c-7.26,0-14.52,0-21.78,0c-5.25,0-10.5,0-15.75,0c-2.45,0-5.03-0.23-7.47,0
				c-0.11,0.01-0.22,0-0.32,0c0.5,0.5,1,1,1.5,1.5c0-1.79,0-3.58,0-5.36c0-4.87,0-9.73,0-14.6c0-7.2,0-14.39,0-21.59
				c0-8.78,0-17.56,0-26.34c0-9.58,0-19.15,0-28.73c0-9.71,0-19.42,0-29.12c0-9.05,0-18.1,0-27.16c0-7.65,0-15.3,0-22.95
				c0-5.5,0-11,0-16.5c0-2.57,0.23-5.25,0-7.81C1.99,0.72,2,0.61,2,0.5C1.5,1,1,1.5,0.5,2c1.7,0,3.41,0,5.11,0
				c4.64,0,9.27,0,13.91,0c6.86,0,13.72,0,20.58,0c8.37,0,16.74,0,25.1,0c9.17,0,18.33,0,27.5,0c9.25,0,18.5,0,27.75,0
				c8.63,0,17.25,0,25.88,0c7.26,0,14.52,0,21.78,0c5.25,0,10.5,0,15.75,0c2.49,0,4.98,0.07,7.47,0c0.11,0,0.22,0,0.32,0
				C193.58,2,193.58-1,191.65-1z"/>
			<path class="st2" d="M20.42,184.5c0-5.58,0-11.16,0-16.74c0-13.4,0-26.8,0-40.19c0-16.2,0-32.4,0-48.6c0-13.93,0-27.85,0-41.78
				c0-4.63,0-9.27,0-13.9c0-2.12,0.22-4.39,0-6.51c-0.01-0.09,0-0.19,0-0.28c-0.5,0.5-1,1-1.5,1.5c5.11,0,10.22,0,15.34,0
				c12.27,0,24.54,0,36.81,0c14.79,0,29.58,0,44.38,0c12.78,0,25.55,0,38.33,0c4.21,0,8.42,0,12.62,0c1.95,0,4.04,0.21,5.98,0
				c0.08-0.01,0.17,0,0.26,0c-0.5-0.5-1-1-1.5-1.5c0,5.58,0,11.16,0,16.74c0,13.4,0,26.8,0,40.19c0,16.2,0,32.4,0,48.6
				c0,13.93,0,27.85,0,41.78c0,4.63,0,9.27,0,13.9c0,2.12-0.22,4.39,0,6.51c0.01,0.09,0,0.19,0,0.28c0.5-0.5,1-1,1.5-1.5
				c-5.11,0-10.22,0-15.34,0c-12.27,0-24.54,0-36.81,0c-14.79,0-29.58,0-44.38,0c-12.78,0-25.55,0-38.33,0
				c-6.19,0-12.42-0.2-18.61,0c-0.09,0-0.17,0-0.26,0c-1.93,0-1.93,3,0,3c5.11,0,10.22,0,15.34,0c12.27,0,24.54,0,36.81,0
				c14.79,0,29.58,0,44.38,0c12.78,0,25.55,0,38.33,0c6.19,0,12.42,0.2,18.61,0c0.09,0,0.17,0,0.26,0c0.81,0,1.5-0.69,1.5-1.5
				c0-5.58,0-11.16,0-16.74c0-13.4,0-26.8,0-40.19c0-16.2,0-32.4,0-48.6c0-13.93,0-27.85,0-41.78c0-6.79,0.22-13.62,0-20.4
				c0-0.09,0-0.19,0-0.28c0-0.81-0.69-1.5-1.5-1.5c-5.11,0-10.22,0-15.34,0c-12.27,0-24.54,0-36.81,0c-14.79,0-29.58,0-44.38,0
				c-12.78,0-25.55,0-38.33,0c-6.19,0-12.42-0.2-18.61,0c-0.09,0-0.17,0-0.26,0c-0.81,0-1.5,0.69-1.5,1.5c0,5.58,0,11.16,0,16.74
				c0,13.4,0,26.8,0,40.19c0,16.2,0,32.4,0,48.6c0,13.93,0,27.85,0,41.78c0,6.79-0.22,13.62,0,20.4c0,0.09,0,0.19,0,0.28
				C17.42,186.43,20.42,186.43,20.42,184.5z"/>
		</g>
	</g>
	<g>
		<path class="st3" d="M79.66,48.25c-9.18,0-17.86,1.91-25.59,5.3c19.43,8.53,32.82,26.46,32.82,47.2
			c0,20.74-13.39,38.67-32.82,47.2c7.73,3.39,16.41,5.3,25.59,5.3c32.26,0,58.41-23.51,58.41-52.5
			C138.07,71.76,111.92,48.25,79.66,48.25z"/>
		<g>
			<path class="st4" d="M79.66,46.75c-9.09,0.03-18.01,1.88-26.35,5.5c-0.99,0.43-0.98,2.16,0,2.59
				c14.17,6.27,25.94,18.03,30.28,33.13c4.28,14.9,0.6,31.05-9.23,42.96c-5.66,6.85-12.94,12.13-21.05,15.72
				c-0.98,0.43-0.99,2.16,0,2.59c14.37,6.24,30.82,7.24,45.81,2.59c12.34-3.83,23.46-11.43,31.01-21.98
				c7.41-10.36,10.71-23.27,8.96-35.91c-1.72-12.45-8.35-23.83-17.8-32.03c-10.11-8.78-23-13.87-36.31-14.95
				C83.21,46.82,81.44,46.75,79.66,46.75c-1.93-0.01-1.93,2.99,0,3c12.84,0.04,25.53,3.88,35.95,11.45
				c9.61,6.99,16.89,17.17,19.69,28.78c2.8,11.63,0.85,24.02-5.16,34.33c-6.08,10.44-15.93,18.48-27.11,22.96
				c-13.45,5.39-28.69,5.93-42.49,1.52c-1.94-0.62-3.85-1.33-5.71-2.14c0,0.86,0,1.73,0,2.59c14.86-6.57,27.11-19.13,31.66-34.93
				c4.55-15.81,0.61-32.77-9.67-45.47C70.98,61.64,63.3,56,54.83,52.25c0,0.86,0,1.73,0,2.59c7.83-3.4,16.31-5.06,24.83-5.09
				C81.59,49.74,81.6,46.74,79.66,46.75z"/>
		</g>
	</g>
</g>
</svg>
