<?xml version="1.0" encoding="utf-8"?>
<!-- Generator: $$$/GeneralStr/196=Adobe Illustrator 27.6.0, SVG Export Plug-In . SVG Version: 6.00 Build 0)  -->
<svg version="1.1" id="Calque_1" xmlns="http://www.w3.org/2000/svg" xmlns:xlink="http://www.w3.org/1999/xlink" x="0px" y="0px"
	 width="502.95px" height="295.62px" viewBox="0 0 502.95 295.62" style="enable-background:new 0 0 502.95 295.62;"
	 xml:space="preserve">
<style type="text/css">
	.st0{fill:#F1F1F1;}
	.st1{fill:#676767;}
</style>
<g>
	<g>
		<g>
			<g>
				<path class="st0" d="M5.92,290.68C14.82,144.21,3.84,27.59,1.49,5.19c-0.21-2.05,1.44-3.8,3.49-3.7
					c40.03,1.92,375.84,17.4,492.63,0.97c2.08-0.29,3.9,1.35,3.82,3.45c-1.12,28.01-7.52,193.59-3.3,232.66
					c1.87,17.26-11.55,49.65-25.4,54.27c-11.28,3.76-237.56-18.22-463.16,1.39C7.52,294.41,5.8,292.73,5.92,290.68z"/>
				<g>
					<path class="st1" d="M7.42,290.68c2.49-41.1,3.59-82.27,3.4-123.45c-0.14-32.04-1.06-64.08-2.81-96.07
						C6.96,51.9,5.62,32.64,3.81,13.43c-0.23-2.42-0.52-4.85-0.72-7.27C3,5.11,2.72,3.95,3.87,3.25c0.6-0.36,1.39-0.22,2.05-0.21
						c0.8,0.01,1.61,0.08,2.41,0.11c4.77,0.23,9.55,0.44,14.32,0.66C38.49,4.52,54.33,5.18,70.17,5.8
						c22.22,0.87,44.45,1.65,66.68,2.35c26.09,0.82,52.19,1.52,78.29,2.06c27.65,0.58,55.3,0.99,82.96,1.16
						c26.92,0.16,53.85,0.09,80.77-0.39c23.69-0.42,47.38-1.13,71.03-2.58c9.81-0.6,19.62-1.32,29.4-2.29
						c4.32-0.43,8.64-0.9,12.95-1.44c1.71-0.22,6.29-1.58,7.38,0.1c0.63,0.97,0.21,3.03,0.17,4.14
						c-0.69,17.33-1.31,34.67-1.88,52.01c-0.85,25.85-1.59,51.7-2.11,77.55c-0.48,24.03-0.87,48.09-0.48,72.12
						c0.13,8.08,0.31,16.18,0.94,24.24c0.38,4.88,0.68,9.54-0.08,14.43c-1.15,7.35-3.48,14.59-6.6,21.33
						c-2.84,6.14-6.38,12.34-11.37,16.99c-1.73,1.61-3.74,3.09-6.01,3.83c-0.72,0.23-0.49,0.13-0.98,0.17
						c-4.15,0.42-8.41,0.18-12.57,0.07c-18.86-0.5-37.71-1.6-56.56-2.46c-30.05-1.38-60.1-2.57-90.17-3.39
						c-37.84-1.04-75.69-1.52-113.55-1.28c-42.54,0.27-85.07,1.44-127.54,3.83c-10.7,0.6-21.39,1.28-32.07,2.05
						c-5.28,0.38-10.56,0.78-15.84,1.2c-2.64,0.21-5.28,0.43-7.93,0.65C12.91,292.44,7.55,293.96,7.42,290.68
						c-0.07-1.92-3.07-1.93-3,0c0.16,4.25,3.49,5.19,7.12,4.88c5.61-0.48,11.23-0.94,16.84-1.37c11.2-0.86,22.4-1.63,33.61-2.3
						c22.1-1.33,44.21-2.33,66.34-3.04c41.69-1.33,83.42-1.64,125.13-1.17c35.17,0.39,70.32,1.34,105.46,2.7
						c25.36,0.98,50.71,2.21,76.07,3.36c7.94,0.36,15.87,0.73,23.82,0.94c4.19,0.11,8.5,0.37,12.68-0.1c2.93-0.33,5.5-2,7.73-3.86
						c5.05-4.2,8.74-10.1,11.68-15.9c5.9-11.65,9.77-24.84,8.56-37.96c-1.75-18.88-1.33-38.04-1.22-56.98
						c0.17-26.56,0.77-53.11,1.5-79.65c0.64-23.36,1.41-46.71,2.26-70.06c0.26-7.12,0.53-14.23,0.81-21.35
						c0.05-1.28,0.28-2.72,0.02-3.98c-0.68-3.35-3.74-4.07-6.67-3.67c-4.21,0.58-8.43,1.07-12.65,1.52
						c-21,2.23-42.12,3.35-63.22,4.16c-25.89,0.99-51.81,1.4-77.72,1.54c-28.02,0.15-56.04-0.03-84.06-0.42
						C230.8,7.59,203.1,7,175.4,6.26c-24.95-0.66-49.89-1.45-74.83-2.33C81.1,3.24,61.62,2.48,42.15,1.66
						c-11.58-0.49-23.17-1-34.75-1.55C6.64,0.07,5.86,0,5.1,0C2.02,0.02-0.12,2.29,0,5.35c0.09,2.3,0.47,4.63,0.69,6.93
						C1.44,20,2.09,27.74,2.68,35.49c2.02,26.26,3.36,52.57,4.19,78.9c1.19,37.57,1.29,75.18,0.3,112.76
						c-0.56,21.19-1.47,42.38-2.75,63.54C4.31,292.61,7.31,292.61,7.42,290.68z"/>
				</g>
			</g>
			<g>
				<path class="st0" d="M498.12,242.04c-1.15,15.01-36.95,27.71-36.95,27.71s2.31,16.16,11.55,23.09
					C472.72,292.84,494.66,283.61,498.12,242.04z"/>
				<g>
					<path class="st1" d="M496.62,242.04c-0.26,2.95-2.09,5.67-4.07,7.83c-2.52,2.76-5.53,5.04-8.65,7.08
						c-5.91,3.87-12.39,7.03-18.88,9.7c-1.41,0.58-2.82,1.14-4.25,1.65c-0.84,0.3-1.17,0.99-1.05,1.85
						c0.46,3.18,1.36,6.34,2.45,9.34c2.03,5.59,4.99,10.98,9.78,14.64c0.45,0.34,1.05,0.2,1.51,0c2.99-1.27,5.7-3.64,7.98-5.88
						c6.39-6.28,10.73-14.42,13.58-22.85c2.55-7.55,3.91-15.45,4.59-23.37C499.79,240.12,496.79,240.13,496.62,242.04
						c-1.02,11.98-3.75,24.17-9.95,34.6c-1.88,3.17-4.07,6.14-6.63,8.78c-0.97,0.99-1.98,1.94-3.05,2.83
						c-0.22,0.18-0.44,0.36-0.67,0.54c-0.24,0.19-0.09,0.08-0.47,0.36c-0.4,0.3-0.81,0.59-1.22,0.86c-0.85,0.56-1.73,1.13-2.67,1.53
						c0.5,0,1.01,0,1.51,0c-4.33-3.31-6.95-8.59-8.68-13.64c-0.95-2.77-1.75-5.65-2.17-8.56c-0.35,0.62-0.7,1.23-1.05,1.85
						c4.35-1.55,8.61-3.43,12.76-5.45c7.2-3.5,14.67-7.65,20.18-13.58c2.63-2.83,4.77-6.2,5.11-10.13
						C499.79,240.12,496.79,240.13,496.62,242.04z"/>
				</g>
			</g>
		</g>
	</g>
	<g>
		<path d="M87.77,128.72c-4.12,0-6.18-0.45-6.18-1.36v-44c0-1.54,0.7-2.31,2.11-2.31h11.95c6.7,0,11.53,1.38,14.5,4.14
			c2.96,2.76,4.45,6.77,4.45,12.02c0,4.35-1.4,8.33-4.21,11.95c-1.4,1.81-3.46,3.26-6.18,4.35c-2.72,1.09-5.89,1.63-9.51,1.63v12.15
			c0,0.54-0.85,0.92-2.55,1.12C90.45,128.62,88.99,128.72,87.77,128.72z M94.7,92.87v10.73h0.88c1.58,0,2.92-0.5,4.01-1.49
			c1.09-1,1.63-2.4,1.63-4.21c0-1.81-0.37-3.1-1.12-3.87c-0.75-0.77-2.07-1.15-3.97-1.15H94.7z"/>
		<path d="M140.77,129.26c-6.36,0-11.54-2.08-15.55-6.25c-4.01-4.16-6.01-10.24-6.01-18.23c0-7.99,2.03-14.04,6.08-18.16
			c4.05-4.12,9.28-6.18,15.69-6.18c6.4,0,11.58,2.03,15.52,6.08c3.94,4.05,5.91,10.19,5.91,18.4c0,8.22-2.02,14.33-6.04,18.33
			C152.32,127.26,147.13,129.26,140.77,129.26z M140.8,93.48c-2.17,0-4,1-5.47,2.99c-1.47,1.99-2.21,4.79-2.21,8.39
			c0,3.6,0.7,6.36,2.11,8.28c1.4,1.92,3.25,2.89,5.53,2.89c2.29,0,4.14-0.97,5.57-2.92c1.43-1.95,2.14-4.73,2.14-8.35
			c0-3.62-0.74-6.4-2.21-8.35C144.8,94.45,142.98,93.48,140.8,93.48z"/>
		<path d="M180.8,127.63c0,0.72-2.15,1.09-6.45,1.09c-4.35,0-6.52-0.34-6.52-1.02V83.43c0-1.58,0.84-2.38,2.51-2.38h12.97
			c11.91,0,17.86,4.64,17.86,13.92c0,2.81-0.54,5.35-1.63,7.64c-1.09,2.29-2.63,4.11-4.62,5.47l8.56,14.26
			c-0.36,1.09-1.54,2.33-3.53,3.73c-2.72,1.95-4.96,2.92-6.72,2.92c-1.77,0-3.08-0.63-3.94-1.9l-6.38-14.87h-2.11V127.63z
			 M180.8,93.07v10.19h0.34c4.3,0,6.45-1.79,6.45-5.36c0-1.63-0.42-2.84-1.26-3.63c-0.84-0.79-2.21-1.19-4.11-1.19H180.8z"/>
		<path d="M228.33,127.5c0,0.91-2.24,1.36-6.72,1.36c-4.48,0-6.72-0.45-6.72-1.36V93.41h-8.15c-0.77,0-1.31-1.04-1.63-3.12
			c-0.14-1-0.2-2.01-0.2-3.06c0-1.04,0.07-2.06,0.2-3.06c0.32-2.08,0.86-3.12,1.63-3.12h29.54c0.77,0,1.31,1.04,1.63,3.12
			c0.14,1,0.2,2.02,0.2,3.06c0,1.04-0.07,2.06-0.2,3.06c-0.32,2.08-0.86,3.12-1.63,3.12h-7.94V127.5z"/>
		<path d="M267.37,81.05c0.77,0,1.15,2,1.15,6.01c0,4.01-0.39,6.01-1.15,6.01h-12.43v7.74h8.28c0.77,0,1.15,1.75,1.15,5.26
			c0,3.51-0.36,5.26-1.09,5.26h-8.35v16.37c0,0.63-0.85,1.05-2.55,1.26c-1.7,0.2-3.11,0.31-4.24,0.31l-3.19-0.14
			c-2.22-0.27-3.33-0.72-3.33-1.36V82.82c0-0.72,0.15-1.2,0.44-1.43c0.29-0.23,0.74-0.34,1.32-0.34H267.37z"/>
		<path d="M294.23,129.26c-6.36,0-11.54-2.08-15.55-6.25c-4.01-4.16-6.01-10.24-6.01-18.23c0-7.99,2.03-14.04,6.08-18.16
			c4.05-4.12,9.28-6.18,15.69-6.18c6.4,0,11.58,2.03,15.52,6.08c3.94,4.05,5.91,10.19,5.91,18.4c0,8.22-2.02,14.33-6.04,18.33
			C305.78,127.26,300.59,129.26,294.23,129.26z M294.26,93.48c-2.17,0-4,1-5.47,2.99c-1.47,1.99-2.21,4.79-2.21,8.39
			c0,3.6,0.7,6.36,2.11,8.28c1.4,1.92,3.25,2.89,5.53,2.89c2.28,0,4.14-0.97,5.57-2.92c1.43-1.95,2.14-4.73,2.14-8.35
			c0-3.62-0.74-6.4-2.21-8.35C298.26,94.45,296.44,93.48,294.26,93.48z"/>
		<path d="M320.61,124.58V82.34c0-0.95,2.3-1.43,6.89-1.43c4.59,0,6.89,0.48,6.89,1.43v33.27h10.46c0.81,0,1.38,1.06,1.7,3.19
			c0.14,1.04,0.2,2.11,0.2,3.19c0,1.09-0.07,2.2-0.2,3.33c-0.36,2.17-0.95,3.26-1.77,3.26h-20.91c-1,0-1.79-0.41-2.38-1.22
			C320.9,126.55,320.61,125.62,320.61,124.58z"/>
		<path d="M355.31,116.9V92.73h-4.82c-0.77,0-1.31-0.97-1.63-2.92c-0.14-0.95-0.2-1.92-0.2-2.92c0-1,0.07-1.97,0.2-2.92
			c0.32-1.95,0.86-2.92,1.63-2.92h22.82c0.77,0,1.29,0.97,1.56,2.92c0.18,0.95,0.27,1.92,0.27,2.92c0,1-0.09,1.97-0.27,2.92
			c-0.27,1.95-0.79,2.92-1.56,2.92h-4.55v24.17h4.75c0.77,0,1.31,0.97,1.63,2.92c0.18,0.95,0.27,1.93,0.27,2.92
			c0,1-0.09,1.97-0.27,2.92c-0.32,1.95-0.86,2.92-1.63,2.92h-22.88c-0.77,0-1.29-0.97-1.56-2.92c-0.18-0.95-0.27-1.92-0.27-2.92
			c0-0.99,0.09-1.97,0.27-2.92c0.27-1.95,0.79-2.92,1.56-2.92H355.31z"/>
		<path d="M400.16,129.26c-6.36,0-11.54-2.08-15.55-6.25c-4.01-4.16-6.01-10.24-6.01-18.23c0-7.99,2.03-14.04,6.08-18.16
			c4.05-4.12,9.28-6.18,15.69-6.18c6.4,0,11.58,2.03,15.52,6.08c3.94,4.05,5.91,10.19,5.91,18.4c0,8.22-2.02,14.33-6.04,18.33
			C411.71,127.26,406.52,129.26,400.16,129.26z M400.19,93.48c-2.17,0-4,1-5.47,2.99c-1.47,1.99-2.21,4.79-2.21,8.39
			c0,3.6,0.7,6.36,2.11,8.28c1.4,1.92,3.25,2.89,5.53,2.89c2.28,0,4.14-0.97,5.57-2.92c1.43-1.95,2.14-4.73,2.14-8.35
			c0-3.62-0.74-6.4-2.21-8.35C404.18,94.45,402.36,93.48,400.19,93.48z"/>
		<path d="M83.63,193.5c0.86,0.68,2.34,1.61,4.45,2.78c2.11,1.18,4.12,1.77,6.04,1.77c1.92,0,2.89-0.75,2.89-2.24
			c0-0.68-0.27-1.28-0.81-1.8c-0.54-0.52-1.54-1.12-2.99-1.8c-1.45-0.68-2.54-1.21-3.26-1.6c-0.72-0.38-1.69-1.02-2.89-1.9
			c-1.2-0.88-2.12-1.8-2.75-2.75c-1.81-2.58-2.72-5.86-2.72-9.85c0-3.98,1.48-7.34,4.45-10.08c2.96-2.74,6.85-4.11,11.65-4.11
			c3.26,0,6.27,0.35,9.03,1.05c2.76,0.7,4.19,1.62,4.28,2.75c0,0.14,0,0.27,0,0.41c0,1.59-0.5,3.59-1.49,6.01
			c-1,2.42-1.7,3.77-2.11,4.04c-2.9-1.49-5.49-2.24-7.77-2.24c-2.29,0-3.43,0.81-3.43,2.44c0,1,0.84,1.88,2.51,2.65
			c0.36,0.18,0.88,0.43,1.56,0.75c0.68,0.32,1.46,0.69,2.34,1.12c0.88,0.43,1.83,0.97,2.85,1.63c1.02,0.66,2.12,1.53,3.29,2.61
			c2.4,2.26,3.6,5.25,3.6,8.96c0,4.84-1.34,8.81-4.01,11.88c-2.67,3.08-6.79,4.66-12.36,4.75c-2.72,0-5.17-0.23-7.37-0.68
			c-2.2-0.45-4.11-1.34-5.74-2.65c-1.63-1.31-2.44-2.9-2.44-4.75c0-1.86,0.34-3.7,1.02-5.53C82.13,195.3,82.86,194.09,83.63,193.5z"
			/>
		<path d="M120.53,206.06c-2.83-3.12-4.24-7.45-4.24-12.97c0-5.52,1.41-9.85,4.24-12.97c2.83-3.12,6.64-4.69,11.44-4.69
			c4.8,0,8.6,1.56,11.41,4.69c2.81,3.12,4.21,7.45,4.21,12.97c0,5.52-1.4,9.85-4.21,12.97c-2.81,3.12-6.61,4.69-11.41,4.69
			C127.18,210.75,123.36,209.18,120.53,206.06z M132.01,186.78c-2.56,0-3.84,2.08-3.84,6.25c0,4.17,1.28,6.25,3.84,6.25
			c2.56,0,3.84-2.08,3.84-6.25C135.85,188.86,134.57,186.78,132.01,186.78z"/>
		<path d="M164.77,209.52c0,0.41-2.31,0.61-6.93,0.61c-3.62-0.05-5.43-0.23-5.43-0.54v-46.24c0-0.68,2.2-1.02,6.59-1.02
			c3.85,0.14,5.77,0.36,5.77,0.68V209.52z"/>
		<path d="M196.55,208.23c-2.85,1.67-6.52,2.51-11,2.51c-4.48,0-8.26-1.53-11.34-4.58c-3.08-3.06-4.62-7.29-4.62-12.7
			c0-5.41,1.48-9.77,4.45-13.07c2.96-3.3,6.71-4.96,11.24-4.96c4.53,0,8.02,1.15,10.49,3.46c2.47,2.31,3.7,5.12,3.7,8.42
			c0,7.33-4.21,11-12.63,11h-4.69c0,1.36,0.37,2.3,1.12,2.82c0.75,0.52,1.84,0.78,3.29,0.78c3.17,0,6.18-0.72,9.03-2.17
			c0.04-0.04,0.25,0.27,0.61,0.95c1.09,1.95,1.63,3.59,1.63,4.92C197.84,206.95,197.41,207.83,196.55,208.23z M177.47,168.99
			c-0.23-0.23-0.34-0.54-0.34-0.95c0-1.49,0.43-2.91,1.29-4.24c0.86-1.34,1.52-2,1.97-2c0.14,0,3.89,2.04,11.27,6.11
			c0.27,0.27,0.41,0.59,0.41,0.95c0,1.36-0.36,2.58-1.09,3.67c-0.73,1.09-1.29,1.63-1.7,1.63
			C189.19,174.15,185.25,172.43,177.47,168.99z M188.06,188.61c0-1.9-0.93-2.85-2.78-2.85c-0.86,0-1.6,0.26-2.21,0.78
			c-0.61,0.52-0.92,1.28-0.92,2.27v2.11h3.67C187.31,190.92,188.06,190.15,188.06,188.61z"/>
		<path d="M218.07,209.66c0,0.32-1.63,0.48-4.89,0.48c-4.53-0.14-6.79-0.38-6.79-0.75v-22h-1.77c-1.18,0-1.95-1-2.31-2.99
			c-0.09-0.59-0.14-1.18-0.14-1.77c0-1.4,0.27-2.81,0.81-4.21c0.81-1.99,2.08-2.99,3.8-2.99c1.72,0,3.26,0.41,4.62,1.22
			c1.36,0.81,2.26,1.63,2.72,2.44c2.85-2.44,6.25-3.67,10.19-3.67c3.94,0,6.79,1.06,8.56,3.19c1.77,2.13,2.65,5.61,2.65,10.46v20.37
			c0,0.54-1.94,0.81-5.81,0.81c-3.87,0-5.81-0.27-5.81-0.81v-19.62c0-2.26-0.79-3.4-2.38-3.4c-0.45,0-1.09,0.19-1.9,0.58
			c-0.81,0.38-1.34,0.67-1.56,0.85V209.66z"/>
		<path d="M266.96,208.23c-2.85,1.67-6.52,2.51-11,2.51c-4.48,0-8.26-1.53-11.34-4.58c-3.08-3.06-4.62-7.29-4.62-12.7
			c0-5.41,1.48-9.77,4.45-13.07c2.96-3.3,6.71-4.96,11.24-4.96c4.53,0,8.02,1.15,10.49,3.46c2.47,2.31,3.7,5.12,3.7,8.42
			c0,7.33-4.21,11-12.63,11h-4.69c0,1.36,0.37,2.3,1.12,2.82c0.75,0.52,1.84,0.78,3.29,0.78c3.17,0,6.18-0.72,9.03-2.17
			c0.04-0.04,0.25,0.27,0.61,0.95c1.09,1.95,1.63,3.59,1.63,4.92C268.25,206.95,267.82,207.83,266.96,208.23z M258.48,188.61
			c0-1.9-0.93-2.85-2.78-2.85c-0.86,0-1.6,0.26-2.21,0.78c-0.61,0.52-0.92,1.28-0.92,2.27v2.11h3.67
			C257.73,190.92,258.48,190.15,258.48,188.61z"/>
		<path d="M320.74,174.83c0,4.71-2.04,8.28-6.11,10.73c2.22,0.81,4.07,2.22,5.57,4.21c1.49,1.99,2.24,4.81,2.24,8.45
			c0,3.64-1.35,6.53-4.04,8.66c-2.69,2.13-6.55,3.19-11.58,3.19H290.8c-0.77,0-1.4-0.26-1.9-0.78c-0.5-0.52-0.75-1.21-0.75-2.07
			v-43.46c0-0.5,0.08-0.83,0.24-0.98c0.16-0.16,0.49-0.24,0.99-0.24h15.48C315.45,162.53,320.74,166.63,320.74,174.83z
			 M301.19,173.54v8.9h0.34c4.35,0,6.52-1.45,6.52-4.35c0-1.58-0.42-2.74-1.26-3.46c-0.84-0.72-2.23-1.09-4.18-1.09H301.19z
			 M301.19,190.44v8.83h1.22c1.95,0,3.37-0.36,4.28-1.09c0.91-0.72,1.36-1.88,1.36-3.46c0-1.58-0.42-2.69-1.26-3.33
			c-0.84-0.63-2.23-0.95-4.18-0.95H301.19z"/>
		<path d="M330.35,206.06c-2.83-3.12-4.24-7.45-4.24-12.97c0-5.52,1.41-9.85,4.24-12.97c2.83-3.12,6.64-4.69,11.44-4.69
			c4.8,0,8.6,1.56,11.41,4.69c2.81,3.12,4.21,7.45,4.21,12.97c0,5.52-1.4,9.85-4.21,12.97c-2.81,3.12-6.61,4.69-11.41,4.69
			C336.99,210.75,333.18,209.18,330.35,206.06z M341.82,186.78c-2.56,0-3.84,2.08-3.84,6.25c0,4.17,1.28,6.25,3.84,6.25
			c2.56,0,3.84-2.08,3.84-6.25C345.66,188.86,344.38,186.78,341.82,186.78z"/>
		<path d="M377.1,210c0,0.32-2.06,0.48-6.18,0.48c-4.12-0.09-6.18-0.27-6.18-0.54v-22.54h-1.83c-0.73,0-1.3-0.44-1.73-1.32
			c-0.43-0.88-0.65-1.98-0.65-3.29c0-4.89,1.45-7.33,4.35-7.33c2.04,0,3.73,0.62,5.09,1.87c1.36,1.25,2.04,2.66,2.04,4.24
			c0.95-1.86,2.23-3.34,3.84-4.45c1.61-1.11,3.25-1.66,4.92-1.66c2.62,0,4.21,0.68,4.75,2.04c0.14,0.36,0.2,0.89,0.2,1.6
			c0,0.7-0.22,1.96-0.65,3.77c-0.43,1.81-0.87,3.12-1.32,3.94c-0.45,0.81-0.73,1.22-0.81,1.22c-0.09,0-0.51-0.17-1.26-0.51
			c-0.75-0.34-1.42-0.51-2-0.51c-1.72,0-2.58,1.36-2.58,4.07V210z"/>
		<path d="M406.3,162.94c0-0.68,1.79-1.02,5.36-1.02c1.22,0,2.64,0.08,4.24,0.24c1.61,0.16,2.41,0.37,2.41,0.65v35.78h2.38
			c1.13,0,1.88,1.02,2.24,3.06c0.09,0.59,0.14,1.39,0.14,2.41c0,1.02-0.32,2.25-0.95,3.7c-0.91,1.99-2.35,2.99-4.35,2.99
			c-1.49,0-2.82-0.3-3.97-0.88c-1.15-0.59-1.93-1.2-2.34-1.83l-0.61-0.88c-2.49,2.4-5.61,3.6-9.37,3.6c-3.76,0-6.97-1.56-9.64-4.69
			c-2.67-3.12-4.01-7.48-4.01-13.07c0-5.59,1.4-9.91,4.21-12.97c2.81-3.06,6.32-4.58,10.53-4.58c1.22,0,2.47,0.14,3.73,0.41V162.94z
			 M404.06,186.3c-2.54,0-3.8,2.29-3.8,6.86c0,2.31,0.36,3.97,1.09,4.99c0.72,1.02,1.53,1.53,2.41,1.53s1.73-0.38,2.55-1.15v-11.54
			C405.53,186.53,404.78,186.3,404.06,186.3z"/>
	</g>
</g>
</svg>
