<?xml version="1.0" encoding="utf-8"?>
<!-- Generator: $$$/GeneralStr/196=Adobe Illustrator 27.6.0, SVG Export Plug-In . SVG Version: 6.00 Build 0)  -->
<svg version="1.1" id="Calque_1" xmlns="http://www.w3.org/2000/svg" xmlns:xlink="http://www.w3.org/1999/xlink" x="0px" y="0px"
	 width="124.01px" height="511.35px" viewBox="0 0 124.01 511.35" style="enable-background:new 0 0 124.01 511.35;"
	 xml:space="preserve">
<style type="text/css">
	.st0{fill:#2E1000;}
	.st1{display:none;}
	.st2{display:inline;}
	.st3{fill:#044315;}
	.st4{fill:#E95563;}
	.st5{fill:#7D2921;}
	.st6{fill:#038438;}
	.st7{fill:#043B15;}
	.st8{display:inline;fill:none;}
	.st9{display:inline;fill:#4F2921;}
	.st10{font-family:'LilitaOne';}
	.st11{font-size:24px;}
	.st12{fill:#4F2921;}
</style>
<g>
	<g>
		<g>
			<path class="st0" d="M2.8,412.21c2.03-3.52,4.06-7.05,6.08-10.57c4.87-8.46,9.73-16.92,14.6-25.37
				c5.86-10.19,11.73-20.38,17.59-30.57c5.07-8.81,10.14-17.62,15.21-26.42c1.68-2.92,3.36-5.84,5.04-8.77
				c0.77-1.33,1.76-2.69,2.36-4.11c0.03-0.07,0.07-0.13,0.11-0.19c-0.86,0-1.73,0-2.59,0c2,3.53,3.99,7.05,5.99,10.58
				c4.77,8.43,9.55,16.86,14.32,25.29c5.77,10.19,11.54,20.39,17.31,30.58c5,8.84,10.01,17.68,15.01,26.53
				c2.41,4.26,4.67,8.67,7.26,12.83c0.04,0.06,0.07,0.12,0.1,0.18c0.95,1.68,3.54,0.17,2.59-1.51c-2-3.53-3.99-7.05-5.99-10.58
				c-4.77-8.43-9.55-16.86-14.32-25.29c-5.77-10.19-11.54-20.39-17.31-30.58c-5-8.84-10.01-17.68-15.01-26.53
				c-2.41-4.26-4.67-8.67-7.26-12.83c-0.04-0.06-0.07-0.12-0.1-0.18c-0.55-0.98-2.03-0.97-2.59,0c-2.03,3.52-4.06,7.05-6.08,10.57
				c-4.87,8.46-9.73,16.92-14.6,25.37c-5.86,10.19-11.73,20.38-17.59,30.57c-5.07,8.81-10.14,17.62-15.21,26.42
				c-2.46,4.28-5.09,8.51-7.41,12.87c-0.03,0.06-0.07,0.13-0.11,0.19C-0.75,412.37,1.84,413.88,2.8,412.21L2.8,412.21z"/>
		</g>
	</g>
	<g>
		<g>
			<path class="st0" d="M64.01,307.95c0-2.75,0-5.5,0-8.25c0-7.42,0-14.84,0-22.26c0-11,0-22,0-33c0-13.42,0-26.84,0-40.27
				c0-14.65,0-29.3,0-43.95c0-14.89,0-29.78,0-44.66c0-13.79,0-27.57,0-41.36c0-11.69,0-23.39,0-35.08c0-8.41,0-16.81,0-25.22
				c0-3.97,0.08-7.95,0-11.92c0-0.17,0-0.35,0-0.52c0-1.93-3-1.93-3,0c0,2.75,0,5.5,0,8.25c0,7.42,0,14.84,0,22.26c0,11,0,22,0,33
				c0,13.42,0,26.84,0,40.27c0,14.65,0,29.3,0,43.95c0,14.89,0,29.78,0,44.66c0,13.79,0,27.57,0,41.36c0,11.69,0,23.39,0,35.08
				c0,8.41,0,16.81,0,25.22c0,3.97-0.08,7.95,0,11.92c0,0.17,0,0.35,0,0.52C61.01,309.88,64.01,309.88,64.01,307.95L64.01,307.95z"
				/>
		</g>
	</g>
	<g class="st1">
		<g class="st2">
			<path class="st3" d="M77.33,344.96c-4.71-1.38-7.4,4.07-8.88,7.54c-1.95,4.58-3.2,9.4-3.91,14.32
				c-1.51,10.5-0.77,21.11,0.37,31.6c0.68,6.28,1.45,12.55,2.19,18.83c0.22,1.89,3.22,1.92,3,0c-1.21-10.29-2.66-20.6-3.23-30.95
				c-0.51-9.21-0.18-18.6,2.48-27.49c0.74-2.47,1.65-4.89,2.79-7.21c0.76-1.54,2.28-4.39,4.4-3.76
				C78.38,348.4,79.18,345.5,77.33,344.96L77.33,344.96z"/>
		</g>
	</g>
	<g class="st1">
		<g class="st2">
			<path class="st3" d="M66.84,383.15c-0.66-1.53-2.55-2.06-4.05-1.59c-1.7,0.53-2.75,2.27-3.63,3.69
				c-2.22,3.63-3.63,7.73-4.18,11.94c-0.59,4.49,0.08,8.91,0.62,13.36c0.29,2.39,0.58,4.78,0.87,7.17c0.18,1.47,0.87,3.92-0.4,5.07
				c-1.43,1.3,0.7,3.42,2.12,2.12c2.6-2.37,1.34-6.67,0.97-9.67c-0.5-4.1-1.16-8.23-1.4-12.36c-0.22-3.75,0.29-7.46,1.54-11
				c0.63-1.79,1.46-3.5,2.45-5.12c0.23-0.37,1.97-3.33,2.49-2.1C65.01,386.43,67.6,384.9,66.84,383.15L66.84,383.15z"/>
		</g>
	</g>
	<g class="st1">
		<g class="st2">
			<path class="st3" d="M46.07,371.85c4.59-0.17,6.95,4.36,7.87,8.21c1.1,4.64,1.44,9.52,1.62,14.27
				c0.38,9.96-0.49,19.91-1.37,29.83c-0.17,1.92,2.83,1.91,3,0c0.75-8.46,1.49-16.94,1.46-25.43c-0.02-4.23-0.22-8.46-0.72-12.66
				c-0.46-3.87-0.93-7.95-2.79-11.43c-1.78-3.33-5.17-5.92-9.07-5.77C44.14,368.92,44.13,371.92,46.07,371.85L46.07,371.85z"/>
		</g>
	</g>
	<g>
		<g>
			<g>
				<path class="st4" d="M5.32,420.73c-1.82-0.28-1.94,0.03-3.82-0.28c0,0,0-5,0-9c35,1,81,1,121,0v10c0,0,0,0-5,0"/>
				<g>
					<path class="st5" d="M5.72,419.28c-1.27-0.17-2.55-0.09-3.82-0.28c0.37,0.48,0.73,0.96,1.1,1.45c0-3,0-6,0-9
						c-0.5,0.5-1,1-1.5,1.5c14.98,0.43,29.96,0.63,44.95,0.71c16.31,0.09,32.62,0.02,48.94-0.2c9.04-0.12,18.08-0.29,27.12-0.52
						c-0.5-0.5-1-1-1.5-1.5c0,3.33,0,6.67,0,10c0.5-0.5,1-1,1.5-1.5c-1.67,0-3.33,0-5,0c-1.93,0-1.93,3,0,3c1.67,0,3.33,0,5,0
						c0.81,0,1.5-0.69,1.5-1.5c0-3.33,0-6.67,0-10c0-0.8-0.69-1.52-1.5-1.5c-16.17,0.4-32.34,0.63-48.52,0.71
						c-15.98,0.08-31.96,0.03-47.94-0.2c-8.18-0.12-16.36-0.28-24.54-0.52c-0.81-0.02-1.5,0.71-1.5,1.5c0,3,0,6,0,9
						c0,0.59,0.46,1.35,1.1,1.45c1.27,0.19,2.55,0.1,3.82,0.28c0.81,0.11,1.6-0.2,1.85-1.05C6.97,420.43,6.52,419.39,5.72,419.28
						L5.72,419.28z"/>
				</g>
			</g>
			<g>
				<path class="st4" d="M117.51,421.45c-1,4-2.81,15.2-3.81,21.86c-3,20-6,35-10,55c-0.45,2.25-2.7,4.19-5.04,5.63
					c-2.9,1.79-6.15,2.92-9.5,3.54c-17.82,3.3-35.98,3.16-53.77-0.43c-2.37-0.48-11.43-3.92-12.68-6.74c-4-9-6-25-11-51
					c-1.12-5.84-4.4-19.58-6.37-28.59C38.51,421.45,78.51,421.45,117.51,421.45z"/>
				<g>
					<path class="st5" d="M116.06,421.05c-1.61,6.51-2.49,13.25-3.51,19.87c-1.39,9.07-2.84,18.12-4.49,27.15
						c-1.69,9.24-3.53,18.46-5.37,27.67c-0.21,1.03-0.3,2.18-0.76,3.13c-0.45,0.92-1.22,1.67-1.98,2.33
						c-1.7,1.45-3.78,2.56-5.86,3.36c-4.58,1.76-9.67,2.31-14.51,2.87c-9.98,1.16-20.08,1.24-30.08,0.25
						c-7.43-0.73-14.93-1.63-21.62-5.15c-1.15-0.61-2.36-1.26-3.3-2.18c-0.61-0.6-0.86-1.4-1.17-2.22
						c-0.82-2.16-1.47-4.39-2.05-6.63c-1.6-6.22-2.72-12.57-3.87-18.89c-1.53-8.43-2.94-16.9-4.67-25.3
						c-1.49-7.25-3.23-14.45-4.87-21.67c-0.4-1.77-0.8-3.55-1.19-5.32c-0.48,0.63-0.96,1.27-1.45,1.9
						c28.79,0.62,57.59,0.69,86.39,0.72c8.6,0.01,17.19,0.01,25.79,0.01c1.93,0,1.93-3,0-3c-29.79,0-59.59,0.02-89.39-0.34
						c-7.6-0.09-15.2-0.22-22.8-0.38c-1.02-0.02-1.65,0.97-1.45,1.9c1.7,7.73,3.54,15.43,5.23,23.16
						c1.81,8.21,3.22,16.51,4.71,24.78c1.25,6.92,2.43,13.88,4.04,20.73c0.59,2.52,1.24,5.03,2.07,7.49
						c0.75,2.21,1.43,4.37,3.32,5.86c5.35,4.22,12.35,5.64,18.9,6.62c10.24,1.52,20.61,1.98,30.94,1.26c5.2-0.36,10.38-1,15.51-1.92
						c4.61-0.82,9.11-2.36,12.83-5.27c1.59-1.25,3.05-2.8,3.63-4.79c0.71-2.4,1.01-4.99,1.5-7.45c0.94-4.72,1.88-9.45,2.78-14.18
						c1.8-9.38,3.47-18.78,4.95-28.22c1.23-7.86,2.34-15.74,3.85-23.55c0.24-1.27,0.5-2.54,0.81-3.8
						C119.42,419.97,116.52,419.17,116.06,421.05z"/>
				</g>
			</g>
		</g>
	</g>
	<g>
		<path class="st6" d="M61.2,415.43c-9.89,4.25-36.73-15.91-16.72-22.96c1.07-0.38,1.99-1.08,2.66-2
			C57.38,376.61,72.31,402.63,61.2,415.43z"/>
		<g>
			<path class="st7" d="M60.8,413.98c-4.28,1.78-9.89-0.93-13.6-3.29c-3.63-2.31-8.67-6.49-8.44-11.07
				c0.04-0.77,0.37-1.69,0.94-2.44c0.71-0.95,1.75-1.66,2.79-2.22c1.72-0.94,3.66-1.31,5.09-2.72c1.11-1.09,1.87-2.44,3.21-3.31
				c4.46-2.89,8.66,1.87,10.61,5.76c3.04,6.07,3.33,14.29-1.26,19.68c-1.25,1.46,0.87,3.59,2.12,2.12
				c4.91-5.76,5.41-13.98,2.79-20.88c-1.98-5.22-6.69-11.83-13.15-10.39c-1.47,0.33-2.78,1.13-3.91,2.1
				c-0.61,0.53-1.15,1.13-1.66,1.76c-0.84,1.06-1.57,1.68-2.84,2.16c-2.98,1.14-6.02,2.92-7.24,6.04
				c-2.16,5.51,2.78,11.01,6.77,14.13c2.86,2.24,6.09,4.05,9.56,5.17c2.81,0.91,6.19,1.48,9.01,0.31
				C63.36,416.14,62.58,413.24,60.8,413.98z"/>
		</g>
	</g>
	<g>
		<path class="st6" d="M106,416.87c-9.89,4.25-36.73-15.91-16.72-22.96c1.07-0.38,1.99-1.08,2.66-2
			C102.18,378.05,117.1,404.07,106,416.87z"/>
		<g>
			<path class="st7" d="M105.6,415.42c-4.28,1.78-9.89-0.93-13.6-3.29c-3.63-2.31-8.67-6.49-8.44-11.07
				c0.04-0.77,0.37-1.69,0.94-2.44c0.71-0.95,1.75-1.66,2.79-2.22c1.72-0.94,3.66-1.31,5.09-2.72c1.11-1.09,1.87-2.44,3.21-3.31
				c4.46-2.89,8.66,1.87,10.61,5.76c3.04,6.07,3.33,14.29-1.26,19.68c-1.25,1.46,0.87,3.59,2.12,2.12
				c4.91-5.76,5.41-13.98,2.79-20.88c-1.98-5.22-6.69-11.83-13.15-10.39c-1.47,0.33-2.78,1.13-3.91,2.1
				c-0.61,0.53-1.15,1.13-1.66,1.76c-0.84,1.06-1.57,1.68-2.84,2.16c-2.98,1.14-6.02,2.92-7.24,6.04
				c-2.16,5.51,2.78,11.01,6.77,14.13c2.86,2.24,6.09,4.05,9.56,5.17c2.81,0.91,6.19,1.48,9.01,0.31
				C108.15,417.58,107.38,414.68,105.6,415.42z"/>
		</g>
	</g>
	<g>
		<path class="st6" d="M6.18,414.43c9.89,4.25,36.73-15.91,16.72-22.96c-1.07-0.38-1.99-1.08-2.66-2
			C10,375.61-4.93,401.63,6.18,414.43z"/>
		<g>
			<path class="st7" d="M5.78,415.87c2.49,1.03,5.43,0.68,7.96,0c3.04-0.82,5.95-2.24,8.56-3.99c4.44-2.97,10.1-8.12,9.23-14.08
				c-0.42-2.87-2.56-5.02-5.01-6.38c-0.84-0.47-1.74-0.85-2.64-1.2c-1.21-0.46-1.95-1.03-2.75-2.05c-1.02-1.3-2.26-2.5-3.75-3.26
				c-5.95-3.02-11.47,2.21-13.99,7.25c-3.69,7.37-3.8,16.83,1.73,23.32c1.25,1.47,3.37-0.66,2.12-2.12
				c-4.16-4.88-4.23-11.94-2.11-17.72c1.43-3.9,5.29-9.87,10.01-8.42c1.15,0.35,2.1,1.1,2.92,1.96c0.58,0.6,1.03,1.32,1.6,1.92
				c0.84,0.88,1.86,1.43,2.99,1.86c2.21,0.84,4.89,2.18,5.7,4.42c0.67,1.85,0.03,3.76-1.06,5.54c-1.34,2.18-3.28,4.03-5.33,5.55
				c-2.47,1.83-5.24,3.35-8.18,4.27c-2.38,0.74-4.94,1.18-7.21,0.24C4.8,412.24,4.02,415.14,5.78,415.87z"/>
		</g>
	</g>
	<g>
		<g>
			<path class="st6" d="M64.05,381.94c-33.96-2.62-2.45,49.08,18.42,46.2c16.42-16.42,2.85-58.66-15.51-46.95
				C66.1,381.74,65.08,382.02,64.05,381.94z M54.8,392.09c-0.51-0.61-0.22-1.53,0.54-1.76c1.74-0.51,5.01-0.93,8.93,1.16
				c0.68,0.37,0.7,1.34,0.03,1.73C59.26,396.15,56.17,393.73,54.8,392.09z M59.97,404.61c-2.25,0.91-3.56-2.18-1.61-3.51
				c1.92-1.31,4.3-1.54,7.59-1.96c0.46-0.06,0.77,0.27,0.6,0.63C65.51,401.89,62.7,403.5,59.97,404.61z M67.75,410.4
				c-1.14,1.66-2.35,4.26-3.92,2.72c-1.24-1.22-0.24-3.12,0.9-4.79c1.01-1.47,2.53-2.72,3.85-2.85c0.32-0.03,0.67,0.42,0.73,0.73
				C69.49,407.11,68.69,409.04,67.75,410.4z M73.08,420.07c-0.08,0.6-0.79,0.91-1.25,0.53c-0.29-0.24-0.64-0.62-1.05-1.23
				c-1.46-2.19,0.73-5.85,0.73-5.85C73.9,412.33,73.36,417.97,73.08,420.07z M73.18,392.24c-1,0.39-2.17-0.86-1.93-2
				c0.42-2.02,1.64-6.27,4.42-6.3c3.65-0.04,3.83,3.2,1.85,4.44C76.19,389.2,74.65,391.66,73.18,392.24z M75.97,395.84
				c1.85-0.28,6.6-0.88,8.69,1.61c2.72,3.22-6.51,2.69-9.01-0.66C75.39,396.42,75.52,395.91,75.97,395.84z M83.2,420.83
				c-0.94,1.84-2.92,2.19-2.92,0.73c0-1.23-1.04-5.59-1.37-6.92c-0.08-0.32-0.4-1.73-0.1-1.85
				C80.88,412.01,84.27,418.74,83.2,420.83z M81.57,409.14c-2.14-0.8-4.88-5.47-4.51-5.12c0,0-0.64-2.19,1.93-0.73
				s5.15,1.46,6.44,4.38S82.79,409.6,81.57,409.14z"/>
		</g>
		<g>
			<path class="st7" d="M64.05,380.44c-4.5-0.33-9.62,0.09-13.11,3.3c-2.79,2.58-3.62,6.51-3.31,10.17
				c0.39,4.57,2.13,8.96,4.29,12.96c2.46,4.56,5.62,8.78,9.25,12.48c3.38,3.44,7.3,6.59,11.73,8.55c2.02,0.89,4.09,1.53,6.29,1.77
				c0.95,0.1,1.9,0.12,2.85,0.02c1.55-0.15,2.39-1.4,3.3-2.56c7.22-9.29,7.36-23.02,3.74-33.77c-2.85-8.45-10.27-19.01-20.54-14.69
				C67.06,379.3,65.72,380.49,64.05,380.44c-1.93-0.05-1.93,2.95,0,3c2.68,0.07,4.54-1.82,7.01-2.48c1.47-0.39,2.96-0.39,4.39,0.01
				c3.21,0.89,5.75,3.59,7.53,6.38c4.79,7.51,6.38,17.54,4.86,26.25c-0.87,5-2.83,9.83-6.44,13.48c0.35-0.15,0.71-0.29,1.06-0.44
				c-4.3,0.56-8.46-1.18-12.09-3.53c-4.36-2.81-8.13-6.6-11.29-10.7c-3.13-4.07-5.83-8.64-7.39-13.54c-0.66-2.06-1.1-4.07-1.13-6.17
				c-0.03-1.74,0.24-3.47,0.98-4.86c0.86-1.63,2.22-2.79,3.96-3.49c2.69-1.09,5.69-1.12,8.55-0.91
				C65.98,383.58,65.97,380.58,64.05,380.44z"/>
			<path class="st7" d="M56.1,391.33c0.01,0.01-0.13-0.2-0.13-0.2c0.08,0.02,0.08,0.45,0.09,0.26c0-0.22-0.05,0.28,0,0.07
				c0.04-0.18-0.08,0.14-0.09,0.17c-0.04,0.16,0.11-0.05-0.02,0.04c-0.06,0.04-0.31,0.12-0.12,0.09c0.12-0.02,0.24-0.07,0.36-0.09
				c0.25-0.06,0.51-0.11,0.77-0.16c0.03,0,0.19-0.04,0.2-0.03c0,0-0.39,0.04-0.09,0.01c0.18-0.02,0.36-0.04,0.55-0.05
				c0.71-0.05,1.42-0.02,2.12,0.07c-0.28-0.04-0.04,0,0.01,0.01c0.09,0.02,0.19,0.03,0.28,0.05c0.22,0.04,0.43,0.09,0.65,0.14
				c0.46,0.11,0.91,0.25,1.36,0.41c0.46,0.17,0.71,0.28,1.16,0.51c0.11,0.06,0.22,0.12,0.33,0.17c-0.06-0.03-0.18-0.22-0.03-0.02
				c-0.08-0.11-0.12-0.14-0.18-0.28c-0.01-0.21-0.02-0.25-0.01-0.13c0,0.12,0.01,0.07,0.02-0.13c0.02-0.07,0.17-0.26,0.02-0.06
				c0.01-0.02,0.21-0.25,0.21-0.23c-0.01,0.09-0.54,0.3-0.65,0.35c-0.2,0.1-0.41,0.21-0.62,0.29c0.16-0.07-0.08,0.03-0.1,0.03
				c-0.15,0.05-0.29,0.11-0.44,0.16c-0.39,0.13-0.78,0.2-1.18,0.29c-0.23,0.05,0.23-0.02,0,0c-0.09,0.01-0.17,0.02-0.26,0.02
				c-0.21,0.01-0.41,0.02-0.62,0.02c-0.16,0-0.32-0.03-0.47-0.03c-0.22,0,0.26,0.06,0.06,0.01c-0.09-0.02-0.18-0.03-0.27-0.05
				c-0.31-0.06-0.61-0.16-0.92-0.27c-0.08-0.03-0.25-0.12,0.08,0.04c-0.07-0.04-0.15-0.07-0.23-0.11c-0.15-0.07-0.29-0.15-0.43-0.23
				c-0.12-0.07-0.24-0.15-0.36-0.23c-0.05-0.03-0.1-0.07-0.15-0.11c-0.2-0.14-0.14-0.05,0.02,0.02c-0.23-0.1-0.46-0.39-0.63-0.56
				c-0.18-0.18-0.35-0.36-0.51-0.56c-0.51-0.6-1.61-0.56-2.12,0c-0.59,0.64-0.54,1.48,0,2.12c0.97,1.15,2.22,2.03,3.64,2.54
				c1.98,0.71,4.18,0.42,6.08-0.38c1.32-0.56,2.69-1.2,2.83-2.8c0.13-1.56-1.16-2.32-2.4-2.86c-2.04-0.89-4.27-1.39-6.51-1.2
				c-0.84,0.07-1.74,0.18-2.55,0.47c-1.54,0.55-2.36,2.53-1.32,3.92c0.47,0.63,1.32,1.01,2.05,0.54
				C56.18,392.98,56.6,392,56.1,391.33z"/>
			<path class="st7" d="M59.57,403.16c-0.14,0.05-0.28,0.08-0.42,0.13c-0.18,0.07,0.38,0,0.09-0.02c-0.05,0-0.12,0-0.17,0
				c-0.26,0.01,0.16,0,0.16,0.02c0,0-0.13-0.03-0.15-0.04c-0.26-0.09,0.26,0.16,0.11,0.05c-0.05-0.04-0.13-0.09-0.2-0.12
				c-0.16-0.07,0.23,0.23,0.13,0.09c-0.03-0.05-0.09-0.1-0.13-0.13c-0.16-0.14,0.18,0.3,0.01,0c-0.19-0.33,0.06,0.29-0.02-0.03
				c-0.02-0.07-0.12-0.51-0.07-0.22c0.05,0.28,0.02-0.12,0.01-0.2c-0.01-0.26,0.01,0.17-0.02,0.16c0,0,0.03-0.14,0.04-0.16
				c0.12-0.38-0.16,0.25,0.04-0.1c0.01-0.02,0.09-0.14,0.09-0.15c0.02,0.08-0.24,0.27-0.01,0.03c0.04-0.05,0.09-0.09,0.14-0.13
				c0.2-0.2-0.07,0.06-0.07,0.05c0.01-0.06,0.36-0.23,0.41-0.26c0.14-0.08,0.28-0.16,0.42-0.23c0.06-0.03,0.13-0.06,0.19-0.09
				c0.09-0.04,0.35-0.22,0.03-0.02c0.26-0.16,0.64-0.24,0.93-0.32c0.33-0.1,0.67-0.18,1-0.25c0.36-0.08,0.72-0.14,1.08-0.2
				c0.17-0.03,0.34-0.05,0.51-0.08c0.11-0.02,0.22-0.03,0.33-0.05c0.04-0.01,0.45-0.06,0.27-0.04c-0.19,0.03,0.1-0.01,0.14-0.02
				c0.12-0.02,0.23-0.03,0.35-0.05c0.19-0.02,0.38-0.05,0.58-0.07c0.21-0.03,0.46-0.02,0.66-0.08c0.02,0,0.04,0,0.06,0
				c-0.67-0.05-0.98-0.51-0.93-1.36c0.05-0.17,0.09-0.2-0.01-0.02c-0.08,0.15-0.17,0.29-0.27,0.43c-0.04,0.06-0.09,0.12-0.13,0.18
				c0.19-0.26,0.07-0.08,0.02-0.03c-0.27,0.3-0.54,0.59-0.85,0.86c-0.06,0.05-0.13,0.11-0.19,0.16c-0.03,0.02-0.36,0.28-0.1,0.08
				c-0.17,0.13-0.35,0.26-0.53,0.38c-0.37,0.25-0.75,0.48-1.14,0.7c-0.4,0.22-0.81,0.43-1.22,0.63c-0.23,0.11-0.46,0.21-0.69,0.32
				c-0.08,0.04-0.17,0.07-0.25,0.11c-0.1,0.04-0.08,0.04,0.04-0.02C59.74,403.09,59.65,403.12,59.57,403.16
				c-0.72,0.3-1.32,1.01-1.05,1.85c0.23,0.7,1.07,1.37,1.85,1.05c2.06-0.84,4.08-1.83,5.74-3.33c0.74-0.67,1.59-1.58,1.88-2.56
				c0.25-0.83-0.03-1.72-0.78-2.2c-0.65-0.41-1.28-0.33-2-0.24c-1.95,0.25-3.99,0.43-5.84,1.17c-0.86,0.35-1.79,0.77-2.44,1.45
				c-0.66,0.69-1.05,1.63-1.02,2.59c0.07,2.25,2.27,3.95,4.46,3.12c0.73-0.28,1.31-1.02,1.05-1.85
				C61.18,403.5,60.35,402.86,59.57,403.16z"/>
			<path class="st7" d="M66.46,409.64c-0.35,0.52-0.67,1.05-1.02,1.57c-0.09,0.13-0.18,0.26-0.27,0.39
				c-0.11,0.16,0.04,0.04,0.05-0.06c0,0.03-0.12,0.14-0.13,0.15c-0.08,0.1-0.17,0.19-0.25,0.28c-0.04,0.04-0.09,0.08-0.13,0.12
				c-0.21,0.21,0.28-0.16,0.04-0.03c-0.13,0.07-0.42,0.18,0.02,0.02c-0.33,0.12,0.26,0.02,0.05,0.01c-0.23-0.01,0.18,0.03,0.18,0.03
				c-0.05-0.01-0.1-0.02-0.15-0.04c0.4,0.15,0.19,0.09,0.1,0.02c-0.14-0.1,0.23,0.23,0.04,0.03c-0.05-0.05-0.11-0.1-0.16-0.16
				c-0.23-0.23,0.04,0.05,0.03,0.04c-0.02,0-0.17-0.34-0.07-0.1c0.09,0.2,0.01,0-0.01-0.06c-0.09-0.36-0.01,0.27-0.01-0.11
				c0-0.05-0.02-0.23,0.01-0.26c-0.07,0.06-0.05,0.3,0.01,0.02c0.03-0.15,0.08-0.3,0.13-0.45c0.03-0.1,0.07-0.19,0.11-0.28
				c-0.02,0.05-0.13,0.27,0,0.02c0.18-0.35,0.36-0.7,0.57-1.03c0.19-0.3,0.39-0.6,0.59-0.88c0.16-0.23,0.04-0.05,0,0
				c0.05-0.07,0.11-0.13,0.16-0.2c0.14-0.16,0.28-0.32,0.43-0.47c0.12-0.12,0.24-0.24,0.36-0.35c0.06-0.06,0.12-0.11,0.19-0.16
				c0,0,0.32-0.25,0.13-0.11c-0.16,0.11,0.05-0.03,0.09-0.06c0.06-0.04,0.13-0.09,0.19-0.13c0.16-0.1,0.32-0.19,0.49-0.28
				c0.34-0.17-0.22,0.06,0.13-0.05c0.05-0.02,0.42-0.09,0.43-0.11c-0.08,0.16-0.98-0.28-0.73-0.12c-0.04-0.03-0.24-0.25-0.08-0.06
				c-0.03-0.04-0.17-0.28-0.06-0.06c-0.03-0.06-0.05-0.13-0.08-0.19c0.04,0.17,0.04,0.11-0.01-0.19c-0.02,0.09,0,0.25,0,0.34
				c0,0.19,0.08-0.33,0.02-0.14c-0.03,0.09-0.04,0.19-0.06,0.28c-0.08,0.33-0.19,0.65-0.31,0.97c-0.1,0.26,0.01,0.01,0.02-0.03
				c-0.02,0.1-0.11,0.23-0.15,0.33c-0.09,0.18-0.18,0.36-0.27,0.54C66.89,408.97,66.68,409.31,66.46,409.64
				c-0.44,0.65-0.15,1.69,0.54,2.05c0.76,0.4,1.58,0.16,2.05-0.54c0.54-0.8,0.97-1.67,1.33-2.57c0.28-0.72,0.52-1.53,0.45-2.31
				c-0.06-0.65-0.32-1.23-0.79-1.69c-0.57-0.55-1.28-0.67-2.04-0.53c-0.98,0.18-1.84,0.74-2.61,1.35c-0.8,0.64-1.45,1.43-2.02,2.27
				c-0.58,0.85-1.11,1.76-1.4,2.75c-0.31,1.02-0.28,2.18,0.3,3.1c0.56,0.89,1.54,1.58,2.62,1.55c2.08-0.05,3.16-2.45,4.17-3.93
				c0.44-0.65,0.14-1.69-0.54-2.05C67.75,408.7,66.93,408.95,66.46,409.64z"/>
			<path class="st7" d="M71.64,419.67c-0.04,0.16-0.01,0.12,0.08-0.11c-0.08,0.13-0.05,0.1,0.09-0.1c0.2-0.14,0.24-0.17,0.11-0.09
				c0.23-0.08,0.28-0.11,0.17-0.08c-0.12,0.03-0.05,0.02,0.2-0.03c0.26,0.05,0.32,0.05,0.16,0.01c0.15,0.03,0.28,0.1,0.38,0.21
				c-0.03-0.02-0.06-0.05-0.09-0.08c-0.15-0.15-0.39-0.32-0.47-0.51c0.03,0.04,0.06,0.08,0.1,0.13c-0.05-0.07-0.1-0.13-0.14-0.2
				c-0.08-0.12-0.17-0.24-0.24-0.36c-0.04-0.07-0.07-0.17-0.12-0.23c0.09,0.23,0.11,0.27,0.06,0.12c-0.02-0.05-0.04-0.11-0.05-0.16
				c-0.02-0.08-0.04-0.16-0.06-0.25c-0.09-0.41,0.01,0.25-0.01-0.02c-0.01-0.2-0.02-0.4-0.01-0.6c0-0.09,0.01-0.17,0.02-0.26
				c0.04-0.42-0.05,0.24,0-0.03c0.07-0.39,0.16-0.77,0.28-1.14c0.06-0.17,0.12-0.35,0.18-0.52c0.03-0.09,0.07-0.18,0.11-0.27
				c-0.18,0.46-0.09,0.21-0.04,0.11c0.15-0.32,0.3-0.64,0.48-0.95c-0.18,0.18-0.36,0.36-0.54,0.54c0.22-0.11-0.42,0.12-0.1,0.04
				c0.25-0.06,0.11,0.06-0.16,0c0.03,0.01,0.14,0.01,0.17,0c-0.35,0.09-0.41-0.1-0.2-0.01c-0.02-0.01-0.42-0.2-0.22-0.08
				c0.18,0.1-0.35-0.31-0.15-0.11c0.2,0.2-0.19-0.33-0.1-0.14c0.03,0.05,0.07,0.11,0.1,0.16c0.03,0.06,0.13,0.29,0.01,0
				c-0.12-0.29-0.02-0.04,0,0.02c0.05,0.15,0.09,0.3,0.12,0.46c0.02,0.08,0.03,0.17,0.04,0.25c0.05,0.26-0.04-0.41-0.02-0.13
				c0.02,0.19,0.04,0.37,0.05,0.56c0.08,1.41-0.05,2.83-0.23,4.22c-0.1,0.78,0.76,1.53,1.5,1.5c0.9-0.04,1.39-0.66,1.5-1.5
				c0.16-1.24,0.28-2.49,0.25-3.74c-0.03-1.44-0.19-3.21-1.49-4.1c-0.74-0.51-1.74-0.44-2.51-0.03c-0.51,0.27-0.74,0.76-0.97,1.25
				c-0.76,1.6-1.28,3.33-0.99,5.11c0.18,1.12,0.9,2.2,1.72,2.96c0.62,0.58,1.4,0.89,2.25,0.68c0.81-0.2,1.52-0.9,1.68-1.73
				c0.14-0.77-0.21-1.66-1.05-1.85C72.74,418.45,71.79,418.84,71.64,419.67z"/>
			<path class="st7" d="M72.78,390.79c-0.1,0.03-0.42,0.08,0.01,0.02c-0.31,0.04,0.31,0.09,0.01-0.01c0.43,0.14,0.02,0.04-0.01-0.04
				c0.05,0.03,0.09,0.07,0.14,0.1c-0.05-0.05-0.11-0.1-0.15-0.15c0.22,0.2,0.07,0.11,0.01-0.01c-0.09-0.16-0.19-0.13-0.02,0.01
				c-0.01-0.04-0.02-0.07-0.03-0.11c-0.04-0.17-0.04-0.14-0.01,0.07c-0.01-0.07-0.01-0.15,0-0.22c-0.03,0.2-0.04,0.23-0.01,0.11
				c0.18-0.61,0.29-1.24,0.49-1.86c0.06-0.18,0.12-0.36,0.19-0.54c0.03-0.09,0.07-0.18,0.1-0.27c0.01-0.03,0.02-0.06,0.04-0.09
				c0.06-0.15,0.05-0.12-0.04,0.09c-0.02-0.1,0.16-0.36,0.2-0.45c0.1-0.21,0.2-0.41,0.32-0.6c0.08-0.14,0.16-0.27,0.25-0.41
				c0.02-0.03,0.17-0.2,0.16-0.23c0.02,0.09-0.21,0.25-0.01,0.01c0.12-0.14,0.24-0.27,0.37-0.39c0.04-0.04,0.09-0.08,0.13-0.12
				c0.19-0.18-0.3,0.2,0.04-0.02c0.07-0.05,0.14-0.09,0.22-0.13c0.17-0.09,0.25-0.02-0.05,0.01c0.13-0.01,0.28-0.09,0.41-0.12
				c0.3-0.09-0.37,0.01-0.05,0c0.1,0,0.2-0.01,0.3-0.01c0.12,0,0.23,0.01,0.35,0.01c0.07,0.01,0.15,0.01,0.22,0.02
				c-0.22-0.03-0.25-0.03-0.09-0.01c0.16,0.04,0.31,0.07,0.47,0.12c0.22,0.07,0.15,0.16-0.03-0.02c0.05,0.05,0.16,0.08,0.22,0.12
				c0.02,0.01,0.2,0.12,0.2,0.13c-0.02,0.05-0.3-0.29-0.07-0.04c0.03,0.03,0.07,0.07,0.1,0.1c0.26,0.25-0.11-0.22-0.02-0.03
				c0.03,0.06,0.07,0.13,0.1,0.18c0.15,0.21-0.1-0.36-0.04-0.11c0.02,0.07,0.04,0.26,0.09,0.32c-0.14-0.18-0.02-0.38-0.02-0.13
				c0,0.07,0,0.13,0,0.2c0.01,0.22-0.12,0.14,0.03-0.13c-0.04,0.07-0.04,0.19-0.06,0.27c-0.01,0.04-0.03,0.09-0.04,0.13
				c-0.07,0.26-0.09-0.03,0.05-0.1c-0.06,0.03-0.18,0.3-0.21,0.37c-0.13,0.24,0.26-0.26,0.06-0.07c-0.04,0.03-0.07,0.07-0.1,0.11
				c-0.05,0.05-0.11,0.1-0.16,0.16c-0.16,0.18,0.32-0.21,0,0c-0.88,0.57-1.57,1.32-2.28,2.08c-0.35,0.38-0.71,0.77-1.09,1.12
				c-0.08,0.08-0.17,0.15-0.25,0.23c-0.06,0.05-0.11,0.1-0.17,0.14c0.16-0.12,0.18-0.14,0.05-0.04c-0.08,0.06-0.17,0.11-0.25,0.17
				C72.75,390.78,72.35,390.97,72.78,390.79c-0.72,0.3-1.32,1.01-1.05,1.85c0.22,0.69,1.07,1.37,1.85,1.05
				c1.14-0.48,2.01-1.28,2.85-2.18c0.39-0.42,0.78-0.85,1.19-1.26c0.17-0.16,0.34-0.32,0.51-0.47c0.2-0.18-0.23,0.15,0.04-0.03
				c0.09-0.06,0.19-0.12,0.27-0.18c1.62-1.15,2.43-3.37,1.34-5.17c-1.19-1.96-4.07-2.45-6.03-1.47c-1.84,0.92-2.82,3.1-3.42,4.95
				c-0.34,1.04-0.73,2.22-0.53,3.32c0.29,1.65,2.11,3.06,3.79,2.49c0.74-0.25,1.31-1.04,1.05-1.85
				C74.39,391.1,73.58,390.52,72.78,390.79z"/>
			<path class="st7" d="M76.37,397.29c0.14-0.02,0.27-0.04,0.41-0.06c0.29-0.04-0.4,0.05-0.09,0.01c0.08-0.01,0.17-0.02,0.25-0.03
				c0.37-0.04,0.75-0.08,1.13-0.1c0.85-0.05,1.7-0.04,2.55,0.04c0.09,0.01,0.36,0.06-0.01,0c0.11,0.02,0.22,0.03,0.33,0.05
				c0.22,0.04,0.44,0.09,0.66,0.14c0.2,0.05,0.39,0.11,0.58,0.18c0.09,0.03,0.17,0.06,0.26,0.1c-0.39-0.15,0.06,0.04,0.13,0.08
				c0.19,0.1,0.37,0.22,0.55,0.33c0.3,0.19-0.22-0.22,0.03,0.03c0.05,0.05,0.11,0.09,0.16,0.14c0.08,0.07,0.15,0.15,0.22,0.23
				c0.18,0.21,0.02,0.16-0.03-0.05c0.01,0.03,0.21,0.37,0.23,0.37c-0.24-0.07-0.12-0.37-0.09-0.21c0.01,0.04,0.02,0.1,0.04,0.14
				c0.09,0.2-0.03-0.44-0.03-0.22c0,0.15-0.06,0.23,0.04-0.24c-0.08,0.34,0.2-0.34,0.05-0.1c-0.06,0.1-0.16,0.17,0.16-0.21
				c-0.04,0.04-0.08,0.08-0.12,0.12c0.42-0.36,0.17-0.14,0.03-0.06c-0.27,0.17,0.38-0.11,0.06-0.03c-0.11,0.03-0.23,0.07-0.34,0.09
				c-0.06,0.01-0.13,0.02-0.19,0.04c-0.37,0.07,0.33-0.02,0.06-0.01c-0.61,0.03-1.21,0.03-1.82-0.03c-0.14-0.01-0.36,0.03,0.05,0.01
				c-0.08,0-0.19-0.03-0.27-0.04c-0.16-0.03-0.33-0.06-0.49-0.09c-0.38-0.08-0.75-0.18-1.12-0.29c-0.18-0.06-0.36-0.11-0.53-0.18
				c-0.09-0.03-0.17-0.06-0.26-0.1c-0.39-0.15,0.17,0.09-0.07-0.03c-0.35-0.16-0.7-0.33-1.03-0.54c-0.14-0.08-0.41-0.2-0.5-0.34
				c0.16,0.25,0.18,0.15,0.04,0.03c-0.06-0.05-0.12-0.11-0.18-0.16c-0.14-0.13-0.25-0.27-0.38-0.4c-0.2-0.2,0.18,0.36,0.03,0.03
				C77.11,396.42,77,397.13,76.37,397.29c0.76-0.19,1.29-1.09,1.05-1.85c-0.26-0.79-1.03-1.25-1.85-1.05
				c-0.95,0.23-1.6,1.13-1.54,2.1c0.04,0.75,0.49,1.35,1.01,1.85c0.65,0.63,1.43,1.13,2.24,1.51c1.7,0.78,3.6,1.26,5.49,1.25
				c1.56-0.01,3.62-0.47,3.86-2.32c0.13-0.99-0.39-1.86-1.05-2.56c-0.82-0.87-1.94-1.43-3.08-1.75c-2.25-0.63-4.65-0.43-6.93-0.08
				c-0.78,0.12-1.28,1.14-1.05,1.85C74.8,397.09,75.53,397.41,76.37,397.29z"/>
			<path class="st7" d="M81.91,420.07c-0.06,0.11-0.12,0.23-0.19,0.33c-0.04,0.06-0.29,0.34-0.05,0.08
				c-0.08,0.08-0.15,0.17-0.23,0.25c-0.03,0.02-0.05,0.05-0.08,0.07c-0.13,0.11-0.11,0.09,0.06-0.04c-0.01,0.04-0.21,0.14-0.25,0.16
				c-0.3,0.16,0.02,0.05,0.03,0c-0.01,0.02-0.24,0.06-0.24,0.07c0.27-0.03,0.33-0.04,0.17-0.03c-0.16-0.01-0.1,0.01,0.19,0.04
				c-0.15-0.03-0.27-0.13,0.11,0.07c-0.15-0.08,0.27,0.27,0.3,0.32c-0.14-0.23,0.11,0.38,0.03,0.1c-0.08-0.28,0,0.39,0.01,0.06
				c0.01-0.39-0.07-0.8-0.12-1.18c-0.24-1.67-0.63-3.33-1.02-4.97c-0.14-0.61-0.31-1.21-0.42-1.82c-0.01-0.03-0.01-0.06-0.02-0.1
				c-0.03-0.17-0.02-0.13,0.01,0.1c0.02-0.04-0.02-0.23-0.02-0.28c0-0.02,0.01-0.23,0-0.24c0.41,0.32-1.88,1.42-0.88,1.14
				c0.23-0.06-0.44,0.03-0.2,0.02c0.04,0,0.12,0.02,0.15,0c-0.13,0.06-0.44-0.07-0.19-0.02c0.21,0.05,0.18,0.18-0.09-0.05
				c0.09,0.07,0.23,0.13,0.33,0.19c0.21,0.13-0.01,0.11-0.08-0.07c0.02,0.04,0.13,0.11,0.17,0.14c0.24,0.22,0.44,0.46,0.65,0.7
				c0.21,0.24-0.21-0.29-0.02-0.03c0.05,0.07,0.11,0.15,0.16,0.22c0.11,0.15,0.21,0.31,0.3,0.47c0.22,0.36,0.42,0.72,0.6,1.1
				c0.04,0.09,0.08,0.18,0.12,0.27c0.03,0.06,0.05,0.12,0.08,0.18c0.06,0.15,0.05,0.12-0.04-0.09c-0.01,0.01,0.22,0.57,0.24,0.63
				c0.14,0.4,0.26,0.81,0.34,1.22c0.02,0.08,0.03,0.17,0.05,0.25c0.08,0.41-0.01-0.26,0,0c0.01,0.17,0.03,0.35,0.02,0.52
				c0,0.07-0.01,0.14-0.01,0.21c0,0.25,0.1-0.43,0.01-0.08c-0.02,0.06-0.03,0.12-0.04,0.18C81.78,420.5,82,419.87,81.91,420.07
				c-0.34,0.7-0.22,1.65,0.54,2.05c0.67,0.36,1.69,0.22,2.05-0.54c0.89-1.84,0.15-4.02-0.62-5.78c-0.39-0.9-0.89-1.74-1.49-2.52
				c-0.53-0.68-1.15-1.38-1.95-1.74c-1.17-0.53-2.8-0.44-3.19,1.05c-0.24,0.93,0.1,2,0.32,2.91c0.23,0.95,0.45,1.91,0.66,2.86
				c0.12,0.54,0.23,1.07,0.33,1.61c0.04,0.23,0.08,0.45,0.12,0.68c0.02,0.1,0.03,0.21,0.05,0.31c0.05,0.34-0.03-0.32,0,0
				c0.05,0.48,0.02,1,0.19,1.46c0.31,0.84,0.97,1.38,1.86,1.5c1.59,0.21,3.01-1.03,3.72-2.35c0.37-0.69,0.2-1.66-0.54-2.05
				C83.26,419.17,82.3,419.33,81.91,420.07z"/>
			<path class="st7" d="M81.97,407.69c0.49,0.19,0.05,0.01-0.07-0.06c-0.13-0.07-0.25-0.16-0.37-0.24
				c-0.23-0.15,0.26,0.22,0.03,0.02c-0.06-0.05-0.11-0.1-0.17-0.14c-0.13-0.11-0.25-0.23-0.37-0.35c-0.24-0.24-0.47-0.49-0.7-0.74
				c-0.12-0.14-0.23-0.27-0.35-0.41c-0.05-0.06-0.1-0.13-0.15-0.19c-0.21-0.27,0.08,0.11,0,0c-0.35-0.49-0.71-0.97-1.03-1.48
				c-0.11-0.18-0.22-0.35-0.32-0.54c-0.03-0.05-0.06-0.11-0.09-0.17c-0.07-0.11-0.06-0.32,0.11,0.27c-0.09-0.3,0,0.68-0.01,0.74
				c-0.13,0.22-0.26,0.44-0.39,0.66c0,0,0,0,0,0c-0.35,0.15-0.71,0.29-1.06,0.44c0,0,0,0,0,0c-0.25-0.07-0.5-0.14-0.76-0.2
				c0.11,0.06,0.02-0.02-0.28-0.22c0.48,0.43,1.24,0.61,1.82,0.23c0.56-0.36,0.88-1.04,0.69-1.69c-0.01-0.05-0.02-0.09-0.03-0.14
				c-0.06-0.26,0.03,0.16,0.03,0.23c0.01-0.07-0.01-0.16-0.01-0.23c0-0.03,0.01-0.06,0-0.08c-0.03-0.15-0.04,0.28-0.04,0.28
				c0.07-0.32-0.15,0.26-0.07,0.13c0.1-0.15-0.2,0.24-0.17,0.21c0.14-0.14-0.34,0.23-0.2,0.15c0.14-0.08-0.43,0.14-0.22,0.09
				c0.22-0.05-0.44,0.03-0.19,0.03c0.21,0-0.19-0.02-0.2-0.03c0.01,0.01,0.21,0.05,0.23,0.06c0.14,0.04,0.38,0.17,0.12,0.03
				c0.38,0.19,0.75,0.4,1.13,0.59c0.78,0.38,1.59,0.69,2.4,1.01c0.07,0.03,0.14,0.05,0.21,0.08c-0.3-0.15-0.13-0.06-0.05-0.02
				c0.16,0.07,0.33,0.15,0.49,0.23c0.32,0.16,0.63,0.33,0.92,0.53c0.02,0.01,0.3,0.22,0.11,0.07c-0.19-0.15,0.08,0.07,0.1,0.09
				c0.11,0.1,0.21,0.2,0.31,0.3c0.08,0.08,0.15,0.17,0.22,0.25c-0.03-0.04-0.18-0.26-0.02-0.03c0.13,0.19,0.25,0.38,0.35,0.58
				c0.05,0.1,0.1,0.2,0.15,0.29c0.12,0.24,0.02-0.03-0.02-0.04c0.05,0.01,0.12,0.38,0.13,0.43c0.07,0.24-0.01-0.38-0.01-0.04
				c0,0.15-0.07,0.32,0.03-0.15c-0.03,0.14-0.14,0.27,0.08-0.15c-0.14,0.27,0.26-0.26,0.07-0.08c0.07-0.06,0.32-0.2,0.07-0.07
				c-0.2,0.11,0.35-0.1,0.18-0.08c-0.05,0.01-0.09,0.03-0.14,0.04c-0.04,0.01-0.08,0.01-0.12,0.02c-0.23,0.07,0.39-0.02,0.15-0.02
				c-0.26-0.01-0.51,0-0.77-0.02c-0.39-0.03,0.37,0.06-0.08-0.01c-0.13-0.02-0.26-0.05-0.4-0.08
				C82.82,407.97,82.39,407.85,81.97,407.69c-0.74-0.27-1.68,0.31-1.85,1.05c-0.19,0.85,0.26,1.55,1.05,1.85
				c1.05,0.39,2.28,0.68,3.4,0.58c0.88-0.08,1.75-0.38,2.24-1.16c0.46-0.73,0.46-1.64,0.18-2.44c-0.71-2.01-2.21-3.37-4.13-4.19
				c-0.46-0.2-0.93-0.39-1.4-0.57c-0.11-0.04-0.21-0.09-0.32-0.13c-0.06-0.02-0.42-0.18-0.07-0.03c-0.22-0.1-0.44-0.19-0.66-0.3
				c-0.89-0.43-1.76-1.05-2.79-1.05c-1.69,0-2.42,1.68-2,3.13c0.84-0.49,1.67-0.97,2.51-1.46c-0.86-0.76-2.18-0.5-2.54,0.65
				c-0.16,0.5,0.03,0.96,0.25,1.39c0.29,0.56,0.66,1.09,1.03,1.6c1.13,1.58,2.45,3.25,4.31,3.98c0.73,0.29,1.68-0.32,1.85-1.05
				C83.21,408.67,82.75,408,81.97,407.69z"/>
		</g>
	</g>
	<g>
		<g>
			<path class="st6" d="M45.98,366.94c-22.8-13.25-39.66,34.58-19.26,53.18c25.93,3.26,65.06-55.29,22.88-52.32
				C48.32,367.89,47.06,367.57,45.98,366.94z M49.29,380.58c-0.83-0.44-0.81-1.55,0.04-1.96c4.87-2.37,8.92-1.9,11.09-1.32
				c0.94,0.25,1.3,1.3,0.67,1.99C59.39,381.16,55.54,383.9,49.29,380.58z M46.5,387.99c-0.21-0.4,0.17-0.78,0.74-0.71
				c4.09,0.47,7.04,0.73,9.43,2.22c2.42,1.51,0.79,5.01-2,3.97C51.28,392.21,47.79,390.4,46.5,387.99z M43.06,395.29
				c0.08-0.36,0.51-0.86,0.91-0.83c1.63,0.14,3.52,1.56,4.78,3.23c1.42,1.88,2.67,4.04,1.12,5.42c-1.94,1.74-3.45-1.2-4.86-3.08
				C43.84,398.49,42.83,396.31,43.06,395.29z M40.33,403.57c0,0,2.72,4.14,0.91,6.62c-0.5,0.69-0.94,1.12-1.3,1.39
				c-0.58,0.43-1.46,0.08-1.56-0.6C38.03,408.6,37.36,402.22,40.33,403.57z M32.87,375.09c-2.46-1.4-2.24-5.07,2.3-5.03
				c3.46,0.03,4.97,4.85,5.49,7.14c0.3,1.3-1.16,2.71-2.4,2.27C36.43,378.81,34.51,376.02,32.87,375.09z M35.18,384.62
				c-3.1,3.79-14.57,4.4-11.19,0.75c2.6-2.81,8.51-2.14,10.8-1.82C35.35,383.62,35.52,384.2,35.18,384.62z M31.25,402.74
				c0.38,0.13-0.02,1.74-0.12,2.1c-0.4,1.51-1.7,6.44-1.7,7.84c0,1.66-2.46,1.26-3.63-0.83C24.48,409.48,28.69,401.86,31.25,402.74z
				 M23.04,396.95c1.6-3.31,4.8-3.31,8-4.97s2.4,0.83,2.4,0.83c0.47-0.4-2.94,4.88-5.6,5.79C26.32,399.13,21.44,400.26,23.04,396.95
				z"/>
		</g>
		<g>
			<path class="st7" d="M46.74,365.65c-4.99-2.86-10.77-3.36-15.9-0.56c-5.08,2.76-8.64,7.89-10.92,13.07
				c-5.23,11.89-5.84,27.57,1.87,38.58c0.98,1.4,2.08,2.72,3.3,3.92c0.68,0.66,1.21,0.94,2.17,1.03c0.61,0.06,1.21,0.08,1.82,0.07
				c2.5-0.03,5.01-0.53,7.38-1.33c5.48-1.85,10.39-5.11,14.75-8.86c4.54-3.9,8.53-8.48,11.81-13.49c2.89-4.41,5.4-9.38,6.32-14.61
				c0.75-4.28,0.39-8.82-2.5-12.26c-3.34-3.97-9.02-4.97-13.93-5.01C50.83,366.17,48.64,366.68,46.74,365.65
				c-1.7-0.92-3.22,1.67-1.51,2.59c2.39,1.29,4.71,0.95,7.3,0.95c1.61,0,3.24,0.08,4.83,0.37c2.41,0.44,4.82,1.3,6.49,2.84
				c1.49,1.37,2.28,2.92,2.68,4.99c0.17,0.87,0.22,1.98,0.17,3.1c-0.06,1.24-0.21,2.19-0.49,3.42c-1.33,5.76-4.43,11.07-7.95,15.76
				c-3.87,5.17-8.61,9.85-13.98,13.46c-5.14,3.45-11.27,6.25-17.55,5.5c0.35,0.15,0.71,0.29,1.06,0.44
				c-7.69-7.09-9.71-18.28-8.34-28.28c1.17-8.56,5.02-19.01,13.18-23.25c4.11-2.14,8.65-1.57,12.61,0.7
				C46.9,369.2,48.41,366.61,46.74,365.65z"/>
			<path class="st7" d="M50.05,379.29c0.15,0.09,0,0.03-0.04-0.04c0.05,0.08,0.11,0.11,0.15,0.2c0.08,0.22-0.04,0.32-0.12,0.49
				c-0.05,0.11-0.09,0.04,0.05-0.02c0.14-0.06,0.28-0.13,0.42-0.2c0.29-0.13,0.58-0.25,0.88-0.36c1.03-0.38,2.09-0.68,3.17-0.86
				c0.71-0.12,1.73-0.18,2.59-0.16c0.38,0.01,0.76,0.03,1.14,0.07c0.09,0.01,0.18,0.02,0.27,0.03c0.23,0.03-0.24-0.04-0.02,0
				c0.18,0.03,0.36,0.06,0.54,0.09c0.28,0.05,0.57,0.11,0.85,0.19c0.22,0.06,0.06-0.01,0.03-0.01c0.39,0.07,0.03,0.1,0.05,0.02
				c-0.01,0.03-0.1-0.2-0.1-0.2c0.11,0.19-0.01,0.03,0.02-0.14c0.03-0.14,0.17-0.22-0.01-0.04c-0.08,0.09-0.16,0.17-0.25,0.25
				c-0.2,0.19-0.4,0.37-0.61,0.55c-0.28,0.24,0.2-0.13-0.11,0.09c-0.12,0.08-0.24,0.17-0.36,0.25c-0.27,0.18-0.56,0.34-0.85,0.49
				c-0.08,0.04-0.5,0.22-0.2,0.1c-0.16,0.06-0.31,0.12-0.47,0.18c-0.38,0.13-0.77,0.21-1.16,0.3c-0.29,0.06-0.08,0.02-0.02,0.01
				c-0.14,0.02-0.29,0.03-0.43,0.04c-0.22,0.02-0.45,0.02-0.68,0.02c-0.53,0-0.93-0.05-1.31-0.12
				C52.26,380.29,51.13,379.85,50.05,379.29c-0.72-0.37-1.63-0.18-2.05,0.54c-0.39,0.67-0.18,1.68,0.54,2.05
				c2.5,1.3,5.21,2.06,8.03,1.6c1.85-0.3,3.57-1.24,4.95-2.49c0.88-0.8,1.56-1.74,1.33-3c-0.26-1.41-1.47-2.04-2.74-2.31
				c-2.28-0.48-4.61-0.44-6.89,0.02c-0.79,0.16-1.56,0.38-2.32,0.65c-0.83,0.29-1.77,0.61-2.51,1.09c-1.67,1.09-1.49,3.44,0.15,4.43
				C50.19,382.88,51.7,380.29,50.05,379.29z"/>
			<path class="st7" d="M47.95,387.59c-0.01-0.04-0.03-0.07-0.04-0.11c-0.14,0.39-0.29,0.78-0.43,1.17
				c-0.33,0.24-0.53,0.1-0.13,0.13c0.28,0.03,0.55,0.06,0.83,0.1c0.52,0.06,1.04,0.12,1.57,0.18c0.22,0.03,0.44,0.05,0.66,0.08
				c-0.21-0.03,0.05,0.01,0.08,0.01c0.13,0.02,0.26,0.04,0.39,0.06c0.45,0.07,0.89,0.14,1.34,0.23c0.79,0.16,1.57,0.36,2.33,0.64
				c0.1,0.04,0.2,0.08,0.31,0.12c0.21,0.09-0.21-0.1,0,0c0.18,0.08,0.35,0.16,0.52,0.26c0.15,0.08,0.3,0.16,0.45,0.25
				c0.07,0.04,0.14,0.09,0.22,0.14c-0.26-0.16,0.01,0.02,0.07,0.07c0.05,0.05,0.1,0.12,0.16,0.16c-0.2-0.18-0.09-0.14-0.04-0.04
				c0.04,0.07,0.08,0.17,0.13,0.23c0.11,0.14-0.03-0.24-0.04-0.08c0,0.04,0.09,0.21,0.06,0.24c-0.02,0.02,0-0.41-0.02-0.11
				c0,0.05-0.01,0.15,0,0.19c0.05,0.26,0.09-0.29,0.01-0.02c-0.04,0.11-0.08,0.25-0.11,0.36c0.07-0.35,0.01-0.09-0.06,0.06
				c-0.1,0.21,0.03-0.04,0.06-0.08c-0.06,0.05-0.11,0.11-0.16,0.17c-0.04,0.05-0.21,0.15-0.03,0.03c0.21-0.14-0.1,0.03-0.13,0.06
				c-0.12,0.12,0.26-0.05,0.09-0.03c-0.07,0.01-0.17,0.05-0.24,0.07c-0.12,0.04-0.2-0.03,0.09-0.01c-0.07-0.01-0.15,0.01-0.22,0.01
				c-0.08,0-0.15-0.01-0.23-0.01c0.33,0.02,0.12,0.02,0.04-0.01c-0.23-0.08-0.47-0.15-0.7-0.23c-0.93-0.35-1.72-0.69-2.66-1.17
				c-0.5-0.25-0.99-0.53-1.47-0.82c-0.23-0.14-0.46-0.29-0.68-0.44c-0.09-0.06-0.17-0.12-0.26-0.18c-0.23-0.16,0.05,0.05-0.19-0.14
				c-0.36-0.29-0.71-0.61-1.03-0.95c-0.08-0.09-0.15-0.18-0.23-0.26c-0.18-0.2,0.03,0.06-0.06-0.07c-0.14-0.2-0.27-0.4-0.39-0.62
				c-0.39-0.71-1.37-0.94-2.05-0.54c-0.72,0.42-0.93,1.34-0.54,2.05c1.18,2.14,3.39,3.58,5.52,4.65c1.18,0.59,2.42,1.16,3.67,1.56
				c1.04,0.33,2.22,0.24,3.17-0.32c1.89-1.12,2.32-3.72,0.99-5.42c-0.72-0.93-1.81-1.44-2.87-1.87c-0.94-0.38-1.92-0.64-2.91-0.82
				c-1.41-0.27-2.83-0.43-4.25-0.59c-0.83-0.1-1.66-0.3-2.46,0.09c-0.84,0.42-1.39,1.45-1.01,2.37c0.3,0.75,1,1.28,1.85,1.05
				C47.61,389.24,48.25,388.35,47.95,387.59z"/>
			<path class="st7" d="M44.5,395.69c0.07-0.24-0.02,0.04-0.03,0.07c-0.03,0.04-0.07,0.08-0.1,0.11c0.1-0.1,0.11-0.11,0.02-0.04
				c-0.1,0.01-0.21,0.1-0.33,0.11c-0.09,0.01-0.45-0.06-0.16,0.01c0.15,0.04,0.31,0.07,0.46,0.11c0.08,0.02,0.15,0.05,0.23,0.08
				c0.38,0.13-0.26-0.14,0.11,0.04c0.34,0.17,0.67,0.35,0.98,0.57c0.1,0.07,0.19,0.13,0.28,0.2c-0.05-0.04-0.2-0.16,0.03,0.03
				c0.18,0.15,0.36,0.31,0.54,0.47c0.3,0.28,0.58,0.58,0.84,0.9c0.02,0.03,0.21,0.26,0.11,0.13c-0.11-0.13,0.09,0.12,0.11,0.15
				c0.15,0.21,0.3,0.41,0.45,0.63c0.24,0.35,0.46,0.71,0.66,1.08c0.04,0.08,0.08,0.17,0.13,0.25c0.2,0.38-0.04-0.15,0.04,0.08
				c0.07,0.2,0.14,0.4,0.19,0.62c0.01,0.05,0.05,0.31,0.03,0.1c-0.02-0.24,0,0.14,0,0.15c0,0.06,0.01,0.18-0.01,0.23
				c0.01-0.03,0.07-0.35-0.01-0.07c-0.07,0.25,0.01,0.01,0.03-0.04c-0.04,0.07-0.08,0.14-0.11,0.2c-0.15,0.29,0.12-0.07-0.03,0.04
				c-0.08,0.06-0.15,0.15-0.24,0.22c0.25-0.21,0.06-0.05-0.02-0.01c-0.02,0.01-0.03,0.02-0.05,0.03c-0.12,0.06-0.12,0.06,0,0.01
				c0.01-0.08,0.15-0.03-0.04,0c-0.21,0.03,0.4,0,0.09-0.01c-0.22-0.01,0.12,0.06,0.14,0.03c-0.01,0.01-0.17-0.04-0.17-0.04
				c-0.21,0.01,0.06-0.03,0.11,0.06c-0.02-0.03-0.21-0.11-0.24-0.13c0.01,0.01-0.16-0.1-0.16-0.11c0.01-0.02,0.24,0.21,0.07,0.05
				c-0.12-0.11-0.23-0.21-0.35-0.33c-0.12-0.12-0.23-0.25-0.34-0.38c-0.05-0.06-0.1-0.12-0.15-0.18c-0.25-0.31,0.18,0.25-0.06-0.08
				c-0.41-0.57-0.81-1.15-1.23-1.72c-0.55-0.74-1.03-1.53-1.42-2.37c-0.03-0.07-0.14-0.35-0.03-0.06c-0.04-0.1-0.08-0.2-0.11-0.29
				c-0.07-0.18-0.13-0.37-0.17-0.56c-0.02-0.09-0.04-0.18-0.06-0.26c-0.07-0.27-0.01,0.23,0,0.06
				C44.54,395.68,44.6,395.17,44.5,395.69c0.14-0.77-0.21-1.65-1.05-1.85c-0.74-0.17-1.69,0.22-1.85,1.05
				c-0.19,1,0.05,1.98,0.43,2.91c0.42,1.02,0.93,1.99,1.58,2.88c0.6,0.82,1.17,1.67,1.8,2.47c0.52,0.66,1.14,1.33,1.93,1.68
				c1.19,0.54,2.38,0.31,3.39-0.5c0.9-0.73,1.41-1.85,1.33-3.01c-0.09-1.23-0.65-2.36-1.32-3.38c-0.63-0.97-1.35-1.91-2.2-2.69
				c-0.95-0.88-2.04-1.61-3.27-2.03c-0.63-0.21-1.37-0.35-2.01-0.13c-0.81,0.28-1.42,1-1.66,1.81c-0.22,0.75,0.27,1.67,1.05,1.85
				C43.46,396.92,44.27,396.5,44.5,395.69z"/>
			<path class="st7" d="M39.04,404.33c0.15,0.23,0.29,0.48,0.42,0.73c0.12,0.24,0.24,0.48,0.35,0.72c0.05,0.11,0.1,0.36-0.02-0.05
				c0.02,0.08,0.07,0.16,0.1,0.24c0.06,0.17,0.13,0.34,0.18,0.51c0.11,0.33,0.19,0.67,0.26,1.01c0.01,0.03,0.01,0.06,0.02,0.09
				c0.03,0.16,0.02,0.13-0.01-0.11c-0.02,0.07,0.02,0.21,0.03,0.29c0.01,0.21,0.02,0.41,0.01,0.62c0,0.06-0.04,0.18-0.02,0.24
				c0.01-0.07,0.02-0.14,0.03-0.21c-0.01,0.06-0.02,0.12-0.03,0.18c-0.02,0.09-0.19,0.47-0.16,0.54c-0.05-0.13,0.15-0.28,0.01-0.06
				c-0.04,0.07-0.08,0.14-0.12,0.21c-0.06,0.1-0.13,0.2-0.2,0.29c0.15-0.19-0.18,0.21-0.21,0.24c-0.13,0.14-0.26,0.28-0.4,0.42
				c-0.03,0.03-0.22,0.16-0.22,0.19c0.05-0.04,0.11-0.08,0.16-0.13c-0.14,0.08-0.11,0.08,0.09-0.01c-0.31,0.1,0.35,0.01,0.02-0.01
				c0.07,0.01,0.14,0.02,0.21,0.03c-0.15-0.05-0.12-0.03,0.1,0.05c-0.21-0.1,0.05,0.03,0.08,0.07c0.13,0.19,0.15,0.22,0.07,0.08
				c0.08,0.22,0.1,0.25,0.06,0.09c-0.01-0.13-0.07-0.61,0-0.01c-0.01-0.11-0.03-0.22-0.04-0.33c-0.04-0.31-0.07-0.62-0.1-0.92
				c-0.06-0.65-0.1-1.3-0.11-1.96c0-0.31,0-0.62,0.01-0.92c0.01-0.16,0.02-0.32,0.03-0.48c0.01-0.07,0.01-0.13,0.02-0.2
				c0-0.04,0.01-0.08,0.01-0.12c0.02-0.16,0.01-0.1-0.02,0.17c0.06-0.13,0.06-0.35,0.09-0.5c0.03-0.13,0.06-0.26,0.11-0.38
				c0.02-0.06,0.05-0.12,0.06-0.18c-0.07,0.39-0.12,0.26-0.03,0.09c0.03-0.05,0.06-0.09,0.08-0.14c0.11-0.19,0.08,0.05-0.11,0.14
				c0.03-0.01,0.07-0.08,0.1-0.11c0.17-0.15-0.38,0.24-0.11,0.09c0.26-0.15-0.42,0.12-0.05,0.03c0.22-0.05-0.43,0-0.2,0.03
				c0.04,0,0.07,0,0.11,0c0.15,0.01,0.07,0-0.23-0.03c0.1,0.05,0.66,0.24,0.14,0.01c0.72,0.32,1.64,0.23,2.05-0.54
				c0.34-0.65,0.23-1.71-0.54-2.05c-0.91-0.4-1.89-0.58-2.8-0.04c-0.73,0.43-1.16,1.21-1.4,2c-0.45,1.5-0.37,3.19-0.24,4.73
				c0.06,0.76,0.15,1.53,0.27,2.28c0.22,1.45,1.87,2.41,3.25,1.89c0.63-0.24,1.16-0.7,1.6-1.21c0.42-0.47,0.85-0.98,1.11-1.56
				c0.5-1.11,0.56-2.24,0.38-3.44c-0.21-1.43-0.83-2.9-1.62-4.11c-0.43-0.66-1.35-0.99-2.05-0.54
				C38.92,402.7,38.58,403.63,39.04,404.33z"/>
			<path class="st7" d="M33.62,373.79c-0.08-0.05-0.15-0.09-0.23-0.14c-0.23-0.14-0.12,0.02,0.03,0.03
				c-0.11-0.01-0.28-0.28-0.36-0.35c-0.22-0.19,0.18,0.3,0.03,0.05c-0.04-0.07-0.09-0.13-0.13-0.2c-0.04-0.07-0.07-0.14-0.11-0.2
				c-0.13-0.2,0.1,0.37,0.01,0.01c-0.02-0.07-0.04-0.14-0.06-0.21c-0.08-0.26,0.1-0.07,0.01,0.11c0.01-0.03,0.01-0.41,0-0.43
				c0.09,0.14-0.09,0.39-0.01,0.11c0.02-0.07,0.05-0.14,0.06-0.21c0.05-0.26-0.19,0.32-0.04,0.09c0.04-0.07,0.09-0.15,0.13-0.23
				c0.13-0.27-0.04,0.16-0.08,0.09c-0.01-0.01,0.15-0.16,0.16-0.18c0.03-0.03,0.14-0.17,0.18-0.17c-0.11,0-0.28,0.17-0.02,0.03
				c0.08-0.04,0.16-0.1,0.24-0.14c0.03-0.01,0.06-0.03,0.08-0.04c0.15-0.07,0.12-0.06-0.09,0.03c0.06-0.12,0.6-0.19,0.72-0.21
				c0.06-0.01,0.46-0.07,0.08-0.02c0.13-0.02,0.26-0.03,0.39-0.04c0.26-0.02,0.51-0.01,0.77-0.01c0.36,0-0.32-0.08,0.02,0
				c0.1,0.02,0.2,0.04,0.3,0.07c0.03,0.01,0.28,0.07,0.29,0.09c-0.2-0.09-0.23-0.1-0.08-0.03c0.06,0.03,0.12,0.06,0.18,0.09
				c0.15,0.08,0.29,0.17,0.43,0.27c0.29,0.19-0.24-0.22,0.02,0.02c0.07,0.07,0.15,0.14,0.23,0.21c0.15,0.15,0.29,0.3,0.43,0.46
				c0.05,0.06,0.25,0.35,0.03,0.03c0.08,0.12,0.17,0.23,0.25,0.35c0.24,0.37,0.45,0.75,0.65,1.14c0.1,0.2,0.19,0.4,0.27,0.6
				c-0.16-0.37-0.01-0.03,0.01,0.04c0.05,0.13,0.1,0.26,0.15,0.4c0.26,0.71,0.43,1.43,0.64,2.15c0.03,0.11,0.01,0.29,0.02-0.01
				c0,0.12-0.08,0.4,0.02,0.07c-0.02,0.08-0.17,0.39-0.01,0.09c-0.06,0.11-0.12,0.21-0.19,0.31c0.2-0.28-0.04,0.01-0.09,0.06
				c0.23-0.23-0.01,0-0.08,0.05c-0.29,0.21,0.26-0.06-0.07,0.03c-0.17,0.04-0.15,0.04,0.06,0c-0.17,0-0.15,0.01,0.05,0.03
				c-0.11-0.02-0.22-0.06-0.33-0.1c0.35,0.12,0.02,0-0.05-0.04c-0.25-0.14-0.49-0.3-0.72-0.47c0.27,0.2-0.08-0.07-0.11-0.1
				c-0.14-0.12-0.28-0.24-0.41-0.36c-0.24-0.22-0.48-0.45-0.71-0.68C35.64,375.42,34.74,374.45,33.62,373.79
				c-0.68-0.4-1.67-0.18-2.05,0.54c-0.38,0.72-0.18,1.63,0.54,2.05c0.11,0.06,0.22,0.13,0.32,0.2c0.3,0.2-0.09-0.09,0.12,0.09
				c0.25,0.21,0.49,0.42,0.73,0.64c0.51,0.48,1,0.98,1.51,1.47c1,0.96,2.18,2.03,3.61,2.23c1.67,0.22,3.34-1.1,3.7-2.71
				c0.25-1.1-0.16-2.27-0.5-3.31c-0.72-2.17-1.83-4.51-3.87-5.71c-1.24-0.73-2.63-0.81-4.02-0.6c-1.09,0.17-2.22,0.65-2.95,1.51
				c-1.74,2.04-0.82,4.92,1.36,6.2c0.68,0.4,1.67,0.18,2.05-0.54C34.54,375.12,34.35,374.21,33.62,373.79z"/>
			<path class="st7" d="M34.12,383.55c-0.25,0.29-0.52,0.55-0.82,0.79c0.3-0.24-0.07,0.04-0.19,0.12c-0.21,0.14-0.42,0.26-0.64,0.38
				c-0.16,0.09-0.32,0.17-0.49,0.25c-0.1,0.05-0.2,0.09-0.3,0.14c-0.35,0.16,0.3-0.11-0.06,0.02c-0.43,0.16-0.87,0.32-1.31,0.45
				c-0.41,0.12-0.82,0.22-1.24,0.31c-0.19,0.04-0.38,0.08-0.56,0.11c-0.11,0.02-0.22,0.04-0.34,0.06c-0.07,0.01-0.15,0.02-0.22,0.03
				c0.21-0.03,0.24-0.03,0.07-0.01c-0.78,0.07-1.55,0.13-2.33,0.07c-0.09-0.01-0.18-0.02-0.26-0.02c-0.32-0.02,0.37,0.07,0.06,0.01
				c-0.13-0.03-0.26-0.04-0.38-0.08c-0.14-0.03-0.27-0.09-0.41-0.12c-0.24-0.05,0.26,0.17,0.15,0.07c-0.04-0.04-0.13-0.07-0.18-0.1
				c-0.36-0.18,0.21,0.22,0.01,0.01c-0.11-0.11,0.23,0.39,0.07,0.07c0.21,0.43,0.13,0.33,0.09,0.19c0.11,0.48,0.03,0.36,0.04,0.21
				c0.01-0.24-0.07,0.44-0.03,0.2c0.01-0.05,0.03-0.11,0.05-0.16c-0.21,0.53,0.01,0.08,0.07-0.05c0.11-0.24-0.25,0.25-0.04,0.05
				c0.04-0.04,0.08-0.09,0.12-0.13c0.09-0.1,0.18-0.19,0.28-0.28c0.03-0.03,0.36-0.29,0.1-0.1c0.23-0.17,0.47-0.32,0.73-0.45
				c0.1-0.05,0.2-0.1,0.3-0.15c0.38-0.19-0.27,0.08,0.14-0.06c0.26-0.09,0.52-0.18,0.79-0.26c0.23-0.06,0.45-0.12,0.68-0.16
				c0.14-0.03,0.28-0.05,0.42-0.08c0.09-0.02,0.19-0.03,0.28-0.04c-0.16,0.02-0.15,0.02,0.03,0c1.19-0.12,2.38-0.13,3.58-0.05
				c0.48,0.03,0.97,0.08,1.45,0.13c0.21,0.02,0.42,0.04,0.63,0.08c-0.59-0.11-0.09-0.02-0.06-0.01c-0.3-0.18-0.48-0.47-0.54-0.86
				c0.16-0.42,0.17-0.51,0.03-0.27c-0.46,0.67-0.13,1.66,0.54,2.05c0.74,0.43,1.59,0.13,2.05-0.54c0.65-0.95,0.42-2.33-0.56-2.96
				c-0.57-0.37-1.27-0.39-1.93-0.47c-1.13-0.13-2.27-0.21-3.41-0.2c-2.67,0.03-5.83,0.52-7.7,2.63c-0.67,0.76-1.19,1.72-0.92,2.76
				c0.25,0.95,1.07,1.52,1.94,1.83c1.82,0.65,4.08,0.34,5.92-0.04c2.28-0.47,4.89-1.4,6.43-3.24c0.52-0.62,0.61-1.51,0-2.12
				C35.71,383.02,34.64,382.93,34.12,383.55z"/>
			<path class="st7" d="M30.5,404.04c-0.1-0.05-0.74-0.86-0.59-0.92c-0.01,0,0,0.25,0,0.28c-0.01,0.18-0.05,0.26,0,0.02
				c-0.03,0.14-0.05,0.28-0.08,0.42c-0.06,0.3-0.14,0.6-0.22,0.9c-0.23,0.85-0.45,1.71-0.66,2.57c-0.25,1.01-0.49,2.03-0.69,3.05
				c-0.09,0.47-0.17,0.95-0.24,1.43c-0.03,0.21-0.06,0.41-0.07,0.62c-0.01,0.16-0.04,0.57,0.01,0.16c-0.03,0.22-0.06,0.12,0.04-0.05
				c0.1-0.18,0.17-0.2,0.26-0.25c-0.06,0.03,0.35-0.08,0.08-0.04c-0.14,0.03,0.2-0.02,0.2-0.02c-0.01-0.01-0.15,0.01-0.17,0
				c-0.26-0.05,0.31,0.1,0.04,0.01c-0.09-0.03-0.19-0.07-0.29-0.08c0.23,0.05,0.13,0.06-0.03-0.03c-0.12-0.06-0.23-0.14-0.34-0.21
				c-0.14-0.09,0.05,0.04,0.06,0.05c-0.06-0.06-0.13-0.11-0.19-0.17c-0.1-0.09-0.18-0.19-0.27-0.29c-0.17-0.19,0.04,0.09-0.1-0.14
				c-0.06-0.1-0.12-0.24-0.19-0.33c-0.03-0.04,0.11,0.36,0.06,0.12c-0.01-0.06-0.03-0.13-0.05-0.2c-0.08-0.26,0.01,0.2,0.01,0.12
				c0-0.09-0.01-0.18-0.02-0.27c0-0.18,0.01-0.35,0.02-0.53c0.02-0.3-0.03,0.15-0.01,0.05c0.02-0.1,0.04-0.21,0.06-0.32
				c0.09-0.42,0.21-0.84,0.35-1.24c0.07-0.2,0.15-0.4,0.23-0.59c-0.09,0.24-0.05,0.11,0.02-0.04c0.05-0.12,0.11-0.23,0.16-0.35
				c0.21-0.43,0.44-0.85,0.68-1.25c0.13-0.21,0.27-0.42,0.41-0.63c0.07-0.1,0.14-0.2,0.22-0.3c0.15-0.21-0.17,0.2,0.05-0.06
				c0.3-0.35,0.61-0.68,0.95-0.99c0.03-0.03,0.07-0.05,0.1-0.08c0.13-0.12-0.25,0.17-0.1,0.08c0.08-0.05,0.15-0.11,0.23-0.16
				c0.08-0.05,0.15-0.09,0.23-0.13c0.27-0.15,0.05,0.06-0.06,0.02c0.04,0.01,0.21-0.07,0.26-0.08c0.03-0.01,0.07-0.01,0.1-0.02
				c0.09-0.04-0.3,0.01-0.21,0.03c0.03,0.01,0.2,0.02,0.22,0c-0.11,0.07-0.42-0.09-0.1,0.01c0.75,0.24,1.67-0.28,1.85-1.05
				c0.19-0.82-0.25-1.59-1.05-1.85c-2.2-0.7-4.12,1.43-5.24,3.02c-1.25,1.77-2.29,4.03-2.36,6.22c-0.04,1.26,0.47,2.35,1.35,3.25
				c0.95,0.97,2.48,1.73,3.85,1.28c0.76-0.25,1.38-0.85,1.59-1.64c0.08-0.3,0.09-0.6,0.1-0.91c0-0.08,0.01-0.16,0.02-0.24
				c0-0.05,0.01-0.1,0.02-0.15c0.02-0.22,0,0.14-0.02,0.15c0.07-0.04,0.1-0.62,0.12-0.72c0.05-0.27,0.1-0.55,0.16-0.82
				c0.13-0.6,0.26-1.21,0.4-1.81c0.28-1.18,0.58-2.35,0.89-3.53c0.32-1.21,0.89-3.23-0.52-3.98c-0.71-0.38-1.63-0.18-2.05,0.54
				C29.56,402.67,29.78,403.66,30.5,404.04z"/>
			<path class="st7" d="M24.34,397.71c0.14-0.28,0.43-0.77,0.52-0.9c-0.06,0.08,0.2-0.24,0.25-0.29c0.12-0.13,0.26-0.26,0.39-0.38
				c0.05-0.04,0.36-0.28,0.12-0.1c0.14-0.11,0.29-0.21,0.44-0.3c0.27-0.17,0.54-0.31,0.83-0.45c0.05-0.02,0.45-0.21,0.32-0.15
				c-0.13,0.06,0.29-0.12,0.34-0.13c0.31-0.12,0.62-0.24,0.93-0.35c0.76-0.27,1.51-0.56,2.24-0.87c0.36-0.16,0.72-0.32,1.07-0.5
				c0.15-0.08,0.3-0.15,0.46-0.22c-0.24,0.1,0.23-0.07,0.28-0.09c0.05-0.01,0.26-0.09,0.31-0.08c-0.47-0.17-0.09,0.15,0.01,0.03
				c-0.06,0.08-0.41-0.08-0.15,0c-0.27-0.13-0.34-0.15-0.22-0.08c-0.23-0.19-0.3-0.24-0.2-0.14c-0.17-0.17-0.21-0.27-0.26-0.44
				c0.08,0.24-0.09-0.01-0.01-0.19c-0.02,0.05-0.01,0.25,0,0.32c0.01,0.06,0.08-0.46,0-0.1c-0.01,0.04-0.02,0.08-0.03,0.12
				c-0.2,0.63,0.13,1.37,0.69,1.69c0.62,0.36,1.29,0.19,1.82-0.23c-0.34,0.14-0.68,0.28-1.02,0.42c-0.43-0.25-0.86-0.5-1.3-0.74
				c0,0,0,0,0,0c-0.07-0.25-0.14-0.5-0.2-0.76c-0.01-0.2,0.1-0.56,0.17-0.66c-0.03,0.03-0.04,0.08-0.06,0.11
				c-0.08,0.13-0.16,0.26-0.24,0.39c-0.26,0.39-0.53,0.77-0.81,1.15c-0.15,0.21,0.15-0.18-0.07,0.09c-0.08,0.11-0.17,0.21-0.25,0.32
				c-0.21,0.25-0.42,0.5-0.63,0.74c-0.43,0.48-0.87,0.94-1.35,1.36c-0.1,0.09-0.21,0.18-0.32,0.27c-0.21,0.18-0.01,0.01,0.03-0.02
				c-0.06,0.04-0.12,0.09-0.18,0.13c-0.23,0.16-0.47,0.31-0.73,0.44c-0.06,0.03-0.12,0.05-0.18,0.08c0.01,0,0.29-0.09,0.14-0.06
				c-0.08,0.01-0.17,0.06-0.25,0.08c-0.19,0.06-0.37,0.11-0.56,0.16c-0.45,0.12-0.9,0.2-1.35,0.29c-0.27,0.05,0.36-0.03-0.02,0
				c-0.11,0.01-0.22,0.02-0.32,0.03c-0.24,0.02-0.47,0.02-0.71,0.01c-0.06,0-0.11-0.01-0.17-0.01c-0.26-0.01,0.28,0.08,0.12,0.02
				c-0.09-0.03-0.2-0.05-0.29-0.07c-0.27-0.06,0.29,0.18,0.02,0c-0.18-0.12,0.27,0.28,0.06,0.04c0.28,0.32,0.19,0.26,0.13,0.16
				c-0.12-0.21,0.11,0.3,0.07,0.16c-0.08-0.26,0.01,0.39,0.01,0.01c0-0.21-0.03,0.14-0.02,0.15c-0.01-0.02,0.03-0.16,0.04-0.18
				c0.02-0.06,0.05-0.13,0.06-0.2C24.38,397.49,24.18,398.03,24.34,397.71c0.34-0.73,0.21-1.62-0.54-2.05
				c-0.65-0.38-1.71-0.2-2.05,0.54c-0.38,0.82-0.69,1.73-0.42,2.64c0.25,0.83,0.91,1.4,1.71,1.68c1.24,0.43,2.73,0.17,3.98-0.11
				c1.41-0.32,2.58-0.91,3.69-1.86c1.23-1.05,2.27-2.34,3.22-3.64c0.29-0.4,0.59-0.8,0.81-1.24c0.26-0.52,0.35-1.08,0.03-1.62
				c-0.56-0.96-1.65-0.89-2.4-0.28c0.84,0.49,1.67,0.97,2.51,1.46c0.51-1.61-0.45-3.44-2.31-3.28c-0.74,0.06-1.4,0.33-2.06,0.64
				c-0.32,0.15-0.63,0.32-0.95,0.46c-0.05,0.02-0.4,0.17-0.21,0.09c-0.19,0.08-0.38,0.15-0.57,0.22c-1.25,0.48-2.53,0.88-3.72,1.49
				c-1.43,0.75-2.6,1.9-3.32,3.35c-0.36,0.72-0.19,1.62,0.54,2.05C22.95,398.63,23.97,398.43,24.34,397.71z"/>
		</g>
	</g>
	<g>
		<g>
			<path class="st6" d="M76.35,344.94c-50.97-3.59-3.68,67.16,27.65,63.22c24.65-22.47,4.27-80.27-23.28-64.25
				C79.42,344.66,77.89,345.05,76.35,344.94z M62.47,358.82c-0.76-0.83-0.33-2.1,0.81-2.4c2.62-0.7,7.51-1.27,13.4,1.59
				c1.03,0.5,1.05,1.83,0.05,2.37C69.16,364.39,64.52,361.08,62.47,358.82z M70.22,375.95c-3.37,1.25-5.34-2.98-2.42-4.8
				c2.88-1.8,6.46-2.11,11.4-2.68c0.69-0.08,1.16,0.38,0.9,0.86C78.54,372.24,74.31,374.43,70.22,375.95z M81.91,383.88
				c-1.71,2.28-3.53,5.83-5.88,3.72c-1.87-1.67-0.36-4.27,1.35-6.55c1.51-2.01,3.8-3.73,5.77-3.9c0.48-0.04,1,0.57,1.1,1
				C84.52,379.38,83.31,382.02,81.91,383.88z M89.9,397.11c-0.12,0.82-1.18,1.24-1.88,0.73c-0.44-0.32-0.96-0.85-1.57-1.68
				c-2.19-3,1.1-8,1.1-8C91.13,386.52,90.32,394.24,89.9,397.11z M90.05,359.03c-1.5,0.54-3.25-1.17-2.9-2.74
				c0.63-2.76,2.46-8.58,6.63-8.62c5.48-0.05,5.75,4.38,2.78,6.07C94.57,354.87,92.26,358.24,90.05,359.03z M94.24,363.96
				c2.77-0.38,9.9-1.2,13.05,2.2c4.09,4.41-9.77,3.68-13.52-0.9C93.36,364.75,93.56,364.05,94.24,363.96z M105.09,398.16
				c-1.41,2.52-4.39,3-4.39,1c0-1.69-1.56-7.65-2.05-9.47c-0.12-0.43-0.6-2.37-0.14-2.53C101.61,386.09,106.69,395.29,105.09,398.16
				z M102.64,382.16c-3.2-1.1-7.33-7.49-6.76-7c0,0-0.97-3,2.9-1s7.73,2,9.66,6S104.47,382.79,102.64,382.16z"/>
		</g>
		<g>
			<path class="st7" d="M76.35,343.44c-6.49-0.44-13.94-0.02-19.15,4.36c-3.94,3.32-5.21,8.58-4.74,13.54
				c0.59,6.2,3.18,12.12,6.33,17.43c3.66,6.19,8.3,11.85,13.54,16.76c5.1,4.78,10.89,8.98,17.36,11.69
				c2.88,1.21,5.87,2.06,8.98,2.43c1.41,0.16,2.83,0.21,4.25,0.11c1.01-0.07,1.75-0.17,2.52-0.9c0.75-0.71,1.46-1.45,2.13-2.23
				c10.6-12.31,11.06-31.11,5.68-45.79c-2.45-6.68-6.26-13.18-12.09-17.45c-5.29-3.87-11.98-4.79-18.07-2.31
				C80.83,342,78.89,343.54,76.35,343.44c-1.93-0.08-1.93,2.92,0,3c3.78,0.16,6.69-2.48,10.24-3.35c2.34-0.58,4.78-0.59,7.08-0.01
				c4.89,1.24,8.83,4.85,11.68,8.89c7.2,10.21,9.77,24.22,7.45,36.41c-1.35,7.1-4.5,13.79-9.86,18.72c0.35-0.15,0.71-0.29,1.06-0.44
				c-6.52,0.79-12.93-1.61-18.51-4.89c-6.64-3.9-12.44-9.19-17.38-15.06c-4.62-5.5-8.71-11.77-11.06-18.6
				c-1.74-5.06-2.71-10.99-0.04-15.49c1.39-2.34,3.74-4.02,6.45-4.96c4.12-1.44,8.59-1.51,12.89-1.22
				C78.28,346.57,78.27,343.57,76.35,343.44z"/>
			<path class="st7" d="M63.53,357.76c0.07,0.08,0.02,0.13,0.04,0.21c-0.05-0.22,0.12-0.13-0.04-0.04c0.26-0.16,0.68-0.21,1.02-0.28
				c0.89-0.19,1.34-0.24,2.33-0.29c2.36-0.11,4.68,0.27,6.91,1.05c0.64,0.22,1.27,0.47,1.88,0.76c-0.11-0.05,0.42,0.21,0.42,0.21
				c-0.01,0.01-0.08-0.05-0.08-0.05c-0.02,0.04-0.02-0.46,0.08-0.35c0.02,0.02-1.26,0.66-1.45,0.74c-0.62,0.26-1.27,0.48-1.92,0.65
				c-1.96,0.52-3.8,0.51-5.61-0.14c-0.6-0.22-1.42-0.66-2.15-1.17c-0.07-0.05-0.14-0.1-0.21-0.15c0.17,0.13,0.06,0.05-0.04-0.04
				c-0.14-0.12-0.28-0.23-0.41-0.35C64.03,358.29,63.77,358.03,63.53,357.76c-1.31-1.42-3.43,0.7-2.12,2.12
				c1.38,1.5,3.11,2.66,5.05,3.31c2.76,0.93,5.82,0.63,8.51-0.38c1.53-0.58,3.59-1.24,3.94-3.07c0.17-0.89-0.1-1.82-0.74-2.47
				c-0.67-0.68-1.73-1.02-2.6-1.37c-2.9-1.16-6.09-1.73-9.21-1.49c-1.26,0.1-2.65,0.23-3.83,0.7c-2.03,0.82-2.42,3.15-1.11,4.78
				c0.51,0.63,1.59,0.53,2.12,0C64.15,359.26,64.04,358.39,63.53,357.76z"/>
			<path class="st7" d="M69.82,374.51c-0.1,0.03-0.2,0.07-0.3,0.1c0.03-0.01-0.46,0.1-0.24,0.06c0.17-0.03-0.11,0.01-0.15,0.01
				c-0.11,0-0.22,0-0.33-0.01c0.32,0.02-0.11-0.04-0.22-0.07c-0.08-0.02-0.23-0.12,0.02,0.02c-0.1-0.06-0.2-0.12-0.31-0.18
				c0.27,0.16-0.04-0.07-0.13-0.14c-0.18-0.14-0.03-0.03,0.02,0.04c-0.04-0.06-0.09-0.13-0.13-0.19c-0.01-0.01-0.18-0.34-0.08-0.13
				c0.08,0.19-0.01-0.04-0.03-0.09c-0.02-0.07-0.04-0.15-0.06-0.22c-0.09-0.33-0.01,0.05-0.01-0.06c0-0.07,0.04-0.51,0-0.32
				c-0.05,0.27,0.21-0.53,0.03-0.13c0.07-0.15,0.16-0.3,0.25-0.44c-0.16,0.22-0.02,0.03,0.02-0.01c0.11-0.1,0.2-0.2,0.31-0.29
				c-0.15,0.11,0.25-0.14,0.33-0.19c0.2-0.12,0.41-0.23,0.62-0.33c0.45-0.23,0.56-0.27,1.1-0.46c1.95-0.69,4.04-0.97,6.06-1.22
				c0.57-0.07,1.14-0.13,1.7-0.2c0.25-0.03,0.76,0,0.99-0.11c0.03,0,0.06,0,0.09,0c-0.34-0.02-0.51-0.23-0.49-0.63
				c-0.21-0.6-0.08-0.71-0.29-0.42c-0.49,0.69-1.13,1.4-1.91,2.02C74.7,372.52,72.21,373.62,69.82,374.51
				c-0.76,0.28-1.28,1.01-1.05,1.85c0.2,0.73,1.08,1.33,1.85,1.05c2.96-1.1,5.89-2.42,8.34-4.45c0.99-0.82,2.17-1.96,2.58-3.22
				c0.29-0.89-0.02-1.88-0.83-2.38c-0.8-0.5-1.63-0.37-2.52-0.26c-2.8,0.32-5.69,0.56-8.37,1.48c-2.33,0.81-4.98,2.2-4.94,5.03
				c0.04,2.96,3.05,4.73,5.74,3.8c0.76-0.27,1.27-1.03,1.05-1.85C71.46,374.81,70.59,374.24,69.82,374.51z"/>
			<path class="st7" d="M80.61,383.12c-0.52,0.7-1.01,1.43-1.53,2.14c-0.17,0.24-0.07,0.1-0.03,0.04c-0.06,0.08-0.12,0.15-0.18,0.22
				c-0.13,0.16-0.27,0.32-0.41,0.47c-0.13,0.14-0.27,0.28-0.42,0.41c-0.06,0.06-0.12,0.11-0.19,0.16c0.27-0.22-0.03,0.01-0.08,0.04
				c-0.06,0.04-0.13,0.07-0.19,0.11c-0.23,0.13,0.01-0.01,0.06-0.02c-0.06,0.01-0.14,0.04-0.2,0.06c-0.33,0.11,0.25-0.07,0.04-0.01
				c-0.06,0.02-0.28-0.03-0.06,0.01c0.23,0.04-0.02,0-0.07-0.03c-0.19-0.12,0.31,0.21-0.02-0.01c-0.03-0.02-0.32-0.2-0.18-0.1
				c0.17,0.12-0.22-0.2-0.19-0.18c-0.02-0.02-0.2-0.22-0.06-0.04c-0.07-0.09-0.25-0.52-0.17-0.26c-0.03-0.09-0.05-0.17-0.07-0.26
				c0.07,0.28,0,0.02,0-0.08c0-0.09,0-0.19,0.01-0.28c0.01-0.11,0.01-0.09-0.01,0.04c0.01-0.07,0.03-0.15,0.04-0.22
				c0.2-0.9,0.65-1.61,1.21-2.46c0.59-0.88,1.12-1.56,1.91-2.31c0.7-0.66,1.36-1.13,2.28-1.58c0.03-0.01,0.27-0.11,0.06-0.03
				c0.09-0.04,0.19-0.07,0.28-0.1c0.2-0.07,0.41-0.12,0.62-0.17c0.33-0.07,0.08-0.03-0.14-0.06c-0.13-0.02-0.2-0.2-0.05,0.03
				c-0.03-0.04-0.14-0.3-0.1-0.15c0.06,0.22,0.02-0.39,0-0.07c-0.01,0.08,0,0.17,0,0.26c0,0.1-0.06,0.34,0.01,0
				c-0.02,0.1-0.04,0.21-0.06,0.31c-0.05,0.23-0.12,0.45-0.19,0.67c-0.04,0.12-0.09,0.23-0.13,0.35c-0.08,0.22,0,0.02-0.06,0.15
				C81.89,381.22,81.29,382.21,80.61,383.12c-0.48,0.65-0.11,1.68,0.54,2.05c0.76,0.45,1.57,0.11,2.05-0.54
				c0.81-1.09,1.46-2.28,1.98-3.53c0.41-1,0.78-2.18,0.53-3.26c-0.16-0.72-0.62-1.34-1.21-1.76c-0.71-0.5-1.47-0.47-2.29-0.3
				c-1.19,0.26-2.31,0.89-3.28,1.62c-1.2,0.91-2.18,1.97-3.07,3.18c-0.8,1.09-1.54,2.26-1.95,3.56c-0.4,1.29-0.33,2.75,0.49,3.87
				c0.75,1.01,1.93,1.8,3.24,1.71c2.67-0.18,4.15-3.21,5.56-5.1c0.48-0.65,0.11-1.68-0.54-2.05
				C81.9,382.14,81.1,382.47,80.61,383.12z"/>
			<path class="st7" d="M88.46,396.71c-0.04,0.16-0.03,0.15,0.05-0.03c-0.09,0.14-0.07,0.13,0.04-0.04
				c0.16-0.11,0.18-0.12,0.04-0.03c0.19-0.07,0.2-0.08,0.04-0.03c0.19-0.02,0.23-0.02,0.12-0.02c-0.11,0-0.08,0.01,0.11,0.03
				c-0.16-0.05-0.15-0.04,0.03,0.02c-0.15-0.1-0.14-0.09,0.03,0.04c-0.48-0.39-0.93-0.89-1.24-1.34c-0.09-0.13-0.16-0.27-0.24-0.4
				c-0.07-0.15-0.07-0.14,0.01,0.04c-0.03-0.07-0.05-0.14-0.08-0.21c-0.04-0.11-0.07-0.22-0.09-0.33c-0.02-0.09-0.08-0.58-0.05-0.16
				c-0.03-0.27-0.04-0.53-0.03-0.8c0.01-0.15,0.02-0.31,0.03-0.46c0.02-0.31-0.06,0.28,0.02-0.12c0.11-0.54,0.24-1.07,0.43-1.59
				c0.05-0.14,0.1-0.27,0.15-0.4c0.03-0.09,0.17-0.4,0.01-0.02c0.1-0.22,0.19-0.43,0.3-0.65c0.21-0.44,0.45-0.88,0.71-1.29
				c-0.18,0.18-0.36,0.36-0.54,0.54c-0.43,0.19-0.07,0.03,0.03,0c0.05-0.01,0.1-0.03,0.15-0.04c0.16-0.03,0.09-0.02-0.19,0.02
				c0.01,0,0.26-0.01,0.26,0c-0.05,0.11-0.45-0.12-0.11,0c0.23,0.08-0.4-0.2-0.1-0.03c0.23,0.13-0.14,0-0.12-0.1
				c0,0,0.17,0.17,0.17,0.17c-0.07,0.02-0.24-0.36-0.05-0.04c0.05,0.08,0.08,0.16,0.13,0.24c0.12,0.21-0.12-0.39-0.01-0.02
				c0.05,0.18,0.11,0.36,0.15,0.54c0.03,0.11,0.05,0.22,0.07,0.34c0.02,0.11,0.13,0.52,0.01,0.05c0.05,0.22,0.05,0.48,0.07,0.71
				c0.07,1.03,0.03,2.06-0.04,3.09c-0.04,0.47-0.08,0.95-0.13,1.42c-0.03,0.22-0.05,0.45-0.08,0.67c-0.05,0.41,0.04-0.28,0-0.02
				C88.48,396.53,88.47,396.62,88.46,396.71c-0.11,0.77,0.19,1.65,1.05,1.85c0.71,0.16,1.73-0.22,1.85-1.05
				c0.26-1.81,0.47-3.65,0.43-5.49c-0.04-1.78-0.23-4.09-1.86-5.17c-0.87-0.58-1.95-0.5-2.87-0.11c-0.68,0.29-1,0.94-1.32,1.56
				c-1.05,2-1.79,4.28-1.41,6.55c0.25,1.51,1.29,2.9,2.44,3.87c0.76,0.64,1.67,1.02,2.67,0.74c0.93-0.26,1.74-1,1.93-1.96
				c0.16-0.77-0.22-1.66-1.05-1.85C89.55,395.5,88.62,395.89,88.46,396.71z"/>
			<path class="st7" d="M89.65,357.58c-0.08,0.03-0.4,0.2-0.15,0.05c-0.05,0-0.09,0-0.14,0c0.17,0.03,0.17,0.02-0.01-0.02
				c-0.36-0.1,0.15,0.15-0.16-0.07c-0.02-0.01-0.36-0.29-0.16-0.11c-0.01-0.01-0.33-0.35-0.15-0.13c-0.09-0.11-0.16-0.25-0.23-0.37
				c0.12,0.26-0.03-0.15-0.04-0.18c0.08,0.35,0.06-0.4,0-0.06c0.16-0.88,0.45-1.76,0.75-2.6c0.08-0.22,0.16-0.44,0.25-0.66
				c0.02-0.04,0.18-0.44,0.05-0.12c0.05-0.12,0.1-0.24,0.16-0.36c0.24-0.52,0.5-1.03,0.81-1.52c0.14-0.22,0.29-0.44,0.44-0.65
				c-0.2,0.27,0.06-0.07,0.08-0.1c0.08-0.1,0.17-0.19,0.25-0.29c0.17-0.18,0.36-0.35,0.54-0.52c0.29-0.27-0.25,0.15,0.08-0.07
				c0.14-0.09,0.27-0.18,0.41-0.26c0.1-0.06,0.63-0.27,0.3-0.16c0.24-0.08,0.47-0.14,0.71-0.2c0.38-0.09-0.3-0.01,0.1-0.01
				c0.14,0,0.29-0.01,0.43-0.01c0.17,0,0.33,0.01,0.5,0.02c0.06,0,0.65,0.08,0.36,0.03c0.27,0.05,0.54,0.1,0.8,0.19
				c0.12,0.04,0.24,0.08,0.36,0.12c-0.34-0.13,0.01,0.01,0.07,0.04c0.1,0.05,0.19,0.11,0.29,0.17c0.09,0.05,0.32,0.27,0.03,0.01
				c0.07,0.07,0.15,0.13,0.22,0.2c0.09,0.09,0.29,0.42,0.07,0.06c0.08,0.13,0.15,0.26,0.23,0.39c0.16,0.25-0.06-0.32-0.02-0.03
				c0.01,0.08,0.05,0.17,0.07,0.25c0.09,0.33,0.03-0.04,0-0.06c0.02,0.02,0.01,0.23,0.01,0.26c0,0.09-0.01,0.17-0.02,0.26
				c0.01-0.46,0.01-0.1-0.03,0.04c-0.02,0.09-0.06,0.17-0.08,0.26c-0.07,0.3,0.18-0.28,0.01-0.02c-0.1,0.16-0.19,0.32-0.29,0.48
				c-0.16,0.27,0.24-0.21-0.01,0c-0.07,0.06-0.14,0.15-0.21,0.22c-0.07,0.07-0.15,0.13-0.23,0.2c0.3-0.28-0.04,0.02-0.12,0.07
				c-1.23,0.79-2.26,1.73-3.3,2.76c-0.56,0.55-1.12,1.11-1.72,1.62c-0.25,0.21-0.33,0.28-0.69,0.52c-0.12,0.08-0.24,0.15-0.37,0.22
				c-0.08,0.04-0.16,0.09-0.25,0.13C89.81,357.52,89.81,357.52,89.65,357.58c-0.76,0.29-1.28,1.01-1.05,1.85
				c0.2,0.73,1.08,1.34,1.85,1.05c1.6-0.61,2.86-1.78,4.06-2.96c0.58-0.56,1.14-1.14,1.74-1.68c0.13-0.12,0.27-0.24,0.41-0.35
				c0.06-0.05,0.11-0.09,0.17-0.14c-0.19,0.14,0.01,0,0.04-0.02c0.25-0.16,0.52-0.31,0.77-0.49c1.98-1.37,3.09-4.09,1.67-6.27
				c-1.62-2.48-5.48-3-8.02-1.81c-2.52,1.19-3.91,3.98-4.8,6.47c-0.47,1.31-1.08,2.91-0.77,4.31c0.45,2.03,2.7,3.57,4.74,2.93
				c0.77-0.24,1.27-1.05,1.05-1.85C91.29,357.86,90.43,357.34,89.65,357.58z"/>
			<path class="st7" d="M94.63,365.41C94.72,365.39,95.06,365.35,94.63,365.41c0.12-0.02,0.23-0.03,0.34-0.04
				c0.23-0.03,0.45-0.05,0.68-0.08c0.57-0.06,1.15-0.11,1.73-0.14c1.28-0.07,2.56-0.07,3.84,0.05c0.99,0.1,2.51,0.44,3.39,0.87
				c0.52,0.25,0.98,0.55,1.28,0.83c0.17,0.16,0.31,0.34,0.48,0.49c0.24,0.22-0.13-0.26,0,0c0.04,0.08,0.12,0.22,0.18,0.29
				c0.13,0.14-0.04-0.09-0.06-0.15c0.02,0.06,0.06,0.13,0.06,0.19c0.02,0.27-0.03-0.41-0.02-0.16c0.01,0.15-0.07,0.3,0.03-0.17
				c-0.07,0.31,0.2-0.33,0.03-0.05c-0.13,0.21,0.26-0.31,0.09-0.12c-0.23,0.24,0.27-0.12,0.07-0.03c-0.09,0.04-0.22,0.12-0.3,0.17
				c-0.22,0.15,0.35-0.08,0.07-0.03c-0.08,0.01-0.16,0.05-0.24,0.08c-0.14,0.04-0.29,0.08-0.44,0.11c-0.09,0.02-0.19,0.03-0.28,0.05
				c-0.25,0.05,0.33-0.02-0.11,0.01c-0.92,0.07-1.85,0.05-2.77-0.04c-0.13-0.01-0.26-0.03-0.4-0.05c0.06,0.01,0.29,0.04,0,0
				c-0.27-0.04-0.54-0.09-0.81-0.14c-0.55-0.1-1.1-0.23-1.64-0.38c-0.58-0.16-1.16-0.35-1.73-0.57c0.02,0.01-0.4-0.16-0.2-0.08
				c0.14,0.06-0.27-0.12-0.32-0.14c-0.28-0.13-0.56-0.27-0.83-0.42c-0.22-0.12-0.44-0.26-0.65-0.4c-0.1-0.07-0.2-0.14-0.31-0.21
				c-0.14-0.1-0.13-0.1,0.01,0.02c-0.06-0.05-0.12-0.1-0.18-0.15c-0.17-0.15-0.35-0.3-0.51-0.47c-0.03-0.03-0.2-0.25-0.22-0.25
				C95.3,364.25,94.78,365.37,94.63,365.41c1.88-0.44,1.08-3.33-0.8-2.89c-1.2,0.28-2.02,1.48-1.72,2.7
				c0.18,0.74,0.74,1.34,1.3,1.83c0.99,0.86,2.12,1.49,3.33,2c2.4,1.01,5.08,1.58,7.69,1.56c1.88-0.01,4.95-0.43,5.08-2.88
				c0.06-1.1-0.59-2.06-1.34-2.8c-1.18-1.17-2.76-1.9-4.36-2.31c-3.26-0.82-6.69-0.56-9.98-0.11c-0.8,0.11-1.24,1.14-1.05,1.85
				C93.03,365.22,93.83,365.52,94.63,365.41z"/>
			<path class="st7" d="M103.8,397.4c-0.19,0.32-0.24,0.41-0.45,0.65c-0.11,0.12-0.22,0.22-0.33,0.33c0,0-0.19,0.16-0.08,0.07
				c0.09-0.07-0.12,0.08-0.14,0.1c-0.14,0.09-0.28,0.16-0.42,0.24c-0.23,0.13,0.13-0.01-0.11,0.04c-0.11,0.02-0.23,0.06-0.34,0.08
				c0.3-0.07,0.06-0.06-0.08-0.02c-0.08,0.02,0.3,0.06,0.02-0.02c0.04,0.01,0.11,0.05,0.16,0.08c0.17,0.11,0.07,0.04,0.02,0
				c0.07,0.07,0.11,0.18,0.17,0.25c0.1,0.11,0.03,0.1,0,0c-0.04-0.19,0-0.01,0,0.08c-0.01-0.49-0.07-0.97-0.14-1.46
				c-0.34-2.35-0.96-4.66-1.55-6.95c-0.21-0.81-0.45-1.61-0.61-2.43c-0.01-0.07-0.08-0.48-0.06-0.31c0.02,0.17-0.02-0.18-0.02-0.24
				c0-0.05,0-0.12-0.01-0.17c-0.03-0.19,0.06-0.01-0.01,0c0.05-0.01-0.07,0.19,0,0.03c0.01-0.02-1.04,0.94-0.76,0.82
				c0.23-0.1-0.35,0.05-0.11,0.01c0.02,0,0.22-0.01,0.22,0c0,0.02-0.41-0.1-0.09-0.01c0.08,0.02,0.19,0.08,0.27,0.08
				c0.06,0-0.29-0.15-0.04-0.02c0.09,0.05,0.19,0.1,0.28,0.15c0.08,0.05,0.16,0.1,0.24,0.16c0.04,0.03,0.08,0.06,0.12,0.09
				c0.16,0.11-0.21-0.18-0.06-0.05c0.35,0.31,0.69,0.62,1,0.98c0.08,0.09,0.16,0.18,0.23,0.28c0.07,0.08,0.23,0.29,0.07,0.08
				c0.18,0.24,0.35,0.48,0.52,0.73c0.31,0.46,0.59,0.93,0.84,1.42c0.15,0.27,0.28,0.55,0.41,0.83c0.06,0.14,0.13,0.28,0.19,0.42
				c-0.11-0.27,0.06,0.15,0.09,0.24c0.2,0.53,0.38,1.08,0.5,1.64c0.03,0.13,0.06,0.26,0.08,0.39c0.03,0.16,0.04,0.4,0.02,0.08
				c0.01,0.25,0.05,0.5,0.04,0.75c0,0.11-0.02,0.22-0.02,0.32c0,0.24,0.08-0.32-0.01-0.01C103.85,397.22,103.81,397.32,103.8,397.4
				C103.76,397.6,103.96,397.09,103.8,397.4c-0.38,0.71-0.18,1.63,0.54,2.05c0.68,0.4,1.67,0.18,2.05-0.54
				c1.22-2.28,0.09-5.24-0.94-7.37c-1.05-2.18-2.68-4.69-5-5.66c-1.29-0.54-3.15-0.44-3.56,1.19c-0.29,1.19,0.2,2.55,0.5,3.7
				c0.35,1.31,0.68,2.63,0.99,3.95c0.17,0.72,0.33,1.44,0.48,2.17c0.06,0.3,0.12,0.61,0.18,0.91c0.03,0.16,0.06,0.32,0.08,0.47
				c0.02,0.15,0.06,0.49,0.02,0.13c0.08,0.72,0.03,1.47,0.39,2.12c0.46,0.84,1.31,1.29,2.25,1.35c1.94,0.13,3.69-1.41,4.6-2.98
				C107.36,397.24,104.77,395.73,103.8,397.4z"/>
			<path class="st7" d="M103.04,380.71c-0.35-0.12,0.19,0.09-0.02,0c-0.09-0.04-0.18-0.09-0.27-0.13c-0.19-0.1-0.37-0.21-0.55-0.33
				c-0.11-0.07-0.22-0.15-0.33-0.23c-0.09-0.06-0.15-0.11-0.03-0.02c-0.19-0.15-0.37-0.3-0.55-0.46c-0.76-0.68-1.46-1.43-2.11-2.21
				c-0.15-0.18-0.3-0.37-0.45-0.55c-0.07-0.09-0.14-0.18-0.21-0.27c0.13,0.17,0.02,0.03-0.05-0.06c-0.23-0.31-0.46-0.62-0.68-0.94
				c-0.16-0.23-0.32-0.47-0.46-0.71c-0.05-0.08-0.09-0.16-0.14-0.24c-0.01-0.02-0.02-0.07-0.04-0.08c0.13,0.07,0.18,0.6,0.18,0.66
				c-0.07,0.25-0.14,0.5-0.2,0.76c0,0,0,0,0-0.01c-0.43,0.25-0.86,0.5-1.3,0.74c-0.34-0.14-0.68-0.28-1.01-0.41
				c0.53,0.42,1.2,0.6,1.82,0.23c0.56-0.33,0.89-1.06,0.69-1.69c-0.02-0.06-0.03-0.12-0.05-0.18c-0.07-0.31,0.1,0.03,0.01,0.13
				c0.02-0.02-0.01-0.23-0.02-0.27c-0.02-0.29,0-0.03-0.02,0.09c0.06-0.34-0.11,0.18-0.04,0.07c-0.24,0.38-0.21,0.25-0.13,0.17
				c-0.35,0.31-0.26,0.18-0.16,0.13c-0.39,0.2-0.27,0.09-0.14,0.07c0.12-0.03-0.42,0.03-0.07,0.02c0.12-0.01,0.3,0.07-0.03-0.02
				c0.08,0.02,0.16,0.03,0.24,0.05c0.18,0.05,0.43,0.13,0.56,0.18c0.48,0.2,1.05,0.52,1.57,0.75c1.11,0.49,2.25,0.89,3.39,1.31
				c1.78,0.66,3.45,1.45,4.43,3.14c0.08,0.14,0.15,0.28,0.23,0.43c0.03,0.05,0.17,0.39,0.07,0.13c0.06,0.15,0.08,0.33,0.15,0.47
				c0.14,0.32-0.05-0.24,0-0.04c0.02,0.07-0.01,0.16,0,0.23c0-0.03,0.08-0.38,0.02-0.15c-0.08,0.27,0.18-0.31,0.04-0.08
				c-0.11,0.19,0.1-0.12,0.11-0.13c-0.04,0.04-0.22,0.2-0.01,0.03c0.21-0.17,0.01-0.01-0.04,0.01c-0.14,0.07-0.08-0.02,0.14-0.05
				c-0.12,0.02-0.27,0.07-0.38,0.11c-0.1,0.03-0.34,0.03,0.07,0c-0.1,0.01-0.2,0.02-0.3,0.03c-0.36,0.02-0.72,0-1.08-0.03
				c-0.07-0.01-0.15-0.02-0.22-0.02c-0.35-0.03,0.27,0.05-0.05-0.01c-0.2-0.04-0.41-0.07-0.61-0.11
				C104.33,381.09,103.67,380.93,103.04,380.71c-0.77-0.26-1.64,0.3-1.85,1.05c-0.23,0.82,0.28,1.58,1.05,1.85
				c1.52,0.51,3.25,0.91,4.86,0.78c0.94-0.08,1.89-0.32,2.54-1.05c0.79-0.87,0.81-2.12,0.41-3.18c-1.06-2.8-3.34-4.42-6.02-5.49
				c-1.14-0.45-2.39-0.85-3.47-1.31c-1.26-0.55-2.48-1.38-3.9-1.39c-1.93,0-2.76,1.94-2.24,3.59c0.84-0.49,1.67-0.97,2.51-1.46
				c-0.86-0.69-2.22-0.58-2.56,0.64c-0.14,0.53,0.03,0.99,0.28,1.44c0.47,0.85,1.1,1.63,1.69,2.4c1.56,2,3.44,4.14,5.89,5.02
				c0.76,0.27,1.64-0.31,1.85-1.05C104.31,381.72,103.8,380.99,103.04,380.71z"/>
		</g>
	</g>
</g>
<g class="st1">
	<rect x="2.08" y="444.69" class="st8" width="122.85" height="33.7"/>
	<text transform="matrix(1 0 0 1 20.8591 461.7043)" class="st9 st10 st11">Travaux</text>
</g>
<g>
	<g>
		<path class="st12" d="M36.51,461.54c-1.46,0-2.18-0.16-2.18-0.48v-15.55c0-0.54,0.25-0.82,0.74-0.82h4.22
			c2.37,0,4.08,0.49,5.12,1.46s1.57,2.39,1.57,4.25c0,1.54-0.5,2.94-1.49,4.22c-0.5,0.64-1.22,1.15-2.18,1.54s-2.08,0.58-3.36,0.58
			v4.3c0,0.19-0.3,0.32-0.9,0.4C37.46,461.51,36.94,461.54,36.51,461.54z M38.96,448.87v3.79h0.31c0.56,0,1.03-0.18,1.42-0.53
			c0.38-0.35,0.58-0.85,0.58-1.49s-0.13-1.1-0.4-1.37s-0.73-0.41-1.4-0.41H38.96z"/>
		<path class="st12" d="M53.23,461.47c0,0.11-0.73,0.17-2.18,0.17c-1.46-0.03-2.18-0.1-2.18-0.19v-7.97h-0.65
			c-0.26,0-0.46-0.16-0.61-0.47c-0.15-0.31-0.23-0.7-0.23-1.16c0-1.73,0.51-2.59,1.54-2.59c0.72,0,1.32,0.22,1.8,0.66
			c0.48,0.44,0.72,0.94,0.72,1.5c0.34-0.66,0.79-1.18,1.36-1.57c0.57-0.39,1.15-0.59,1.74-0.59c0.93,0,1.49,0.24,1.68,0.72
			c0.05,0.13,0.07,0.32,0.07,0.56s-0.08,0.69-0.23,1.33c-0.15,0.64-0.31,1.1-0.47,1.39c-0.16,0.29-0.26,0.43-0.29,0.43
			c-0.03,0-0.18-0.06-0.44-0.18c-0.26-0.12-0.5-0.18-0.71-0.18c-0.61,0-0.91,0.48-0.91,1.44V461.47z"/>
		<path class="st12" d="M58.53,460.08c-1-1.1-1.5-2.63-1.5-4.58s0.5-3.48,1.5-4.58c1-1.1,2.35-1.66,4.04-1.66
			c1.7,0,3.04,0.55,4.03,1.66c0.99,1.1,1.49,2.63,1.49,4.58s-0.5,3.48-1.49,4.58c-0.99,1.1-2.34,1.66-4.03,1.66
			C60.87,461.73,59.53,461.18,58.53,460.08z M62.58,453.26c-0.9,0-1.36,0.74-1.36,2.21c0,1.47,0.45,2.21,1.36,2.21
			c0.9,0,1.36-0.74,1.36-2.21C63.94,454,63.49,453.26,62.58,453.26z"/>
		<path class="st12" d="M70.73,452.69h-1.18c-0.24,0-0.36-0.53-0.36-1.6c0-1.06,0.12-1.6,0.36-1.6h1.18v-0.53
			c0-1.7,0.36-2.87,1.07-3.52c0.71-0.65,1.71-0.97,2.99-0.97c1.28,0,2.41,0.23,3.38,0.7c0.13,0.05,0.19,0.22,0.19,0.52
			s-0.14,0.77-0.41,1.43c-0.27,0.66-0.5,1.03-0.7,1.13c-0.54-0.34-1.1-0.5-1.68-0.5c-0.62,0-0.94,0.42-0.94,1.25v0.5h1.99
			c0.29,0,0.43,0.51,0.43,1.54c0,1.12-0.18,1.68-0.55,1.68h-1.54v8.5c0,0.19-0.71,0.29-2.12,0.29s-2.12-0.1-2.12-0.29V452.69z"/>
		<path class="st12" d="M83.19,448.15c0,0.11-0.73,0.17-2.2,0.17c-1.46,0-2.2-0.05-2.2-0.14v-3.46c0-0.16,0.73-0.24,2.2-0.24
			c1.46,0,2.2,0.05,2.2,0.14V448.15z M83.19,461.35c0,0.13-0.73,0.19-2.2,0.19c-1.46,0-2.2-0.06-2.2-0.17v-11.78
			c0-0.11,0.73-0.17,2.2-0.17c1.46,0,2.2,0.05,2.2,0.14V461.35z"/>
		<path class="st12" d="M89.71,461.3c0,0.14-0.82,0.22-2.45,0.22c-1.28-0.02-1.92-0.08-1.92-0.19v-16.34c0-0.24,0.78-0.36,2.33-0.36
			c1.36,0.05,2.04,0.13,2.04,0.24V461.3z"/>
	</g>
</g>
</svg>
